<svg width="374" height="76" viewBox="0 0 374 76" fill="none" xmlns="http://www.w3.org/2000/svg">
<g filter="url(#filter0_d_12_7)">
<rect width="374" height="72" rx="36" fill="#BB1F2B"/>
<path d="M100.911 18.1152H103.82L106.826 24.8037L109.393 18.1152H112.108L107.758 27.9062C107.283 28.9668 106.8 29.7754 106.308 30.332C105.815 30.8828 105.18 31.1582 104.4 31.1582C103.633 31.1582 103.032 31.1084 102.599 31.0088V29.0752C102.968 29.0986 103.302 29.1104 103.601 29.1104C104.204 29.1104 104.635 29.002 104.893 28.7852C105.156 28.5625 105.408 28.0879 105.648 27.3613L100.911 18.1152ZM115.018 27.168V25.5596C115.445 25.5596 115.756 25.5332 115.949 25.4805C116.143 25.4219 116.324 25.2871 116.494 25.0762C116.67 24.8594 116.758 24.6133 116.758 24.3379C116.758 24.0449 116.649 23.7754 116.433 23.5293C116.222 23.2773 115.902 23.1514 115.475 23.1514C115.146 23.1514 114.854 23.2217 114.596 23.3623C114.338 23.5029 114.104 23.8369 113.893 24.3643L111.801 23.916C112.012 23.0957 112.463 22.4805 113.154 22.0703C113.846 21.6602 114.634 21.4551 115.519 21.4551C116.644 21.4551 117.514 21.7129 118.129 22.2285C118.75 22.7441 119.061 23.3916 119.061 24.1709C119.061 24.6572 118.926 25.0615 118.656 25.3838C118.393 25.7002 117.974 25.9961 117.399 26.2715C118.091 26.459 118.606 26.7432 118.946 27.124C119.292 27.5049 119.465 27.9795 119.465 28.5479C119.465 29.2744 119.125 29.9014 118.445 30.4287C117.766 30.9502 116.787 31.2109 115.51 31.2109C113.283 31.2109 111.921 30.3408 111.423 28.6006L113.682 28.1875C114.045 29.1016 114.646 29.5586 115.483 29.5586C115.946 29.5586 116.315 29.4385 116.591 29.1982C116.872 28.9521 117.013 28.665 117.013 28.3369C117.013 27.9736 116.866 27.6895 116.573 27.4844C116.286 27.2734 115.908 27.168 115.439 27.168H115.018ZM121.354 21.666H123.824V25.085H127.357V21.666H129.836V31H127.357V27.0801H123.824V31H121.354V21.666ZM134.178 24.5137L131.937 24.1094C132.188 23.207 132.622 22.5391 133.237 22.1055C133.853 21.6719 134.767 21.4551 135.979 21.4551C137.081 21.4551 137.901 21.5869 138.44 21.8506C138.979 22.1084 139.357 22.4395 139.574 22.8438C139.797 23.2422 139.908 23.9775 139.908 25.0498L139.882 27.9326C139.882 28.7529 139.92 29.3594 139.996 29.752C140.078 30.1387 140.228 30.5547 140.444 31H138.001C137.937 30.8359 137.857 30.5928 137.764 30.2705C137.723 30.124 137.693 30.0273 137.676 29.9805C137.254 30.3906 136.803 30.6982 136.322 30.9033C135.842 31.1084 135.329 31.2109 134.784 31.2109C133.823 31.2109 133.064 30.9502 132.508 30.4287C131.957 29.9072 131.682 29.248 131.682 28.4512C131.682 27.9238 131.808 27.4551 132.06 27.0449C132.312 26.6289 132.663 26.3125 133.114 26.0957C133.571 25.873 134.228 25.6797 135.083 25.5156C136.237 25.2988 137.037 25.0967 137.482 24.9092V24.6631C137.482 24.1885 137.365 23.8516 137.131 23.6523C136.896 23.4473 136.454 23.3447 135.804 23.3447C135.364 23.3447 135.021 23.4326 134.775 23.6084C134.529 23.7783 134.33 24.0801 134.178 24.5137ZM137.482 26.5176C137.166 26.623 136.665 26.749 135.979 26.8955C135.294 27.042 134.846 27.1855 134.635 27.3262C134.312 27.5547 134.151 27.8447 134.151 28.1963C134.151 28.542 134.28 28.8408 134.538 29.0928C134.796 29.3447 135.124 29.4707 135.522 29.4707C135.968 29.4707 136.393 29.3242 136.797 29.0312C137.096 28.8086 137.292 28.5361 137.386 28.2139C137.45 28.0029 137.482 27.6016 137.482 27.0098V26.5176ZM141.244 21.666H149.69V23.6611H146.702V31H144.232V23.6611H141.244V21.666ZM151.229 21.666H153.698V25.542H156.177C157.149 25.542 157.896 25.6123 158.418 25.7529C158.939 25.8936 159.373 26.1982 159.719 26.667C160.064 27.1299 160.237 27.6689 160.237 28.2842C160.237 29.1865 159.927 29.8662 159.306 30.3232C158.69 30.7744 157.765 31 156.528 31H151.229V21.666ZM153.698 29.4355H156.001C156.722 29.4355 157.182 29.3184 157.381 29.084C157.586 28.8496 157.688 28.5713 157.688 28.249C157.688 27.7979 157.513 27.4873 157.161 27.3174C156.815 27.1475 156.197 27.0625 155.307 27.0625H153.698V29.4355ZM174.265 17.8164H175.943C175.891 18.5605 175.694 19.126 175.354 19.5127C175.021 19.8936 174.191 20.084 172.867 20.084C172.709 20.084 172.551 20.0811 172.393 20.0752H172.076C171.291 20.0752 170.652 20.1631 170.16 20.3389C169.668 20.5088 169.264 20.8428 168.947 21.3408C168.637 21.8389 168.476 22.6416 168.464 23.749C168.827 23.0635 169.296 22.5508 169.87 22.2109C170.45 21.8711 171.139 21.7012 171.936 21.7012C173.16 21.7012 174.197 22.1787 175.047 23.1338C175.896 24.083 176.321 25.1846 176.321 26.4385C176.321 27.7451 175.873 28.8672 174.977 29.8047C174.086 30.7422 172.92 31.2109 171.479 31.2109C170.488 31.2109 169.618 30.9736 168.868 30.499C168.118 30.0244 167.582 29.377 167.26 28.5566C166.938 27.7305 166.776 26.3652 166.776 24.4609C166.776 22.2227 167.187 20.6143 168.007 19.6357C168.833 18.6572 170.271 18.168 172.322 18.168H173.57C173.916 18.168 174.147 18.0508 174.265 17.8164ZM169.29 26.4033C169.29 27.2529 169.501 27.9268 169.923 28.4248C170.351 28.917 170.872 29.1631 171.487 29.1631C172.149 29.1631 172.691 28.9082 173.113 28.3984C173.541 27.8828 173.755 27.2207 173.755 26.4121C173.755 25.5859 173.538 24.9209 173.104 24.417C172.677 23.9072 172.146 23.6523 171.514 23.6523C170.898 23.6523 170.374 23.9014 169.94 24.3994C169.507 24.8975 169.29 25.5654 169.29 26.4033ZM177.815 26.2012C177.815 25.3809 178.018 24.5869 178.422 23.8193C178.826 23.0518 179.397 22.4658 180.136 22.0615C180.88 21.6572 181.709 21.4551 182.623 21.4551C184.035 21.4551 185.192 21.915 186.095 22.835C186.997 23.749 187.448 24.9062 187.448 26.3066C187.448 27.7188 186.991 28.8906 186.077 29.8223C185.169 30.748 184.023 31.2109 182.641 31.2109C181.785 31.2109 180.968 31.0176 180.188 30.6309C179.415 30.2441 178.826 29.6787 178.422 28.9346C178.018 28.1846 177.815 27.2734 177.815 26.2012ZM180.347 26.333C180.347 27.2588 180.566 27.9678 181.006 28.46C181.445 28.9521 181.987 29.1982 182.632 29.1982C183.276 29.1982 183.815 28.9521 184.249 28.46C184.688 27.9678 184.908 27.2529 184.908 26.3154C184.908 25.4014 184.688 24.6982 184.249 24.2061C183.815 23.7139 183.276 23.4678 182.632 23.4678C181.987 23.4678 181.445 23.7139 181.006 24.2061C180.566 24.6982 180.347 25.4072 180.347 26.333ZM189.602 21.666H197.872V31H195.411V23.6699H192.045V27.8623C192.045 28.9287 191.922 29.6787 191.676 30.1123C191.43 30.54 191.157 30.8213 190.858 30.9561C190.56 31.0908 190.079 31.1582 189.417 31.1582C189.024 31.1582 188.506 31.1055 187.861 31V29.1807C187.914 29.1807 188.052 29.1865 188.274 29.1982C188.532 29.2158 188.731 29.2246 188.872 29.2246C189.206 29.2246 189.411 29.1162 189.487 28.8994C189.563 28.6768 189.602 28.0645 189.602 27.0625V21.666ZM200.43 21.666H202.899V25.542H205.378C206.351 25.542 207.098 25.6123 207.619 25.7529C208.141 25.8936 208.574 26.1982 208.92 26.667C209.266 27.1299 209.438 27.6689 209.438 28.2842C209.438 29.1865 209.128 29.8662 208.507 30.3232C207.892 30.7744 206.966 31 205.729 31H200.43V21.666ZM202.899 29.4355H205.202C205.923 29.4355 206.383 29.3184 206.582 29.084C206.787 28.8496 206.89 28.5713 206.89 28.249C206.89 27.7979 206.714 27.4873 206.362 27.3174C206.017 27.1475 205.398 27.0625 204.508 27.0625H202.899V29.4355ZM211.39 21.666H213.657V29.0049H216.522V21.666H218.799V29.0049H221.655V21.666H223.932V31H211.39V21.666ZM231.868 28.0293L234.329 28.4424C234.013 29.3447 233.512 30.0332 232.826 30.5078C232.146 30.9766 231.294 31.2109 230.269 31.2109C228.646 31.2109 227.444 30.6807 226.665 29.6201C226.05 28.7705 225.742 27.6982 225.742 26.4033C225.742 24.8564 226.146 23.6465 226.955 22.7734C227.764 21.8945 228.786 21.4551 230.022 21.4551C231.411 21.4551 232.507 21.915 233.31 22.835C234.112 23.749 234.496 25.1523 234.461 27.0449H228.273C228.291 27.7773 228.49 28.3486 228.871 28.7588C229.252 29.1631 229.727 29.3652 230.295 29.3652C230.682 29.3652 231.007 29.2598 231.271 29.0488C231.534 28.8379 231.733 28.498 231.868 28.0293ZM232.009 25.5332C231.991 24.8184 231.807 24.2764 231.455 23.9072C231.104 23.5322 230.676 23.3447 230.172 23.3447C229.633 23.3447 229.188 23.541 228.836 23.9336C228.484 24.3262 228.312 24.8594 228.317 25.5332H232.009ZM241.396 21.666H249.684V31H247.214V23.6611H243.865V31H241.396V21.666ZM252.303 21.666H254.605V23.0371C254.904 22.5684 255.309 22.1875 255.818 21.8945C256.328 21.6016 256.894 21.4551 257.515 21.4551C258.599 21.4551 259.519 21.8799 260.274 22.7295C261.03 23.5791 261.408 24.7627 261.408 26.2803C261.408 27.8389 261.027 29.0518 260.266 29.9189C259.504 30.7803 258.581 31.2109 257.497 31.2109C256.981 31.2109 256.513 31.1084 256.091 30.9033C255.675 30.6982 255.235 30.3467 254.772 29.8486V34.5508H252.303V21.666ZM254.746 26.1748C254.746 27.2236 254.954 28 255.37 28.5039C255.786 29.002 256.293 29.251 256.891 29.251C257.465 29.251 257.942 29.0225 258.323 28.5654C258.704 28.1025 258.895 27.3467 258.895 26.2979C258.895 25.3193 258.698 24.5928 258.306 24.1182C257.913 23.6436 257.427 23.4062 256.847 23.4062C256.243 23.4062 255.742 23.6406 255.344 24.1094C254.945 24.5723 254.746 25.2607 254.746 26.1748ZM262.806 26.2012C262.806 25.3809 263.008 24.5869 263.412 23.8193C263.816 23.0518 264.388 22.4658 265.126 22.0615C265.87 21.6572 266.699 21.4551 267.613 21.4551C269.025 21.4551 270.183 21.915 271.085 22.835C271.987 23.749 272.438 24.9062 272.438 26.3066C272.438 27.7188 271.981 28.8906 271.067 29.8223C270.159 30.748 269.014 31.2109 267.631 31.2109C266.775 31.2109 265.958 31.0176 265.179 30.6309C264.405 30.2441 263.816 29.6787 263.412 28.9346C263.008 28.1846 262.806 27.2734 262.806 26.2012ZM265.337 26.333C265.337 27.2588 265.557 27.9678 265.996 28.46C266.436 28.9521 266.978 29.1982 267.622 29.1982C268.267 29.1982 268.806 28.9521 269.239 28.46C269.679 27.9678 269.898 27.2529 269.898 26.3154C269.898 25.4014 269.679 24.6982 269.239 24.2061C268.806 23.7139 268.267 23.4678 267.622 23.4678C266.978 23.4678 266.436 23.7139 265.996 24.2061C265.557 24.6982 265.337 25.4072 265.337 26.333ZM61.2461 44.666H63.707V48.4805C64.1172 48.4336 64.4072 48.3076 64.5771 48.1025C64.7471 47.8975 64.9521 47.4492 65.1924 46.7578C65.5088 45.8379 65.8545 45.249 66.2295 44.9912C66.6045 44.7334 67.0967 44.6045 67.7061 44.6045C67.8936 44.6045 68.2188 44.6191 68.6816 44.6484L68.6904 46.2832C68.04 46.2832 67.624 46.3447 67.4424 46.4678C67.2607 46.5967 67.0645 46.9805 66.8535 47.6191C66.5664 48.4805 66.1533 49.0107 65.6143 49.21C66.3936 49.4268 67.0527 50.1035 67.5918 51.2402C67.6211 51.2988 67.6533 51.3604 67.6885 51.4248L69.0684 54H66.4141L65.1836 51.3018C64.9316 50.7568 64.7119 50.4082 64.5244 50.2559C64.3428 50.0977 64.0703 50.0186 63.707 50.0186V54H61.2461V44.666ZM69.543 49.2012C69.543 48.3809 69.7451 47.5869 70.1494 46.8193C70.5537 46.0518 71.125 45.4658 71.8633 45.0615C72.6074 44.6572 73.4365 44.4551 74.3506 44.4551C75.7627 44.4551 76.9199 44.915 77.8223 45.835C78.7246 46.749 79.1758 47.9062 79.1758 49.3066C79.1758 50.7188 78.7188 51.8906 77.8047 52.8223C76.8965 53.748 75.751 54.2109 74.3682 54.2109C73.5127 54.2109 72.6953 54.0176 71.916 53.6309C71.1426 53.2441 70.5537 52.6787 70.1494 51.9346C69.7451 51.1846 69.543 50.2734 69.543 49.2012ZM72.0742 49.333C72.0742 50.2588 72.2939 50.9678 72.7334 51.46C73.1729 51.9521 73.7148 52.1982 74.3594 52.1982C75.0039 52.1982 75.543 51.9521 75.9766 51.46C76.416 50.9678 76.6357 50.2529 76.6357 49.3154C76.6357 48.4014 76.416 47.6982 75.9766 47.2061C75.543 46.7139 75.0039 46.4678 74.3594 46.4678C73.7148 46.4678 73.1729 46.7139 72.7334 47.2061C72.2939 47.6982 72.0742 48.4072 72.0742 49.333ZM80.9424 44.666H84.001L86.3213 51.1699L88.6592 44.666H91.709V54H89.6084V47.8564L87.332 54H85.2227L83.0518 47.8564V54H80.9424V44.666ZM93.3789 49.2012C93.3789 48.3809 93.5811 47.5869 93.9854 46.8193C94.3896 46.0518 94.9609 45.4658 95.6992 45.0615C96.4434 44.6572 97.2725 44.4551 98.1865 44.4551C99.5986 44.4551 100.756 44.915 101.658 45.835C102.561 46.749 103.012 47.9062 103.012 49.3066C103.012 50.7188 102.555 51.8906 101.641 52.8223C100.732 53.748 99.5869 54.2109 98.2041 54.2109C97.3486 54.2109 96.5312 54.0176 95.752 53.6309C94.9785 53.2441 94.3896 52.6787 93.9854 51.9346C93.5811 51.1846 93.3789 50.2734 93.3789 49.2012ZM95.9102 49.333C95.9102 50.2588 96.1299 50.9678 96.5693 51.46C97.0088 51.9521 97.5508 52.1982 98.1953 52.1982C98.8398 52.1982 99.3789 51.9521 99.8125 51.46C100.252 50.9678 100.472 50.2529 100.472 49.3154C100.472 48.4014 100.252 47.6982 99.8125 47.2061C99.3789 46.7139 98.8398 46.4678 98.1953 46.4678C97.5508 46.4678 97.0088 46.7139 96.5693 47.2061C96.1299 47.6982 95.9102 48.4072 95.9102 49.333ZM104.884 44.666H107.187V46.0371C107.485 45.5684 107.89 45.1875 108.399 44.8945C108.909 44.6016 109.475 44.4551 110.096 44.4551C111.18 44.4551 112.1 44.8799 112.855 45.7295C113.611 46.5791 113.989 47.7627 113.989 49.2803C113.989 50.8389 113.608 52.0518 112.847 52.9189C112.085 53.7803 111.162 54.2109 110.078 54.2109C109.562 54.2109 109.094 54.1084 108.672 53.9033C108.256 53.6982 107.816 53.3467 107.354 52.8486V57.5508H104.884V44.666ZM107.327 49.1748C107.327 50.2236 107.535 51 107.951 51.5039C108.367 52.002 108.874 52.251 109.472 52.251C110.046 52.251 110.523 52.0225 110.904 51.5654C111.285 51.1025 111.476 50.3467 111.476 49.2979C111.476 48.3193 111.279 47.5928 110.887 47.1182C110.494 46.6436 110.008 46.4062 109.428 46.4062C108.824 46.4062 108.323 46.6406 107.925 47.1094C107.526 47.5723 107.327 48.2607 107.327 49.1748ZM122.963 40.8164H124.642C124.589 41.5605 124.393 42.126 124.053 42.5127C123.719 42.8936 122.89 43.084 121.565 43.084C121.407 43.084 121.249 43.0811 121.091 43.0752H120.774C119.989 43.0752 119.351 43.1631 118.858 43.3389C118.366 43.5088 117.962 43.8428 117.646 44.3408C117.335 44.8389 117.174 45.6416 117.162 46.749C117.525 46.0635 117.994 45.5508 118.568 45.2109C119.148 44.8711 119.837 44.7012 120.634 44.7012C121.858 44.7012 122.896 45.1787 123.745 46.1338C124.595 47.083 125.02 48.1846 125.02 49.4385C125.02 50.7451 124.571 51.8672 123.675 52.8047C122.784 53.7422 121.618 54.2109 120.177 54.2109C119.187 54.2109 118.316 53.9736 117.566 53.499C116.816 53.0244 116.28 52.377 115.958 51.5566C115.636 50.7305 115.475 49.3652 115.475 47.4609C115.475 45.2227 115.885 43.6143 116.705 42.6357C117.531 41.6572 118.97 41.168 121.021 41.168H122.269C122.614 41.168 122.846 41.0508 122.963 40.8164ZM117.988 49.4033C117.988 50.2529 118.199 50.9268 118.621 51.4248C119.049 51.917 119.57 52.1631 120.186 52.1631C120.848 52.1631 121.39 51.9082 121.812 51.3984C122.239 50.8828 122.453 50.2207 122.453 49.4121C122.453 48.5859 122.236 47.9209 121.803 47.417C121.375 46.9072 120.845 46.6523 120.212 46.6523C119.597 46.6523 119.072 46.9014 118.639 47.3994C118.205 47.8975 117.988 48.5654 117.988 49.4033ZM127.023 44.666H129.396V50.5283L133.193 44.666H135.619V54H133.246V48.0322L129.396 54H127.023V44.666ZM145.876 54H138.81V56.4609H136.806V51.9785H137.816C138.238 51.5098 138.587 50.7773 138.862 49.7812C139.138 48.7852 139.302 47.0801 139.354 44.666H146.887V51.9785H147.889V56.4609H145.876V54ZM144.443 51.9785L144.452 46.6963H141.464C141.364 49.2744 140.954 51.0352 140.233 51.9785H144.443ZM149.488 44.666H151.958V48.085H155.491V44.666H157.97V54H155.491V50.0801H151.958V54H149.488V44.666ZM159.895 49.2012C159.895 48.3809 160.097 47.5869 160.501 46.8193C160.905 46.0518 161.477 45.4658 162.215 45.0615C162.959 44.6572 163.788 44.4551 164.702 44.4551C166.114 44.4551 167.271 44.915 168.174 45.835C169.076 46.749 169.527 47.9062 169.527 49.3066C169.527 50.7188 169.07 51.8906 168.156 52.8223C167.248 53.748 166.103 54.2109 164.72 54.2109C163.864 54.2109 163.047 54.0176 162.268 53.6309C161.494 53.2441 160.905 52.6787 160.501 51.9346C160.097 51.1846 159.895 50.2734 159.895 49.2012ZM162.426 49.333C162.426 50.2588 162.646 50.9678 163.085 51.46C163.524 51.9521 164.066 52.1982 164.711 52.1982C165.355 52.1982 165.895 51.9521 166.328 51.46C166.768 50.9678 166.987 50.2529 166.987 49.3154C166.987 48.4014 166.768 47.6982 166.328 47.2061C165.895 46.7139 165.355 46.4678 164.711 46.4678C164.066 46.4678 163.524 46.7139 163.085 47.2061C162.646 47.6982 162.426 48.4072 162.426 49.333ZM179.362 47.4258L176.928 47.8652C176.846 47.3789 176.658 47.0127 176.365 46.7666C176.078 46.5205 175.703 46.3975 175.24 46.3975C174.625 46.3975 174.133 46.6113 173.764 47.0391C173.4 47.4609 173.219 48.1699 173.219 49.166C173.219 50.2734 173.403 51.0557 173.772 51.5127C174.147 51.9697 174.648 52.1982 175.275 52.1982C175.744 52.1982 176.128 52.0664 176.427 51.8027C176.726 51.5332 176.937 51.0732 177.06 50.4229L179.485 50.8359C179.233 51.9492 178.75 52.79 178.035 53.3584C177.32 53.9268 176.362 54.2109 175.161 54.2109C173.796 54.2109 172.706 53.7803 171.892 52.9189C171.083 52.0576 170.679 50.8652 170.679 49.3418C170.679 47.8008 171.086 46.6025 171.9 45.7471C172.715 44.8857 173.816 44.4551 175.205 44.4551C176.342 44.4551 177.244 44.7012 177.912 45.1934C178.586 45.6797 179.069 46.4238 179.362 47.4258ZM180.136 44.666H188.582V46.6611H185.594V54H183.124V46.6611H180.136V44.666ZM190.12 44.666H192.59V48.542H195.068C196.041 48.542 196.788 48.6123 197.31 48.7529C197.831 48.8936 198.265 49.1982 198.61 49.667C198.956 50.1299 199.129 50.6689 199.129 51.2842C199.129 52.1865 198.818 52.8662 198.197 53.3232C197.582 53.7744 196.656 54 195.42 54H190.12V44.666ZM192.59 52.4355H194.893C195.613 52.4355 196.073 52.3184 196.272 52.084C196.478 51.8496 196.58 51.5713 196.58 51.249C196.58 50.7979 196.404 50.4873 196.053 50.3174C195.707 50.1475 195.089 50.0625 194.198 50.0625H192.59V52.4355ZM204.859 54L209.263 47.2764L205.272 41.1152H208.313L210.897 45.2549L213.429 41.1152H216.443L212.436 47.373L216.839 54H213.701L210.845 49.5439L207.979 54H204.859ZM225.733 49.2627L228.256 50.0625C227.869 51.4688 227.225 52.5146 226.322 53.2002C225.426 53.8799 224.286 54.2197 222.903 54.2197C221.192 54.2197 219.786 53.6367 218.685 52.4707C217.583 51.2988 217.032 49.6992 217.032 47.6719C217.032 45.5273 217.586 43.8633 218.693 42.6797C219.801 41.4902 221.257 40.8955 223.062 40.8955C224.638 40.8955 225.918 41.3613 226.902 42.293C227.488 42.8438 227.928 43.6348 228.221 44.666L225.646 45.2812C225.493 44.6133 225.174 44.0859 224.688 43.6992C224.207 43.3125 223.621 43.1191 222.93 43.1191C221.975 43.1191 221.198 43.4619 220.601 44.1475C220.009 44.833 219.713 45.9434 219.713 47.4785C219.713 49.1074 220.006 50.2676 220.592 50.959C221.178 51.6504 221.939 51.9961 222.877 51.9961C223.568 51.9961 224.163 51.7764 224.661 51.3369C225.159 50.8975 225.517 50.2061 225.733 49.2627ZM230.506 54V41.1152H233.107V46.1865H238.205V41.1152H240.807V54H238.205V48.3662H233.107V54H230.506ZM248.436 44.666H250.809V50.5283L254.605 44.666H257.031V54H254.658V48.0322L250.809 54H248.436V44.666ZM263.289 54L267.692 47.2764L263.702 41.1152H266.743L269.327 45.2549L271.858 41.1152H274.873L270.865 47.373L275.269 54H272.131L269.274 49.5439L266.409 54H263.289ZM275.603 47.6367C275.603 46.3242 275.799 45.2227 276.191 44.332C276.484 43.6758 276.883 43.0869 277.387 42.5654C277.896 42.0439 278.453 41.6572 279.057 41.4053C279.859 41.0654 280.785 40.8955 281.834 40.8955C283.732 40.8955 285.25 41.4844 286.387 42.6621C287.529 43.8398 288.101 45.4775 288.101 47.5752C288.101 49.6553 287.535 51.2842 286.404 52.4619C285.273 53.6338 283.762 54.2197 281.869 54.2197C279.953 54.2197 278.43 53.6367 277.299 52.4707C276.168 51.2988 275.603 49.6875 275.603 47.6367ZM278.283 47.5488C278.283 49.0078 278.62 50.1152 279.294 50.8711C279.968 51.6211 280.823 51.9961 281.86 51.9961C282.897 51.9961 283.747 51.624 284.409 50.8799C285.077 50.1299 285.411 49.0078 285.411 47.5137C285.411 46.0371 285.086 44.9355 284.436 44.209C283.791 43.4824 282.933 43.1191 281.86 43.1191C280.788 43.1191 279.924 43.4883 279.268 44.2266C278.611 44.959 278.283 46.0664 278.283 47.5488ZM290.192 41.1152H299.825V43.2773H292.794V46.2656H296.274C297.235 46.2656 298.032 46.3828 298.665 46.6172C299.298 46.8516 299.837 47.2852 300.282 47.918C300.733 48.5508 300.959 49.292 300.959 50.1416C300.959 51.0146 300.733 51.7617 300.282 52.3828C299.831 53.0039 299.315 53.4287 298.735 53.6572C298.161 53.8857 297.341 54 296.274 54H290.192V41.1152ZM292.794 51.8379H295.325C296.134 51.8379 296.702 51.7998 297.03 51.7236C297.358 51.6416 297.643 51.46 297.883 51.1787C298.129 50.8975 298.252 50.5518 298.252 50.1416C298.252 49.5439 298.038 49.1104 297.61 48.8408C297.188 48.5654 296.465 48.4277 295.439 48.4277H292.794V51.8379ZM303.543 41.1152H312.569V54H309.968V43.2949H306.092V48.7969C306.092 50.373 306.039 51.4746 305.934 52.1016C305.828 52.7227 305.57 53.209 305.16 53.5605C304.756 53.9062 304.12 54.0791 303.253 54.0791C302.948 54.0791 302.395 54.0498 301.592 53.9912V51.9785L302.172 51.9873C302.717 51.9873 303.083 51.9141 303.271 51.7676C303.458 51.6211 303.552 51.2607 303.552 50.6865L303.543 48.4717V41.1152Z" fill="white"/>
</g>
<defs>
<filter id="filter0_d_12_7" x="0" y="0" width="374" height="76" filterUnits="userSpaceOnUse" color-interpolation-filters="sRGB">
<feFlood flood-opacity="0" result="BackgroundImageFix"/>
<feColorMatrix in="SourceAlpha" type="matrix" values="0 0 0 0 0 0 0 0 0 0 0 0 0 0 0 0 0 0 127 0" result="hardAlpha"/>
<feOffset dy="4"/>
<feComposite in2="hardAlpha" operator="out"/>
<feColorMatrix type="matrix" values="0 0 0 0 0.495833 0 0 0 0 0.103299 0 0 0 0 0.133494 0 0 0 1 0"/>
<feBlend mode="normal" in2="BackgroundImageFix" result="effect1_dropShadow_12_7"/>
<feBlend mode="normal" in="SourceGraphic" in2="effect1_dropShadow_12_7" result="shape"/>
</filter>
</defs>
</svg>
