<svg width="374" height="76" viewBox="0 0 374 76" fill="none" xmlns="http://www.w3.org/2000/svg">
<g filter="url(#filter0_d_12_9)">
<rect width="374" height="72" rx="36" fill="#BB1F2B"/>
<path d="M28.5156 18.1152H31.4248L34.4307 24.8037L36.9971 18.1152H39.7129L35.3623 27.9062C34.8877 28.9668 34.4043 29.7754 33.9121 30.332C33.4199 30.8828 32.7842 31.1582 32.0049 31.1582C31.2373 31.1582 30.6367 31.1084 30.2031 31.0088V29.0752C30.5723 29.0986 30.9062 29.1104 31.2051 29.1104C31.8086 29.1104 32.2393 29.002 32.4971 28.7852C32.7607 28.5625 33.0127 28.0879 33.2529 27.3613L28.5156 18.1152ZM42.6221 27.168V25.5596C43.0498 25.5596 43.3604 25.5332 43.5537 25.4805C43.7471 25.4219 43.9287 25.2871 44.0986 25.0762C44.2744 24.8594 44.3623 24.6133 44.3623 24.3379C44.3623 24.0449 44.2539 23.7754 44.0371 23.5293C43.8262 23.2773 43.5068 23.1514 43.0791 23.1514C42.751 23.1514 42.458 23.2217 42.2002 23.3623C41.9424 23.5029 41.708 23.8369 41.4971 24.3643L39.4053 23.916C39.6162 23.0957 40.0674 22.4805 40.7588 22.0703C41.4502 21.6602 42.2383 21.4551 43.123 21.4551C44.248 21.4551 45.1182 21.7129 45.7334 22.2285C46.3545 22.7441 46.665 23.3916 46.665 24.1709C46.665 24.6572 46.5303 25.0615 46.2607 25.3838C45.9971 25.7002 45.5781 25.9961 45.0039 26.2715C45.6953 26.459 46.2109 26.7432 46.5508 27.124C46.8965 27.5049 47.0693 27.9795 47.0693 28.5479C47.0693 29.2744 46.7295 29.9014 46.0498 30.4287C45.3701 30.9502 44.3916 31.2109 43.1143 31.2109C40.8877 31.2109 39.5254 30.3408 39.0273 28.6006L41.2861 28.1875C41.6494 29.1016 42.25 29.5586 43.0879 29.5586C43.5508 29.5586 43.9199 29.4385 44.1953 29.1982C44.4766 28.9521 44.6172 28.665 44.6172 28.3369C44.6172 27.9736 44.4707 27.6895 44.1777 27.4844C43.8906 27.2734 43.5127 27.168 43.0439 27.168H42.6221ZM48.959 21.666H51.4287V25.085H54.9619V21.666H57.4404V31H54.9619V27.0801H51.4287V31H48.959V21.666ZM61.7822 24.5137L59.541 24.1094C59.793 23.207 60.2266 22.5391 60.8418 22.1055C61.457 21.6719 62.3711 21.4551 63.584 21.4551C64.6855 21.4551 65.5059 21.5869 66.0449 21.8506C66.584 22.1084 66.9619 22.4395 67.1787 22.8438C67.4014 23.2422 67.5127 23.9775 67.5127 25.0498L67.4863 27.9326C67.4863 28.7529 67.5244 29.3594 67.6006 29.752C67.6826 30.1387 67.832 30.5547 68.0488 31H65.6055C65.541 30.8359 65.4619 30.5928 65.3682 30.2705C65.3271 30.124 65.2979 30.0273 65.2803 29.9805C64.8584 30.3906 64.4072 30.6982 63.9268 30.9033C63.4463 31.1084 62.9336 31.2109 62.3887 31.2109C61.4277 31.2109 60.6689 30.9502 60.1123 30.4287C59.5615 29.9072 59.2861 29.248 59.2861 28.4512C59.2861 27.9238 59.4121 27.4551 59.6641 27.0449C59.916 26.6289 60.2676 26.3125 60.7188 26.0957C61.1758 25.873 61.832 25.6797 62.6875 25.5156C63.8418 25.2988 64.6416 25.0967 65.0869 24.9092V24.6631C65.0869 24.1885 64.9697 23.8516 64.7354 23.6523C64.501 23.4473 64.0586 23.3447 63.4082 23.3447C62.9688 23.3447 62.626 23.4326 62.3799 23.6084C62.1338 23.7783 61.9346 24.0801 61.7822 24.5137ZM65.0869 26.5176C64.7705 26.623 64.2695 26.749 63.584 26.8955C62.8984 27.042 62.4502 27.1855 62.2393 27.3262C61.917 27.5547 61.7559 27.8447 61.7559 28.1963C61.7559 28.542 61.8848 28.8408 62.1426 29.0928C62.4004 29.3447 62.7285 29.4707 63.127 29.4707C63.5723 29.4707 63.9971 29.3242 64.4014 29.0312C64.7002 28.8086 64.8965 28.5361 64.9902 28.2139C65.0547 28.0029 65.0869 27.6016 65.0869 27.0098V26.5176ZM68.8486 21.666H77.2949V23.6611H74.3066V31H71.8369V23.6611H68.8486V21.666ZM78.833 21.666H81.3027V25.542H83.7812C84.7539 25.542 85.501 25.6123 86.0225 25.7529C86.5439 25.8936 86.9775 26.1982 87.3232 26.667C87.6689 27.1299 87.8418 27.6689 87.8418 28.2842C87.8418 29.1865 87.5312 29.8662 86.9102 30.3232C86.2949 30.7744 85.3691 31 84.1328 31H78.833V21.666ZM81.3027 29.4355H83.6055C84.3262 29.4355 84.7861 29.3184 84.9854 29.084C85.1904 28.8496 85.293 28.5713 85.293 28.249C85.293 27.7979 85.1172 27.4873 84.7656 27.3174C84.4199 27.1475 83.8018 27.0625 82.9111 27.0625H81.3027V29.4355ZM101.869 17.8164H103.548C103.495 18.5605 103.299 19.126 102.959 19.5127C102.625 19.8936 101.796 20.084 100.472 20.084C100.313 20.084 100.155 20.0811 99.9971 20.0752H99.6807C98.8955 20.0752 98.2568 20.1631 97.7646 20.3389C97.2725 20.5088 96.8682 20.8428 96.5518 21.3408C96.2412 21.8389 96.0801 22.6416 96.0684 23.749C96.4316 23.0635 96.9004 22.5508 97.4746 22.2109C98.0547 21.8711 98.7432 21.7012 99.54 21.7012C100.765 21.7012 101.802 22.1787 102.651 23.1338C103.501 24.083 103.926 25.1846 103.926 26.4385C103.926 27.7451 103.478 28.8672 102.581 29.8047C101.69 30.7422 100.524 31.2109 99.083 31.2109C98.0928 31.2109 97.2227 30.9736 96.4727 30.499C95.7227 30.0244 95.1865 29.377 94.8643 28.5566C94.542 27.7305 94.3809 26.3652 94.3809 24.4609C94.3809 22.2227 94.791 20.6143 95.6113 19.6357C96.4375 18.6572 97.876 18.168 99.9268 18.168H101.175C101.521 18.168 101.752 18.0508 101.869 17.8164ZM96.8945 26.4033C96.8945 27.2529 97.1055 27.9268 97.5273 28.4248C97.9551 28.917 98.4766 29.1631 99.0918 29.1631C99.7539 29.1631 100.296 28.9082 100.718 28.3984C101.146 27.8828 101.359 27.2207 101.359 26.4121C101.359 25.5859 101.143 24.9209 100.709 24.417C100.281 23.9072 99.751 23.6523 99.1182 23.6523C98.5029 23.6523 97.9785 23.9014 97.5449 24.3994C97.1113 24.8975 96.8945 25.5654 96.8945 26.4033ZM105.42 26.2012C105.42 25.3809 105.622 24.5869 106.026 23.8193C106.431 23.0518 107.002 22.4658 107.74 22.0615C108.484 21.6572 109.313 21.4551 110.228 21.4551C111.64 21.4551 112.797 21.915 113.699 22.835C114.602 23.749 115.053 24.9062 115.053 26.3066C115.053 27.7188 114.596 28.8906 113.682 29.8223C112.773 30.748 111.628 31.2109 110.245 31.2109C109.39 31.2109 108.572 31.0176 107.793 30.6309C107.02 30.2441 106.431 29.6787 106.026 28.9346C105.622 28.1846 105.42 27.2734 105.42 26.2012ZM107.951 26.333C107.951 27.2588 108.171 27.9678 108.61 28.46C109.05 28.9521 109.592 29.1982 110.236 29.1982C110.881 29.1982 111.42 28.9521 111.854 28.46C112.293 27.9678 112.513 27.2529 112.513 26.3154C112.513 25.4014 112.293 24.6982 111.854 24.2061C111.42 23.7139 110.881 23.4678 110.236 23.4678C109.592 23.4678 109.05 23.7139 108.61 24.2061C108.171 24.6982 107.951 25.4072 107.951 26.333ZM117.206 21.666H125.477V31H123.016V23.6699H119.649V27.8623C119.649 28.9287 119.526 29.6787 119.28 30.1123C119.034 30.54 118.762 30.8213 118.463 30.9561C118.164 31.0908 117.684 31.1582 117.021 31.1582C116.629 31.1582 116.11 31.1055 115.466 31V29.1807C115.519 29.1807 115.656 29.1865 115.879 29.1982C116.137 29.2158 116.336 29.2246 116.477 29.2246C116.811 29.2246 117.016 29.1162 117.092 28.8994C117.168 28.6768 117.206 28.0645 117.206 27.0625V21.666ZM128.034 21.666H130.504V25.542H132.982C133.955 25.542 134.702 25.6123 135.224 25.7529C135.745 25.8936 136.179 26.1982 136.524 26.667C136.87 27.1299 137.043 27.6689 137.043 28.2842C137.043 29.1865 136.732 29.8662 136.111 30.3232C135.496 30.7744 134.57 31 133.334 31H128.034V21.666ZM130.504 29.4355H132.807C133.527 29.4355 133.987 29.3184 134.187 29.084C134.392 28.8496 134.494 28.5713 134.494 28.249C134.494 27.7979 134.318 27.4873 133.967 27.3174C133.621 27.1475 133.003 27.0625 132.112 27.0625H130.504V29.4355ZM138.994 21.666H141.262V29.0049H144.127V21.666H146.403V29.0049H149.26V21.666H151.536V31H138.994V21.666ZM159.473 28.0293L161.934 28.4424C161.617 29.3447 161.116 30.0332 160.431 30.5078C159.751 30.9766 158.898 31.2109 157.873 31.2109C156.25 31.2109 155.049 30.6807 154.27 29.6201C153.654 28.7705 153.347 27.6982 153.347 26.4033C153.347 24.8564 153.751 23.6465 154.56 22.7734C155.368 21.8945 156.391 21.4551 157.627 21.4551C159.016 21.4551 160.111 21.915 160.914 22.835C161.717 23.749 162.101 25.1523 162.065 27.0449H155.878C155.896 27.7773 156.095 28.3486 156.476 28.7588C156.856 29.1631 157.331 29.3652 157.899 29.3652C158.286 29.3652 158.611 29.2598 158.875 29.0488C159.139 28.8379 159.338 28.498 159.473 28.0293ZM159.613 25.5332C159.596 24.8184 159.411 24.2764 159.06 23.9072C158.708 23.5322 158.28 23.3447 157.776 23.3447C157.237 23.3447 156.792 23.541 156.44 23.9336C156.089 24.3262 155.916 24.8594 155.922 25.5332H159.613ZM168.525 26.2012C168.525 25.3809 168.728 24.5869 169.132 23.8193C169.536 23.0518 170.107 22.4658 170.846 22.0615C171.59 21.6572 172.419 21.4551 173.333 21.4551C174.745 21.4551 175.902 21.915 176.805 22.835C177.707 23.749 178.158 24.9062 178.158 26.3066C178.158 27.7188 177.701 28.8906 176.787 29.8223C175.879 30.748 174.733 31.2109 173.351 31.2109C172.495 31.2109 171.678 31.0176 170.898 30.6309C170.125 30.2441 169.536 29.6787 169.132 28.9346C168.728 28.1846 168.525 27.2734 168.525 26.2012ZM171.057 26.333C171.057 27.2588 171.276 27.9678 171.716 28.46C172.155 28.9521 172.697 29.1982 173.342 29.1982C173.986 29.1982 174.525 28.9521 174.959 28.46C175.398 27.9678 175.618 27.2529 175.618 26.3154C175.618 25.4014 175.398 24.6982 174.959 24.2061C174.525 23.7139 173.986 23.4678 173.342 23.4678C172.697 23.4678 172.155 23.7139 171.716 24.2061C171.276 24.6982 171.057 25.4072 171.057 26.333ZM185.014 21.666H193.302V31H190.832V23.6611H187.483V31H185.014V21.666ZM197.837 24.5137L195.596 24.1094C195.848 23.207 196.281 22.5391 196.896 22.1055C197.512 21.6719 198.426 21.4551 199.639 21.4551C200.74 21.4551 201.561 21.5869 202.1 21.8506C202.639 22.1084 203.017 22.4395 203.233 22.8438C203.456 23.2422 203.567 23.9775 203.567 25.0498L203.541 27.9326C203.541 28.7529 203.579 29.3594 203.655 29.752C203.737 30.1387 203.887 30.5547 204.104 31H201.66C201.596 30.8359 201.517 30.5928 201.423 30.2705C201.382 30.124 201.353 30.0273 201.335 29.9805C200.913 30.3906 200.462 30.6982 199.981 30.9033C199.501 31.1084 198.988 31.2109 198.443 31.2109C197.482 31.2109 196.724 30.9502 196.167 30.4287C195.616 29.9072 195.341 29.248 195.341 28.4512C195.341 27.9238 195.467 27.4551 195.719 27.0449C195.971 26.6289 196.322 26.3125 196.773 26.0957C197.23 25.873 197.887 25.6797 198.742 25.5156C199.896 25.2988 200.696 25.0967 201.142 24.9092V24.6631C201.142 24.1885 201.024 23.8516 200.79 23.6523C200.556 23.4473 200.113 23.3447 199.463 23.3447C199.023 23.3447 198.681 23.4326 198.435 23.6084C198.188 23.7783 197.989 24.0801 197.837 24.5137ZM201.142 26.5176C200.825 26.623 200.324 26.749 199.639 26.8955C198.953 27.042 198.505 27.1855 198.294 27.3262C197.972 27.5547 197.811 27.8447 197.811 28.1963C197.811 28.542 197.939 28.8408 198.197 29.0928C198.455 29.3447 198.783 29.4707 199.182 29.4707C199.627 29.4707 200.052 29.3242 200.456 29.0312C200.755 28.8086 200.951 28.5361 201.045 28.2139C201.109 28.0029 201.142 27.6016 201.142 27.0098V26.5176ZM204.903 21.666H213.35V23.6611H210.361V31H207.892V23.6611H204.903V21.666ZM214.018 26.2012C214.018 25.3809 214.22 24.5869 214.624 23.8193C215.028 23.0518 215.6 22.4658 216.338 22.0615C217.082 21.6572 217.911 21.4551 218.825 21.4551C220.237 21.4551 221.395 21.915 222.297 22.835C223.199 23.749 223.65 24.9062 223.65 26.3066C223.65 27.7188 223.193 28.8906 222.279 29.8223C221.371 30.748 220.226 31.2109 218.843 31.2109C217.987 31.2109 217.17 31.0176 216.391 30.6309C215.617 30.2441 215.028 29.6787 214.624 28.9346C214.22 28.1846 214.018 27.2734 214.018 26.2012ZM216.549 26.333C216.549 27.2588 216.769 27.9678 217.208 28.46C217.647 28.9521 218.189 29.1982 218.834 29.1982C219.479 29.1982 220.018 28.9521 220.451 28.46C220.891 27.9678 221.11 27.2529 221.11 26.3154C221.11 25.4014 220.891 24.6982 220.451 24.2061C220.018 23.7139 219.479 23.4678 218.834 23.4678C218.189 23.4678 217.647 23.7139 217.208 24.2061C216.769 24.6982 216.549 25.4072 216.549 26.333ZM225.496 21.666H231.798V23.6611H227.966V31H225.496V21.666ZM238.504 28.0293L240.965 28.4424C240.648 29.3447 240.147 30.0332 239.462 30.5078C238.782 30.9766 237.93 31.2109 236.904 31.2109C235.281 31.2109 234.08 30.6807 233.301 29.6201C232.686 28.7705 232.378 27.6982 232.378 26.4033C232.378 24.8564 232.782 23.6465 233.591 22.7734C234.399 21.8945 235.422 21.4551 236.658 21.4551C238.047 21.4551 239.143 21.915 239.945 22.835C240.748 23.749 241.132 25.1523 241.097 27.0449H234.909C234.927 27.7773 235.126 28.3486 235.507 28.7588C235.888 29.1631 236.362 29.3652 236.931 29.3652C237.317 29.3652 237.643 29.2598 237.906 29.0488C238.17 28.8379 238.369 28.498 238.504 28.0293ZM238.645 25.5332C238.627 24.8184 238.442 24.2764 238.091 23.9072C237.739 23.5322 237.312 23.3447 236.808 23.3447C236.269 23.3447 235.823 23.541 235.472 23.9336C235.12 24.3262 234.947 24.8594 234.953 25.5332H238.645ZM243.021 21.666H245.491V25.085H249.024V21.666H251.503V31H249.024V27.0801H245.491V31H243.021V21.666ZM259.404 28.0293L261.865 28.4424C261.549 29.3447 261.048 30.0332 260.362 30.5078C259.683 30.9766 258.83 31.2109 257.805 31.2109C256.182 31.2109 254.98 30.6807 254.201 29.6201C253.586 28.7705 253.278 27.6982 253.278 26.4033C253.278 24.8564 253.683 23.6465 254.491 22.7734C255.3 21.8945 256.322 21.4551 257.559 21.4551C258.947 21.4551 260.043 21.915 260.846 22.835C261.648 23.749 262.032 25.1523 261.997 27.0449H255.81C255.827 27.7773 256.026 28.3486 256.407 28.7588C256.788 29.1631 257.263 29.3652 257.831 29.3652C258.218 29.3652 258.543 29.2598 258.807 29.0488C259.07 28.8379 259.27 28.498 259.404 28.0293ZM259.545 25.5332C259.527 24.8184 259.343 24.2764 258.991 23.9072C258.64 23.5322 258.212 23.3447 257.708 23.3447C257.169 23.3447 256.724 23.541 256.372 23.9336C256.021 24.3262 255.848 24.8594 255.854 25.5332H259.545ZM262.665 21.666H271.111V23.6611H268.123V31H265.653V23.6611H262.665V21.666ZM272.535 21.666H274.908V27.5283L278.705 21.666H281.131V31H278.758V25.0322L274.908 31H272.535V21.666ZM283.381 21.666H285.877V23.8984C285.877 24.4082 285.921 24.7891 286.009 25.041C286.103 25.2871 286.296 25.501 286.589 25.6826C286.888 25.8584 287.263 25.9463 287.714 25.9463C288.153 25.9463 288.646 25.8467 289.19 25.6475V21.666H291.66V31H289.19V27.2734C288.229 27.5312 287.497 27.6602 286.993 27.6602C286.237 27.6602 285.558 27.499 284.954 27.1768C284.351 26.8486 283.938 26.4326 283.715 25.9287C283.492 25.4189 283.381 24.7422 283.381 23.8984V21.666ZM299.535 28.0293L301.996 28.4424C301.68 29.3447 301.179 30.0332 300.493 30.5078C299.813 30.9766 298.961 31.2109 297.936 31.2109C296.312 31.2109 295.111 30.6807 294.332 29.6201C293.717 28.7705 293.409 27.6982 293.409 26.4033C293.409 24.8564 293.813 23.6465 294.622 22.7734C295.431 21.8945 296.453 21.4551 297.689 21.4551C299.078 21.4551 300.174 21.915 300.977 22.835C301.779 23.749 302.163 25.1523 302.128 27.0449H295.94C295.958 27.7773 296.157 28.3486 296.538 28.7588C296.919 29.1631 297.394 29.3652 297.962 29.3652C298.349 29.3652 298.674 29.2598 298.938 29.0488C299.201 28.8379 299.4 28.498 299.535 28.0293ZM299.676 25.5332C299.658 24.8184 299.474 24.2764 299.122 23.9072C298.771 23.5322 298.343 23.3447 297.839 23.3447C297.3 23.3447 296.854 23.541 296.503 23.9336C296.151 24.3262 295.979 24.8594 295.984 25.5332H299.676ZM312.042 24.4258L309.607 24.8652C309.525 24.3789 309.338 24.0127 309.045 23.7666C308.758 23.5205 308.383 23.3975 307.92 23.3975C307.305 23.3975 306.812 23.6113 306.443 24.0391C306.08 24.4609 305.898 25.1699 305.898 26.166C305.898 27.2734 306.083 28.0557 306.452 28.5127C306.827 28.9697 307.328 29.1982 307.955 29.1982C308.424 29.1982 308.808 29.0664 309.106 28.8027C309.405 28.5332 309.616 28.0732 309.739 27.4229L312.165 27.8359C311.913 28.9492 311.43 29.79 310.715 30.3584C310 30.9268 309.042 31.2109 307.841 31.2109C306.476 31.2109 305.386 30.7803 304.571 29.9189C303.763 29.0576 303.358 27.8652 303.358 26.3418C303.358 24.8008 303.766 23.6025 304.58 22.7471C305.395 21.8857 306.496 21.4551 307.885 21.4551C309.021 21.4551 309.924 21.7012 310.592 22.1934C311.266 22.6797 311.749 23.4238 312.042 24.4258ZM313.826 21.666H316.287V25.4805C316.697 25.4336 316.987 25.3076 317.157 25.1025C317.327 24.8975 317.532 24.4492 317.772 23.7578C318.089 22.8379 318.435 22.249 318.81 21.9912C319.185 21.7334 319.677 21.6045 320.286 21.6045C320.474 21.6045 320.799 21.6191 321.262 21.6484L321.271 23.2832C320.62 23.2832 320.204 23.3447 320.022 23.4678C319.841 23.5967 319.645 23.9805 319.434 24.6191C319.146 25.4805 318.733 26.0107 318.194 26.21C318.974 26.4268 319.633 27.1035 320.172 28.2402C320.201 28.2988 320.233 28.3604 320.269 28.4248L321.648 31H318.994L317.764 28.3018C317.512 27.7568 317.292 27.4082 317.104 27.2559C316.923 27.0977 316.65 27.0186 316.287 27.0186V31H313.826V21.666ZM322.123 26.2012C322.123 25.3809 322.325 24.5869 322.729 23.8193C323.134 23.0518 323.705 22.4658 324.443 22.0615C325.188 21.6572 326.017 21.4551 326.931 21.4551C328.343 21.4551 329.5 21.915 330.402 22.835C331.305 23.749 331.756 24.9062 331.756 26.3066C331.756 27.7188 331.299 28.8906 330.385 29.8223C329.477 30.748 328.331 31.2109 326.948 31.2109C326.093 31.2109 325.275 31.0176 324.496 30.6309C323.723 30.2441 323.134 29.6787 322.729 28.9346C322.325 28.1846 322.123 27.2734 322.123 26.2012ZM324.654 26.333C324.654 27.2588 324.874 27.9678 325.313 28.46C325.753 28.9521 326.295 29.1982 326.939 29.1982C327.584 29.1982 328.123 28.9521 328.557 28.46C328.996 27.9678 329.216 27.2529 329.216 26.3154C329.216 25.4014 328.996 24.6982 328.557 24.2061C328.123 23.7139 327.584 23.4678 326.939 23.4678C326.295 23.4678 325.753 23.7139 325.313 24.2061C324.874 24.6982 324.654 25.4072 324.654 26.333ZM333.522 21.666H336.581L338.901 28.1699L341.239 21.666H344.289V31H342.188V24.8564L339.912 31H337.803L335.632 24.8564V31H333.522V21.666ZM94.7764 44.666H103.047V54H100.586V46.6699H97.2197V50.8623C97.2197 51.9287 97.0967 52.6787 96.8506 53.1123C96.6045 53.54 96.332 53.8213 96.0332 53.9561C95.7344 54.0908 95.2539 54.1582 94.5918 54.1582C94.1992 54.1582 93.6807 54.1055 93.0361 54V52.1807C93.0889 52.1807 93.2266 52.1865 93.4492 52.1982C93.707 52.2158 93.9062 52.2246 94.0469 52.2246C94.3809 52.2246 94.5859 52.1162 94.6621 51.8994C94.7383 51.6768 94.7764 51.0645 94.7764 50.0625V44.666ZM110.711 51.0293L113.172 51.4424C112.855 52.3447 112.354 53.0332 111.669 53.5078C110.989 53.9766 110.137 54.2109 109.111 54.2109C107.488 54.2109 106.287 53.6807 105.508 52.6201C104.893 51.7705 104.585 50.6982 104.585 49.4033C104.585 47.8564 104.989 46.6465 105.798 45.7734C106.606 44.8945 107.629 44.4551 108.865 44.4551C110.254 44.4551 111.35 44.915 112.152 45.835C112.955 46.749 113.339 48.1523 113.304 50.0449H107.116C107.134 50.7773 107.333 51.3486 107.714 51.7588C108.095 52.1631 108.569 52.3652 109.138 52.3652C109.524 52.3652 109.85 52.2598 110.113 52.0488C110.377 51.8379 110.576 51.498 110.711 51.0293ZM110.852 48.5332C110.834 47.8184 110.649 47.2764 110.298 46.9072C109.946 46.5322 109.519 46.3447 109.015 46.3447C108.476 46.3447 108.03 46.541 107.679 46.9336C107.327 47.3262 107.154 47.8594 107.16 48.5332H110.852ZM114.578 44.666H117.074V46.8984C117.074 47.4082 117.118 47.7891 117.206 48.041C117.3 48.2871 117.493 48.501 117.786 48.6826C118.085 48.8584 118.46 48.9463 118.911 48.9463C119.351 48.9463 119.843 48.8467 120.388 48.6475V44.666H122.857V54H120.388V50.2734C119.427 50.5312 118.694 50.6602 118.19 50.6602C117.435 50.6602 116.755 50.499 116.151 50.1768C115.548 49.8486 115.135 49.4326 114.912 48.9287C114.689 48.4189 114.578 47.7422 114.578 46.8984V44.666ZM130.732 51.0293L133.193 51.4424C132.877 52.3447 132.376 53.0332 131.69 53.5078C131.011 53.9766 130.158 54.2109 129.133 54.2109C127.51 54.2109 126.309 53.6807 125.529 52.6201C124.914 51.7705 124.606 50.6982 124.606 49.4033C124.606 47.8564 125.011 46.6465 125.819 45.7734C126.628 44.8945 127.65 44.4551 128.887 44.4551C130.275 44.4551 131.371 44.915 132.174 45.835C132.977 46.749 133.36 48.1523 133.325 50.0449H127.138C127.155 50.7773 127.354 51.3486 127.735 51.7588C128.116 52.1631 128.591 52.3652 129.159 52.3652C129.546 52.3652 129.871 52.2598 130.135 52.0488C130.398 51.8379 130.598 51.498 130.732 51.0293ZM130.873 48.5332C130.855 47.8184 130.671 47.2764 130.319 46.9072C129.968 46.5322 129.54 46.3447 129.036 46.3447C128.497 46.3447 128.052 46.541 127.7 46.9336C127.349 47.3262 127.176 47.8594 127.182 48.5332H130.873ZM135.25 44.666H137.72V48.085H141.253V44.666H143.731V54H141.253V50.0801H137.72V54H135.25V44.666ZM146.166 44.666H148.539V50.5283L152.336 44.666H154.762V54H152.389V48.0322L148.539 54H146.166V44.666ZM157.24 44.666H159.613V50.5283L163.41 44.666H165.836V54H163.463V48.0322L159.613 54H157.24V44.666ZM172.094 54L176.497 47.2764L172.507 41.1152H175.548L178.132 45.2549L180.663 41.1152H183.678L179.67 47.373L184.073 54H180.936L178.079 49.5439L175.214 54H172.094ZM184.407 47.6367C184.407 46.3242 184.604 45.2227 184.996 44.332C185.289 43.6758 185.688 43.0869 186.191 42.5654C186.701 42.0439 187.258 41.6572 187.861 41.4053C188.664 41.0654 189.59 40.8955 190.639 40.8955C192.537 40.8955 194.055 41.4844 195.191 42.6621C196.334 43.8398 196.905 45.4775 196.905 47.5752C196.905 49.6553 196.34 51.2842 195.209 52.4619C194.078 53.6338 192.566 54.2197 190.674 54.2197C188.758 54.2197 187.234 53.6367 186.104 52.4707C184.973 51.2988 184.407 49.6875 184.407 47.6367ZM187.088 47.5488C187.088 49.0078 187.425 50.1152 188.099 50.8711C188.772 51.6211 189.628 51.9961 190.665 51.9961C191.702 51.9961 192.552 51.624 193.214 50.8799C193.882 50.1299 194.216 49.0078 194.216 47.5137C194.216 46.0371 193.891 44.9355 193.24 44.209C192.596 43.4824 191.737 43.1191 190.665 43.1191C189.593 43.1191 188.729 43.4883 188.072 44.2266C187.416 44.959 187.088 46.0664 187.088 47.5488ZM198.997 41.1152H208.63V43.2773H201.599V46.2656H205.079C206.04 46.2656 206.837 46.3828 207.47 46.6172C208.103 46.8516 208.642 47.2852 209.087 47.918C209.538 48.5508 209.764 49.292 209.764 50.1416C209.764 51.0146 209.538 51.7617 209.087 52.3828C208.636 53.0039 208.12 53.4287 207.54 53.6572C206.966 53.8857 206.146 54 205.079 54H198.997V41.1152ZM201.599 51.8379H204.13C204.938 51.8379 205.507 51.7998 205.835 51.7236C206.163 51.6416 206.447 51.46 206.688 51.1787C206.934 50.8975 207.057 50.5518 207.057 50.1416C207.057 49.5439 206.843 49.1104 206.415 48.8408C205.993 48.5654 205.27 48.4277 204.244 48.4277H201.599V51.8379ZM212.348 41.1152H221.374V54H218.772V43.2949H214.896V48.7969C214.896 50.373 214.844 51.4746 214.738 52.1016C214.633 52.7227 214.375 53.209 213.965 53.5605C213.561 53.9062 212.925 54.0791 212.058 54.0791C211.753 54.0791 211.199 54.0498 210.396 53.9912V51.9785L210.977 51.9873C211.521 51.9873 211.888 51.9141 212.075 51.7676C212.263 51.6211 212.356 51.2607 212.356 50.6865L212.348 48.4717V41.1152ZM228.994 44.666H231.367V50.5283L235.164 44.666H237.59V54H235.217V48.0322L231.367 54H228.994V44.666ZM243.848 54L248.251 47.2764L244.261 41.1152H247.302L249.886 45.2549L252.417 41.1152H255.432L251.424 47.373L255.827 54H252.689L249.833 49.5439L246.968 54H243.848ZM264.722 49.2627L267.244 50.0625C266.857 51.4688 266.213 52.5146 265.311 53.2002C264.414 53.8799 263.274 54.2197 261.892 54.2197C260.181 54.2197 258.774 53.6367 257.673 52.4707C256.571 51.2988 256.021 49.6992 256.021 47.6719C256.021 45.5273 256.574 43.8633 257.682 42.6797C258.789 41.4902 260.245 40.8955 262.05 40.8955C263.626 40.8955 264.906 41.3613 265.891 42.293C266.477 42.8438 266.916 43.6348 267.209 44.666L264.634 45.2812C264.481 44.6133 264.162 44.0859 263.676 43.6992C263.195 43.3125 262.609 43.1191 261.918 43.1191C260.963 43.1191 260.187 43.4619 259.589 44.1475C258.997 44.833 258.701 45.9434 258.701 47.4785C258.701 49.1074 258.994 50.2676 259.58 50.959C260.166 51.6504 260.928 51.9961 261.865 51.9961C262.557 51.9961 263.151 51.7764 263.649 51.3369C264.147 50.8975 264.505 50.2061 264.722 49.2627ZM269.494 54V41.1152H272.096V46.1865H277.193V41.1152H279.795V54H277.193V48.3662H272.096V54H269.494Z" fill="white"/>
</g>
<defs>
<filter id="filter0_d_12_9" x="0" y="0" width="374" height="76" filterUnits="userSpaceOnUse" color-interpolation-filters="sRGB">
<feFlood flood-opacity="0" result="BackgroundImageFix"/>
<feColorMatrix in="SourceAlpha" type="matrix" values="0 0 0 0 0 0 0 0 0 0 0 0 0 0 0 0 0 0 127 0" result="hardAlpha"/>
<feOffset dy="4"/>
<feComposite in2="hardAlpha" operator="out"/>
<feColorMatrix type="matrix" values="0 0 0 0 0.495833 0 0 0 0 0.103299 0 0 0 0 0.133494 0 0 0 1 0"/>
<feBlend mode="normal" in2="BackgroundImageFix" result="effect1_dropShadow_12_9"/>
<feBlend mode="normal" in="SourceGraphic" in2="effect1_dropShadow_12_9" result="shape"/>
</filter>
</defs>
</svg>
