<svg width="169" height="168" viewBox="0 0 169 168" fill="none" xmlns="http://www.w3.org/2000/svg">
<ellipse cx="84.5" cy="32.3917" rx="32.8611" ry="32.3917" fill="#ECAEB3"/>
<circle cx="52.1083" cy="134.731" r="32.3917" fill="#ECAEB3"/>
<ellipse cx="137.078" cy="72.7639" rx="31.9222" ry="32.3917" fill="#ECAEB3"/>
<ellipse cx="31.9222" cy="72.7639" rx="31.9222" ry="32.3917" fill="#ECAEB3"/>
<ellipse cx="116.422" cy="134.731" rx="31.9222" ry="32.3917" fill="#ECAEB3"/>
<ellipse cx="84.5" cy="89.6639" rx="35.6778" ry="35.2083" fill="#BB1F2B"/>
<path d="M68.9592 94.8055L72.6341 89.1942L69.304 84.0523H71.8419L73.9984 87.5071L76.1109 84.0523H78.6268L75.282 89.2749L78.9569 94.8055H76.3383L73.9544 91.0867L71.5632 94.8055H68.9592ZM86.38 90.8519L88.4852 91.5194C88.1624 92.693 87.6245 93.5659 86.8714 94.1381C86.1233 94.7053 85.1722 94.9889 84.0181 94.9889C82.5902 94.9889 81.4166 94.5024 80.4973 93.5292C79.5779 92.5512 79.1183 91.2162 79.1183 89.5243C79.1183 87.7345 79.5804 86.3458 80.5046 85.358C81.4288 84.3653 82.644 83.869 84.1501 83.869C85.4656 83.869 86.534 84.2577 87.3556 85.0352C87.8446 85.4949 88.2113 86.155 88.4558 87.0157L86.3066 87.5292C86.1795 86.9717 85.913 86.5316 85.5071 86.2088C85.1061 85.8861 84.6171 85.7247 84.0401 85.7247C83.243 85.7247 82.5951 86.0108 82.0963 86.5829C81.6024 87.1551 81.3555 88.0817 81.3555 89.3629C81.3555 90.7224 81.6 91.6906 82.089 92.2676C82.578 92.8446 83.2137 93.1331 83.9961 93.1331C84.5731 93.1331 85.0695 92.9498 85.4851 92.583C85.9008 92.2163 86.1991 91.6392 86.38 90.8519ZM90.3629 94.8055V84.0523H92.5341V88.2847H96.7885V84.0523H98.9596V94.8055H96.7885V90.1038H92.5341V94.8055H90.3629Z" fill="white"/>
<path d="M81.5267 21.3742L83.6319 22.0416C83.3091 23.2153 82.7712 24.0881 82.0181 24.6603C81.27 25.2275 80.3189 25.5111 79.1648 25.5111C77.7369 25.5111 76.5633 25.0246 75.644 24.0515C74.7246 23.0734 74.265 21.7385 74.265 20.0465C74.265 18.2568 74.7271 16.868 75.6513 15.8802C76.5755 14.8875 77.7907 14.3912 79.2968 14.3912C80.6123 14.3912 81.6807 14.7799 82.5023 15.5574C82.9913 16.0171 83.358 16.6773 83.6025 17.5379L81.4533 18.0514C81.3262 17.4939 81.0597 17.0538 80.6538 16.7311C80.2528 16.4083 79.7638 16.2469 79.1868 16.2469C78.3897 16.2469 77.7418 16.533 77.243 17.1051C76.7491 17.6773 76.5022 18.6039 76.5022 19.8851C76.5022 21.2446 76.7467 22.2128 77.2357 22.7898C77.7247 23.3669 78.3604 23.6554 79.1428 23.6554C79.7198 23.6554 80.2162 23.472 80.6318 23.1052C81.0475 22.7385 81.3458 22.1615 81.5267 21.3742ZM86.1625 14.5745H93.5929V23.5233H94.5391V27.675H92.7347V25.3278H85.9644V27.675H84.16V23.5233H85.0695C85.5145 22.604 85.8079 21.538 85.9497 20.3252C86.0916 19.1076 86.1625 17.5697 86.1625 15.7115V14.5745ZM88.231 16.379C88.231 19.6455 87.9351 22.027 87.3434 23.5233H91.429V16.379H88.231Z" fill="#BB1F2B"/>
<path d="M10.6881 68.5167L14.363 62.9053L11.0329 57.7635H13.5708L15.7273 61.2183L17.8398 57.7635H20.3557L17.0109 62.986L20.6858 68.5167H18.0672L15.6833 64.7978L13.2921 68.5167H10.6881ZM20.9645 63.2061C20.9645 62.1107 21.1284 61.1914 21.456 60.4481C21.7005 59.9004 22.033 59.409 22.4536 58.9737C22.879 58.5385 23.3436 58.2158 23.8472 58.0055C24.5172 57.7219 25.2898 57.5801 26.1651 57.5801C27.7495 57.5801 29.016 58.0715 29.9647 59.0544C30.9182 60.0373 31.395 61.4041 31.395 63.1547C31.395 64.8907 30.9231 66.2501 29.9793 67.233C29.0356 68.211 27.7739 68.7 26.1944 68.7C24.5954 68.7 23.324 68.2135 22.3802 67.2404C21.4364 66.2624 20.9645 64.9176 20.9645 63.2061ZM23.2017 63.1327C23.2017 64.3503 23.4829 65.2746 24.0453 65.9054C24.6076 66.5313 25.3216 66.8443 26.1871 66.8443C27.0527 66.8443 27.7617 66.5337 28.3143 65.9127C28.8717 65.2868 29.1505 64.3503 29.1505 63.1034C29.1505 61.8711 28.8791 60.9518 28.3363 60.3454C27.7984 59.739 27.082 59.4358 26.1871 59.4358C25.2922 59.4358 24.571 59.7439 24.0233 60.3601C23.4756 60.9713 23.2017 61.8955 23.2017 63.1327ZM33.1408 57.7635H41.18V59.5679H35.3119V62.0618H38.2166C39.0186 62.0618 39.6836 62.1596 40.2118 62.3552C40.7399 62.5508 41.1898 62.9127 41.5614 63.4408C41.938 63.9689 42.1262 64.5875 42.1262 65.2966C42.1262 66.0252 41.938 66.6487 41.5614 67.167C41.1849 67.6854 40.7546 68.0399 40.2704 68.2306C39.7912 68.4213 39.1066 68.5167 38.2166 68.5167H33.1408V57.7635ZM35.3119 66.7122H37.4244C38.0993 66.7122 38.5736 66.6805 38.8474 66.6169C39.1213 66.5484 39.3585 66.3968 39.5589 66.1621C39.7643 65.9274 39.867 65.6389 39.867 65.2966C39.867 64.7978 39.6885 64.4359 39.3316 64.211C38.9795 63.9811 38.3756 63.8662 37.5198 63.8662H35.3119V66.7122ZM44.2827 57.7635H51.8158V68.5167H49.6447V59.5825H46.4099V64.1743C46.4099 65.4897 46.3659 66.4091 46.2779 66.9323C46.1898 67.4506 45.9747 67.8565 45.6324 68.1499C45.295 68.4384 44.7644 68.5827 44.0407 68.5827C43.7864 68.5827 43.3243 68.5582 42.6543 68.5093V66.8296L43.1385 66.8369C43.5932 66.8369 43.8989 66.7758 44.0553 66.6536C44.2118 66.5313 44.2901 66.2306 44.2901 65.7513L44.2827 63.9029V57.7635Z" fill="#BB1F2B"/>
<path d="M141.606 68.5167H139.244L138.305 66.0741H134.007L133.119 68.5167H130.816L135.004 57.7635H137.3L141.606 68.5167ZM137.608 64.2623L136.127 60.272L134.674 64.2623H137.608ZM142.875 57.7635H150.159V59.5679H145.046V68.5167H142.875V57.7635Z" fill="#BB1F2B"/>
<path d="M101.961 120.669H103.993V127.828L108.35 120.669H110.514V131.422H108.482V124.403L104.132 131.422H101.961V120.669ZM112.773 120.669H120.812V122.473H114.944V124.967H117.849C118.651 124.967 119.316 125.065 119.844 125.261C120.372 125.456 120.822 125.818 121.193 126.346C121.57 126.874 121.758 127.493 121.758 128.202C121.758 128.931 121.57 129.554 121.193 130.073C120.817 130.591 120.387 130.945 119.902 131.136C119.423 131.327 118.739 131.422 117.849 131.422H112.773V120.669ZM114.944 129.618H117.056C117.731 129.618 118.206 129.586 118.479 129.522C118.753 129.454 118.99 129.302 119.191 129.068C119.396 128.833 119.499 128.544 119.499 128.202C119.499 127.703 119.321 127.341 118.964 127.117C118.612 126.887 118.008 126.772 117.152 126.772H114.944V129.618ZM130.201 127.469L132.306 128.136C131.983 129.31 131.445 130.183 130.692 130.755C129.944 131.322 128.993 131.606 127.839 131.606C126.411 131.606 125.238 131.119 124.318 130.146C123.399 129.168 122.939 127.833 122.939 126.141C122.939 124.351 123.401 122.962 124.326 121.975C125.25 120.982 126.465 120.486 127.971 120.486C129.286 120.486 130.355 120.874 131.176 121.652C131.665 122.112 132.032 122.772 132.277 123.632L130.128 124.146C130 123.588 129.734 123.148 129.328 122.826C128.927 122.503 128.438 122.341 127.861 122.341C127.064 122.341 126.416 122.627 125.917 123.2C125.423 123.772 125.176 124.698 125.176 125.98C125.176 127.339 125.421 128.307 125.91 128.884C126.399 129.461 127.035 129.75 127.817 129.75C128.394 129.75 128.89 129.566 129.306 129.2C129.722 128.833 130.02 128.256 130.201 127.469Z" fill="#BB1F2B"/>
<path d="M36.8096 131.422L40.4845 125.811L37.1543 120.669H39.6923L41.8488 124.124L43.9613 120.669H46.4772L43.1324 125.892L46.8073 131.422H44.1887L41.8048 127.703L39.4135 131.422H36.8096ZM47.9662 120.669H56.0055V122.473H50.1374V124.967H53.0421C53.8441 124.967 54.5091 125.065 55.0372 125.261C55.5654 125.456 56.0153 125.818 56.3869 126.346C56.7634 126.874 56.9517 127.493 56.9517 128.202C56.9517 128.931 56.7634 129.554 56.3869 130.073C56.0104 130.591 55.58 130.945 55.0959 131.136C54.6167 131.327 53.9321 131.422 53.0421 131.422H47.9662V120.669ZM50.1374 129.618H52.2499C52.9247 129.618 53.3991 129.586 53.6729 129.522C53.9468 129.454 54.1839 129.302 54.3844 129.068C54.5898 128.833 54.6925 128.544 54.6925 128.202C54.6925 127.703 54.514 127.341 54.157 127.117C53.805 126.887 53.201 126.772 52.3453 126.772H50.1374V129.618ZM58.7488 120.669H67.3015V131.422H65.1303V122.473H60.92V131.422H58.7488V120.669Z" fill="#BB1F2B"/>
<path d="M70.1658 43.0444V41.1511H66.3149V39.5722L70.3968 33.5969H71.9115V39.5658H73.0796V41.1511H71.9115V43.0444H70.1658ZM70.1658 39.5658V36.3503L68.0029 39.5658H70.1658ZM73.9461 35.4389V33.7637H80.114V35.073C79.6048 35.5737 79.0871 36.2925 78.5608 37.2296C78.0345 38.1666 77.6323 39.1636 77.3542 40.2204C77.0803 41.273 76.9455 42.2143 76.9498 43.0444H75.2105C75.2404 41.7437 75.5079 40.4173 76.0127 39.0652C76.5219 37.7131 77.2001 36.5043 78.0473 35.4389H73.9461ZM81.603 41.2409H83.4065V42.531C83.4065 43.053 83.3616 43.4638 83.2717 43.7633C83.1819 44.0671 83.0107 44.3388 82.7583 44.5784C82.5101 44.818 82.1935 45.0063 81.8084 45.1432L81.4554 44.3987C81.8191 44.2789 82.0779 44.1141 82.232 43.9045C82.386 43.6948 82.4673 43.4081 82.4759 43.0444H81.603V41.2409ZM89.5359 43.0444H87.7324V36.2476C87.0734 36.8637 86.2968 37.3194 85.4026 37.6146V35.978C85.8732 35.824 86.3845 35.533 86.9365 35.1051C87.4885 34.673 87.8671 34.1702 88.0725 33.5969H89.5359V43.0444ZM92.2508 35.9588C92.2508 35.1158 92.4347 34.4911 92.8027 34.0846C93.175 33.6782 93.6777 33.4749 94.311 33.4749C94.9657 33.4749 95.477 33.6782 95.8449 34.0846C96.2172 34.4869 96.4033 35.1116 96.4033 35.9588C96.4033 36.8017 96.2172 37.4264 95.8449 37.8329C95.477 38.2394 94.9764 38.4426 94.3431 38.4426C93.6884 38.4426 93.175 38.2415 92.8027 37.8393C92.4347 37.4328 92.2508 36.806 92.2508 35.9588ZM93.6563 35.9459C93.6563 36.5578 93.7269 36.9686 93.8681 37.1782C93.9751 37.3322 94.1227 37.4093 94.311 37.4093C94.5035 37.4093 94.6533 37.3322 94.7603 37.1782C94.8972 36.9686 94.9657 36.5578 94.9657 35.9459C94.9657 35.3341 94.8972 34.9254 94.7603 34.72C94.6533 34.5617 94.5035 34.4826 94.311 34.4826C94.1227 34.4826 93.9751 34.5596 93.8681 34.7136C93.7269 34.9233 93.6563 35.3341 93.6563 35.9459ZM95.6845 43.4039H94.3495L99.3621 33.4749H100.659L95.6845 43.4039ZM98.5983 40.9329C98.5983 40.0899 98.7823 39.4652 99.1503 39.0587C99.5226 38.6523 100.03 38.449 100.671 38.449C101.318 38.449 101.825 38.6523 102.193 39.0587C102.565 39.4652 102.751 40.0899 102.751 40.9329C102.751 41.7801 102.565 42.4069 102.193 42.8134C101.825 43.2199 101.324 43.4231 100.691 43.4231C100.036 43.4231 99.5226 43.2199 99.1503 42.8134C98.7823 42.4069 98.5983 41.7801 98.5983 40.9329ZM100.004 40.9264C100.004 41.5383 100.075 41.9469 100.216 42.1523C100.323 42.3106 100.47 42.3898 100.659 42.3898C100.851 42.3898 100.999 42.3128 101.101 42.1587C101.243 41.9491 101.313 41.5383 101.313 40.9264C101.313 40.3146 101.245 39.9038 101.108 39.6941C101.001 39.5401 100.851 39.4631 100.659 39.4631C100.466 39.4631 100.318 39.5401 100.216 39.6941C100.075 39.9038 100.004 40.3146 100.004 40.9264Z" fill="#BB1F2B"/>
<path d="M24.8244 84.5582V86.2333H18.5025C18.571 85.6001 18.7764 85.001 19.1187 84.4362C19.461 83.8672 20.137 83.1141 21.1468 82.177C21.9598 81.4197 22.4583 80.9062 22.6423 80.6367C22.8904 80.2644 23.0145 79.8964 23.0145 79.5328C23.0145 79.1305 22.9054 78.8225 22.6872 78.6085C22.4732 78.3903 22.1759 78.2812 21.7951 78.2812C21.4185 78.2812 21.119 78.3946 20.8965 78.6214C20.674 78.8481 20.5456 79.2247 20.5114 79.751L18.7143 79.5713C18.8213 78.5786 19.1572 77.8662 19.722 77.434C20.2868 77.0018 20.9928 76.7858 21.84 76.7858C22.7685 76.7858 23.498 77.0361 24.0286 77.5367C24.5592 78.0373 24.8244 78.6599 24.8244 79.4044C24.8244 79.828 24.7474 80.2323 24.5934 80.6174C24.4436 80.9982 24.204 81.3983 23.8745 81.8176C23.6563 82.0957 23.2627 82.4958 22.6936 83.0178C22.1245 83.5398 21.763 83.8864 21.6089 84.0576C21.4592 84.2287 21.3372 84.3956 21.2431 84.5582H24.8244ZM29.0989 76.7858C30.0103 76.7858 30.7227 77.111 31.2362 77.7613C31.8481 78.5315 32.154 79.8087 32.154 81.593C32.154 83.373 31.8459 84.6523 31.2298 85.4311C30.7206 86.0729 30.0103 86.3938 29.0989 86.3938C28.1833 86.3938 27.4452 86.0429 26.8847 85.3412C26.3242 84.6352 26.0439 83.3794 26.0439 81.5737C26.0439 79.8023 26.352 78.5272 26.9681 77.7485C27.4773 77.1067 28.1876 76.7858 29.0989 76.7858ZM29.0989 78.2812C28.8807 78.2812 28.686 78.3518 28.5149 78.493C28.3437 78.6299 28.2111 78.8781 28.117 79.2375C27.9929 79.7039 27.9308 80.4891 27.9308 81.593C27.9308 82.6969 27.9865 83.4564 28.0977 83.8714C28.209 84.2822 28.348 84.5561 28.5149 84.693C28.686 84.8299 28.8807 84.8984 29.0989 84.8984C29.3172 84.8984 29.5119 84.8299 29.683 84.693C29.8542 84.5518 29.9868 84.3015 30.0809 83.942C30.205 83.4799 30.2671 82.6969 30.2671 81.593C30.2671 80.4891 30.2114 79.7317 30.1002 79.321C29.9889 78.9059 29.8477 78.6299 29.6766 78.493C29.5097 78.3518 29.3172 78.2812 29.0989 78.2812ZM33.3799 79.1477C33.3799 78.3047 33.5639 77.68 33.9318 77.2736C34.3041 76.8671 34.8069 76.6638 35.4401 76.6638C36.0948 76.6638 36.6061 76.8671 36.9741 77.2736C37.3463 77.6758 37.5324 78.3005 37.5324 79.1477C37.5324 79.9906 37.3463 80.6153 36.9741 81.0218C36.6061 81.4283 36.1055 81.6315 35.4722 81.6315C34.8176 81.6315 34.3041 81.4304 33.9318 81.0282C33.5639 80.6217 33.3799 79.9949 33.3799 79.1477ZM34.7855 79.1348C34.7855 79.7467 34.8561 80.1575 34.9973 80.3671C35.1042 80.5212 35.2518 80.5982 35.4401 80.5982C35.6327 80.5982 35.7824 80.5212 35.8894 80.3671C36.0263 80.1575 36.0948 79.7467 36.0948 79.1348C36.0948 78.523 36.0263 78.1143 35.8894 77.909C35.7824 77.7506 35.6327 77.6715 35.4401 77.6715C35.2518 77.6715 35.1042 77.7485 34.9973 77.9025C34.8561 78.1122 34.7855 78.523 34.7855 79.1348ZM36.8136 86.5928H35.4786L40.4912 76.6638H41.7877L36.8136 86.5928ZM39.7275 84.1218C39.7275 83.2788 39.9115 82.6541 40.2794 82.2476C40.6517 81.8412 41.1587 81.6379 41.8005 81.6379C42.4466 81.6379 42.9537 81.8412 43.3216 82.2476C43.6939 82.6541 43.88 83.2788 43.88 84.1218C43.88 84.969 43.6939 85.5958 43.3216 86.0023C42.9537 86.4088 42.4531 86.612 41.8198 86.612C41.1651 86.612 40.6517 86.4088 40.2794 86.0023C39.9115 85.5958 39.7275 84.969 39.7275 84.1218ZM41.133 84.1153C41.133 84.7272 41.2036 85.1358 41.3448 85.3412C41.4518 85.4995 41.5994 85.5787 41.7877 85.5787C41.9802 85.5787 42.1279 85.5017 42.2306 85.3476C42.3718 85.138 42.4424 84.7272 42.4424 84.1153C42.4424 83.5035 42.3739 83.0927 42.237 82.883C42.13 82.729 41.9802 82.652 41.7877 82.652C41.5952 82.652 41.4475 82.729 41.3448 82.883C41.2036 83.0927 41.133 83.5035 41.133 84.1153Z" fill="#BB1F2B"/>
<path d="M123.571 81.1566C123.104 80.9597 122.764 80.6902 122.55 80.3479C122.34 80.0013 122.236 79.6226 122.236 79.2118C122.236 78.5101 122.479 77.9303 122.967 77.4725C123.459 77.0147 124.157 76.7858 125.06 76.7858C125.954 76.7858 126.647 77.0147 127.139 77.4725C127.635 77.9303 127.884 78.5101 127.884 79.2118C127.884 79.6483 127.77 80.0376 127.543 80.38C127.317 80.718 126.998 80.9768 126.587 81.1566C127.109 81.3662 127.505 81.6721 127.774 82.0744C128.048 82.4766 128.185 82.9408 128.185 83.4671C128.185 84.3357 127.907 85.0417 127.351 85.5851C126.799 86.1285 126.063 86.4002 125.143 86.4002C124.287 86.4002 123.575 86.1756 123.006 85.7263C122.334 85.1957 121.998 84.4683 121.998 83.5441C121.998 83.0349 122.124 82.5686 122.377 82.145C122.629 81.7171 123.027 81.3876 123.571 81.1566ZM123.943 79.3402C123.943 79.6996 124.043 79.9799 124.244 80.181C124.45 80.3821 124.722 80.4826 125.06 80.4826C125.402 80.4826 125.676 80.3821 125.881 80.181C126.087 79.9756 126.189 79.6932 126.189 79.3338C126.189 78.9958 126.087 78.7262 125.881 78.5251C125.68 78.3197 125.413 78.217 125.079 78.217C124.732 78.217 124.456 78.3197 124.251 78.5251C124.046 78.7305 123.943 79.0022 123.943 79.3402ZM123.776 83.3708C123.776 83.8672 123.902 84.2544 124.155 84.5325C124.411 84.8106 124.73 84.9497 125.111 84.9497C125.483 84.9497 125.791 84.8171 126.035 84.5518C126.279 84.2822 126.401 83.895 126.401 83.3901C126.401 82.9494 126.277 82.5964 126.029 82.3311C125.781 82.0615 125.466 81.9267 125.085 81.9267C124.645 81.9267 124.315 82.0786 124.097 82.3824C123.883 82.6862 123.776 83.0157 123.776 83.3708ZM129.366 83.8137L131.163 83.6276C131.215 84.034 131.367 84.3571 131.619 84.5967C131.871 84.832 132.162 84.9497 132.492 84.9497C132.868 84.9497 133.187 84.7978 133.448 84.494C133.709 84.1859 133.84 83.7238 133.84 83.1077C133.84 82.53 133.709 82.0979 133.448 81.8112C133.191 81.5202 132.856 81.3748 132.441 81.3748C131.923 81.3748 131.459 81.6037 131.048 82.0615L129.584 81.8497L130.509 76.9526H135.277V78.6406H131.876L131.593 80.2388C131.996 80.0376 132.406 79.9371 132.826 79.9371C133.626 79.9371 134.304 80.2281 134.86 80.81C135.416 81.3919 135.695 82.1471 135.695 83.0756C135.695 83.8501 135.47 84.5411 135.021 85.1487C134.409 85.9787 133.559 86.3938 132.473 86.3938C131.604 86.3938 130.896 86.1606 130.348 85.6942C129.801 85.2278 129.473 84.601 129.366 83.8137ZM136.997 84.4298H138.801V85.7199C138.801 86.2419 138.756 86.6527 138.666 86.9522C138.576 87.256 138.405 87.5277 138.153 87.7673C137.905 88.0069 137.588 88.1952 137.203 88.3321L136.85 87.5876C137.214 87.4678 137.472 87.303 137.626 87.0934C137.78 86.8837 137.862 86.597 137.87 86.2333H136.997V84.4298ZM146.426 79.1284L144.68 79.321C144.637 78.9615 144.526 78.6962 144.346 78.5251C144.167 78.3539 143.933 78.2684 143.647 78.2684C143.266 78.2684 142.943 78.4395 142.678 78.7818C142.417 79.1241 142.252 79.8365 142.183 80.9191C142.633 80.3885 143.191 80.1232 143.858 80.1232C144.612 80.1232 145.255 80.4099 145.79 80.9833C146.329 81.5566 146.599 82.2969 146.599 83.204C146.599 84.1667 146.317 84.939 145.752 85.5209C145.187 86.1028 144.462 86.3938 143.576 86.3938C142.626 86.3938 141.845 86.0258 141.233 85.2899C140.622 84.5496 140.316 83.3387 140.316 81.6572C140.316 79.9328 140.634 78.6898 141.272 77.9282C141.909 77.1666 142.737 76.7858 143.756 76.7858C144.47 76.7858 145.061 76.9869 145.527 77.3891C145.998 77.787 146.297 78.3668 146.426 79.1284ZM142.337 83.0628C142.337 83.6489 142.472 84.1025 142.742 84.4234C143.011 84.74 143.319 84.8984 143.666 84.8984C144 84.8984 144.278 84.7679 144.5 84.5068C144.723 84.2458 144.834 83.818 144.834 83.2232C144.834 82.6113 144.714 82.1642 144.475 81.8818C144.235 81.5951 143.935 81.4518 143.576 81.4518C143.229 81.4518 142.936 81.5887 142.697 81.8626C142.457 82.1321 142.337 82.5322 142.337 83.0628ZM147.645 79.1477C147.645 78.3047 147.829 77.68 148.197 77.2736C148.569 76.8671 149.072 76.6638 149.705 76.6638C150.36 76.6638 150.871 76.8671 151.239 77.2736C151.612 77.6758 151.798 78.3005 151.798 79.1477C151.798 79.9906 151.612 80.6153 151.239 81.0218C150.871 81.4283 150.371 81.6315 149.738 81.6315C149.083 81.6315 148.569 81.4304 148.197 81.0282C147.829 80.6217 147.645 79.9949 147.645 79.1477ZM149.051 79.1348C149.051 79.7467 149.121 80.1575 149.263 80.3671C149.37 80.5212 149.517 80.5982 149.705 80.5982C149.898 80.5982 150.048 80.5212 150.155 80.3671C150.292 80.1575 150.36 79.7467 150.36 79.1348C150.36 78.523 150.292 78.1143 150.155 77.909C150.048 77.7506 149.898 77.6715 149.705 77.6715C149.517 77.6715 149.37 77.7485 149.263 77.9025C149.121 78.1122 149.051 78.523 149.051 79.1348ZM151.079 86.5928H149.744L154.757 76.6638H156.053L151.079 86.5928ZM153.993 84.1218C153.993 83.2788 154.177 82.6541 154.545 82.2476C154.917 81.8412 155.424 81.6379 156.066 81.6379C156.712 81.6379 157.219 81.8412 157.587 82.2476C157.959 82.6541 158.145 83.2788 158.145 84.1218C158.145 84.969 157.959 85.5958 157.587 86.0023C157.219 86.4088 156.718 86.612 156.085 86.612C155.43 86.612 154.917 86.4088 154.545 86.0023C154.177 85.5958 153.993 84.969 153.993 84.1218ZM155.398 84.1153C155.398 84.7272 155.469 85.1358 155.61 85.3412C155.717 85.4995 155.865 85.5787 156.053 85.5787C156.246 85.5787 156.393 85.5017 156.496 85.3476C156.637 85.138 156.708 84.7272 156.708 84.1153C156.708 83.5035 156.639 83.0927 156.502 82.883C156.395 82.729 156.246 82.652 156.053 82.652C155.86 82.652 155.713 82.729 155.61 82.883C155.469 83.0927 155.398 83.5035 155.398 84.1153Z" fill="#BB1F2B"/>
<path d="M98.5516 141.533V139.858H104.719V141.168C104.21 141.668 103.693 142.387 103.166 143.324C102.64 144.261 102.238 145.258 101.96 146.315C101.686 147.367 101.551 148.309 101.555 149.139H99.816C99.8459 147.838 100.113 146.512 100.618 145.16C101.127 143.808 101.806 142.599 102.653 141.533H98.5516ZM111.959 147.464V149.139H105.637C105.706 148.506 105.911 147.907 106.253 147.342C106.596 146.773 107.272 146.02 108.282 145.083C109.095 144.325 109.593 143.812 109.777 143.542C110.025 143.17 110.149 142.802 110.149 142.438C110.149 142.036 110.04 141.728 109.822 141.514C109.608 141.296 109.311 141.187 108.93 141.187C108.553 141.187 108.254 141.3 108.031 141.527C107.809 141.754 107.68 142.13 107.646 142.657L105.849 142.477C105.956 141.484 106.292 140.772 106.857 140.34C107.422 139.907 108.128 139.691 108.975 139.691C109.903 139.691 110.633 139.942 111.163 140.442C111.694 140.943 111.959 141.565 111.959 142.31C111.959 142.734 111.882 143.138 111.728 143.523C111.578 143.904 111.339 144.304 111.009 144.723C110.791 145.001 110.397 145.401 109.828 145.923C109.259 146.445 108.898 146.792 108.744 146.963C108.594 147.134 108.472 147.301 108.378 147.464H111.959ZM113.525 147.335H115.329V148.625C115.329 149.147 115.284 149.558 115.194 149.858C115.104 150.162 114.933 150.433 114.681 150.673C114.432 150.912 114.116 151.101 113.731 151.238L113.378 150.493C113.741 150.373 114 150.209 114.154 149.999C114.308 149.789 114.39 149.503 114.398 149.139H113.525V147.335ZM121.458 149.139H119.655V142.342C118.996 142.958 118.219 143.414 117.325 143.709V142.072C117.795 141.918 118.307 141.627 118.859 141.2C119.411 140.767 119.789 140.265 119.995 139.691H121.458V149.139ZM124.173 142.053C124.173 141.21 124.357 140.586 124.725 140.179C125.097 139.773 125.6 139.569 126.233 139.569C126.888 139.569 127.399 139.773 127.767 140.179C128.139 140.581 128.326 141.206 128.326 142.053C128.326 142.896 128.139 143.521 127.767 143.927C127.399 144.334 126.899 144.537 126.265 144.537C125.611 144.537 125.097 144.336 124.725 143.934C124.357 143.527 124.173 142.9 124.173 142.053ZM125.579 142.04C125.579 142.652 125.649 143.063 125.79 143.273C125.897 143.427 126.045 143.504 126.233 143.504C126.426 143.504 126.576 143.427 126.683 143.273C126.819 143.063 126.888 142.652 126.888 142.04C126.888 141.429 126.819 141.02 126.683 140.815C126.576 140.656 126.426 140.577 126.233 140.577C126.045 140.577 125.897 140.654 125.79 140.808C125.649 141.018 125.579 141.429 125.579 142.04ZM127.607 149.498H126.272L131.284 139.569H132.581L127.607 149.498ZM130.521 147.027C130.521 146.184 130.705 145.56 131.073 145.153C131.445 144.747 131.952 144.543 132.594 144.543C133.24 144.543 133.747 144.747 134.115 145.153C134.487 145.56 134.673 146.184 134.673 147.027C134.673 147.875 134.487 148.501 134.115 148.908C133.747 149.314 133.246 149.518 132.613 149.518C131.958 149.518 131.445 149.314 131.073 148.908C130.705 148.501 130.521 147.875 130.521 147.027ZM131.926 147.021C131.926 147.633 131.997 148.041 132.138 148.247C132.245 148.405 132.393 148.484 132.581 148.484C132.773 148.484 132.921 148.407 133.024 148.253C133.165 148.044 133.235 147.633 133.235 147.021C133.235 146.409 133.167 145.998 133.03 145.789C132.923 145.635 132.773 145.558 132.581 145.558C132.388 145.558 132.241 145.635 132.138 145.789C131.997 145.998 131.926 146.409 131.926 147.021Z" fill="#BB1F2B"/>
<path d="M38.2436 149.139V147.246H34.3926V145.667L38.4746 139.691H39.9893V145.66H41.1574V147.246H39.9893V149.139H38.2436ZM38.2436 145.66V142.445L36.0806 145.66H38.2436ZM45.5603 149.139V147.246H41.7094V145.667L45.7913 139.691H47.306V145.66H48.4741V147.246H47.306V149.139H45.5603ZM45.5603 145.66V142.445L43.3974 145.66H45.5603ZM49.6808 147.335H51.4843V148.625C51.4843 149.147 51.4394 149.558 51.3495 149.858C51.2596 150.162 51.0885 150.433 50.836 150.673C50.5879 150.912 50.2712 151.101 49.8861 151.238L49.5331 150.493C49.8968 150.373 50.1557 150.209 50.3098 149.999C50.4638 149.789 50.5451 149.503 50.5536 149.139H49.6808V147.335ZM54.5458 144.062C54.0794 143.865 53.7392 143.596 53.5253 143.253C53.3156 142.907 53.2108 142.528 53.2108 142.117C53.2108 141.416 53.4547 140.836 53.9424 140.378C54.4345 139.92 55.1319 139.691 56.0348 139.691C56.929 139.691 57.6222 139.92 58.1143 140.378C58.6106 140.836 58.8588 141.416 58.8588 142.117C58.8588 142.554 58.7454 142.943 58.5186 143.286C58.2918 143.624 57.9731 143.882 57.5623 144.062C58.0843 144.272 58.4801 144.578 58.7497 144.98C59.0235 145.382 59.1604 145.846 59.1604 146.373C59.1604 147.241 58.8823 147.947 58.3261 148.491C57.7741 149.034 57.0381 149.306 56.1182 149.306C55.2625 149.306 54.55 149.081 53.981 148.632C53.3092 148.101 52.9733 147.374 52.9733 146.45C52.9733 145.941 53.0995 145.474 53.352 145.051C53.6044 144.623 54.0023 144.293 54.5458 144.062ZM54.918 142.246C54.918 142.605 55.0186 142.885 55.2197 143.087C55.425 143.288 55.6967 143.388 56.0348 143.388C56.3771 143.388 56.6509 143.288 56.8563 143.087C57.0617 142.881 57.1644 142.599 57.1644 142.239C57.1644 141.901 57.0617 141.632 56.8563 141.431C56.6552 141.225 56.3878 141.123 56.054 141.123C55.7074 141.123 55.4315 141.225 55.2261 141.431C55.0207 141.636 54.918 141.908 54.918 142.246ZM54.7511 146.276C54.7511 146.773 54.8774 147.16 55.1298 147.438C55.3865 147.716 55.7053 147.855 56.0861 147.855C56.4584 147.855 56.7664 147.723 57.0103 147.457C57.2542 147.188 57.3762 146.801 57.3762 146.296C57.3762 145.855 57.2521 145.502 57.0039 145.237C56.7557 144.967 56.4413 144.832 56.0604 144.832C55.6197 144.832 55.2903 144.984 55.072 145.288C54.8581 145.592 54.7511 145.921 54.7511 146.276ZM60.3285 142.053C60.3285 141.21 60.5125 140.586 60.8805 140.179C61.2528 139.773 61.7555 139.569 62.3888 139.569C63.0434 139.569 63.5547 139.773 63.9227 140.179C64.295 140.581 64.4811 141.206 64.4811 142.053C64.4811 142.896 64.295 143.521 63.9227 143.927C63.5547 144.334 63.0541 144.537 62.4209 144.537C61.7662 144.537 61.2528 144.336 60.8805 143.934C60.5125 143.527 60.3285 142.9 60.3285 142.053ZM61.7341 142.04C61.7341 142.652 61.8047 143.063 61.9459 143.273C62.0529 143.427 62.2005 143.504 62.3888 143.504C62.5813 143.504 62.7311 143.427 62.838 143.273C62.975 143.063 63.0434 142.652 63.0434 142.04C63.0434 141.429 62.975 141.02 62.838 140.815C62.7311 140.656 62.5813 140.577 62.3888 140.577C62.2005 140.577 62.0529 140.654 61.9459 140.808C61.8047 141.018 61.7341 141.429 61.7341 142.04ZM63.7623 149.498H62.4273L67.4399 139.569H68.7364L63.7623 149.498ZM66.6761 147.027C66.6761 146.184 66.8601 145.56 67.2281 145.153C67.6003 144.747 68.1074 144.543 68.7492 144.543C69.3953 144.543 69.9023 144.747 70.2703 145.153C70.6426 145.56 70.8287 146.184 70.8287 147.027C70.8287 147.875 70.6426 148.501 70.2703 148.908C69.9023 149.314 69.4017 149.518 68.7685 149.518C68.1138 149.518 67.6003 149.314 67.2281 148.908C66.8601 148.501 66.6761 147.875 66.6761 147.027ZM68.0817 147.021C68.0817 147.633 68.1523 148.041 68.2935 148.247C68.4005 148.405 68.5481 148.484 68.7364 148.484C68.9289 148.484 69.0765 148.407 69.1792 148.253C69.3204 148.044 69.391 147.633 69.391 147.021C69.391 146.409 69.3226 145.998 69.1856 145.789C69.0787 145.635 68.9289 145.558 68.7364 145.558C68.5438 145.558 68.3962 145.635 68.2935 145.789C68.1523 145.998 68.0817 146.409 68.0817 147.021Z" fill="#BB1F2B"/>
</svg>
