<svg width="492" height="51" viewBox="0 0 492 51" fill="none" xmlns="http://www.w3.org/2000/svg">
<rect width="492" height="51" rx="25.5" fill="#D0D0D0"/>
<path d="M38.418 25.2227C38.418 23.6185 38.6579 22.2721 39.1377 21.1836C39.4958 20.3815 39.9827 19.6618 40.5986 19.0244C41.2217 18.387 41.902 17.9144 42.6396 17.6064C43.6208 17.1911 44.7523 16.9834 46.0342 16.9834C48.3545 16.9834 50.2093 17.7031 51.5986 19.1426C52.9951 20.582 53.6934 22.5837 53.6934 25.1475C53.6934 27.6898 53.0023 29.6807 51.6201 31.1201C50.238 32.5524 48.3903 33.2686 46.0771 33.2686C43.7354 33.2686 41.8734 32.556 40.4912 31.1309C39.109 29.6986 38.418 27.7292 38.418 25.2227ZM41.6943 25.1152C41.6943 26.8984 42.1061 28.252 42.9297 29.1758C43.7533 30.0924 44.7988 30.5508 46.0664 30.5508C47.334 30.5508 48.3724 30.096 49.1816 29.1865C49.998 28.2699 50.4062 26.8984 50.4062 25.0723C50.4062 23.2676 50.0088 21.9212 49.2139 21.0332C48.4261 20.1452 47.377 19.7012 46.0664 19.7012C44.7559 19.7012 43.6995 20.1523 42.8975 21.0547C42.0954 21.9499 41.6943 23.3034 41.6943 25.1152ZM56.0459 21.5918H66.1758V33H63.1572V24.0303H59.0645V33H56.0459V21.5918ZM71.7188 25.0723L68.9795 24.5781C69.2874 23.4753 69.8174 22.6589 70.5693 22.1289C71.3213 21.599 72.4385 21.334 73.9209 21.334C75.2673 21.334 76.2699 21.4951 76.9287 21.8174C77.5876 22.1325 78.0495 22.5371 78.3145 23.0312C78.5866 23.5182 78.7227 24.417 78.7227 25.7275L78.6904 29.251C78.6904 30.2536 78.737 30.9948 78.8301 31.4746C78.9303 31.9473 79.113 32.4557 79.3779 33H76.3916C76.3128 32.7995 76.2161 32.5023 76.1016 32.1084C76.0514 31.9294 76.0156 31.8112 75.9941 31.7539C75.4785 32.2552 74.9271 32.6312 74.3398 32.8818C73.7526 33.1325 73.126 33.2578 72.46 33.2578C71.2855 33.2578 70.3581 32.9391 69.6777 32.3018C69.0046 31.6644 68.668 30.8587 68.668 29.8848C68.668 29.2402 68.8219 28.6673 69.1299 28.166C69.4378 27.6576 69.8675 27.2708 70.4189 27.0059C70.9775 26.7337 71.7796 26.4974 72.8252 26.2969C74.236 26.0319 75.2135 25.7848 75.7578 25.5557V25.2549C75.7578 24.6748 75.6146 24.263 75.3281 24.0195C75.0417 23.7689 74.501 23.6436 73.7061 23.6436C73.1689 23.6436 72.75 23.751 72.4492 23.9658C72.1484 24.1735 71.9049 24.5423 71.7188 25.0723ZM75.7578 27.5215C75.3711 27.6504 74.7588 27.8044 73.9209 27.9834C73.083 28.1624 72.5352 28.3379 72.2773 28.5098C71.8835 28.7891 71.6865 29.1436 71.6865 29.5732C71.6865 29.9958 71.8441 30.361 72.1592 30.6689C72.4743 30.9769 72.8753 31.1309 73.3623 31.1309C73.9066 31.1309 74.4258 30.9518 74.9199 30.5938C75.2852 30.3216 75.5251 29.9886 75.6396 29.5947C75.7184 29.3369 75.7578 28.8464 75.7578 28.123V27.5215ZM91.6562 24.9648L88.6807 25.502C88.5804 24.9076 88.3512 24.46 87.9932 24.1592C87.6423 23.8584 87.1839 23.708 86.6182 23.708C85.8662 23.708 85.2646 23.9694 84.8135 24.4922C84.3695 25.0078 84.1475 25.8743 84.1475 27.0918C84.1475 28.4453 84.373 29.4014 84.8242 29.96C85.2826 30.5186 85.8949 30.7979 86.6611 30.7979C87.234 30.7979 87.7031 30.6367 88.0684 30.3145C88.4336 29.985 88.6914 29.4229 88.8418 28.6279L91.8066 29.1328C91.4987 30.4935 90.9079 31.5212 90.0342 32.2158C89.1605 32.9105 87.9896 33.2578 86.5215 33.2578C84.8529 33.2578 83.5208 32.7314 82.5254 31.6787C81.5371 30.626 81.043 29.1686 81.043 27.3066C81.043 25.4232 81.5407 23.9587 82.5361 22.9131C83.5316 21.8604 84.8779 21.334 86.5752 21.334C87.9645 21.334 89.0674 21.6348 89.8838 22.2363C90.7074 22.8307 91.2982 23.7402 91.6562 24.9648ZM93.8369 21.5918H96.8555V25.7705H101.174V21.5918H104.203V33H101.174V28.209H96.8555V33H93.8369V21.5918ZM109.51 25.0723L106.771 24.5781C107.078 23.4753 107.608 22.6589 108.36 22.1289C109.112 21.599 110.229 21.334 111.712 21.334C113.058 21.334 114.061 21.4951 114.72 21.8174C115.379 22.1325 115.84 22.5371 116.105 23.0312C116.378 23.5182 116.514 24.417 116.514 25.7275L116.481 29.251C116.481 30.2536 116.528 30.9948 116.621 31.4746C116.721 31.9473 116.904 32.4557 117.169 33H114.183C114.104 32.7995 114.007 32.5023 113.893 32.1084C113.842 31.9294 113.807 31.8112 113.785 31.7539C113.27 32.2552 112.718 32.6312 112.131 32.8818C111.544 33.1325 110.917 33.2578 110.251 33.2578C109.076 33.2578 108.149 32.9391 107.469 32.3018C106.796 31.6644 106.459 30.8587 106.459 29.8848C106.459 29.2402 106.613 28.6673 106.921 28.166C107.229 27.6576 107.659 27.2708 108.21 27.0059C108.769 26.7337 109.571 26.4974 110.616 26.2969C112.027 26.0319 113.005 25.7848 113.549 25.5557V25.2549C113.549 24.6748 113.406 24.263 113.119 24.0195C112.833 23.7689 112.292 23.6436 111.497 23.6436C110.96 23.6436 110.541 23.751 110.24 23.9658C109.939 24.1735 109.696 24.5423 109.51 25.0723ZM113.549 27.5215C113.162 27.6504 112.55 27.8044 111.712 27.9834C110.874 28.1624 110.326 28.3379 110.068 28.5098C109.674 28.7891 109.478 29.1436 109.478 29.5732C109.478 29.9958 109.635 30.361 109.95 30.6689C110.265 30.9769 110.666 31.1309 111.153 31.1309C111.698 31.1309 112.217 30.9518 112.711 30.5938C113.076 30.3216 113.316 29.9886 113.431 29.5947C113.509 29.3369 113.549 28.8464 113.549 28.123V27.5215ZM129.275 21.5918V33H126.278V28.2627H125.999C125.347 28.2627 124.868 28.3486 124.56 28.5205C124.259 28.6852 123.922 29.0397 123.55 29.584L123.367 29.8096L121.38 33H117.867L120.026 29.6914C120.642 28.7461 121.201 28.2018 121.702 28.0586C120.857 28.0085 120.17 27.6898 119.64 27.1025C119.117 26.5081 118.855 25.7526 118.855 24.8359C118.855 24.0983 119.027 23.4681 119.371 22.9453C119.722 22.4225 120.184 22.068 120.757 21.8818C121.337 21.6885 122.196 21.5918 123.335 21.5918H129.275ZM126.278 23.5361H124.119C123.324 23.5361 122.766 23.6507 122.443 23.8799C122.121 24.1019 121.96 24.4743 121.96 24.9971C121.96 25.5199 122.143 25.8958 122.508 26.125C122.873 26.3542 123.471 26.4688 124.302 26.4688H126.278V23.5361ZM138.353 21.5918H141.36V26.2539C141.862 26.1966 142.216 26.0426 142.424 25.792C142.632 25.5413 142.882 24.9935 143.176 24.1484C143.562 23.0241 143.985 22.3044 144.443 21.9893C144.902 21.6742 145.503 21.5166 146.248 21.5166C146.477 21.5166 146.875 21.5345 147.44 21.5703L147.451 23.5684C146.656 23.5684 146.148 23.6436 145.926 23.7939C145.704 23.9515 145.464 24.4206 145.206 25.2012C144.855 26.2539 144.35 26.902 143.691 27.1455C144.644 27.4105 145.45 28.2376 146.108 29.627C146.144 29.6986 146.184 29.7738 146.227 29.8525L147.913 33H144.669L143.165 29.7021C142.857 29.0361 142.589 28.61 142.359 28.4238C142.137 28.2305 141.804 28.1338 141.36 28.1338V33H138.353V21.5918ZM148.493 27.1348C148.493 26.1322 148.74 25.1618 149.234 24.2236C149.729 23.2855 150.427 22.5693 151.329 22.0752C152.239 21.5811 153.252 21.334 154.369 21.334C156.095 21.334 157.509 21.8962 158.612 23.0205C159.715 24.1377 160.267 25.5521 160.267 27.2637C160.267 28.9896 159.708 30.4219 158.591 31.5605C157.481 32.6921 156.081 33.2578 154.391 33.2578C153.345 33.2578 152.346 33.0215 151.394 32.5488C150.448 32.0762 149.729 31.3851 149.234 30.4756C148.74 29.5589 148.493 28.4453 148.493 27.1348ZM151.587 27.2959C151.587 28.4274 151.855 29.2939 152.393 29.8955C152.93 30.4971 153.592 30.7979 154.38 30.7979C155.168 30.7979 155.826 30.4971 156.356 29.8955C156.894 29.2939 157.162 28.4202 157.162 27.2744C157.162 26.1572 156.894 25.2979 156.356 24.6963C155.826 24.0947 155.168 23.7939 154.38 23.7939C153.592 23.7939 152.93 24.0947 152.393 24.6963C151.855 25.2979 151.587 26.1644 151.587 27.2959ZM162.426 21.5918H166.164L169 29.541L171.857 21.5918H175.585V33H173.018V25.4912L170.235 33H167.657L165.004 25.4912V33H162.426V21.5918ZM177.626 27.1348C177.626 26.1322 177.873 25.1618 178.367 24.2236C178.861 23.2855 179.56 22.5693 180.462 22.0752C181.371 21.5811 182.385 21.334 183.502 21.334C185.228 21.334 186.642 21.8962 187.745 23.0205C188.848 24.1377 189.399 25.5521 189.399 27.2637C189.399 28.9896 188.841 30.4219 187.724 31.5605C186.614 32.6921 185.214 33.2578 183.523 33.2578C182.478 33.2578 181.479 33.0215 180.526 32.5488C179.581 32.0762 178.861 31.3851 178.367 30.4756C177.873 29.5589 177.626 28.4453 177.626 27.1348ZM180.72 27.2959C180.72 28.4274 180.988 29.2939 181.525 29.8955C182.062 30.4971 182.725 30.7979 183.513 30.7979C184.3 30.7979 184.959 30.4971 185.489 29.8955C186.026 29.2939 186.295 28.4202 186.295 27.2744C186.295 26.1572 186.026 25.2979 185.489 24.6963C184.959 24.0947 184.3 23.7939 183.513 23.7939C182.725 23.7939 182.062 24.0947 181.525 24.6963C180.988 25.2979 180.72 26.1644 180.72 27.2959ZM191.688 21.5918H194.502V23.2676C194.867 22.6947 195.361 22.2292 195.984 21.8711C196.607 21.513 197.299 21.334 198.058 21.334C199.382 21.334 200.507 21.8532 201.431 22.8916C202.354 23.93 202.816 25.3766 202.816 27.2314C202.816 29.1364 202.351 30.6188 201.42 31.6787C200.489 32.7314 199.361 33.2578 198.036 33.2578C197.406 33.2578 196.833 33.1325 196.317 32.8818C195.809 32.6312 195.272 32.2015 194.706 31.5928V37.3398H191.688V21.5918ZM194.674 27.1025C194.674 28.3844 194.928 29.3333 195.437 29.9492C195.945 30.5579 196.564 30.8623 197.295 30.8623C197.997 30.8623 198.58 30.583 199.046 30.0244C199.511 29.4587 199.744 28.5348 199.744 27.2529C199.744 26.057 199.504 25.1689 199.024 24.5889C198.545 24.0088 197.95 23.7188 197.241 23.7188C196.504 23.7188 195.891 24.0052 195.404 24.5781C194.917 25.1439 194.674 25.9854 194.674 27.1025ZM213.784 16.8867H215.836C215.771 17.7962 215.532 18.4873 215.116 18.96C214.708 19.4255 213.695 19.6582 212.076 19.6582C211.883 19.6582 211.689 19.6546 211.496 19.6475H211.109C210.15 19.6475 209.369 19.7549 208.768 19.9697C208.166 20.1774 207.672 20.5856 207.285 21.1943C206.906 21.8031 206.709 22.7842 206.694 24.1377C207.138 23.2998 207.711 22.6732 208.413 22.2578C209.122 21.8424 209.964 21.6348 210.938 21.6348C212.434 21.6348 213.702 22.2184 214.74 23.3857C215.779 24.5459 216.298 25.8923 216.298 27.4248C216.298 29.0218 215.75 30.3932 214.654 31.5391C213.566 32.6849 212.141 33.2578 210.379 33.2578C209.169 33.2578 208.105 32.9678 207.188 32.3877C206.272 31.8076 205.617 31.0163 205.223 30.0137C204.829 29.0039 204.632 27.3353 204.632 25.0078C204.632 22.2721 205.133 20.3063 206.136 19.1104C207.146 17.9144 208.904 17.3164 211.41 17.3164H212.936C213.358 17.3164 213.641 17.1732 213.784 16.8867ZM207.704 27.3818C207.704 28.4202 207.962 29.2438 208.478 29.8525C209 30.4541 209.638 30.7549 210.39 30.7549C211.199 30.7549 211.861 30.4434 212.377 29.8203C212.9 29.1901 213.161 28.3809 213.161 27.3926C213.161 26.3828 212.896 25.57 212.366 24.9541C211.843 24.3311 211.195 24.0195 210.422 24.0195C209.67 24.0195 209.029 24.3239 208.499 24.9326C207.969 25.5413 207.704 26.3577 207.704 27.3818ZM218.747 21.5918H221.647V28.7568L226.288 21.5918H229.253V33H226.353V25.7061L221.647 33H218.747V21.5918ZM241.789 33H233.152V36.0078H230.703V30.5293H231.938C232.454 29.9564 232.88 29.0612 233.217 27.8438C233.553 26.6263 233.754 24.5423 233.818 21.5918H243.024V30.5293H244.249V36.0078H241.789V33ZM240.038 30.5293L240.049 24.0732H236.396C236.275 27.2243 235.773 29.3763 234.893 30.5293H240.038ZM246.204 21.5918H249.223V25.7705H253.541V21.5918H256.57V33H253.541V28.209H249.223V33H246.204V21.5918ZM258.923 27.1348C258.923 26.1322 259.17 25.1618 259.664 24.2236C260.158 23.2855 260.856 22.5693 261.759 22.0752C262.668 21.5811 263.682 21.334 264.799 21.334C266.525 21.334 267.939 21.8962 269.042 23.0205C270.145 24.1377 270.696 25.5521 270.696 27.2637C270.696 28.9896 270.138 30.4219 269.021 31.5605C267.91 32.6921 266.51 33.2578 264.82 33.2578C263.775 33.2578 262.776 33.0215 261.823 32.5488C260.878 32.0762 260.158 31.3851 259.664 30.4756C259.17 29.5589 258.923 28.4453 258.923 27.1348ZM262.017 27.2959C262.017 28.4274 262.285 29.2939 262.822 29.8955C263.359 30.4971 264.022 30.7979 264.81 30.7979C265.597 30.7979 266.256 30.4971 266.786 29.8955C267.323 29.2939 267.592 28.4202 267.592 27.2744C267.592 26.1572 267.323 25.2979 266.786 24.6963C266.256 24.0947 265.597 23.7939 264.81 23.7939C264.022 23.7939 263.359 24.0947 262.822 24.6963C262.285 25.2979 262.017 26.1644 262.017 27.2959ZM282.717 24.9648L279.741 25.502C279.641 24.9076 279.412 24.46 279.054 24.1592C278.703 23.8584 278.244 23.708 277.679 23.708C276.927 23.708 276.325 23.9694 275.874 24.4922C275.43 25.0078 275.208 25.8743 275.208 27.0918C275.208 28.4453 275.434 29.4014 275.885 29.96C276.343 30.5186 276.955 30.7979 277.722 30.7979C278.295 30.7979 278.764 30.6367 279.129 30.3145C279.494 29.985 279.752 29.4229 279.902 28.6279L282.867 29.1328C282.559 30.4935 281.968 31.5212 281.095 32.2158C280.221 32.9105 279.05 33.2578 277.582 33.2578C275.913 33.2578 274.581 32.7314 273.586 31.6787C272.598 30.626 272.104 29.1686 272.104 27.3066C272.104 25.4232 272.601 23.9587 273.597 22.9131C274.592 21.8604 275.938 21.334 277.636 21.334C279.025 21.334 280.128 21.6348 280.944 22.2363C281.768 22.8307 282.359 23.7402 282.717 24.9648ZM283.662 21.5918H293.985V24.0303H290.333V33H287.314V24.0303H283.662V21.5918ZM295.865 21.5918H298.884V26.3291H301.913C303.102 26.3291 304.015 26.415 304.652 26.5869C305.29 26.7588 305.82 27.1312 306.242 27.7041C306.665 28.2699 306.876 28.9287 306.876 29.6807C306.876 30.7835 306.496 31.6143 305.737 32.1729C304.985 32.7243 303.854 33 302.343 33H295.865V21.5918ZM298.884 31.0879H301.698C302.579 31.0879 303.141 30.9447 303.385 30.6582C303.635 30.3717 303.761 30.0316 303.761 29.6377C303.761 29.0863 303.546 28.7067 303.116 28.499C302.694 28.2913 301.938 28.1875 300.85 28.1875H298.884V31.0879ZM309.916 24.6104V21.5918H312.935V24.6104H309.916ZM309.916 33V29.9814H312.935V33H309.916ZM321.206 33L326.588 24.7822L321.711 17.252H325.428L328.586 22.3115L331.68 17.252H335.364L330.466 24.9004L335.848 33H332.013L328.521 27.5537L325.02 33H321.206ZM346.719 27.21L349.802 28.1875C349.329 29.9062 348.541 31.1846 347.438 32.0225C346.343 32.8532 344.95 33.2686 343.26 33.2686C341.169 33.2686 339.45 32.556 338.104 31.1309C336.757 29.6986 336.084 27.7435 336.084 25.2656C336.084 22.6445 336.761 20.6107 338.114 19.1641C339.468 17.7103 341.247 16.9834 343.453 16.9834C345.38 16.9834 346.944 17.5527 348.147 18.6914C348.864 19.3646 349.401 20.3314 349.759 21.5918L346.611 22.3438C346.425 21.5273 346.035 20.8828 345.44 20.4102C344.853 19.9375 344.137 19.7012 343.292 19.7012C342.125 19.7012 341.176 20.1201 340.445 20.958C339.722 21.7959 339.36 23.153 339.36 25.0293C339.36 27.0202 339.718 28.4382 340.435 29.2832C341.151 30.1283 342.082 30.5508 343.228 30.5508C344.073 30.5508 344.799 30.2822 345.408 29.7451C346.017 29.208 346.454 28.363 346.719 27.21ZM352.552 33V17.252H355.731V23.4502H361.962V17.252H365.142V33H361.962V26.1143H355.731V33H352.552ZM374.466 21.5918H377.366V28.7568L382.007 21.5918H384.972V33H382.071V25.7061L377.366 33H374.466V21.5918ZM392.62 33L398.002 24.7822L393.125 17.252H396.842L400 22.3115L403.094 17.252H406.778L401.88 24.9004L407.262 33H403.427L399.936 27.5537L396.434 33H392.62ZM407.67 25.2227C407.67 23.6185 407.91 22.2721 408.39 21.1836C408.748 20.3815 409.235 19.6618 409.851 19.0244C410.474 18.387 411.154 17.9144 411.892 17.6064C412.873 17.1911 414.004 16.9834 415.286 16.9834C417.606 16.9834 419.461 17.7031 420.851 19.1426C422.247 20.582 422.945 22.5837 422.945 25.1475C422.945 27.6898 422.254 29.6807 420.872 31.1201C419.49 32.5524 417.642 33.2686 415.329 33.2686C412.987 33.2686 411.125 32.556 409.743 31.1309C408.361 29.6986 407.67 27.7292 407.67 25.2227ZM410.946 25.1152C410.946 26.8984 411.358 28.252 412.182 29.1758C413.005 30.0924 414.051 30.5508 415.318 30.5508C416.586 30.5508 417.624 30.096 418.434 29.1865C419.25 28.2699 419.658 26.8984 419.658 25.0723C419.658 23.2676 419.261 21.9212 418.466 21.0332C417.678 20.1452 416.629 19.7012 415.318 19.7012C414.008 19.7012 412.951 20.1523 412.149 21.0547C411.347 21.9499 410.946 23.3034 410.946 25.1152ZM425.502 17.252H437.275V19.8945H428.682V23.5469H432.936C434.11 23.5469 435.084 23.6901 435.857 23.9766C436.631 24.263 437.29 24.793 437.834 25.5664C438.385 26.3398 438.661 27.2458 438.661 28.2842C438.661 29.3512 438.385 30.2643 437.834 31.0234C437.283 31.7826 436.652 32.3018 435.943 32.5811C435.242 32.8604 434.239 33 432.936 33H425.502V17.252ZM428.682 30.3574H431.775C432.764 30.3574 433.458 30.3109 433.859 30.2178C434.26 30.1175 434.608 29.8955 434.901 29.5518C435.202 29.208 435.353 28.7855 435.353 28.2842C435.353 27.5537 435.091 27.0238 434.568 26.6943C434.053 26.3577 433.168 26.1895 431.915 26.1895H428.682V30.3574ZM441.819 17.252H452.852V33H449.672V19.916H444.935V26.6406C444.935 28.5671 444.87 29.9134 444.741 30.6797C444.612 31.4388 444.297 32.0332 443.796 32.4629C443.302 32.8854 442.525 33.0967 441.465 33.0967C441.092 33.0967 440.416 33.0609 439.435 32.9893V30.5293L440.144 30.54C440.81 30.54 441.257 30.4505 441.486 30.2715C441.715 30.0924 441.83 29.652 441.83 28.9502L441.819 26.2432V17.252Z" fill="#BB1F2B"/>
</svg>
