<svg width="540" height="85" viewBox="0 0 540 85" fill="none" xmlns="http://www.w3.org/2000/svg">
<rect width="540" height="85" rx="42.5" fill="url(#paint0_linear_12_246)"/>
<circle cx="42.5" cy="42.5" r="42.5" fill="#BB1F2B"/>
<path d="M40.25 48.9584C39.8963 48.9313 39.5672 48.7668 39.3333 48.5L33.8333 43C33.7108 42.7435 33.6708 42.4552 33.7189 42.175C33.767 41.8947 33.9008 41.6363 34.1018 41.4352C34.3029 41.2341 34.5613 41.1004 34.8416 41.0523C35.1218 41.0042 35.4101 41.0442 35.6667 41.1667L40.195 45.695L55.8333 30.1667C56.0899 30.0442 56.3782 30.0042 56.6584 30.0523C56.9387 30.1004 57.1971 30.2341 57.3982 30.4352C57.5992 30.6363 57.733 30.8947 57.7811 31.175C57.8292 31.4552 57.7892 31.7435 57.6667 32L41.1667 48.5C40.9328 48.7668 40.6037 48.9313 40.25 48.9584Z" fill="white"/>
<path d="M43 59.5C40.051 59.4953 37.1572 58.7003 34.6197 57.1978C32.0822 55.6953 29.9937 53.5402 28.5717 50.9567C27.4907 49.0317 26.8226 46.9025 26.61 44.705C26.2745 41.4822 26.8953 38.2319 28.395 35.3596C29.8947 32.4872 32.207 30.1201 35.0433 28.5534C36.9684 27.4724 39.0975 26.8043 41.295 26.5917C43.4843 26.3562 45.6986 26.5683 47.8033 27.215C47.9912 27.2526 48.1691 27.3289 48.3257 27.4392C48.4823 27.5495 48.6141 27.6913 48.7128 27.8556C48.8114 28.0198 48.8746 28.2028 48.8983 28.3929C48.9221 28.583 48.9058 28.7759 48.8507 28.9593C48.7955 29.1428 48.7026 29.3127 48.578 29.4581C48.4534 29.6036 48.2997 29.7214 48.1269 29.804C47.954 29.8866 47.7659 29.9322 47.5744 29.9378C47.3829 29.9434 47.1924 29.909 47.015 29.8367C45.2341 29.3012 43.3642 29.1267 41.515 29.3234C39.6872 29.5105 37.9161 30.0656 36.3083 30.955C34.7594 31.8096 33.3899 32.9549 32.275 34.3284C31.1271 35.7275 30.2699 37.3416 29.7536 39.0762C29.2373 40.8108 29.0723 42.6309 29.2683 44.43C29.4555 46.2579 30.0105 48.029 30.9 49.6367C31.7545 51.1856 32.8999 52.5551 34.2733 53.67C35.6725 54.818 37.2866 55.6752 39.0211 56.1914C40.7557 56.7077 42.5759 56.8727 44.375 56.6767C46.2028 56.4895 47.9739 55.9345 49.5817 55.045C51.1306 54.1905 52.5001 53.0451 53.615 51.6717C54.7629 50.2726 55.6201 48.6585 56.1364 46.9239C56.6527 45.1893 56.8177 43.3692 56.6217 41.57C56.5852 41.1883 56.7018 40.8078 56.946 40.5121C57.1901 40.2164 57.5416 40.0298 57.9233 39.9934C58.305 39.9569 58.6856 40.0736 58.9813 40.3177C59.2769 40.5618 59.4635 40.9133 59.5 41.295C59.8338 44.5198 59.2103 47.7715 57.7072 50.644C56.2041 53.5165 53.8881 55.8825 51.0483 57.4467C49.1028 58.5719 46.9408 59.2717 44.705 59.5H43Z" fill="white"/>
<path d="M101.172 27V15.5469H105.469C106.344 15.5469 107.044 15.6641 107.57 15.8984C108.102 16.1276 108.516 16.4844 108.812 16.9688C109.115 17.4479 109.266 17.9505 109.266 18.4766C109.266 18.9661 109.133 19.4271 108.867 19.8594C108.602 20.2917 108.201 20.6406 107.664 20.9062C108.357 21.1094 108.888 21.4557 109.258 21.9453C109.633 22.4349 109.82 23.013 109.82 23.6797C109.82 24.2161 109.706 24.7161 109.477 25.1797C109.253 25.638 108.974 25.9922 108.641 26.2422C108.307 26.4922 107.888 26.6823 107.383 26.8125C106.883 26.9375 106.268 27 105.539 27H101.172ZM102.688 20.3594H105.164C105.836 20.3594 106.318 20.3151 106.609 20.2266C106.995 20.112 107.284 19.9219 107.477 19.6562C107.674 19.3906 107.773 19.0573 107.773 18.6562C107.773 18.276 107.682 17.9427 107.5 17.6562C107.318 17.3646 107.057 17.1667 106.719 17.0625C106.38 16.9531 105.799 16.8984 104.977 16.8984H102.688V20.3594ZM102.688 25.6484H105.539C106.029 25.6484 106.372 25.6302 106.57 25.5938C106.919 25.5312 107.211 25.4271 107.445 25.2812C107.68 25.1354 107.872 24.9245 108.023 24.6484C108.174 24.3672 108.25 24.0443 108.25 23.6797C108.25 23.2526 108.141 22.8828 107.922 22.5703C107.703 22.2526 107.398 22.0312 107.008 21.9062C106.622 21.776 106.065 21.7109 105.336 21.7109H102.688V25.6484ZM117.406 24.3281L118.859 24.5078C118.63 25.3568 118.206 26.0156 117.586 26.4844C116.966 26.9531 116.174 27.1875 115.211 27.1875C113.997 27.1875 113.034 26.8151 112.32 26.0703C111.612 25.3203 111.258 24.2708 111.258 22.9219C111.258 21.526 111.617 20.4427 112.336 19.6719C113.055 18.901 113.987 18.5156 115.133 18.5156C116.242 18.5156 117.148 18.8932 117.852 19.6484C118.555 20.4036 118.906 21.4661 118.906 22.8359C118.906 22.9193 118.904 23.0443 118.898 23.2109H112.711C112.763 24.1224 113.021 24.8203 113.484 25.3047C113.948 25.7891 114.526 26.0312 115.219 26.0312C115.734 26.0312 116.174 25.8958 116.539 25.625C116.904 25.3542 117.193 24.9219 117.406 24.3281ZM112.789 22.0547H117.422C117.359 21.3568 117.182 20.8333 116.891 20.4844C116.443 19.9427 115.862 19.6719 115.148 19.6719C114.503 19.6719 113.958 19.888 113.516 20.3203C113.078 20.7526 112.836 21.3307 112.789 22.0547ZM120.641 18.7031H125.414V19.8672H122.047V27H120.641V18.7031ZM131.797 24.3281L133.25 24.5078C133.021 25.3568 132.596 26.0156 131.977 26.4844C131.357 26.9531 130.565 27.1875 129.602 27.1875C128.388 27.1875 127.424 26.8151 126.711 26.0703C126.003 25.3203 125.648 24.2708 125.648 22.9219C125.648 21.526 126.008 20.4427 126.727 19.6719C127.445 18.901 128.378 18.5156 129.523 18.5156C130.633 18.5156 131.539 18.8932 132.242 19.6484C132.945 20.4036 133.297 21.4661 133.297 22.8359C133.297 22.9193 133.294 23.0443 133.289 23.2109H127.102C127.154 24.1224 127.411 24.8203 127.875 25.3047C128.339 25.7891 128.917 26.0312 129.609 26.0312C130.125 26.0312 130.565 25.8958 130.93 25.625C131.294 25.3542 131.583 24.9219 131.797 24.3281ZM127.18 22.0547H131.812C131.75 21.3568 131.573 20.8333 131.281 20.4844C130.833 19.9427 130.253 19.6719 129.539 19.6719C128.893 19.6719 128.349 19.888 127.906 20.3203C127.469 20.7526 127.227 21.3307 127.18 22.0547ZM133.734 18.7031H140.477V19.8672H137.805V27H136.406V19.8672H133.734V18.7031ZM147.047 25.9766C146.526 26.4193 146.023 26.7318 145.539 26.9141C145.06 27.0964 144.544 27.1875 143.992 27.1875C143.081 27.1875 142.38 26.9661 141.891 26.5234C141.401 26.0755 141.156 25.5052 141.156 24.8125C141.156 24.4062 141.247 24.0365 141.43 23.7031C141.617 23.3646 141.859 23.0938 142.156 22.8906C142.458 22.6875 142.797 22.5339 143.172 22.4297C143.448 22.3568 143.865 22.2865 144.422 22.2188C145.557 22.0833 146.393 21.9219 146.93 21.7344C146.935 21.5417 146.938 21.4193 146.938 21.3672C146.938 20.7943 146.805 20.3906 146.539 20.1562C146.18 19.8385 145.646 19.6797 144.938 19.6797C144.276 19.6797 143.786 19.7969 143.469 20.0312C143.156 20.2604 142.924 20.6693 142.773 21.2578L141.398 21.0703C141.523 20.4818 141.729 20.0078 142.016 19.6484C142.302 19.2839 142.716 19.0052 143.258 18.8125C143.799 18.6146 144.427 18.5156 145.141 18.5156C145.849 18.5156 146.424 18.599 146.867 18.7656C147.31 18.9323 147.635 19.1432 147.844 19.3984C148.052 19.6484 148.198 19.9661 148.281 20.3516C148.328 20.5911 148.352 21.0234 148.352 21.6484V23.5234C148.352 24.8307 148.38 25.6589 148.438 26.0078C148.5 26.3516 148.62 26.6823 148.797 27H147.328C147.182 26.7083 147.089 26.3672 147.047 25.9766ZM146.93 22.8359C146.419 23.0443 145.654 23.2214 144.633 23.3672C144.055 23.4505 143.646 23.5443 143.406 23.6484C143.167 23.7526 142.982 23.9062 142.852 24.1094C142.721 24.3073 142.656 24.5286 142.656 24.7734C142.656 25.1484 142.797 25.4609 143.078 25.7109C143.365 25.9609 143.781 26.0859 144.328 26.0859C144.87 26.0859 145.352 25.9688 145.773 25.7344C146.195 25.4948 146.505 25.1693 146.703 24.7578C146.854 24.4401 146.93 23.9714 146.93 23.3516V22.8359ZM149.422 18.7031H156.164V19.8672H153.492V27H152.094V19.8672H149.422V18.7031ZM157.508 18.7031H158.914V25.0312L162.812 18.7031H164.328V27H162.922V20.7109L159.023 27H157.508V18.7031ZM166.453 18.7031H169.695C170.492 18.7031 171.083 18.7708 171.469 18.9062C171.859 19.0365 172.193 19.2786 172.469 19.6328C172.75 19.987 172.891 20.4115 172.891 20.9062C172.891 21.3021 172.807 21.6484 172.641 21.9453C172.479 22.237 172.234 22.4818 171.906 22.6797C172.297 22.8099 172.62 23.0547 172.875 23.4141C173.135 23.7682 173.266 24.1901 173.266 24.6797C173.214 25.4661 172.932 26.0495 172.422 26.4297C171.911 26.8099 171.169 27 170.195 27H166.453V18.7031ZM167.859 22.1953H169.359C169.958 22.1953 170.37 22.1641 170.594 22.1016C170.818 22.0391 171.018 21.9141 171.195 21.7266C171.372 21.5339 171.461 21.3047 171.461 21.0391C171.461 20.6016 171.305 20.2969 170.992 20.125C170.685 19.9531 170.156 19.8672 169.406 19.8672H167.859V22.1953ZM167.859 25.8438H169.711C170.508 25.8438 171.055 25.7526 171.352 25.5703C171.648 25.3828 171.805 25.0625 171.82 24.6094C171.82 24.3438 171.734 24.099 171.562 23.875C171.391 23.6458 171.167 23.5026 170.891 23.4453C170.615 23.3828 170.172 23.3516 169.562 23.3516H167.859V25.8438ZM174.953 18.7031H176.359V22.1562H180.258V18.7031H181.664V27H180.258V23.3203H176.359V27H174.953V18.7031ZM183.727 30.1953L183.57 28.875C183.878 28.9583 184.146 29 184.375 29C184.688 29 184.938 28.9479 185.125 28.8438C185.312 28.7396 185.466 28.5938 185.586 28.4062C185.674 28.2656 185.818 27.9167 186.016 27.3594C186.042 27.2812 186.083 27.1667 186.141 27.0156L182.992 18.7031H184.508L186.234 23.5078C186.458 24.1172 186.659 24.7578 186.836 25.4297C186.997 24.7839 187.19 24.1536 187.414 23.5391L189.188 18.7031H190.594L187.438 27.1406C187.099 28.0521 186.836 28.6797 186.648 29.0234C186.398 29.487 186.112 29.8255 185.789 30.0391C185.466 30.2578 185.081 30.3672 184.633 30.3672C184.362 30.3672 184.06 30.3099 183.727 30.1953ZM191.805 18.7031H193.211V22.1719H194.914C195.039 20.9844 195.409 20.0781 196.023 19.4531C196.643 18.8281 197.445 18.5156 198.43 18.5156C199.268 18.5156 199.93 18.6849 200.414 19.0234C200.898 19.362 201.297 19.8281 201.609 20.4219C201.927 21.0156 202.086 21.8151 202.086 22.8203C202.086 24.2526 201.76 25.3385 201.109 26.0781C200.458 26.8177 199.576 27.1875 198.461 27.1875C197.424 27.1875 196.594 26.8438 195.969 26.1562C195.344 25.4688 194.992 24.526 194.914 23.3281H193.211V27H191.805V18.7031ZM198.508 19.7109C197.82 19.7109 197.284 19.9766 196.898 20.5078C196.518 21.0339 196.328 21.7734 196.328 22.7266C196.328 23.8672 196.521 24.7031 196.906 25.2344C197.292 25.7656 197.807 26.0312 198.453 26.0312C199.094 26.0312 199.617 25.7865 200.023 25.2969C200.435 24.8021 200.641 24.0078 200.641 22.9141C200.641 21.8464 200.464 21.0469 200.109 20.5156C199.755 19.9792 199.221 19.7109 198.508 19.7109ZM208.242 30.1797V18.7031H209.523V19.7812C209.826 19.3594 210.167 19.0443 210.547 18.8359C210.927 18.6224 211.388 18.5156 211.93 18.5156C212.638 18.5156 213.263 18.6979 213.805 19.0625C214.346 19.4271 214.755 19.9427 215.031 20.6094C215.307 21.2708 215.445 21.9974 215.445 22.7891C215.445 23.638 215.292 24.4036 214.984 25.0859C214.682 25.763 214.24 26.2839 213.656 26.6484C213.078 27.0078 212.469 27.1875 211.828 27.1875C211.359 27.1875 210.938 27.0885 210.562 26.8906C210.193 26.6927 209.888 26.4427 209.648 26.1406V30.1797H208.242ZM209.516 22.8984C209.516 23.9661 209.732 24.7552 210.164 25.2656C210.596 25.776 211.12 26.0312 211.734 26.0312C212.359 26.0312 212.893 25.7682 213.336 25.2422C213.784 24.7109 214.008 23.8906 214.008 22.7812C214.008 21.724 213.789 20.9323 213.352 20.4062C212.919 19.8802 212.401 19.6172 211.797 19.6172C211.198 19.6172 210.667 19.8984 210.203 20.4609C209.745 21.0182 209.516 21.8307 209.516 22.8984ZM222.828 24.3281L224.281 24.5078C224.052 25.3568 223.628 26.0156 223.008 26.4844C222.388 26.9531 221.596 27.1875 220.633 27.1875C219.419 27.1875 218.456 26.8151 217.742 26.0703C217.034 25.3203 216.68 24.2708 216.68 22.9219C216.68 21.526 217.039 20.4427 217.758 19.6719C218.477 18.901 219.409 18.5156 220.555 18.5156C221.664 18.5156 222.57 18.8932 223.273 19.6484C223.977 20.4036 224.328 21.4661 224.328 22.8359C224.328 22.9193 224.326 23.0443 224.32 23.2109H218.133C218.185 24.1224 218.443 24.8203 218.906 25.3047C219.37 25.7891 219.948 26.0312 220.641 26.0312C221.156 26.0312 221.596 25.8958 221.961 25.625C222.326 25.3542 222.615 24.9219 222.828 24.3281ZM218.211 22.0547H222.844C222.781 21.3568 222.604 20.8333 222.312 20.4844C221.865 19.9427 221.284 19.6719 220.57 19.6719C219.924 19.6719 219.38 19.888 218.938 20.3203C218.5 20.7526 218.258 21.3307 218.211 22.0547ZM226.062 18.7031H230.836V19.8672H227.469V27H226.062V18.7031ZM231.836 30.1953L231.68 28.875C231.987 28.9583 232.255 29 232.484 29C232.797 29 233.047 28.9479 233.234 28.8438C233.422 28.7396 233.576 28.5938 233.695 28.4062C233.784 28.2656 233.927 27.9167 234.125 27.3594C234.151 27.2812 234.193 27.1667 234.25 27.0156L231.102 18.7031H232.617L234.344 23.5078C234.568 24.1172 234.768 24.7578 234.945 25.4297C235.107 24.7839 235.299 24.1536 235.523 23.5391L237.297 18.7031H238.703L235.547 27.1406C235.208 28.0521 234.945 28.6797 234.758 29.0234C234.508 29.487 234.221 29.8255 233.898 30.0391C233.576 30.2578 233.19 30.3672 232.742 30.3672C232.471 30.3672 232.169 30.3099 231.836 30.1953ZM240.227 18.7031H246.758V27H245.359V19.8672H241.633V24C241.633 24.9635 241.602 25.599 241.539 25.9062C241.477 26.2135 241.305 26.4818 241.023 26.7109C240.742 26.9401 240.336 27.0547 239.805 27.0547C239.477 27.0547 239.099 27.0339 238.672 26.9922V25.8203H239.289C239.581 25.8203 239.789 25.7917 239.914 25.7344C240.039 25.6719 240.122 25.5755 240.164 25.4453C240.206 25.3151 240.227 24.8906 240.227 24.1719V18.7031ZM255.414 18.7031V27H254.016V23.7656H253.203C252.708 23.7656 252.339 23.8307 252.094 23.9609C251.854 24.0859 251.503 24.4948 251.039 25.1875L249.812 27H248.07L249.586 24.7656C250.049 24.0833 250.51 23.6979 250.969 23.6094C250.167 23.5 249.57 23.2109 249.18 22.7422C248.794 22.2734 248.602 21.7344 248.602 21.125C248.602 20.4062 248.854 19.8229 249.359 19.375C249.87 18.9271 250.607 18.7031 251.57 18.7031H255.414ZM254.016 19.8672H252.016C251.177 19.8672 250.635 19.9974 250.391 20.2578C250.151 20.5182 250.031 20.8229 250.031 21.1719C250.031 21.6667 250.208 22.0312 250.562 22.2656C250.922 22.4948 251.555 22.6094 252.461 22.6094H254.016V19.8672ZM257.578 18.7031H258.984V25.8438H262.875V18.7031H264.281V25.8438H265.188V29.3516H264.031V27H257.578V18.7031ZM266.727 18.7031H268.133V25.0312L272.031 18.7031H273.547V27H272.141V20.7109L268.242 27H266.727V18.7031ZM275.68 18.7031H277.086V22.1719H278.789C278.914 20.9844 279.284 20.0781 279.898 19.4531C280.518 18.8281 281.32 18.5156 282.305 18.5156C283.143 18.5156 283.805 18.6849 284.289 19.0234C284.773 19.362 285.172 19.8281 285.484 20.4219C285.802 21.0156 285.961 21.8151 285.961 22.8203C285.961 24.2526 285.635 25.3385 284.984 26.0781C284.333 26.8177 283.451 27.1875 282.336 27.1875C281.299 27.1875 280.469 26.8438 279.844 26.1562C279.219 25.4688 278.867 24.526 278.789 23.3281H277.086V27H275.68V18.7031ZM282.383 19.7109C281.695 19.7109 281.159 19.9766 280.773 20.5078C280.393 21.0339 280.203 21.7734 280.203 22.7266C280.203 23.8672 280.396 24.7031 280.781 25.2344C281.167 25.7656 281.682 26.0312 282.328 26.0312C282.969 26.0312 283.492 25.7865 283.898 25.2969C284.31 24.8021 284.516 24.0078 284.516 22.9141C284.516 21.8464 284.339 21.0469 283.984 20.5156C283.63 19.9792 283.096 19.7109 282.383 19.7109ZM288.055 20.3047V18.7031H289.656V20.3047H288.055ZM288.055 27V25.3984H289.656V27H288.055ZM296.711 27.125V26.5312C297.331 26.8385 297.763 27.0703 298.008 27.2266C298.253 27.3828 298.625 27.6589 299.125 28.0547V16.5391H299.914V28.0547C300.477 27.5182 301.281 27.0052 302.328 26.5156V27.1172C301.578 27.7891 301.008 28.3672 300.617 28.8516C300.232 29.3359 299.917 29.8359 299.672 30.3516H299.312C299.12 29.9036 298.826 29.4271 298.43 28.9219C298.039 28.4167 297.466 27.8177 296.711 27.125ZM314.438 25.9766C313.917 26.4193 313.414 26.7318 312.93 26.9141C312.451 27.0964 311.935 27.1875 311.383 27.1875C310.471 27.1875 309.771 26.9661 309.281 26.5234C308.792 26.0755 308.547 25.5052 308.547 24.8125C308.547 24.4062 308.638 24.0365 308.82 23.7031C309.008 23.3646 309.25 23.0938 309.547 22.8906C309.849 22.6875 310.188 22.5339 310.562 22.4297C310.839 22.3568 311.255 22.2865 311.812 22.2188C312.948 22.0833 313.784 21.9219 314.32 21.7344C314.326 21.5417 314.328 21.4193 314.328 21.3672C314.328 20.7943 314.195 20.3906 313.93 20.1562C313.57 19.8385 313.036 19.6797 312.328 19.6797C311.667 19.6797 311.177 19.7969 310.859 20.0312C310.547 20.2604 310.315 20.6693 310.164 21.2578L308.789 21.0703C308.914 20.4818 309.12 20.0078 309.406 19.6484C309.693 19.2839 310.107 19.0052 310.648 18.8125C311.19 18.6146 311.818 18.5156 312.531 18.5156C313.24 18.5156 313.815 18.599 314.258 18.7656C314.701 18.9323 315.026 19.1432 315.234 19.3984C315.443 19.6484 315.589 19.9661 315.672 20.3516C315.719 20.5911 315.742 21.0234 315.742 21.6484V23.5234C315.742 24.8307 315.771 25.6589 315.828 26.0078C315.891 26.3516 316.01 26.6823 316.188 27H314.719C314.573 26.7083 314.479 26.3672 314.438 25.9766ZM314.32 22.8359C313.81 23.0443 313.044 23.2214 312.023 23.3672C311.445 23.4505 311.036 23.5443 310.797 23.6484C310.557 23.7526 310.372 23.9062 310.242 24.1094C310.112 24.3073 310.047 24.5286 310.047 24.7734C310.047 25.1484 310.188 25.4609 310.469 25.7109C310.755 25.9609 311.172 26.0859 311.719 26.0859C312.26 26.0859 312.742 25.9688 313.164 25.7344C313.586 25.4948 313.896 25.1693 314.094 24.7578C314.245 24.4401 314.32 23.9714 314.32 23.3516V22.8359ZM317.922 18.7031H319.328V22.2891C319.776 22.2891 320.089 22.2031 320.266 22.0312C320.448 21.8594 320.714 21.3594 321.062 20.5312C321.339 19.875 321.562 19.4427 321.734 19.2344C321.906 19.026 322.104 18.8854 322.328 18.8125C322.552 18.7396 322.911 18.7031 323.406 18.7031H323.688V19.8672L323.297 19.8594C322.927 19.8594 322.69 19.9141 322.586 20.0234C322.477 20.138 322.31 20.4792 322.086 21.0469C321.872 21.5885 321.677 21.9635 321.5 22.1719C321.323 22.3802 321.049 22.5703 320.68 22.7422C321.284 22.9036 321.878 23.4661 322.461 24.4297L324 27H322.453L320.953 24.4297C320.646 23.9141 320.378 23.5755 320.148 23.4141C319.919 23.2474 319.646 23.1641 319.328 23.1641V27H317.922V18.7031ZM324.359 18.7031H331.102V19.8672H328.43V27H327.031V19.8672H324.359V18.7031ZM332.445 18.7031H333.852V25.0312L337.75 18.7031H339.266V27H337.859V20.7109L333.961 27H332.445V18.7031ZM341.391 18.7031H344.633C345.43 18.7031 346.021 18.7708 346.406 18.9062C346.797 19.0365 347.13 19.2786 347.406 19.6328C347.688 19.987 347.828 20.4115 347.828 20.9062C347.828 21.3021 347.745 21.6484 347.578 21.9453C347.417 22.237 347.172 22.4818 346.844 22.6797C347.234 22.8099 347.557 23.0547 347.812 23.4141C348.073 23.7682 348.203 24.1901 348.203 24.6797C348.151 25.4661 347.87 26.0495 347.359 26.4297C346.849 26.8099 346.107 27 345.133 27H341.391V18.7031ZM342.797 22.1953H344.297C344.896 22.1953 345.307 22.1641 345.531 22.1016C345.755 22.0391 345.956 21.9141 346.133 21.7266C346.31 21.5339 346.398 21.3047 346.398 21.0391C346.398 20.6016 346.242 20.2969 345.93 20.125C345.622 19.9531 345.094 19.8672 344.344 19.8672H342.797V22.1953ZM342.797 25.8438H344.648C345.445 25.8438 345.992 25.7526 346.289 25.5703C346.586 25.3828 346.742 25.0625 346.758 24.6094C346.758 24.3438 346.672 24.099 346.5 23.875C346.328 23.6458 346.104 23.5026 345.828 23.4453C345.552 23.3828 345.109 23.3516 344.5 23.3516H342.797V25.8438ZM349.891 18.7031H351.297V22.1562H355.195V18.7031H356.602V27H355.195V23.3203H351.297V27H349.891V18.7031ZM358.203 22.8516C358.203 21.3151 358.63 20.1771 359.484 19.4375C360.198 18.8229 361.068 18.5156 362.094 18.5156C363.234 18.5156 364.167 18.8906 364.891 19.6406C365.615 20.3854 365.977 21.4167 365.977 22.7344C365.977 23.8021 365.815 24.6432 365.492 25.2578C365.174 25.8672 364.708 26.3411 364.094 26.6797C363.484 27.0182 362.818 27.1875 362.094 27.1875C360.932 27.1875 359.992 26.8151 359.273 26.0703C358.56 25.3255 358.203 24.2526 358.203 22.8516ZM359.648 22.8516C359.648 23.9141 359.88 24.7109 360.344 25.2422C360.807 25.7682 361.391 26.0312 362.094 26.0312C362.792 26.0312 363.372 25.7656 363.836 25.2344C364.299 24.7031 364.531 23.8932 364.531 22.8047C364.531 21.7786 364.297 21.0026 363.828 20.4766C363.365 19.9453 362.786 19.6797 362.094 19.6797C361.391 19.6797 360.807 19.9427 360.344 20.4688C359.88 20.9948 359.648 21.7891 359.648 22.8516ZM373.047 23.9609L374.43 24.1406C374.279 25.0938 373.891 25.8411 373.266 26.3828C372.646 26.9193 371.883 27.1875 370.977 27.1875C369.841 27.1875 368.927 26.8177 368.234 26.0781C367.547 25.3333 367.203 24.2682 367.203 22.8828C367.203 21.987 367.352 21.2031 367.648 20.5312C367.945 19.8594 368.396 19.3568 369 19.0234C369.609 18.6849 370.271 18.5156 370.984 18.5156C371.885 18.5156 372.622 18.7448 373.195 19.2031C373.768 19.6562 374.135 20.3021 374.297 21.1406L372.93 21.3516C372.799 20.7943 372.568 20.375 372.234 20.0938C371.906 19.8125 371.508 19.6719 371.039 19.6719C370.331 19.6719 369.755 19.9271 369.312 20.4375C368.87 20.9427 368.648 21.7448 368.648 22.8438C368.648 23.9583 368.862 24.7682 369.289 25.2734C369.716 25.7786 370.273 26.0312 370.961 26.0312C371.513 26.0312 371.974 25.862 372.344 25.5234C372.714 25.1849 372.948 24.6641 373.047 23.9609ZM374.875 18.7031H381.617V19.8672H378.945V27H377.547V19.8672H374.875V18.7031ZM382.961 18.7031H384.367V25.0312L388.266 18.7031H389.781V27H388.375V20.7109L384.477 27H382.961V18.7031ZM401.766 23.9609L403.148 24.1406C402.997 25.0938 402.609 25.8411 401.984 26.3828C401.365 26.9193 400.602 27.1875 399.695 27.1875C398.56 27.1875 397.646 26.8177 396.953 26.0781C396.266 25.3333 395.922 24.2682 395.922 22.8828C395.922 21.987 396.07 21.2031 396.367 20.5312C396.664 19.8594 397.115 19.3568 397.719 19.0234C398.328 18.6849 398.99 18.5156 399.703 18.5156C400.604 18.5156 401.341 18.7448 401.914 19.2031C402.487 19.6562 402.854 20.3021 403.016 21.1406L401.648 21.3516C401.518 20.7943 401.286 20.375 400.953 20.0938C400.625 19.8125 400.227 19.6719 399.758 19.6719C399.049 19.6719 398.474 19.9271 398.031 20.4375C397.589 20.9427 397.367 21.7448 397.367 22.8438C397.367 23.9583 397.581 24.7682 398.008 25.2734C398.435 25.7786 398.992 26.0312 399.68 26.0312C400.232 26.0312 400.693 25.862 401.062 25.5234C401.432 25.1849 401.667 24.6641 401.766 23.9609ZM404.352 18.7031H405.758V25.0312L409.656 18.7031H411.172V27H409.766V20.7109L405.867 27H404.352V18.7031ZM413.328 18.7031H415.516L417.695 25.3438L420.117 18.7031H422.141V27H420.734V20.3203L418.281 27H417.023L414.703 20V27H413.328V18.7031ZM424.297 18.7031H430.844V27H429.438V19.8672H425.703V27H424.297V18.7031ZM438.375 25.9766C437.854 26.4193 437.352 26.7318 436.867 26.9141C436.388 27.0964 435.872 27.1875 435.32 27.1875C434.409 27.1875 433.708 26.9661 433.219 26.5234C432.729 26.0755 432.484 25.5052 432.484 24.8125C432.484 24.4062 432.576 24.0365 432.758 23.7031C432.945 23.3646 433.188 23.0938 433.484 22.8906C433.786 22.6875 434.125 22.5339 434.5 22.4297C434.776 22.3568 435.193 22.2865 435.75 22.2188C436.885 22.0833 437.721 21.9219 438.258 21.7344C438.263 21.5417 438.266 21.4193 438.266 21.3672C438.266 20.7943 438.133 20.3906 437.867 20.1562C437.508 19.8385 436.974 19.6797 436.266 19.6797C435.604 19.6797 435.115 19.7969 434.797 20.0312C434.484 20.2604 434.253 20.6693 434.102 21.2578L432.727 21.0703C432.852 20.4818 433.057 20.0078 433.344 19.6484C433.63 19.2839 434.044 19.0052 434.586 18.8125C435.128 18.6146 435.755 18.5156 436.469 18.5156C437.177 18.5156 437.753 18.599 438.195 18.7656C438.638 18.9323 438.964 19.1432 439.172 19.3984C439.38 19.6484 439.526 19.9661 439.609 20.3516C439.656 20.5911 439.68 21.0234 439.68 21.6484V23.5234C439.68 24.8307 439.708 25.6589 439.766 26.0078C439.828 26.3516 439.948 26.6823 440.125 27H438.656C438.51 26.7083 438.417 26.3672 438.375 25.9766ZM438.258 22.8359C437.747 23.0443 436.982 23.2214 435.961 23.3672C435.383 23.4505 434.974 23.5443 434.734 23.6484C434.495 23.7526 434.31 23.9062 434.18 24.1094C434.049 24.3073 433.984 24.5286 433.984 24.7734C433.984 25.1484 434.125 25.4609 434.406 25.7109C434.693 25.9609 435.109 26.0859 435.656 26.0859C436.198 26.0859 436.68 25.9688 437.102 25.7344C437.523 25.4948 437.833 25.1693 438.031 24.7578C438.182 24.4401 438.258 23.9714 438.258 23.3516V22.8359ZM440.75 18.7031H447.492V19.8672H444.82V27H443.422V19.8672H440.75V18.7031ZM448.836 18.7031H450.242V25.0312L454.141 18.7031H455.656V27H454.25V20.7109L450.352 27H448.836V18.7031ZM457.258 18.7031H458.664V20.2734C458.664 20.9505 458.703 21.4427 458.781 21.75C458.865 22.0521 459.06 22.3177 459.367 22.5469C459.674 22.7708 460.06 22.8828 460.523 22.8828C461.055 22.8828 461.742 22.7422 462.586 22.4609V18.7031H463.992V27H462.586V23.6562C461.721 23.9271 460.914 24.0625 460.164 24.0625C459.534 24.0625 458.977 23.9036 458.492 23.5859C458.013 23.263 457.688 22.8698 457.516 22.4062C457.344 21.9427 457.258 21.4323 457.258 20.875V18.7031ZM471.797 24.3281L473.25 24.5078C473.021 25.3568 472.596 26.0156 471.977 26.4844C471.357 26.9531 470.565 27.1875 469.602 27.1875C468.388 27.1875 467.424 26.8151 466.711 26.0703C466.003 25.3203 465.648 24.2708 465.648 22.9219C465.648 21.526 466.008 20.4427 466.727 19.6719C467.445 18.901 468.378 18.5156 469.523 18.5156C470.633 18.5156 471.539 18.8932 472.242 19.6484C472.945 20.4036 473.297 21.4661 473.297 22.8359C473.297 22.9193 473.294 23.0443 473.289 23.2109H467.102C467.154 24.1224 467.411 24.8203 467.875 25.3047C468.339 25.7891 468.917 26.0312 469.609 26.0312C470.125 26.0312 470.565 25.8958 470.93 25.625C471.294 25.3542 471.583 24.9219 471.797 24.3281ZM467.18 22.0547H471.812C471.75 21.3568 471.573 20.8333 471.281 20.4844C470.833 19.9427 470.253 19.6719 469.539 19.6719C468.893 19.6719 468.349 19.888 467.906 20.3203C467.469 20.7526 467.227 21.3307 467.18 22.0547ZM480.438 23.9609L481.82 24.1406C481.669 25.0938 481.281 25.8411 480.656 26.3828C480.036 26.9193 479.273 27.1875 478.367 27.1875C477.232 27.1875 476.318 26.8177 475.625 26.0781C474.938 25.3333 474.594 24.2682 474.594 22.8828C474.594 21.987 474.742 21.2031 475.039 20.5312C475.336 19.8594 475.786 19.3568 476.391 19.0234C477 18.6849 477.661 18.5156 478.375 18.5156C479.276 18.5156 480.013 18.7448 480.586 19.2031C481.159 19.6562 481.526 20.3021 481.688 21.1406L480.32 21.3516C480.19 20.7943 479.958 20.375 479.625 20.0938C479.297 19.8125 478.898 19.6719 478.43 19.6719C477.721 19.6719 477.146 19.9271 476.703 20.4375C476.26 20.9427 476.039 21.7448 476.039 22.8438C476.039 23.9583 476.253 24.7682 476.68 25.2734C477.107 25.7786 477.664 26.0312 478.352 26.0312C478.904 26.0312 479.365 25.862 479.734 25.5234C480.104 25.1849 480.339 24.6641 480.438 23.9609ZM483.016 18.7031H484.422V22.2891C484.87 22.2891 485.182 22.2031 485.359 22.0312C485.542 21.8594 485.807 21.3594 486.156 20.5312C486.432 19.875 486.656 19.4427 486.828 19.2344C487 19.026 487.198 18.8854 487.422 18.8125C487.646 18.7396 488.005 18.7031 488.5 18.7031H488.781V19.8672L488.391 19.8594C488.021 19.8594 487.784 19.9141 487.68 20.0234C487.57 20.138 487.404 20.4792 487.18 21.0469C486.966 21.5885 486.771 21.9635 486.594 22.1719C486.417 22.3802 486.143 22.5703 485.773 22.7422C486.378 22.9036 486.971 23.4661 487.555 24.4297L489.094 27H487.547L486.047 24.4297C485.74 23.9141 485.471 23.5755 485.242 23.4141C485.013 23.2474 484.74 23.1641 484.422 23.1641V27H483.016V18.7031ZM489.688 22.8516C489.688 21.3151 490.115 20.1771 490.969 19.4375C491.682 18.8229 492.552 18.5156 493.578 18.5156C494.719 18.5156 495.651 18.8906 496.375 19.6406C497.099 20.3854 497.461 21.4167 497.461 22.7344C497.461 23.8021 497.299 24.6432 496.977 25.2578C496.659 25.8672 496.193 26.3411 495.578 26.6797C494.969 27.0182 494.302 27.1875 493.578 27.1875C492.417 27.1875 491.477 26.8151 490.758 26.0703C490.044 25.3255 489.688 24.2526 489.688 22.8516ZM491.133 22.8516C491.133 23.9141 491.365 24.7109 491.828 25.2422C492.292 25.7682 492.875 26.0312 493.578 26.0312C494.276 26.0312 494.857 25.7656 495.32 25.2344C495.784 24.7031 496.016 23.8932 496.016 22.8047C496.016 21.7786 495.781 21.0026 495.312 20.4766C494.849 19.9453 494.271 19.6797 493.578 19.6797C492.875 19.6797 492.292 19.9427 491.828 20.4688C491.365 20.9948 491.133 21.7891 491.133 22.8516ZM499.125 18.7031H503.898V19.8672H500.531V27H499.125V18.7031ZM504.078 22.8516C504.078 21.3151 504.505 20.1771 505.359 19.4375C506.073 18.8229 506.943 18.5156 507.969 18.5156C509.109 18.5156 510.042 18.8906 510.766 19.6406C511.49 20.3854 511.852 21.4167 511.852 22.7344C511.852 23.8021 511.69 24.6432 511.367 25.2578C511.049 25.8672 510.583 26.3411 509.969 26.6797C509.359 27.0182 508.693 27.1875 507.969 27.1875C506.807 27.1875 505.867 26.8151 505.148 26.0703C504.435 25.3255 504.078 24.2526 504.078 22.8516ZM505.523 22.8516C505.523 23.9141 505.755 24.7109 506.219 25.2422C506.682 25.7682 507.266 26.0312 507.969 26.0312C508.667 26.0312 509.247 25.7656 509.711 25.2344C510.174 24.7031 510.406 23.8932 510.406 22.8047C510.406 21.7786 510.172 21.0026 509.703 20.4766C509.24 19.9453 508.661 19.6797 507.969 19.6797C507.266 19.6797 506.682 19.9427 506.219 20.4688C505.755 20.9948 505.523 21.7891 505.523 22.8516ZM100.531 43.8516C100.531 42.3151 100.958 41.1771 101.812 40.4375C102.526 39.8229 103.396 39.5156 104.422 39.5156C105.562 39.5156 106.495 39.8906 107.219 40.6406C107.943 41.3854 108.305 42.4167 108.305 43.7344C108.305 44.8021 108.143 45.6432 107.82 46.2578C107.503 46.8672 107.036 47.3411 106.422 47.6797C105.812 48.0182 105.146 48.1875 104.422 48.1875C103.26 48.1875 102.32 47.8151 101.602 47.0703C100.888 46.3255 100.531 45.2526 100.531 43.8516ZM101.977 43.8516C101.977 44.9141 102.208 45.7109 102.672 46.2422C103.135 46.7682 103.719 47.0312 104.422 47.0312C105.12 47.0312 105.701 46.7656 106.164 46.2344C106.628 45.7031 106.859 44.8932 106.859 43.8047C106.859 42.7786 106.625 42.0026 106.156 41.4766C105.693 40.9453 105.115 40.6797 104.422 40.6797C103.719 40.6797 103.135 40.9427 102.672 41.4688C102.208 41.9948 101.977 42.7891 101.977 43.8516ZM108.844 39.7031H115.586V40.8672H112.914V48H111.516V40.8672H108.844V39.7031ZM117.508 39.7031H123.289V46.8438H124.188V50.3516H123.031V48H116.5V50.3516H115.344V46.8438H116.086C117.076 45.5 117.549 43.1198 117.508 39.7031ZM118.68 40.8672C118.576 43.5599 118.159 45.5521 117.43 46.8438H121.891V40.8672H118.68ZM131.422 45.3281L132.875 45.5078C132.646 46.3568 132.221 47.0156 131.602 47.4844C130.982 47.9531 130.19 48.1875 129.227 48.1875C128.013 48.1875 127.049 47.8151 126.336 47.0703C125.628 46.3203 125.273 45.2708 125.273 43.9219C125.273 42.526 125.633 41.4427 126.352 40.6719C127.07 39.901 128.003 39.5156 129.148 39.5156C130.258 39.5156 131.164 39.8932 131.867 40.6484C132.57 41.4036 132.922 42.4661 132.922 43.8359C132.922 43.9193 132.919 44.0443 132.914 44.2109H126.727C126.779 45.1224 127.036 45.8203 127.5 46.3047C127.964 46.7891 128.542 47.0312 129.234 47.0312C129.75 47.0312 130.19 46.8958 130.555 46.625C130.919 46.3542 131.208 45.9219 131.422 45.3281ZM126.805 43.0547H131.438C131.375 42.3568 131.198 41.8333 130.906 41.4844C130.458 40.9427 129.878 40.6719 129.164 40.6719C128.518 40.6719 127.974 40.888 127.531 41.3203C127.094 41.7526 126.852 42.3307 126.805 43.0547ZM134.805 39.7031H141.336V48H139.938V40.8672H136.211V45C136.211 45.9635 136.18 46.599 136.117 46.9062C136.055 47.2135 135.883 47.4818 135.602 47.7109C135.32 47.9401 134.914 48.0547 134.383 48.0547C134.055 48.0547 133.677 48.0339 133.25 47.9922V46.8203H133.867C134.159 46.8203 134.367 46.7917 134.492 46.7344C134.617 46.6719 134.701 46.5755 134.742 46.4453C134.784 46.3151 134.805 45.8906 134.805 45.1719V39.7031ZM148.875 46.9766C148.354 47.4193 147.852 47.7318 147.367 47.9141C146.888 48.0964 146.372 48.1875 145.82 48.1875C144.909 48.1875 144.208 47.9661 143.719 47.5234C143.229 47.0755 142.984 46.5052 142.984 45.8125C142.984 45.4062 143.076 45.0365 143.258 44.7031C143.445 44.3646 143.688 44.0938 143.984 43.8906C144.286 43.6875 144.625 43.5339 145 43.4297C145.276 43.3568 145.693 43.2865 146.25 43.2188C147.385 43.0833 148.221 42.9219 148.758 42.7344C148.763 42.5417 148.766 42.4193 148.766 42.3672C148.766 41.7943 148.633 41.3906 148.367 41.1562C148.008 40.8385 147.474 40.6797 146.766 40.6797C146.104 40.6797 145.615 40.7969 145.297 41.0312C144.984 41.2604 144.753 41.6693 144.602 42.2578L143.227 42.0703C143.352 41.4818 143.557 41.0078 143.844 40.6484C144.13 40.2839 144.544 40.0052 145.086 39.8125C145.628 39.6146 146.255 39.5156 146.969 39.5156C147.677 39.5156 148.253 39.599 148.695 39.7656C149.138 39.9323 149.464 40.1432 149.672 40.3984C149.88 40.6484 150.026 40.9661 150.109 41.3516C150.156 41.5911 150.18 42.0234 150.18 42.6484V44.5234C150.18 45.8307 150.208 46.6589 150.266 47.0078C150.328 47.3516 150.448 47.6823 150.625 48H149.156C149.01 47.7083 148.917 47.3672 148.875 46.9766ZM148.758 43.8359C148.247 44.0443 147.482 44.2214 146.461 44.3672C145.883 44.4505 145.474 44.5443 145.234 44.6484C144.995 44.7526 144.81 44.9062 144.68 45.1094C144.549 45.3073 144.484 45.5286 144.484 45.7734C144.484 46.1484 144.625 46.4609 144.906 46.7109C145.193 46.9609 145.609 47.0859 146.156 47.0859C146.698 47.0859 147.18 46.9688 147.602 46.7344C148.023 46.4948 148.333 46.1693 148.531 45.7578C148.682 45.4401 148.758 44.9714 148.758 44.3516V43.8359ZM152.734 48V46.3984H154.336V48C154.336 48.5885 154.232 49.0625 154.023 49.4219C153.815 49.7865 153.484 50.0677 153.031 50.2656L152.641 49.6641C152.938 49.5339 153.156 49.3411 153.297 49.0859C153.438 48.8359 153.516 48.474 153.531 48H152.734ZM156.828 39.7031H158.234V43.1562H162.133V39.7031H163.539V48H162.133V44.3203H158.234V48H156.828V39.7031ZM171.078 46.9766C170.557 47.4193 170.055 47.7318 169.57 47.9141C169.091 48.0964 168.576 48.1875 168.023 48.1875C167.112 48.1875 166.411 47.9661 165.922 47.5234C165.432 47.0755 165.188 46.5052 165.188 45.8125C165.188 45.4062 165.279 45.0365 165.461 44.7031C165.648 44.3646 165.891 44.0938 166.188 43.8906C166.49 43.6875 166.828 43.5339 167.203 43.4297C167.479 43.3568 167.896 43.2865 168.453 43.2188C169.589 43.0833 170.424 42.9219 170.961 42.7344C170.966 42.5417 170.969 42.4193 170.969 42.3672C170.969 41.7943 170.836 41.3906 170.57 41.1562C170.211 40.8385 169.677 40.6797 168.969 40.6797C168.307 40.6797 167.818 40.7969 167.5 41.0312C167.188 41.2604 166.956 41.6693 166.805 42.2578L165.43 42.0703C165.555 41.4818 165.76 41.0078 166.047 40.6484C166.333 40.2839 166.747 40.0052 167.289 39.8125C167.831 39.6146 168.458 39.5156 169.172 39.5156C169.88 39.5156 170.456 39.599 170.898 39.7656C171.341 39.9323 171.667 40.1432 171.875 40.3984C172.083 40.6484 172.229 40.9661 172.312 41.3516C172.359 41.5911 172.383 42.0234 172.383 42.6484V44.5234C172.383 45.8307 172.411 46.6589 172.469 47.0078C172.531 47.3516 172.651 47.6823 172.828 48H171.359C171.214 47.7083 171.12 47.3672 171.078 46.9766ZM170.961 43.8359C170.451 44.0443 169.685 44.2214 168.664 44.3672C168.086 44.4505 167.677 44.5443 167.438 44.6484C167.198 44.7526 167.013 44.9062 166.883 45.1094C166.753 45.3073 166.688 45.5286 166.688 45.7734C166.688 46.1484 166.828 46.4609 167.109 46.7109C167.396 46.9609 167.812 47.0859 168.359 47.0859C168.901 47.0859 169.383 46.9688 169.805 46.7344C170.227 46.4948 170.536 46.1693 170.734 45.7578C170.885 45.4401 170.961 44.9714 170.961 44.3516V43.8359ZM174.578 39.7031H181.125V48H179.719V40.8672H175.984V48H174.578V39.7031ZM183.242 51.1797V39.7031H184.523V40.7812C184.826 40.3594 185.167 40.0443 185.547 39.8359C185.927 39.6224 186.388 39.5156 186.93 39.5156C187.638 39.5156 188.263 39.6979 188.805 40.0625C189.346 40.4271 189.755 40.9427 190.031 41.6094C190.307 42.2708 190.445 42.9974 190.445 43.7891C190.445 44.638 190.292 45.4036 189.984 46.0859C189.682 46.763 189.24 47.2839 188.656 47.6484C188.078 48.0078 187.469 48.1875 186.828 48.1875C186.359 48.1875 185.938 48.0885 185.562 47.8906C185.193 47.6927 184.888 47.4427 184.648 47.1406V51.1797H183.242ZM184.516 43.8984C184.516 44.9661 184.732 45.7552 185.164 46.2656C185.596 46.776 186.12 47.0312 186.734 47.0312C187.359 47.0312 187.893 46.7682 188.336 46.2422C188.784 45.7109 189.008 44.8906 189.008 43.7812C189.008 42.724 188.789 41.9323 188.352 41.4062C187.919 40.8802 187.401 40.6172 186.797 40.6172C186.198 40.6172 185.667 40.8984 185.203 41.4609C184.745 42.0182 184.516 42.8307 184.516 43.8984ZM198.492 39.7031V48H197.094V44.7656H196.281C195.786 44.7656 195.417 44.8307 195.172 44.9609C194.932 45.0859 194.581 45.4948 194.117 46.1875L192.891 48H191.148L192.664 45.7656C193.128 45.0833 193.589 44.6979 194.047 44.6094C193.245 44.5 192.648 44.2109 192.258 43.7422C191.872 43.2734 191.68 42.7344 191.68 42.125C191.68 41.4062 191.932 40.8229 192.438 40.375C192.948 39.9271 193.685 39.7031 194.648 39.7031H198.492ZM197.094 40.8672H195.094C194.255 40.8672 193.714 40.9974 193.469 41.2578C193.229 41.5182 193.109 41.8229 193.109 42.1719C193.109 42.6667 193.286 43.0312 193.641 43.2656C194 43.4948 194.633 43.6094 195.539 43.6094H197.094V40.8672ZM205.648 39.7031V43.2891C206.096 43.2891 206.411 43.2031 206.594 43.0312C206.776 42.8594 207.042 42.3594 207.391 41.5312C207.719 40.7448 208.013 40.2422 208.273 40.0234C208.529 39.8099 208.935 39.7031 209.492 39.7031H210.008V40.8672L209.625 40.8594C209.25 40.8594 209.01 40.9141 208.906 41.0234C208.797 41.138 208.63 41.4792 208.406 42.0469C208.198 42.5885 208.005 42.9635 207.828 43.1719C207.651 43.3802 207.375 43.5703 207 43.7422C207.609 43.9036 208.203 44.4661 208.781 45.4297L210.328 48H208.781L207.273 45.4297C206.966 44.9089 206.698 44.5677 206.469 44.4062C206.24 44.2448 205.966 44.1641 205.648 44.1641V48H204.211V44.1641C203.898 44.1641 203.628 44.2448 203.398 44.4062C203.169 44.5625 202.901 44.9036 202.594 45.4297L201.086 48H199.539L201.078 45.4297C201.661 44.4661 202.258 43.9036 202.867 43.7422C202.451 43.5495 202.159 43.3411 201.992 43.1172C201.826 42.888 201.576 42.3464 201.242 41.4922C201.128 41.2057 201.005 41.0286 200.875 40.9609C200.74 40.8932 200.539 40.8594 200.273 40.8594C200.206 40.8594 200.068 40.862 199.859 40.8672V39.7031H200.055C200.596 39.7031 200.977 39.737 201.195 39.8047C201.419 39.8672 201.617 40.0052 201.789 40.2188C201.966 40.4271 202.195 40.8646 202.477 41.5312C202.82 42.349 203.081 42.8464 203.258 43.0234C203.44 43.2005 203.758 43.2891 204.211 43.2891V39.7031H205.648ZM217.016 45.3281L218.469 45.5078C218.24 46.3568 217.815 47.0156 217.195 47.4844C216.576 47.9531 215.784 48.1875 214.82 48.1875C213.607 48.1875 212.643 47.8151 211.93 47.0703C211.221 46.3203 210.867 45.2708 210.867 43.9219C210.867 42.526 211.227 41.4427 211.945 40.6719C212.664 39.901 213.596 39.5156 214.742 39.5156C215.852 39.5156 216.758 39.8932 217.461 40.6484C218.164 41.4036 218.516 42.4661 218.516 43.8359C218.516 43.9193 218.513 44.0443 218.508 44.2109H212.32C212.372 45.1224 212.63 45.8203 213.094 46.3047C213.557 46.7891 214.135 47.0312 214.828 47.0312C215.344 47.0312 215.784 46.8958 216.148 46.625C216.513 46.3542 216.802 45.9219 217.016 45.3281ZM212.398 43.0547H217.031C216.969 42.3568 216.792 41.8333 216.5 41.4844C216.052 40.9427 215.471 40.6719 214.758 40.6719C214.112 40.6719 213.568 40.888 213.125 41.3203C212.688 41.7526 212.445 42.3307 212.398 43.0547ZM220.25 39.7031H221.656V43.1562H225.555V39.7031H226.961V48H225.555V44.3203H221.656V48H220.25V39.7031ZM229.094 39.7031H230.5V43.1562H234.398V39.7031H235.805V48H234.398V44.3203H230.5V48H229.094V39.7031ZM237.406 43.8516C237.406 42.3151 237.833 41.1771 238.688 40.4375C239.401 39.8229 240.271 39.5156 241.297 39.5156C242.438 39.5156 243.37 39.8906 244.094 40.6406C244.818 41.3854 245.18 42.4167 245.18 43.7344C245.18 44.8021 245.018 45.6432 244.695 46.2578C244.378 46.8672 243.911 47.3411 243.297 47.6797C242.688 48.0182 242.021 48.1875 241.297 48.1875C240.135 48.1875 239.195 47.8151 238.477 47.0703C237.763 46.3255 237.406 45.2526 237.406 43.8516ZM238.852 43.8516C238.852 44.9141 239.083 45.7109 239.547 46.2422C240.01 46.7682 240.594 47.0312 241.297 47.0312C241.995 47.0312 242.576 46.7656 243.039 46.2344C243.503 45.7031 243.734 44.8932 243.734 43.8047C243.734 42.7786 243.5 42.0026 243.031 41.4766C242.568 40.9453 241.99 40.6797 241.297 40.6797C240.594 40.6797 240.01 40.9427 239.547 41.4688C239.083 41.9948 238.852 42.7891 238.852 43.8516ZM252.25 44.9609L253.633 45.1406C253.482 46.0938 253.094 46.8411 252.469 47.3828C251.849 47.9193 251.086 48.1875 250.18 48.1875C249.044 48.1875 248.13 47.8177 247.438 47.0781C246.75 46.3333 246.406 45.2682 246.406 43.8828C246.406 42.987 246.555 42.2031 246.852 41.5312C247.148 40.8594 247.599 40.3568 248.203 40.0234C248.812 39.6849 249.474 39.5156 250.188 39.5156C251.089 39.5156 251.826 39.7448 252.398 40.2031C252.971 40.6562 253.339 41.3021 253.5 42.1406L252.133 42.3516C252.003 41.7943 251.771 41.375 251.438 41.0938C251.109 40.8125 250.711 40.6719 250.242 40.6719C249.534 40.6719 248.958 40.9271 248.516 41.4375C248.073 41.9427 247.852 42.7448 247.852 43.8438C247.852 44.9583 248.065 45.7682 248.492 46.2734C248.919 46.7786 249.477 47.0312 250.164 47.0312C250.716 47.0312 251.177 46.862 251.547 46.5234C251.917 46.1849 252.151 45.6641 252.25 44.9609ZM254.078 39.7031H260.82V40.8672H258.148V48H256.75V40.8672H254.078V39.7031ZM262.164 39.7031H263.57V46.0312L267.469 39.7031H268.984V48H267.578V41.7109L263.68 48H262.164V39.7031ZM275.555 51.1797V39.7031H276.836V40.7812C277.138 40.3594 277.479 40.0443 277.859 39.8359C278.24 39.6224 278.701 39.5156 279.242 39.5156C279.951 39.5156 280.576 39.6979 281.117 40.0625C281.659 40.4271 282.068 40.9427 282.344 41.6094C282.62 42.2708 282.758 42.9974 282.758 43.7891C282.758 44.638 282.604 45.4036 282.297 46.0859C281.995 46.763 281.552 47.2839 280.969 47.6484C280.391 48.0078 279.781 48.1875 279.141 48.1875C278.672 48.1875 278.25 48.0885 277.875 47.8906C277.505 47.6927 277.201 47.4427 276.961 47.1406V51.1797H275.555ZM276.828 43.8984C276.828 44.9661 277.044 45.7552 277.477 46.2656C277.909 46.776 278.432 47.0312 279.047 47.0312C279.672 47.0312 280.206 46.7682 280.648 46.2422C281.096 45.7109 281.32 44.8906 281.32 43.7812C281.32 42.724 281.102 41.9323 280.664 41.4062C280.232 40.8802 279.714 40.6172 279.109 40.6172C278.51 40.6172 277.979 40.8984 277.516 41.4609C277.057 42.0182 276.828 42.8307 276.828 43.8984ZM290.141 45.3281L291.594 45.5078C291.365 46.3568 290.94 47.0156 290.32 47.4844C289.701 47.9531 288.909 48.1875 287.945 48.1875C286.732 48.1875 285.768 47.8151 285.055 47.0703C284.346 46.3203 283.992 45.2708 283.992 43.9219C283.992 42.526 284.352 41.4427 285.07 40.6719C285.789 39.901 286.721 39.5156 287.867 39.5156C288.977 39.5156 289.883 39.8932 290.586 40.6484C291.289 41.4036 291.641 42.4661 291.641 43.8359C291.641 43.9193 291.638 44.0443 291.633 44.2109H285.445C285.497 45.1224 285.755 45.8203 286.219 46.3047C286.682 46.7891 287.26 47.0312 287.953 47.0312C288.469 47.0312 288.909 46.8958 289.273 46.625C289.638 46.3542 289.927 45.9219 290.141 45.3281ZM285.523 43.0547H290.156C290.094 42.3568 289.917 41.8333 289.625 41.4844C289.177 40.9427 288.596 40.6719 287.883 40.6719C287.237 40.6719 286.693 40.888 286.25 41.3203C285.812 41.7526 285.57 42.3307 285.523 43.0547ZM293.375 39.7031H298.148V40.8672H294.781V48H293.375V39.7031ZM299.148 51.1953L298.992 49.875C299.299 49.9583 299.568 50 299.797 50C300.109 50 300.359 49.9479 300.547 49.8438C300.734 49.7396 300.888 49.5938 301.008 49.4062C301.096 49.2656 301.24 48.9167 301.438 48.3594C301.464 48.2812 301.505 48.1667 301.562 48.0156L298.414 39.7031H299.93L301.656 44.5078C301.88 45.1172 302.081 45.7578 302.258 46.4297C302.419 45.7839 302.612 45.1536 302.836 44.5391L304.609 39.7031H306.016L302.859 48.1406C302.521 49.0521 302.258 49.6797 302.07 50.0234C301.82 50.487 301.534 50.8255 301.211 51.0391C300.888 51.2578 300.503 51.3672 300.055 51.3672C299.784 51.3672 299.482 51.3099 299.148 51.1953ZM307.539 39.7031H314.07V48H312.672V40.8672H308.945V45C308.945 45.9635 308.914 46.599 308.852 46.9062C308.789 47.2135 308.617 47.4818 308.336 47.7109C308.055 47.9401 307.648 48.0547 307.117 48.0547C306.789 48.0547 306.411 48.0339 305.984 47.9922V46.8203H306.602C306.893 46.8203 307.102 46.7917 307.227 46.7344C307.352 46.6719 307.435 46.5755 307.477 46.4453C307.518 46.3151 307.539 45.8906 307.539 45.1719V39.7031ZM322.727 39.7031V48H321.328V44.7656H320.516C320.021 44.7656 319.651 44.8307 319.406 44.9609C319.167 45.0859 318.815 45.4948 318.352 46.1875L317.125 48H315.383L316.898 45.7656C317.362 45.0833 317.823 44.6979 318.281 44.6094C317.479 44.5 316.883 44.2109 316.492 43.7422C316.107 43.2734 315.914 42.7344 315.914 42.125C315.914 41.4062 316.167 40.8229 316.672 40.375C317.182 39.9271 317.919 39.7031 318.883 39.7031H322.727ZM321.328 40.8672H319.328C318.49 40.8672 317.948 40.9974 317.703 41.2578C317.464 41.5182 317.344 41.8229 317.344 42.1719C317.344 42.6667 317.521 43.0312 317.875 43.2656C318.234 43.4948 318.867 43.6094 319.773 43.6094H321.328V40.8672ZM324.109 39.7031H330.852V40.8672H328.18V48H326.781V40.8672H324.109V39.7031ZM331.484 43.8516C331.484 42.3151 331.911 41.1771 332.766 40.4375C333.479 39.8229 334.349 39.5156 335.375 39.5156C336.516 39.5156 337.448 39.8906 338.172 40.6406C338.896 41.3854 339.258 42.4167 339.258 43.7344C339.258 44.8021 339.096 45.6432 338.773 46.2578C338.456 46.8672 337.99 47.3411 337.375 47.6797C336.766 48.0182 336.099 48.1875 335.375 48.1875C334.214 48.1875 333.273 47.8151 332.555 47.0703C331.841 46.3255 331.484 45.2526 331.484 43.8516ZM332.93 43.8516C332.93 44.9141 333.161 45.7109 333.625 46.2422C334.089 46.7682 334.672 47.0312 335.375 47.0312C336.073 47.0312 336.654 46.7656 337.117 46.2344C337.581 45.7031 337.812 44.8932 337.812 43.8047C337.812 42.7786 337.578 42.0026 337.109 41.4766C336.646 40.9453 336.068 40.6797 335.375 40.6797C334.672 40.6797 334.089 40.9427 333.625 41.4688C333.161 41.9948 332.93 42.7891 332.93 43.8516ZM340.914 51.1797V39.7031H342.195V40.7812C342.497 40.3594 342.839 40.0443 343.219 39.8359C343.599 39.6224 344.06 39.5156 344.602 39.5156C345.31 39.5156 345.935 39.6979 346.477 40.0625C347.018 40.4271 347.427 40.9427 347.703 41.6094C347.979 42.2708 348.117 42.9974 348.117 43.7891C348.117 44.638 347.964 45.4036 347.656 46.0859C347.354 46.763 346.911 47.2839 346.328 47.6484C345.75 48.0078 345.141 48.1875 344.5 48.1875C344.031 48.1875 343.609 48.0885 343.234 47.8906C342.865 47.6927 342.56 47.4427 342.32 47.1406V51.1797H340.914ZM342.188 43.8984C342.188 44.9661 342.404 45.7552 342.836 46.2656C343.268 46.776 343.792 47.0312 344.406 47.0312C345.031 47.0312 345.565 46.7682 346.008 46.2422C346.456 45.7109 346.68 44.8906 346.68 43.7812C346.68 42.724 346.461 41.9323 346.023 41.4062C345.591 40.8802 345.073 40.6172 344.469 40.6172C343.87 40.6172 343.339 40.8984 342.875 41.4609C342.417 42.0182 342.188 42.8307 342.188 43.8984ZM349.828 39.7031H351.234V43.1562H355.133V39.7031H356.539V48H355.133V44.3203H351.234V48H349.828V39.7031ZM366.562 39.7031H367.969V48H366.562V39.7031ZM358.695 39.7031H360.102V42.9453H361.883C363.044 42.9453 363.938 43.1719 364.562 43.625C365.193 44.0729 365.508 44.6927 365.508 45.4844C365.508 46.1771 365.245 46.7708 364.719 47.2656C364.198 47.7552 363.362 48 362.211 48H358.695V39.7031ZM360.102 46.8438H361.578C362.469 46.8438 363.104 46.7344 363.484 46.5156C363.865 46.2969 364.055 45.9557 364.055 45.4922C364.055 45.1328 363.914 44.8125 363.633 44.5312C363.352 44.25 362.729 44.1094 361.766 44.1094H360.102V46.8438ZM369.227 48L372.258 43.6875L369.453 39.7031H371.211L372.484 41.6484C372.724 42.0182 372.917 42.3281 373.062 42.5781C373.292 42.2344 373.503 41.9297 373.695 41.6641L375.094 39.7031H376.773L373.906 43.6094L376.992 48H375.266L373.562 45.4219L373.109 44.7266L370.93 48H369.227ZM388.031 44.9609L389.414 45.1406C389.263 46.0938 388.875 46.8411 388.25 47.3828C387.63 47.9193 386.867 48.1875 385.961 48.1875C384.826 48.1875 383.911 47.8177 383.219 47.0781C382.531 46.3333 382.188 45.2682 382.188 43.8828C382.188 42.987 382.336 42.2031 382.633 41.5312C382.93 40.8594 383.38 40.3568 383.984 40.0234C384.594 39.6849 385.255 39.5156 385.969 39.5156C386.87 39.5156 387.607 39.7448 388.18 40.2031C388.753 40.6562 389.12 41.3021 389.281 42.1406L387.914 42.3516C387.784 41.7943 387.552 41.375 387.219 41.0938C386.891 40.8125 386.492 40.6719 386.023 40.6719C385.315 40.6719 384.74 40.9271 384.297 41.4375C383.854 41.9427 383.633 42.7448 383.633 43.8438C383.633 44.9583 383.846 45.7682 384.273 46.2734C384.701 46.7786 385.258 47.0312 385.945 47.0312C386.497 47.0312 386.958 46.862 387.328 46.5234C387.698 46.1849 387.932 45.6641 388.031 44.9609ZM390.617 39.7031H392.023V46.0312L395.922 39.7031H397.438V48H396.031V41.7109L392.133 48H390.617V39.7031ZM404.969 44.9609L406.352 45.1406C406.201 46.0938 405.812 46.8411 405.188 47.3828C404.568 47.9193 403.805 48.1875 402.898 48.1875C401.763 48.1875 400.849 47.8177 400.156 47.0781C399.469 46.3333 399.125 45.2682 399.125 43.8828C399.125 42.987 399.273 42.2031 399.57 41.5312C399.867 40.8594 400.318 40.3568 400.922 40.0234C401.531 39.6849 402.193 39.5156 402.906 39.5156C403.807 39.5156 404.544 39.7448 405.117 40.2031C405.69 40.6562 406.057 41.3021 406.219 42.1406L404.852 42.3516C404.721 41.7943 404.49 41.375 404.156 41.0938C403.828 40.8125 403.43 40.6719 402.961 40.6719C402.253 40.6719 401.677 40.9271 401.234 41.4375C400.792 41.9427 400.57 42.7448 400.57 43.8438C400.57 44.9583 400.784 45.7682 401.211 46.2734C401.638 46.7786 402.195 47.0312 402.883 47.0312C403.435 47.0312 403.896 46.862 404.266 46.5234C404.635 46.1849 404.87 45.6641 404.969 44.9609ZM406.797 39.7031H413.539V40.8672H410.867V48H409.469V40.8672H406.797V39.7031ZM420.375 45.3281L421.828 45.5078C421.599 46.3568 421.174 47.0156 420.555 47.4844C419.935 47.9531 419.143 48.1875 418.18 48.1875C416.966 48.1875 416.003 47.8151 415.289 47.0703C414.581 46.3203 414.227 45.2708 414.227 43.9219C414.227 42.526 414.586 41.4427 415.305 40.6719C416.023 39.901 416.956 39.5156 418.102 39.5156C419.211 39.5156 420.117 39.8932 420.82 40.6484C421.523 41.4036 421.875 42.4661 421.875 43.8359C421.875 43.9193 421.872 44.0443 421.867 44.2109H415.68C415.732 45.1224 415.99 45.8203 416.453 46.3047C416.917 46.7891 417.495 47.0312 418.188 47.0312C418.703 47.0312 419.143 46.8958 419.508 46.625C419.872 46.3542 420.161 45.9219 420.375 45.3281ZM415.758 43.0547H420.391C420.328 42.3568 420.151 41.8333 419.859 41.4844C419.411 40.9427 418.831 40.6719 418.117 40.6719C417.471 40.6719 416.927 40.888 416.484 41.3203C416.047 41.7526 415.805 42.3307 415.758 43.0547ZM423.641 39.7031H425.828L428.008 46.3438L430.43 39.7031H432.453V48H431.047V41.3203L428.594 48H427.336L425.016 41V48H423.641V39.7031ZM434.969 48V46.3984H436.57V48C436.57 48.5885 436.466 49.0625 436.258 49.4219C436.049 49.7865 435.719 50.0677 435.266 50.2656L434.875 49.6641C435.172 49.5339 435.391 49.3411 435.531 49.0859C435.672 48.8359 435.75 48.474 435.766 48H434.969ZM442.992 39.7031H444.398V41.2734C444.398 41.9505 444.438 42.4427 444.516 42.75C444.599 43.0521 444.794 43.3177 445.102 43.5469C445.409 43.7708 445.794 43.8828 446.258 43.8828C446.789 43.8828 447.477 43.7422 448.32 43.4609V39.7031H449.727V48H448.32V44.6562C447.456 44.9271 446.648 45.0625 445.898 45.0625C445.268 45.0625 444.711 44.9036 444.227 44.5859C443.747 44.263 443.422 43.8698 443.25 43.4062C443.078 42.9427 442.992 42.4323 442.992 41.875V39.7031ZM457.266 46.9766C456.745 47.4193 456.242 47.7318 455.758 47.9141C455.279 48.0964 454.763 48.1875 454.211 48.1875C453.299 48.1875 452.599 47.9661 452.109 47.5234C451.62 47.0755 451.375 46.5052 451.375 45.8125C451.375 45.4062 451.466 45.0365 451.648 44.7031C451.836 44.3646 452.078 44.0938 452.375 43.8906C452.677 43.6875 453.016 43.5339 453.391 43.4297C453.667 43.3568 454.083 43.2865 454.641 43.2188C455.776 43.0833 456.612 42.9219 457.148 42.7344C457.154 42.5417 457.156 42.4193 457.156 42.3672C457.156 41.7943 457.023 41.3906 456.758 41.1562C456.398 40.8385 455.865 40.6797 455.156 40.6797C454.495 40.6797 454.005 40.7969 453.688 41.0312C453.375 41.2604 453.143 41.6693 452.992 42.2578L451.617 42.0703C451.742 41.4818 451.948 41.0078 452.234 40.6484C452.521 40.2839 452.935 40.0052 453.477 39.8125C454.018 39.6146 454.646 39.5156 455.359 39.5156C456.068 39.5156 456.643 39.599 457.086 39.7656C457.529 39.9323 457.854 40.1432 458.062 40.3984C458.271 40.6484 458.417 40.9661 458.5 41.3516C458.547 41.5911 458.57 42.0234 458.57 42.6484V44.5234C458.57 45.8307 458.599 46.6589 458.656 47.0078C458.719 47.3516 458.839 47.6823 459.016 48H457.547C457.401 47.7083 457.307 47.3672 457.266 46.9766ZM457.148 43.8359C456.638 44.0443 455.872 44.2214 454.852 44.3672C454.273 44.4505 453.865 44.5443 453.625 44.6484C453.385 44.7526 453.201 44.9062 453.07 45.1094C452.94 45.3073 452.875 45.5286 452.875 45.7734C452.875 46.1484 453.016 46.4609 453.297 46.7109C453.583 46.9609 454 47.0859 454.547 47.0859C455.089 47.0859 455.57 46.9688 455.992 46.7344C456.414 46.4948 456.724 46.1693 456.922 45.7578C457.073 45.4401 457.148 44.9714 457.148 44.3516V43.8359ZM466.172 44.9609L467.555 45.1406C467.404 46.0938 467.016 46.8411 466.391 47.3828C465.771 47.9193 465.008 48.1875 464.102 48.1875C462.966 48.1875 462.052 47.8177 461.359 47.0781C460.672 46.3333 460.328 45.2682 460.328 43.8828C460.328 42.987 460.477 42.2031 460.773 41.5312C461.07 40.8594 461.521 40.3568 462.125 40.0234C462.734 39.6849 463.396 39.5156 464.109 39.5156C465.01 39.5156 465.747 39.7448 466.32 40.2031C466.893 40.6562 467.26 41.3021 467.422 42.1406L466.055 42.3516C465.924 41.7943 465.693 41.375 465.359 41.0938C465.031 40.8125 464.633 40.6719 464.164 40.6719C463.456 40.6719 462.88 40.9271 462.438 41.4375C461.995 41.9427 461.773 42.7448 461.773 43.8438C461.773 44.9583 461.987 45.7682 462.414 46.2734C462.841 46.7786 463.398 47.0312 464.086 47.0312C464.638 47.0312 465.099 46.862 465.469 46.5234C465.839 46.1849 466.073 45.6641 466.172 44.9609ZM468 39.7031H474.742V40.8672H472.07V48H470.672V40.8672H468V39.7031ZM475.375 43.8516C475.375 42.3151 475.802 41.1771 476.656 40.4375C477.37 39.8229 478.24 39.5156 479.266 39.5156C480.406 39.5156 481.339 39.8906 482.062 40.6406C482.786 41.3854 483.148 42.4167 483.148 43.7344C483.148 44.8021 482.987 45.6432 482.664 46.2578C482.346 46.8672 481.88 47.3411 481.266 47.6797C480.656 48.0182 479.99 48.1875 479.266 48.1875C478.104 48.1875 477.164 47.8151 476.445 47.0703C475.732 46.3255 475.375 45.2526 475.375 43.8516ZM476.82 43.8516C476.82 44.9141 477.052 45.7109 477.516 46.2422C477.979 46.7682 478.562 47.0312 479.266 47.0312C479.964 47.0312 480.544 46.7656 481.008 46.2344C481.471 45.7031 481.703 44.8932 481.703 43.8047C481.703 42.7786 481.469 42.0026 481 41.4766C480.536 40.9453 479.958 40.6797 479.266 40.6797C478.562 40.6797 477.979 40.9427 477.516 41.4688C477.052 41.9948 476.82 42.7891 476.82 43.8516ZM483.688 39.7031H490.43V40.8672H487.758V48H486.359V40.8672H483.688V39.7031ZM499.672 39.7031H501.078V48H499.672V39.7031ZM491.805 39.7031H493.211V42.9453H494.992C496.154 42.9453 497.047 43.1719 497.672 43.625C498.302 44.0729 498.617 44.6927 498.617 45.4844C498.617 46.1771 498.354 46.7708 497.828 47.2656C497.307 47.7552 496.471 48 495.32 48H491.805V39.7031ZM493.211 46.8438H494.688C495.578 46.8438 496.214 46.7344 496.594 46.5156C496.974 46.2969 497.164 45.9557 497.164 45.4922C497.164 45.1328 497.023 44.8125 496.742 44.5312C496.461 44.25 495.839 44.1094 494.875 44.1094H493.211V46.8438ZM101.062 60.7031H105.836V61.8672H102.469V69H101.062V60.7031ZM106.898 60.7031H108.305V67.0312L112.203 60.7031H113.719V69H112.312V62.7109L108.414 69H106.898V60.7031ZM115.844 60.7031H122.391V69H120.984V61.8672H117.25V69H115.844V60.7031ZM130.188 66.3281L131.641 66.5078C131.411 67.3568 130.987 68.0156 130.367 68.4844C129.747 68.9531 128.956 69.1875 127.992 69.1875C126.779 69.1875 125.815 68.8151 125.102 68.0703C124.393 67.3203 124.039 66.2708 124.039 64.9219C124.039 63.526 124.398 62.4427 125.117 61.6719C125.836 60.901 126.768 60.5156 127.914 60.5156C129.023 60.5156 129.93 60.8932 130.633 61.6484C131.336 62.4036 131.688 63.4661 131.688 64.8359C131.688 64.9193 131.685 65.0443 131.68 65.2109H125.492C125.544 66.1224 125.802 66.8203 126.266 67.3047C126.729 67.7891 127.307 68.0312 128 68.0312C128.516 68.0312 128.956 67.8958 129.32 67.625C129.685 67.3542 129.974 66.9219 130.188 66.3281ZM125.57 64.0547H130.203C130.141 63.3568 129.964 62.8333 129.672 62.4844C129.224 61.9427 128.643 61.6719 127.93 61.6719C127.284 61.6719 126.74 61.888 126.297 62.3203C125.859 62.7526 125.617 63.3307 125.57 64.0547ZM133.414 72.1797V60.7031H134.695V61.7812C134.997 61.3594 135.339 61.0443 135.719 60.8359C136.099 60.6224 136.56 60.5156 137.102 60.5156C137.81 60.5156 138.435 60.6979 138.977 61.0625C139.518 61.4271 139.927 61.9427 140.203 62.6094C140.479 63.2708 140.617 63.9974 140.617 64.7891C140.617 65.638 140.464 66.4036 140.156 67.0859C139.854 67.763 139.411 68.2839 138.828 68.6484C138.25 69.0078 137.641 69.1875 137 69.1875C136.531 69.1875 136.109 69.0885 135.734 68.8906C135.365 68.6927 135.06 68.4427 134.82 68.1406V72.1797H133.414ZM134.688 64.8984C134.688 65.9661 134.904 66.7552 135.336 67.2656C135.768 67.776 136.292 68.0312 136.906 68.0312C137.531 68.0312 138.065 67.7682 138.508 67.2422C138.956 66.7109 139.18 65.8906 139.18 64.7812C139.18 63.724 138.961 62.9323 138.523 62.4062C138.091 61.8802 137.573 61.6172 136.969 61.6172C136.37 61.6172 135.839 61.8984 135.375 62.4609C134.917 63.0182 134.688 63.8307 134.688 64.8984ZM147.734 65.9609L149.117 66.1406C148.966 67.0938 148.578 67.8411 147.953 68.3828C147.333 68.9193 146.57 69.1875 145.664 69.1875C144.529 69.1875 143.615 68.8177 142.922 68.0781C142.234 67.3333 141.891 66.2682 141.891 64.8828C141.891 63.987 142.039 63.2031 142.336 62.5312C142.633 61.8594 143.083 61.3568 143.688 61.0234C144.297 60.6849 144.958 60.5156 145.672 60.5156C146.573 60.5156 147.31 60.7448 147.883 61.2031C148.456 61.6562 148.823 62.3021 148.984 63.1406L147.617 63.3516C147.487 62.7943 147.255 62.375 146.922 62.0938C146.594 61.8125 146.195 61.6719 145.727 61.6719C145.018 61.6719 144.443 61.9271 144 62.4375C143.557 62.9427 143.336 63.7448 143.336 64.8438C143.336 65.9583 143.549 66.7682 143.977 67.2734C144.404 67.7786 144.961 68.0312 145.648 68.0312C146.201 68.0312 146.661 67.862 147.031 67.5234C147.401 67.1849 147.635 66.6641 147.734 65.9609ZM150.32 60.7031H151.727V67.0312L155.625 60.7031H157.141V69H155.734V62.7109L151.836 69H150.32V60.7031ZM159.297 60.7031H161.484L163.664 67.3438L166.086 60.7031H168.109V69H166.703V62.3203L164.25 69H162.992L160.672 62V69H159.297V60.7031ZM170.266 60.7031H176.812V69H175.406V61.8672H171.672V69H170.266V60.7031ZM184.344 67.9766C183.823 68.4193 183.32 68.7318 182.836 68.9141C182.357 69.0964 181.841 69.1875 181.289 69.1875C180.378 69.1875 179.677 68.9661 179.188 68.5234C178.698 68.0755 178.453 67.5052 178.453 66.8125C178.453 66.4062 178.544 66.0365 178.727 65.7031C178.914 65.3646 179.156 65.0938 179.453 64.8906C179.755 64.6875 180.094 64.5339 180.469 64.4297C180.745 64.3568 181.161 64.2865 181.719 64.2188C182.854 64.0833 183.69 63.9219 184.227 63.7344C184.232 63.5417 184.234 63.4193 184.234 63.3672C184.234 62.7943 184.102 62.3906 183.836 62.1562C183.477 61.8385 182.943 61.6797 182.234 61.6797C181.573 61.6797 181.083 61.7969 180.766 62.0312C180.453 62.2604 180.221 62.6693 180.07 63.2578L178.695 63.0703C178.82 62.4818 179.026 62.0078 179.312 61.6484C179.599 61.2839 180.013 61.0052 180.555 60.8125C181.096 60.6146 181.724 60.5156 182.438 60.5156C183.146 60.5156 183.721 60.599 184.164 60.7656C184.607 60.9323 184.932 61.1432 185.141 61.3984C185.349 61.6484 185.495 61.9661 185.578 62.3516C185.625 62.5911 185.648 63.0234 185.648 63.6484V65.5234C185.648 66.8307 185.677 67.6589 185.734 68.0078C185.797 68.3516 185.917 68.6823 186.094 69H184.625C184.479 68.7083 184.385 68.3672 184.344 67.9766ZM184.227 64.8359C183.716 65.0443 182.951 65.2214 181.93 65.3672C181.352 65.4505 180.943 65.5443 180.703 65.6484C180.464 65.7526 180.279 65.9062 180.148 66.1094C180.018 66.3073 179.953 66.5286 179.953 66.7734C179.953 67.1484 180.094 67.4609 180.375 67.7109C180.661 67.9609 181.078 68.0859 181.625 68.0859C182.167 68.0859 182.648 67.9688 183.07 67.7344C183.492 67.4948 183.802 67.1693 184 66.7578C184.151 66.4401 184.227 65.9714 184.227 65.3516V64.8359ZM186.719 60.7031H193.461V61.8672H190.789V69H189.391V61.8672H186.719V60.7031ZM194.805 60.7031H196.211V67.0312L200.109 60.7031H201.625V69H200.219V62.7109L196.32 69H194.805V60.7031ZM203.734 60.7031H205.141V64.2891C205.589 64.2891 205.901 64.2031 206.078 64.0312C206.26 63.8594 206.526 63.3594 206.875 62.5312C207.151 61.875 207.375 61.4427 207.547 61.2344C207.719 61.026 207.917 60.8854 208.141 60.8125C208.365 60.7396 208.724 60.7031 209.219 60.7031H209.5V61.8672L209.109 61.8594C208.74 61.8594 208.503 61.9141 208.398 62.0234C208.289 62.138 208.122 62.4792 207.898 63.0469C207.685 63.5885 207.49 63.9635 207.312 64.1719C207.135 64.3802 206.862 64.5703 206.492 64.7422C207.096 64.9036 207.69 65.4661 208.273 66.4297L209.812 69H208.266L206.766 66.4297C206.458 65.9141 206.19 65.5755 205.961 65.4141C205.732 65.2474 205.458 65.1641 205.141 65.1641V69H203.734V60.7031ZM210.406 64.8516C210.406 63.3151 210.833 62.1771 211.688 61.4375C212.401 60.8229 213.271 60.5156 214.297 60.5156C215.438 60.5156 216.37 60.8906 217.094 61.6406C217.818 62.3854 218.18 63.4167 218.18 64.7344C218.18 65.8021 218.018 66.6432 217.695 67.2578C217.378 67.8672 216.911 68.3411 216.297 68.6797C215.688 69.0182 215.021 69.1875 214.297 69.1875C213.135 69.1875 212.195 68.8151 211.477 68.0703C210.763 67.3255 210.406 66.2526 210.406 64.8516ZM211.852 64.8516C211.852 65.9141 212.083 66.7109 212.547 67.2422C213.01 67.7682 213.594 68.0312 214.297 68.0312C214.995 68.0312 215.576 67.7656 216.039 67.2344C216.503 66.7031 216.734 65.8932 216.734 64.8047C216.734 63.7786 216.5 63.0026 216.031 62.4766C215.568 61.9453 214.99 61.6797 214.297 61.6797C213.594 61.6797 213.01 61.9427 212.547 62.4688C212.083 62.9948 211.852 63.7891 211.852 64.8516ZM218.719 60.7031H225.461V61.8672H222.789V69H221.391V61.8672H218.719V60.7031ZM226.094 64.8516C226.094 63.3151 226.521 62.1771 227.375 61.4375C228.089 60.8229 228.958 60.5156 229.984 60.5156C231.125 60.5156 232.057 60.8906 232.781 61.6406C233.505 62.3854 233.867 63.4167 233.867 64.7344C233.867 65.8021 233.706 66.6432 233.383 67.2578C233.065 67.8672 232.599 68.3411 231.984 68.6797C231.375 69.0182 230.708 69.1875 229.984 69.1875C228.823 69.1875 227.883 68.8151 227.164 68.0703C226.451 67.3255 226.094 66.2526 226.094 64.8516ZM227.539 64.8516C227.539 65.9141 227.771 66.7109 228.234 67.2422C228.698 67.7682 229.281 68.0312 229.984 68.0312C230.682 68.0312 231.263 67.7656 231.727 67.2344C232.19 66.7031 232.422 65.8932 232.422 64.8047C232.422 63.7786 232.188 63.0026 231.719 62.4766C231.255 61.9453 230.677 61.6797 229.984 61.6797C229.281 61.6797 228.698 61.9427 228.234 62.4688C227.771 62.9948 227.539 63.7891 227.539 64.8516ZM235.531 60.7031H236.938V64.1562H240.836V60.7031H242.242V69H240.836V65.3203H236.938V69H235.531V60.7031ZM244.367 60.7031H245.773V67.0312L249.672 60.7031H251.188V69H249.781V62.7109L245.883 69H244.367V60.7031ZM253.305 60.7031H254.711V67.0312L258.609 60.7031H260.125V69H258.719V62.7109L254.82 69H253.305V60.7031ZM262.641 69V67.3984H264.242V69H262.641Z" fill="black"/>
<defs>
<linearGradient id="paint0_linear_12_246" x1="0" y1="42.5" x2="540" y2="42.5" gradientUnits="userSpaceOnUse">
<stop stop-color="#9E9E9D"/>
<stop offset="1" stop-color="#DCDCDC"/>
</linearGradient>
</defs>
</svg>
