<svg width="540" height="85" viewBox="0 0 540 85" fill="none" xmlns="http://www.w3.org/2000/svg">
<rect width="540" height="85" rx="42.5" fill="url(#paint0_linear_12_222)"/>
<circle cx="42.5" cy="42.5" r="42.5" fill="#BB1F2B"/>
<path d="M40.25 48.9584C39.8963 48.9313 39.5672 48.7668 39.3333 48.5L33.8333 43C33.7108 42.7435 33.6708 42.4552 33.7189 42.175C33.767 41.8947 33.9008 41.6363 34.1018 41.4352C34.3029 41.2341 34.5613 41.1004 34.8416 41.0523C35.1218 41.0042 35.4101 41.0442 35.6667 41.1667L40.195 45.695L55.8333 30.1667C56.0899 30.0442 56.3782 30.0042 56.6584 30.0523C56.9387 30.1004 57.1971 30.2341 57.3982 30.4352C57.5992 30.6363 57.733 30.8947 57.7811 31.175C57.8292 31.4552 57.7892 31.7435 57.6667 32L41.1667 48.5C40.9328 48.7668 40.6037 48.9313 40.25 48.9584Z" fill="white"/>
<path d="M43 59.5C40.051 59.4953 37.1572 58.7003 34.6197 57.1978C32.0822 55.6953 29.9937 53.5402 28.5717 50.9567C27.4907 49.0317 26.8226 46.9025 26.61 44.705C26.2745 41.4822 26.8953 38.2319 28.395 35.3596C29.8947 32.4872 32.207 30.1201 35.0433 28.5534C36.9684 27.4724 39.0975 26.8043 41.295 26.5917C43.4843 26.3562 45.6986 26.5683 47.8033 27.215C47.9912 27.2526 48.1691 27.3289 48.3257 27.4392C48.4823 27.5495 48.6141 27.6913 48.7128 27.8556C48.8114 28.0198 48.8746 28.2028 48.8983 28.3929C48.9221 28.583 48.9058 28.7759 48.8507 28.9593C48.7955 29.1428 48.7026 29.3127 48.578 29.4581C48.4534 29.6036 48.2997 29.7214 48.1269 29.804C47.954 29.8866 47.7659 29.9322 47.5744 29.9378C47.3829 29.9434 47.1924 29.909 47.015 29.8367C45.2341 29.3012 43.3642 29.1267 41.515 29.3234C39.6872 29.5105 37.9161 30.0656 36.3083 30.955C34.7594 31.8096 33.3899 32.9549 32.275 34.3284C31.1271 35.7275 30.2699 37.3416 29.7536 39.0762C29.2373 40.8108 29.0723 42.6309 29.2683 44.43C29.4555 46.2579 30.0105 48.029 30.9 49.6367C31.7545 51.1856 32.8999 52.5551 34.2733 53.67C35.6725 54.818 37.2866 55.6752 39.0211 56.1914C40.7557 56.7077 42.5759 56.8727 44.375 56.6767C46.2028 56.4895 47.9739 55.9345 49.5817 55.045C51.1306 54.1905 52.5001 53.0451 53.615 51.6717C54.7629 50.2726 55.6201 48.6585 56.1364 46.9239C56.6527 45.1893 56.8177 43.3692 56.6217 41.57C56.5852 41.1883 56.7018 40.8078 56.946 40.5121C57.1901 40.2164 57.5416 40.0298 57.9233 39.9934C58.305 39.9569 58.6856 40.0736 58.9813 40.3177C59.2769 40.5618 59.4635 40.9133 59.5 41.295C59.8338 44.5198 59.2103 47.7715 57.7072 50.644C56.2041 53.5165 53.8881 55.8825 51.0483 57.4467C49.1028 58.5719 46.9408 59.2717 44.705 59.5H43Z" fill="white"/>
<path d="M105.375 16.9219V15.4531H106.797V16.9219C108.255 17 109.406 17.4401 110.25 18.2422C111.094 19.0391 111.516 20.0312 111.516 21.2188C111.516 22.3802 111.107 23.3672 110.289 24.1797C109.471 24.9922 108.307 25.4401 106.797 25.5234V27H105.375V25.5234C104.021 25.4714 102.893 25.0599 101.992 24.2891C101.091 23.513 100.641 22.4896 100.641 21.2188C100.641 19.9427 101.089 18.9219 101.984 18.1562C102.885 17.3906 104.016 16.9792 105.375 16.9219ZM106.797 18.2188V24.2188C107.776 24.1719 108.547 23.888 109.109 23.3672C109.672 22.8464 109.953 22.1302 109.953 21.2188C109.953 20.3229 109.677 19.6146 109.125 19.0938C108.573 18.5677 107.797 18.276 106.797 18.2188ZM105.375 18.2266C104.432 18.2682 103.669 18.5469 103.086 19.0625C102.503 19.5781 102.211 20.2969 102.211 21.2188C102.211 22.1302 102.497 22.8464 103.07 23.3672C103.648 23.888 104.417 24.1693 105.375 24.2109V18.2266ZM113.164 30.1953L113.008 28.875C113.315 28.9583 113.583 29 113.812 29C114.125 29 114.375 28.9479 114.562 28.8438C114.75 28.7396 114.904 28.5938 115.023 28.4062C115.112 28.2656 115.255 27.9167 115.453 27.3594C115.479 27.2812 115.521 27.1667 115.578 27.0156L112.43 18.7031H113.945L115.672 23.5078C115.896 24.1172 116.096 24.7578 116.273 25.4297C116.435 24.7839 116.628 24.1536 116.852 23.5391L118.625 18.7031H120.031L116.875 27.1406C116.536 28.0521 116.273 28.6797 116.086 29.0234C115.836 29.487 115.549 29.8255 115.227 30.0391C114.904 30.2578 114.518 30.3672 114.07 30.3672C113.799 30.3672 113.497 30.3099 113.164 30.1953ZM121.234 18.7031H122.641V22.1562H126.539V18.7031H127.945V27H126.539V23.3203H122.641V27H121.234V18.7031ZM130.062 18.7031H131.469V22.2891C131.917 22.2891 132.229 22.2031 132.406 22.0312C132.589 21.8594 132.854 21.3594 133.203 20.5312C133.479 19.875 133.703 19.4427 133.875 19.2344C134.047 19.026 134.245 18.8854 134.469 18.8125C134.693 18.7396 135.052 18.7031 135.547 18.7031H135.828V19.8672L135.438 19.8594C135.068 19.8594 134.831 19.9141 134.727 20.0234C134.617 20.138 134.451 20.4792 134.227 21.0469C134.013 21.5885 133.818 21.9635 133.641 22.1719C133.464 22.3802 133.19 22.5703 132.82 22.7422C133.424 22.9036 134.018 23.4661 134.602 24.4297L136.141 27H134.594L133.094 24.4297C132.786 23.9141 132.518 23.5755 132.289 23.4141C132.06 23.2474 131.786 23.1641 131.469 23.1641V27H130.062V18.7031ZM137.094 18.7031H138.5V25.8438H142.391V18.7031H143.797V25.8438H144.703V29.3516H143.547V27H137.094V18.7031ZM146.242 18.7031H147.648V25.0312L151.547 18.7031H153.062V27H151.656V20.7109L147.758 27H146.242V18.7031ZM155.195 18.7031H156.602V22.1719H158.305C158.43 20.9844 158.799 20.0781 159.414 19.4531C160.034 18.8281 160.836 18.5156 161.82 18.5156C162.659 18.5156 163.32 18.6849 163.805 19.0234C164.289 19.362 164.688 19.8281 165 20.4219C165.318 21.0156 165.477 21.8151 165.477 22.8203C165.477 24.2526 165.151 25.3385 164.5 26.0781C163.849 26.8177 162.966 27.1875 161.852 27.1875C160.815 27.1875 159.984 26.8438 159.359 26.1562C158.734 25.4688 158.383 24.526 158.305 23.3281H156.602V27H155.195V18.7031ZM161.898 19.7109C161.211 19.7109 160.674 19.9766 160.289 20.5078C159.909 21.0339 159.719 21.7734 159.719 22.7266C159.719 23.8672 159.911 24.7031 160.297 25.2344C160.682 25.7656 161.198 26.0312 161.844 26.0312C162.484 26.0312 163.008 25.7865 163.414 25.2969C163.826 24.8021 164.031 24.0078 164.031 22.9141C164.031 21.8464 163.854 21.0469 163.5 20.5156C163.146 19.9792 162.612 19.7109 161.898 19.7109ZM171.641 18.7031H174.883C175.68 18.7031 176.271 18.7708 176.656 18.9062C177.047 19.0365 177.38 19.2786 177.656 19.6328C177.938 19.987 178.078 20.4115 178.078 20.9062C178.078 21.3021 177.995 21.6484 177.828 21.9453C177.667 22.237 177.422 22.4818 177.094 22.6797C177.484 22.8099 177.807 23.0547 178.062 23.4141C178.323 23.7682 178.453 24.1901 178.453 24.6797C178.401 25.4661 178.12 26.0495 177.609 26.4297C177.099 26.8099 176.357 27 175.383 27H171.641V18.7031ZM173.047 22.1953H174.547C175.146 22.1953 175.557 22.1641 175.781 22.1016C176.005 22.0391 176.206 21.9141 176.383 21.7266C176.56 21.5339 176.648 21.3047 176.648 21.0391C176.648 20.6016 176.492 20.2969 176.18 20.125C175.872 19.9531 175.344 19.8672 174.594 19.8672H173.047V22.1953ZM173.047 25.8438H174.898C175.695 25.8438 176.242 25.7526 176.539 25.5703C176.836 25.3828 176.992 25.0625 177.008 24.6094C177.008 24.3438 176.922 24.099 176.75 23.875C176.578 23.6458 176.354 23.5026 176.078 23.4453C175.802 23.3828 175.359 23.3516 174.75 23.3516H173.047V25.8438ZM180.141 18.7031H181.547V22.1562H185.445V18.7031H186.852V27H185.445V23.3203H181.547V27H180.141V18.7031ZM194.656 24.3281L196.109 24.5078C195.88 25.3568 195.456 26.0156 194.836 26.4844C194.216 26.9531 193.424 27.1875 192.461 27.1875C191.247 27.1875 190.284 26.8151 189.57 26.0703C188.862 25.3203 188.508 24.2708 188.508 22.9219C188.508 21.526 188.867 20.4427 189.586 19.6719C190.305 18.901 191.237 18.5156 192.383 18.5156C193.492 18.5156 194.398 18.8932 195.102 19.6484C195.805 20.4036 196.156 21.4661 196.156 22.8359C196.156 22.9193 196.154 23.0443 196.148 23.2109H189.961C190.013 24.1224 190.271 24.8203 190.734 25.3047C191.198 25.7891 191.776 26.0312 192.469 26.0312C192.984 26.0312 193.424 25.8958 193.789 25.625C194.154 25.3542 194.443 24.9219 194.656 24.3281ZM190.039 22.0547H194.672C194.609 21.3568 194.432 20.8333 194.141 20.4844C193.693 19.9427 193.112 19.6719 192.398 19.6719C191.753 19.6719 191.208 19.888 190.766 20.3203C190.328 20.7526 190.086 21.3307 190.039 22.0547ZM197.93 18.7031H199.336V25.8359H202.539V18.7031H203.945V25.8359H207.156V18.7031H208.555V27H197.93V18.7031ZM210.734 18.7031H212.141V22.1562H216.039V18.7031H217.445V27H216.039V23.3203H212.141V27H210.734V18.7031ZM225.25 24.3281L226.703 24.5078C226.474 25.3568 226.049 26.0156 225.43 26.4844C224.81 26.9531 224.018 27.1875 223.055 27.1875C221.841 27.1875 220.878 26.8151 220.164 26.0703C219.456 25.3203 219.102 24.2708 219.102 22.9219C219.102 21.526 219.461 20.4427 220.18 19.6719C220.898 18.901 221.831 18.5156 222.977 18.5156C224.086 18.5156 224.992 18.8932 225.695 19.6484C226.398 20.4036 226.75 21.4661 226.75 22.8359C226.75 22.9193 226.747 23.0443 226.742 23.2109H220.555C220.607 24.1224 220.865 24.8203 221.328 25.3047C221.792 25.7891 222.37 26.0312 223.062 26.0312C223.578 26.0312 224.018 25.8958 224.383 25.625C224.747 25.3542 225.036 24.9219 225.25 24.3281ZM220.633 22.0547H225.266C225.203 21.3568 225.026 20.8333 224.734 20.4844C224.286 19.9427 223.706 19.6719 222.992 19.6719C222.346 19.6719 221.802 19.888 221.359 20.3203C220.922 20.7526 220.68 21.3307 220.633 22.0547ZM228.484 18.7031H233.258V19.8672H229.891V27H228.484V18.7031ZM233.438 22.8516C233.438 21.3151 233.865 20.1771 234.719 19.4375C235.432 18.8229 236.302 18.5156 237.328 18.5156C238.469 18.5156 239.401 18.8906 240.125 19.6406C240.849 20.3854 241.211 21.4167 241.211 22.7344C241.211 23.8021 241.049 24.6432 240.727 25.2578C240.409 25.8672 239.943 26.3411 239.328 26.6797C238.719 27.0182 238.052 27.1875 237.328 27.1875C236.167 27.1875 235.227 26.8151 234.508 26.0703C233.794 25.3255 233.438 24.2526 233.438 22.8516ZM234.883 22.8516C234.883 23.9141 235.115 24.7109 235.578 25.2422C236.042 25.7682 236.625 26.0312 237.328 26.0312C238.026 26.0312 238.607 25.7656 239.07 25.2344C239.534 24.7031 239.766 23.8932 239.766 22.8047C239.766 21.7786 239.531 21.0026 239.062 20.4766C238.599 19.9453 238.021 19.6797 237.328 19.6797C236.625 19.6797 236.042 19.9427 235.578 20.4688C235.115 20.9948 234.883 21.7891 234.883 22.8516ZM248.43 18.7031H254.211V25.8438H255.109V29.3516H253.953V27H247.422V29.3516H246.266V25.8438H247.008C247.997 24.5 248.471 22.1198 248.43 18.7031ZM249.602 19.8672C249.497 22.5599 249.081 24.5521 248.352 25.8438H252.812V19.8672H249.602ZM264.562 18.7031H265.969V27H264.562V18.7031ZM256.695 18.7031H258.102V21.9453H259.883C261.044 21.9453 261.938 22.1719 262.562 22.625C263.193 23.0729 263.508 23.6927 263.508 24.4844C263.508 25.1771 263.245 25.7708 262.719 26.2656C262.198 26.7552 261.362 27 260.211 27H256.695V18.7031ZM258.102 25.8438H259.578C260.469 25.8438 261.104 25.7344 261.484 25.5156C261.865 25.2969 262.055 24.9557 262.055 24.4922C262.055 24.1328 261.914 23.8125 261.633 23.5312C261.352 23.25 260.729 23.1094 259.766 23.1094H258.102V25.8438ZM267.227 27L270.258 22.6875L267.453 18.7031H269.211L270.484 20.6484C270.724 21.0182 270.917 21.3281 271.062 21.5781C271.292 21.2344 271.503 20.9297 271.695 20.6641L273.094 18.7031H274.773L271.906 22.6094L274.992 27H273.266L271.562 24.4219L271.109 23.7266L268.93 27H267.227ZM281.391 25.9766C280.87 26.4193 280.367 26.7318 279.883 26.9141C279.404 27.0964 278.888 27.1875 278.336 27.1875C277.424 27.1875 276.724 26.9661 276.234 26.5234C275.745 26.0755 275.5 25.5052 275.5 24.8125C275.5 24.4062 275.591 24.0365 275.773 23.7031C275.961 23.3646 276.203 23.0938 276.5 22.8906C276.802 22.6875 277.141 22.5339 277.516 22.4297C277.792 22.3568 278.208 22.2865 278.766 22.2188C279.901 22.0833 280.737 21.9219 281.273 21.7344C281.279 21.5417 281.281 21.4193 281.281 21.3672C281.281 20.7943 281.148 20.3906 280.883 20.1562C280.523 19.8385 279.99 19.6797 279.281 19.6797C278.62 19.6797 278.13 19.7969 277.812 20.0312C277.5 20.2604 277.268 20.6693 277.117 21.2578L275.742 21.0703C275.867 20.4818 276.073 20.0078 276.359 19.6484C276.646 19.2839 277.06 19.0052 277.602 18.8125C278.143 18.6146 278.771 18.5156 279.484 18.5156C280.193 18.5156 280.768 18.599 281.211 18.7656C281.654 18.9323 281.979 19.1432 282.188 19.3984C282.396 19.6484 282.542 19.9661 282.625 20.3516C282.672 20.5911 282.695 21.0234 282.695 21.6484V23.5234C282.695 24.8307 282.724 25.6589 282.781 26.0078C282.844 26.3516 282.964 26.6823 283.141 27H281.672C281.526 26.7083 281.432 26.3672 281.391 25.9766ZM281.273 22.8359C280.763 23.0443 279.997 23.2214 278.977 23.3672C278.398 23.4505 277.99 23.5443 277.75 23.6484C277.51 23.7526 277.326 23.9062 277.195 24.1094C277.065 24.3073 277 24.5286 277 24.7734C277 25.1484 277.141 25.4609 277.422 25.7109C277.708 25.9609 278.125 26.0859 278.672 26.0859C279.214 26.0859 279.695 25.9688 280.117 25.7344C280.539 25.4948 280.849 25.1693 281.047 24.7578C281.198 24.4401 281.273 23.9714 281.273 23.3516V22.8359ZM284.891 18.7031H286.297V22.1562H290.195V18.7031H291.602V27H290.195V23.3203H286.297V27H284.891V18.7031ZM293.727 18.7031H295.133V25.0312L299.031 18.7031H300.547V27H299.141V20.7109L295.242 27H293.727V18.7031ZM309.195 18.7031V27H307.797V23.7656H306.984C306.49 23.7656 306.12 23.8307 305.875 23.9609C305.635 24.0859 305.284 24.4948 304.82 25.1875L303.594 27H301.852L303.367 24.7656C303.831 24.0833 304.292 23.6979 304.75 23.6094C303.948 23.5 303.352 23.2109 302.961 22.7422C302.576 22.2734 302.383 21.7344 302.383 21.125C302.383 20.4062 302.635 19.8229 303.141 19.375C303.651 18.9271 304.388 18.7031 305.352 18.7031H309.195ZM307.797 19.8672H305.797C304.958 19.8672 304.417 19.9974 304.172 20.2578C303.932 20.5182 303.812 20.8229 303.812 21.1719C303.812 21.6667 303.99 22.0312 304.344 22.2656C304.703 22.4948 305.336 22.6094 306.242 22.6094H307.797V19.8672ZM315.789 18.7031H317.195V25.0312L321.094 18.7031H322.609V27H321.203V20.7109L317.305 27H315.789V18.7031ZM334.594 23.9609L335.977 24.1406C335.826 25.0938 335.438 25.8411 334.812 26.3828C334.193 26.9193 333.43 27.1875 332.523 27.1875C331.388 27.1875 330.474 26.8177 329.781 26.0781C329.094 25.3333 328.75 24.2682 328.75 22.8828C328.75 21.987 328.898 21.2031 329.195 20.5312C329.492 19.8594 329.943 19.3568 330.547 19.0234C331.156 18.6849 331.818 18.5156 332.531 18.5156C333.432 18.5156 334.169 18.7448 334.742 19.2031C335.315 19.6562 335.682 20.3021 335.844 21.1406L334.477 21.3516C334.346 20.7943 334.115 20.375 333.781 20.0938C333.453 19.8125 333.055 19.6719 332.586 19.6719C331.878 19.6719 331.302 19.9271 330.859 20.4375C330.417 20.9427 330.195 21.7448 330.195 22.8438C330.195 23.9583 330.409 24.7682 330.836 25.2734C331.263 25.7786 331.82 26.0312 332.508 26.0312C333.06 26.0312 333.521 25.862 333.891 25.5234C334.26 25.1849 334.495 24.6641 334.594 23.9609ZM342.594 25.9766C342.073 26.4193 341.57 26.7318 341.086 26.9141C340.607 27.0964 340.091 27.1875 339.539 27.1875C338.628 27.1875 337.927 26.9661 337.438 26.5234C336.948 26.0755 336.703 25.5052 336.703 24.8125C336.703 24.4062 336.794 24.0365 336.977 23.7031C337.164 23.3646 337.406 23.0938 337.703 22.8906C338.005 22.6875 338.344 22.5339 338.719 22.4297C338.995 22.3568 339.411 22.2865 339.969 22.2188C341.104 22.0833 341.94 21.9219 342.477 21.7344C342.482 21.5417 342.484 21.4193 342.484 21.3672C342.484 20.7943 342.352 20.3906 342.086 20.1562C341.727 19.8385 341.193 19.6797 340.484 19.6797C339.823 19.6797 339.333 19.7969 339.016 20.0312C338.703 20.2604 338.471 20.6693 338.32 21.2578L336.945 21.0703C337.07 20.4818 337.276 20.0078 337.562 19.6484C337.849 19.2839 338.263 19.0052 338.805 18.8125C339.346 18.6146 339.974 18.5156 340.688 18.5156C341.396 18.5156 341.971 18.599 342.414 18.7656C342.857 18.9323 343.182 19.1432 343.391 19.3984C343.599 19.6484 343.745 19.9661 343.828 20.3516C343.875 20.5911 343.898 21.0234 343.898 21.6484V23.5234C343.898 24.8307 343.927 25.6589 343.984 26.0078C344.047 26.3516 344.167 26.6823 344.344 27H342.875C342.729 26.7083 342.635 26.3672 342.594 25.9766ZM342.477 22.8359C341.966 23.0443 341.201 23.2214 340.18 23.3672C339.602 23.4505 339.193 23.5443 338.953 23.6484C338.714 23.7526 338.529 23.9062 338.398 24.1094C338.268 24.3073 338.203 24.5286 338.203 24.7734C338.203 25.1484 338.344 25.4609 338.625 25.7109C338.911 25.9609 339.328 26.0859 339.875 26.0859C340.417 26.0859 340.898 25.9688 341.32 25.7344C341.742 25.4948 342.052 25.1693 342.25 24.7578C342.401 24.4401 342.477 23.9714 342.477 23.3516V22.8359ZM344.969 18.7031H351.711V19.8672H349.039V27H347.641V19.8672H344.969V18.7031ZM353.18 30.1953L353.023 28.875C353.331 28.9583 353.599 29 353.828 29C354.141 29 354.391 28.9479 354.578 28.8438C354.766 28.7396 354.919 28.5938 355.039 28.4062C355.128 28.2656 355.271 27.9167 355.469 27.3594C355.495 27.2812 355.536 27.1667 355.594 27.0156L352.445 18.7031H353.961L355.688 23.5078C355.911 24.1172 356.112 24.7578 356.289 25.4297C356.451 24.7839 356.643 24.1536 356.867 23.5391L358.641 18.7031H360.047L356.891 27.1406C356.552 28.0521 356.289 28.6797 356.102 29.0234C355.852 29.487 355.565 29.8255 355.242 30.0391C354.919 30.2578 354.534 30.3672 354.086 30.3672C353.815 30.3672 353.513 30.3099 353.18 30.1953ZM361.055 30.1797V18.7031H362.336V19.7812C362.638 19.3594 362.979 19.0443 363.359 18.8359C363.74 18.6224 364.201 18.5156 364.742 18.5156C365.451 18.5156 366.076 18.6979 366.617 19.0625C367.159 19.4271 367.568 19.9427 367.844 20.6094C368.12 21.2708 368.258 21.9974 368.258 22.7891C368.258 23.638 368.104 24.4036 367.797 25.0859C367.495 25.763 367.052 26.2839 366.469 26.6484C365.891 27.0078 365.281 27.1875 364.641 27.1875C364.172 27.1875 363.75 27.0885 363.375 26.8906C363.005 26.6927 362.701 26.4427 362.461 26.1406V30.1797H361.055ZM362.328 22.8984C362.328 23.9661 362.544 24.7552 362.977 25.2656C363.409 25.776 363.932 26.0312 364.547 26.0312C365.172 26.0312 365.706 25.7682 366.148 25.2422C366.596 24.7109 366.82 23.8906 366.82 22.7812C366.82 21.724 366.602 20.9323 366.164 20.4062C365.732 19.8802 365.214 19.6172 364.609 19.6172C364.01 19.6172 363.479 19.8984 363.016 20.4609C362.557 21.0182 362.328 21.8307 362.328 22.8984ZM375.375 25.9766C374.854 26.4193 374.352 26.7318 373.867 26.9141C373.388 27.0964 372.872 27.1875 372.32 27.1875C371.409 27.1875 370.708 26.9661 370.219 26.5234C369.729 26.0755 369.484 25.5052 369.484 24.8125C369.484 24.4062 369.576 24.0365 369.758 23.7031C369.945 23.3646 370.188 23.0938 370.484 22.8906C370.786 22.6875 371.125 22.5339 371.5 22.4297C371.776 22.3568 372.193 22.2865 372.75 22.2188C373.885 22.0833 374.721 21.9219 375.258 21.7344C375.263 21.5417 375.266 21.4193 375.266 21.3672C375.266 20.7943 375.133 20.3906 374.867 20.1562C374.508 19.8385 373.974 19.6797 373.266 19.6797C372.604 19.6797 372.115 19.7969 371.797 20.0312C371.484 20.2604 371.253 20.6693 371.102 21.2578L369.727 21.0703C369.852 20.4818 370.057 20.0078 370.344 19.6484C370.63 19.2839 371.044 19.0052 371.586 18.8125C372.128 18.6146 372.755 18.5156 373.469 18.5156C374.177 18.5156 374.753 18.599 375.195 18.7656C375.638 18.9323 375.964 19.1432 376.172 19.3984C376.38 19.6484 376.526 19.9661 376.609 20.3516C376.656 20.5911 376.68 21.0234 376.68 21.6484V23.5234C376.68 24.8307 376.708 25.6589 376.766 26.0078C376.828 26.3516 376.948 26.6823 377.125 27H375.656C375.51 26.7083 375.417 26.3672 375.375 25.9766ZM375.258 22.8359C374.747 23.0443 373.982 23.2214 372.961 23.3672C372.383 23.4505 371.974 23.5443 371.734 23.6484C371.495 23.7526 371.31 23.9062 371.18 24.1094C371.049 24.3073 370.984 24.5286 370.984 24.7734C370.984 25.1484 371.125 25.4609 371.406 25.7109C371.693 25.9609 372.109 26.0859 372.656 26.0859C373.198 26.0859 373.68 25.9688 374.102 25.7344C374.523 25.4948 374.833 25.1693 375.031 24.7578C375.182 24.4401 375.258 23.9714 375.258 23.3516V22.8359ZM378.891 18.7031H380.297V25.8438H384.188V18.7031H385.594V25.8438H386.5V29.3516H385.344V27H378.891V18.7031ZM388.039 18.7031H389.445V25.0312L393.344 18.7031H394.859V27H393.453V20.7109L389.555 27H388.039V18.7031ZM396.992 18.7031H398.398V22.1719H400.102C400.227 20.9844 400.596 20.0781 401.211 19.4531C401.831 18.8281 402.633 18.5156 403.617 18.5156C404.456 18.5156 405.117 18.6849 405.602 19.0234C406.086 19.362 406.484 19.8281 406.797 20.4219C407.115 21.0156 407.273 21.8151 407.273 22.8203C407.273 24.2526 406.948 25.3385 406.297 26.0781C405.646 26.8177 404.763 27.1875 403.648 27.1875C402.612 27.1875 401.781 26.8438 401.156 26.1562C400.531 25.4688 400.18 24.526 400.102 23.3281H398.398V27H396.992V18.7031ZM403.695 19.7109C403.008 19.7109 402.471 19.9766 402.086 20.5078C401.706 21.0339 401.516 21.7734 401.516 22.7266C401.516 23.8672 401.708 24.7031 402.094 25.2344C402.479 25.7656 402.995 26.0312 403.641 26.0312C404.281 26.0312 404.805 25.7865 405.211 25.2969C405.622 24.8021 405.828 24.0078 405.828 22.9141C405.828 21.8464 405.651 21.0469 405.297 20.5156C404.943 19.9792 404.409 19.7109 403.695 19.7109ZM413.422 18.7031H414.828V22.2891C415.276 22.2891 415.589 22.2031 415.766 22.0312C415.948 21.8594 416.214 21.3594 416.562 20.5312C416.839 19.875 417.062 19.4427 417.234 19.2344C417.406 19.026 417.604 18.8854 417.828 18.8125C418.052 18.7396 418.411 18.7031 418.906 18.7031H419.188V19.8672L418.797 19.8594C418.427 19.8594 418.19 19.9141 418.086 20.0234C417.977 20.138 417.81 20.4792 417.586 21.0469C417.372 21.5885 417.177 21.9635 417 22.1719C416.823 22.3802 416.549 22.5703 416.18 22.7422C416.784 22.9036 417.378 23.4661 417.961 24.4297L419.5 27H417.953L416.453 24.4297C416.146 23.9141 415.878 23.5755 415.648 23.4141C415.419 23.2474 415.146 23.1641 414.828 23.1641V27H413.422V18.7031ZM420.43 30.1797V18.7031H421.711V19.7812C422.013 19.3594 422.354 19.0443 422.734 18.8359C423.115 18.6224 423.576 18.5156 424.117 18.5156C424.826 18.5156 425.451 18.6979 425.992 19.0625C426.534 19.4271 426.943 19.9427 427.219 20.6094C427.495 21.2708 427.633 21.9974 427.633 22.7891C427.633 23.638 427.479 24.4036 427.172 25.0859C426.87 25.763 426.427 26.2839 425.844 26.6484C425.266 27.0078 424.656 27.1875 424.016 27.1875C423.547 27.1875 423.125 27.0885 422.75 26.8906C422.38 26.6927 422.076 26.4427 421.836 26.1406V30.1797H420.43ZM421.703 22.8984C421.703 23.9661 421.919 24.7552 422.352 25.2656C422.784 25.776 423.307 26.0312 423.922 26.0312C424.547 26.0312 425.081 25.7682 425.523 25.2422C425.971 24.7109 426.195 23.8906 426.195 22.7812C426.195 21.724 425.977 20.9323 425.539 20.4062C425.107 19.8802 424.589 19.6172 423.984 19.6172C423.385 19.6172 422.854 19.8984 422.391 20.4609C421.932 21.0182 421.703 21.8307 421.703 22.8984ZM428.812 22.8516C428.812 21.3151 429.24 20.1771 430.094 19.4375C430.807 18.8229 431.677 18.5156 432.703 18.5156C433.844 18.5156 434.776 18.8906 435.5 19.6406C436.224 20.3854 436.586 21.4167 436.586 22.7344C436.586 23.8021 436.424 24.6432 436.102 25.2578C435.784 25.8672 435.318 26.3411 434.703 26.6797C434.094 27.0182 433.427 27.1875 432.703 27.1875C431.542 27.1875 430.602 26.8151 429.883 26.0703C429.169 25.3255 428.812 24.2526 428.812 22.8516ZM430.258 22.8516C430.258 23.9141 430.49 24.7109 430.953 25.2422C431.417 25.7682 432 26.0312 432.703 26.0312C433.401 26.0312 433.982 25.7656 434.445 25.2344C434.909 24.7031 435.141 23.8932 435.141 22.8047C435.141 21.7786 434.906 21.0026 434.438 20.4766C433.974 19.9453 433.396 19.6797 432.703 19.6797C432 19.6797 431.417 19.9427 430.953 20.4688C430.49 20.9948 430.258 21.7891 430.258 22.8516ZM438.25 18.7031H441.492C442.289 18.7031 442.88 18.7708 443.266 18.9062C443.656 19.0365 443.99 19.2786 444.266 19.6328C444.547 19.987 444.688 20.4115 444.688 20.9062C444.688 21.3021 444.604 21.6484 444.438 21.9453C444.276 22.237 444.031 22.4818 443.703 22.6797C444.094 22.8099 444.417 23.0547 444.672 23.4141C444.932 23.7682 445.062 24.1901 445.062 24.6797C445.01 25.4661 444.729 26.0495 444.219 26.4297C443.708 26.8099 442.966 27 441.992 27H438.25V18.7031ZM439.656 22.1953H441.156C441.755 22.1953 442.167 22.1641 442.391 22.1016C442.615 22.0391 442.815 21.9141 442.992 21.7266C443.169 21.5339 443.258 21.3047 443.258 21.0391C443.258 20.6016 443.102 20.2969 442.789 20.125C442.482 19.9531 441.953 19.8672 441.203 19.8672H439.656V22.1953ZM439.656 25.8438H441.508C442.305 25.8438 442.852 25.7526 443.148 25.5703C443.445 25.3828 443.602 25.0625 443.617 24.6094C443.617 24.3438 443.531 24.099 443.359 23.875C443.188 23.6458 442.964 23.5026 442.688 23.4453C442.411 23.3828 441.969 23.3516 441.359 23.3516H439.656V25.8438ZM446.742 18.7031H448.148V25.0312L452.047 18.7031H453.562V27H452.156V20.7109L448.258 27H446.742V18.7031ZM456.07 20.3047V18.7031H457.672V20.3047H456.07ZM456.07 27V25.3984H457.672V27H456.07ZM101.195 40.7656C101.951 40.0729 102.523 39.474 102.914 38.9688C103.31 38.4635 103.604 37.987 103.797 37.5391H104.156C104.401 38.0547 104.716 38.5547 105.102 39.0391C105.492 39.5234 106.062 40.1016 106.812 40.7734V41.375C105.766 40.8854 104.961 40.3724 104.398 39.8359V51.3516H103.609V39.8359C103.109 40.2318 102.734 40.5078 102.484 40.6641C102.24 40.8203 101.81 41.0521 101.195 41.3594V40.7656ZM113.516 39.7031H120.062V48H118.656V40.8672H114.922V48H113.516V39.7031ZM121.656 43.8516C121.656 42.3151 122.083 41.1771 122.938 40.4375C123.651 39.8229 124.521 39.5156 125.547 39.5156C126.688 39.5156 127.62 39.8906 128.344 40.6406C129.068 41.3854 129.43 42.4167 129.43 43.7344C129.43 44.8021 129.268 45.6432 128.945 46.2578C128.628 46.8672 128.161 47.3411 127.547 47.6797C126.938 48.0182 126.271 48.1875 125.547 48.1875C124.385 48.1875 123.445 47.8151 122.727 47.0703C122.013 46.3255 121.656 45.2526 121.656 43.8516ZM123.102 43.8516C123.102 44.9141 123.333 45.7109 123.797 46.2422C124.26 46.7682 124.844 47.0312 125.547 47.0312C126.245 47.0312 126.826 46.7656 127.289 46.2344C127.753 45.7031 127.984 44.8932 127.984 43.8047C127.984 42.7786 127.75 42.0026 127.281 41.4766C126.818 40.9453 126.24 40.6797 125.547 40.6797C124.844 40.6797 124.26 40.9427 123.797 41.4688C123.333 41.9948 123.102 42.7891 123.102 43.8516ZM131.078 39.7031H132.484V43.2891C132.932 43.2891 133.245 43.2031 133.422 43.0312C133.604 42.8594 133.87 42.3594 134.219 41.5312C134.495 40.875 134.719 40.4427 134.891 40.2344C135.062 40.026 135.26 39.8854 135.484 39.8125C135.708 39.7396 136.068 39.7031 136.562 39.7031H136.844V40.8672L136.453 40.8594C136.083 40.8594 135.846 40.9141 135.742 41.0234C135.633 41.138 135.466 41.4792 135.242 42.0469C135.029 42.5885 134.833 42.9635 134.656 43.1719C134.479 43.3802 134.206 43.5703 133.836 43.7422C134.44 43.9036 135.034 44.4661 135.617 45.4297L137.156 48H135.609L134.109 45.4297C133.802 44.9141 133.534 44.5755 133.305 44.4141C133.076 44.2474 132.802 44.1641 132.484 44.1641V48H131.078V39.7031ZM143.859 46.9766C143.339 47.4193 142.836 47.7318 142.352 47.9141C141.872 48.0964 141.357 48.1875 140.805 48.1875C139.893 48.1875 139.193 47.9661 138.703 47.5234C138.214 47.0755 137.969 46.5052 137.969 45.8125C137.969 45.4062 138.06 45.0365 138.242 44.7031C138.43 44.3646 138.672 44.0938 138.969 43.8906C139.271 43.6875 139.609 43.5339 139.984 43.4297C140.26 43.3568 140.677 43.2865 141.234 43.2188C142.37 43.0833 143.206 42.9219 143.742 42.7344C143.747 42.5417 143.75 42.4193 143.75 42.3672C143.75 41.7943 143.617 41.3906 143.352 41.1562C142.992 40.8385 142.458 40.6797 141.75 40.6797C141.089 40.6797 140.599 40.7969 140.281 41.0312C139.969 41.2604 139.737 41.6693 139.586 42.2578L138.211 42.0703C138.336 41.4818 138.542 41.0078 138.828 40.6484C139.115 40.2839 139.529 40.0052 140.07 39.8125C140.612 39.6146 141.24 39.5156 141.953 39.5156C142.661 39.5156 143.237 39.599 143.68 39.7656C144.122 39.9323 144.448 40.1432 144.656 40.3984C144.865 40.6484 145.01 40.9661 145.094 41.3516C145.141 41.5911 145.164 42.0234 145.164 42.6484V44.5234C145.164 45.8307 145.193 46.6589 145.25 47.0078C145.312 47.3516 145.432 47.6823 145.609 48H144.141C143.995 47.7083 143.901 47.3672 143.859 46.9766ZM143.742 43.8359C143.232 44.0443 142.466 44.2214 141.445 44.3672C140.867 44.4505 140.458 44.5443 140.219 44.6484C139.979 44.7526 139.794 44.9062 139.664 45.1094C139.534 45.3073 139.469 45.5286 139.469 45.7734C139.469 46.1484 139.609 46.4609 139.891 46.7109C140.177 46.9609 140.594 47.0859 141.141 47.0859C141.682 47.0859 142.164 46.9688 142.586 46.7344C143.008 46.4948 143.318 46.1693 143.516 45.7578C143.667 45.4401 143.742 44.9714 143.742 44.3516V43.8359ZM149 44.25V43.1484C149.594 43.1432 149.997 43.1198 150.211 43.0781C150.43 43.0365 150.635 42.9115 150.828 42.7031C151.021 42.4948 151.117 42.2344 151.117 41.9219C151.117 41.5417 150.99 41.2396 150.734 41.0156C150.484 40.7865 150.159 40.6719 149.758 40.6719C148.966 40.6719 148.411 41.138 148.094 42.0703L146.758 41.8516C147.174 40.2943 148.18 39.5156 149.773 39.5156C150.659 39.5156 151.352 39.7578 151.852 40.2422C152.357 40.7266 152.609 41.3047 152.609 41.9766C152.609 42.6536 152.281 43.1927 151.625 43.5938C152.042 43.8177 152.354 44.1042 152.562 44.4531C152.771 44.7969 152.875 45.2057 152.875 45.6797C152.875 46.4245 152.604 47.0286 152.062 47.4922C151.521 47.9557 150.763 48.1875 149.789 48.1875C147.898 48.1875 146.802 47.3464 146.5 45.6641L147.82 45.3828C147.94 45.9141 148.182 46.3255 148.547 46.6172C148.917 46.9089 149.339 47.0547 149.812 47.0547C150.286 47.0547 150.68 46.9219 150.992 46.6562C151.31 46.3854 151.469 46.0417 151.469 45.625C151.469 45.3021 151.37 45.0208 151.172 44.7812C150.974 44.5417 150.763 44.3932 150.539 44.3359C150.315 44.2734 149.909 44.2422 149.32 44.2422C149.273 44.2422 149.167 44.2448 149 44.25ZM159.922 46.9766C159.401 47.4193 158.898 47.7318 158.414 47.9141C157.935 48.0964 157.419 48.1875 156.867 48.1875C155.956 48.1875 155.255 47.9661 154.766 47.5234C154.276 47.0755 154.031 46.5052 154.031 45.8125C154.031 45.4062 154.122 45.0365 154.305 44.7031C154.492 44.3646 154.734 44.0938 155.031 43.8906C155.333 43.6875 155.672 43.5339 156.047 43.4297C156.323 43.3568 156.74 43.2865 157.297 43.2188C158.432 43.0833 159.268 42.9219 159.805 42.7344C159.81 42.5417 159.812 42.4193 159.812 42.3672C159.812 41.7943 159.68 41.3906 159.414 41.1562C159.055 40.8385 158.521 40.6797 157.812 40.6797C157.151 40.6797 156.661 40.7969 156.344 41.0312C156.031 41.2604 155.799 41.6693 155.648 42.2578L154.273 42.0703C154.398 41.4818 154.604 41.0078 154.891 40.6484C155.177 40.2839 155.591 40.0052 156.133 39.8125C156.674 39.6146 157.302 39.5156 158.016 39.5156C158.724 39.5156 159.299 39.599 159.742 39.7656C160.185 39.9323 160.51 40.1432 160.719 40.3984C160.927 40.6484 161.073 40.9661 161.156 41.3516C161.203 41.5911 161.227 42.0234 161.227 42.6484V44.5234C161.227 45.8307 161.255 46.6589 161.312 47.0078C161.375 47.3516 161.495 47.6823 161.672 48H160.203C160.057 47.7083 159.964 47.3672 159.922 46.9766ZM159.805 43.8359C159.294 44.0443 158.529 44.2214 157.508 44.3672C156.93 44.4505 156.521 44.5443 156.281 44.6484C156.042 44.7526 155.857 44.9062 155.727 45.1094C155.596 45.3073 155.531 45.5286 155.531 45.7734C155.531 46.1484 155.672 46.4609 155.953 46.7109C156.24 46.9609 156.656 47.0859 157.203 47.0859C157.745 47.0859 158.227 46.9688 158.648 46.7344C159.07 46.4948 159.38 46.1693 159.578 45.7578C159.729 45.4401 159.805 44.9714 159.805 44.3516V43.8359ZM162.297 39.7031H169.039V40.8672H166.367V48H164.969V40.8672H162.297V39.7031ZM175.875 45.3281L177.328 45.5078C177.099 46.3568 176.674 47.0156 176.055 47.4844C175.435 47.9531 174.643 48.1875 173.68 48.1875C172.466 48.1875 171.503 47.8151 170.789 47.0703C170.081 46.3203 169.727 45.2708 169.727 43.9219C169.727 42.526 170.086 41.4427 170.805 40.6719C171.523 39.901 172.456 39.5156 173.602 39.5156C174.711 39.5156 175.617 39.8932 176.32 40.6484C177.023 41.4036 177.375 42.4661 177.375 43.8359C177.375 43.9193 177.372 44.0443 177.367 44.2109H171.18C171.232 45.1224 171.49 45.8203 171.953 46.3047C172.417 46.7891 172.995 47.0312 173.688 47.0312C174.203 47.0312 174.643 46.8958 175.008 46.625C175.372 46.3542 175.661 45.9219 175.875 45.3281ZM171.258 43.0547H175.891C175.828 42.3568 175.651 41.8333 175.359 41.4844C174.911 40.9427 174.331 40.6719 173.617 40.6719C172.971 40.6719 172.427 40.888 171.984 41.3203C171.547 41.7526 171.305 42.3307 171.258 43.0547ZM179.258 39.7031H185.789V48H184.391V40.8672H180.664V45C180.664 45.9635 180.633 46.599 180.57 46.9062C180.508 47.2135 180.336 47.4818 180.055 47.7109C179.773 47.9401 179.367 48.0547 178.836 48.0547C178.508 48.0547 178.13 48.0339 177.703 47.9922V46.8203H178.32C178.612 46.8203 178.82 46.7917 178.945 46.7344C179.07 46.6719 179.154 46.5755 179.195 46.4453C179.237 46.3151 179.258 45.8906 179.258 45.1719V39.7031ZM193.594 45.3281L195.047 45.5078C194.818 46.3568 194.393 47.0156 193.773 47.4844C193.154 47.9531 192.362 48.1875 191.398 48.1875C190.185 48.1875 189.221 47.8151 188.508 47.0703C187.799 46.3203 187.445 45.2708 187.445 43.9219C187.445 42.526 187.805 41.4427 188.523 40.6719C189.242 39.901 190.174 39.5156 191.32 39.5156C192.43 39.5156 193.336 39.8932 194.039 40.6484C194.742 41.4036 195.094 42.4661 195.094 43.8359C195.094 43.9193 195.091 44.0443 195.086 44.2109H188.898C188.951 45.1224 189.208 45.8203 189.672 46.3047C190.135 46.7891 190.714 47.0312 191.406 47.0312C191.922 47.0312 192.362 46.8958 192.727 46.625C193.091 46.3542 193.38 45.9219 193.594 45.3281ZM188.977 43.0547H193.609C193.547 42.3568 193.37 41.8333 193.078 41.4844C192.63 40.9427 192.049 40.6719 191.336 40.6719C190.69 40.6719 190.146 40.888 189.703 41.3203C189.266 41.7526 189.023 42.3307 188.977 43.0547ZM196.82 39.7031H198.227V46.0312L202.125 39.7031H203.641V48H202.234V41.7109L198.336 48H196.82V39.7031ZM201.703 36.5625H202.664C202.586 37.2135 202.346 37.7135 201.945 38.0625C201.549 38.4115 201.021 38.5859 200.359 38.5859C199.693 38.5859 199.159 38.4141 198.758 38.0703C198.362 37.7214 198.125 37.2188 198.047 36.5625H199.008C199.081 36.9167 199.224 37.1823 199.438 37.3594C199.656 37.5312 199.948 37.6172 200.312 37.6172C200.734 37.6172 201.052 37.5339 201.266 37.3672C201.484 37.1953 201.63 36.9271 201.703 36.5625ZM215.039 36.5469H216.445V40.5078C216.737 40.1745 217.057 39.9271 217.406 39.7656C217.755 39.599 218.13 39.5156 218.531 39.5156C219.516 39.5156 220.294 39.9271 220.867 40.75C221.445 41.5677 221.734 42.599 221.734 43.8438C221.734 45.1406 221.424 46.1901 220.805 46.9922C220.185 47.7891 219.414 48.1875 218.492 48.1875C218.19 48.1875 217.883 48.1406 217.57 48.0469C217.258 47.9531 216.883 47.6979 216.445 47.2812V51.1797H215.039V47.2812C214.758 47.5833 214.445 47.8099 214.102 47.9609C213.763 48.112 213.396 48.1875 213 48.1875C212.13 48.1875 211.37 47.8073 210.719 47.0469C210.068 46.2812 209.742 45.1875 209.742 43.7656C209.742 42.5625 210.036 41.5547 210.625 40.7422C211.214 39.9245 212.005 39.5156 213 39.5156C213.417 39.5156 213.794 39.599 214.133 39.7656C214.471 39.9271 214.773 40.1745 215.039 40.5078V36.5469ZM216.438 43.8828C216.438 45.1328 216.609 45.974 216.953 46.4062C217.297 46.8333 217.727 47.0469 218.242 47.0469C218.815 47.0469 219.302 46.7839 219.703 46.2578C220.109 45.7266 220.312 44.9036 220.312 43.7891C220.312 42.737 220.125 41.9531 219.75 41.4375C219.38 40.9219 218.904 40.6641 218.32 40.6641C217.695 40.6641 217.224 40.9323 216.906 41.4688C216.594 42.0052 216.438 42.8099 216.438 43.8828ZM211.172 43.7266C211.172 44.8984 211.367 45.7422 211.758 46.2578C212.154 46.7734 212.643 47.0312 213.227 47.0312C213.836 47.0312 214.292 46.776 214.594 46.2656C214.896 45.75 215.047 44.9792 215.047 43.9531C215.047 42.8594 214.888 42.0391 214.57 41.4922C214.253 40.9453 213.773 40.6719 213.133 40.6719C212.555 40.6719 212.083 40.9401 211.719 41.4766C211.354 42.0078 211.172 42.7578 211.172 43.7266ZM223.133 51.1953L222.977 49.875C223.284 49.9583 223.552 50 223.781 50C224.094 50 224.344 49.9479 224.531 49.8438C224.719 49.7396 224.872 49.5938 224.992 49.4062C225.081 49.2656 225.224 48.9167 225.422 48.3594C225.448 48.2812 225.49 48.1667 225.547 48.0156L222.398 39.7031H223.914L225.641 44.5078C225.865 45.1172 226.065 45.7578 226.242 46.4297C226.404 45.7839 226.596 45.1536 226.82 44.5391L228.594 39.7031H230L226.844 48.1406C226.505 49.0521 226.242 49.6797 226.055 50.0234C225.805 50.487 225.518 50.8255 225.195 51.0391C224.872 51.2578 224.487 51.3672 224.039 51.3672C223.768 51.3672 223.466 51.3099 223.133 51.1953ZM231.203 39.7031H232.609V43.1562H236.508V39.7031H237.914V48H236.508V44.3203H232.609V48H231.203V39.7031ZM240.031 39.7031H241.438V43.2891C241.885 43.2891 242.198 43.2031 242.375 43.0312C242.557 42.8594 242.823 42.3594 243.172 41.5312C243.448 40.875 243.672 40.4427 243.844 40.2344C244.016 40.026 244.214 39.8854 244.438 39.8125C244.661 39.7396 245.021 39.7031 245.516 39.7031H245.797V40.8672L245.406 40.8594C245.036 40.8594 244.799 40.9141 244.695 41.0234C244.586 41.138 244.419 41.4792 244.195 42.0469C243.982 42.5885 243.786 42.9635 243.609 43.1719C243.432 43.3802 243.159 43.5703 242.789 43.7422C243.393 43.9036 243.987 44.4661 244.57 45.4297L246.109 48H244.562L243.062 45.4297C242.755 44.9141 242.487 44.5755 242.258 44.4141C242.029 44.2474 241.755 44.1641 241.438 44.1641V48H240.031V39.7031ZM247.062 39.7031H248.469V46.8438H252.359V39.7031H253.766V46.8438H254.672V50.3516H253.516V48H247.062V39.7031ZM256.211 39.7031H257.617V46.0312L261.516 39.7031H263.031V48H261.625V41.7109L257.727 48H256.211V39.7031ZM265.148 39.7031H266.555V46.0312L270.453 39.7031H271.969V48H270.562V41.7109L266.664 48H265.148V39.7031ZM278.547 39.7031H281.789C282.586 39.7031 283.177 39.7708 283.562 39.9062C283.953 40.0365 284.286 40.2786 284.562 40.6328C284.844 40.987 284.984 41.4115 284.984 41.9062C284.984 42.3021 284.901 42.6484 284.734 42.9453C284.573 43.237 284.328 43.4818 284 43.6797C284.391 43.8099 284.714 44.0547 284.969 44.4141C285.229 44.7682 285.359 45.1901 285.359 45.6797C285.307 46.4661 285.026 47.0495 284.516 47.4297C284.005 47.8099 283.263 48 282.289 48H278.547V39.7031ZM279.953 43.1953H281.453C282.052 43.1953 282.464 43.1641 282.688 43.1016C282.911 43.0391 283.112 42.9141 283.289 42.7266C283.466 42.5339 283.555 42.3047 283.555 42.0391C283.555 41.6016 283.398 41.2969 283.086 41.125C282.779 40.9531 282.25 40.8672 281.5 40.8672H279.953V43.1953ZM279.953 46.8438H281.805C282.602 46.8438 283.148 46.7526 283.445 46.5703C283.742 46.3828 283.898 46.0625 283.914 45.6094C283.914 45.3438 283.828 45.099 283.656 44.875C283.484 44.6458 283.26 44.5026 282.984 44.4453C282.708 44.3828 282.266 44.3516 281.656 44.3516H279.953V46.8438ZM287.047 39.7031H288.453V43.1562H292.352V39.7031H293.758V48H292.352V44.3203H288.453V48H287.047V39.7031ZM301.562 45.3281L303.016 45.5078C302.786 46.3568 302.362 47.0156 301.742 47.4844C301.122 47.9531 300.331 48.1875 299.367 48.1875C298.154 48.1875 297.19 47.8151 296.477 47.0703C295.768 46.3203 295.414 45.2708 295.414 43.9219C295.414 42.526 295.773 41.4427 296.492 40.6719C297.211 39.901 298.143 39.5156 299.289 39.5156C300.398 39.5156 301.305 39.8932 302.008 40.6484C302.711 41.4036 303.062 42.4661 303.062 43.8359C303.062 43.9193 303.06 44.0443 303.055 44.2109H296.867C296.919 45.1224 297.177 45.8203 297.641 46.3047C298.104 46.7891 298.682 47.0312 299.375 47.0312C299.891 47.0312 300.331 46.8958 300.695 46.625C301.06 46.3542 301.349 45.9219 301.562 45.3281ZM296.945 43.0547H301.578C301.516 42.3568 301.339 41.8333 301.047 41.4844C300.599 40.9427 300.018 40.6719 299.305 40.6719C298.659 40.6719 298.115 40.888 297.672 41.3203C297.234 41.7526 296.992 42.3307 296.945 43.0547ZM304.836 39.7031H306.242V46.8359H309.445V39.7031H310.852V46.8359H314.062V39.7031H315.461V48H304.836V39.7031ZM317.641 39.7031H319.047V43.1562H322.945V39.7031H324.352V48H322.945V44.3203H319.047V48H317.641V39.7031ZM332.156 45.3281L333.609 45.5078C333.38 46.3568 332.956 47.0156 332.336 47.4844C331.716 47.9531 330.924 48.1875 329.961 48.1875C328.747 48.1875 327.784 47.8151 327.07 47.0703C326.362 46.3203 326.008 45.2708 326.008 43.9219C326.008 42.526 326.367 41.4427 327.086 40.6719C327.805 39.901 328.737 39.5156 329.883 39.5156C330.992 39.5156 331.898 39.8932 332.602 40.6484C333.305 41.4036 333.656 42.4661 333.656 43.8359C333.656 43.9193 333.654 44.0443 333.648 44.2109H327.461C327.513 45.1224 327.771 45.8203 328.234 46.3047C328.698 46.7891 329.276 47.0312 329.969 47.0312C330.484 47.0312 330.924 46.8958 331.289 46.625C331.654 46.3542 331.943 45.9219 332.156 45.3281ZM327.539 43.0547H332.172C332.109 42.3568 331.932 41.8333 331.641 41.4844C331.193 40.9427 330.612 40.6719 329.898 40.6719C329.253 40.6719 328.708 40.888 328.266 41.3203C327.828 41.7526 327.586 42.3307 327.539 43.0547ZM335.391 39.7031H340.164V40.8672H336.797V48H335.391V39.7031ZM340.344 43.8516C340.344 42.3151 340.771 41.1771 341.625 40.4375C342.339 39.8229 343.208 39.5156 344.234 39.5156C345.375 39.5156 346.307 39.8906 347.031 40.6406C347.755 41.3854 348.117 42.4167 348.117 43.7344C348.117 44.8021 347.956 45.6432 347.633 46.2578C347.315 46.8672 346.849 47.3411 346.234 47.6797C345.625 48.0182 344.958 48.1875 344.234 48.1875C343.073 48.1875 342.133 47.8151 341.414 47.0703C340.701 46.3255 340.344 45.2526 340.344 43.8516ZM341.789 43.8516C341.789 44.9141 342.021 45.7109 342.484 46.2422C342.948 46.7682 343.531 47.0312 344.234 47.0312C344.932 47.0312 345.513 46.7656 345.977 46.2344C346.44 45.7031 346.672 44.8932 346.672 43.8047C346.672 42.7786 346.438 42.0026 345.969 41.4766C345.505 40.9453 344.927 40.6797 344.234 40.6797C343.531 40.6797 342.948 40.9427 342.484 41.4688C342.021 41.9948 341.789 42.7891 341.789 43.8516ZM355.336 39.7031H361.117V46.8438H362.016V50.3516H360.859V48H354.328V50.3516H353.172V46.8438H353.914C354.904 45.5 355.378 43.1198 355.336 39.7031ZM356.508 40.8672C356.404 43.5599 355.987 45.5521 355.258 46.8438H359.719V40.8672H356.508ZM371.469 39.7031H372.875V48H371.469V39.7031ZM363.602 39.7031H365.008V42.9453H366.789C367.951 42.9453 368.844 43.1719 369.469 43.625C370.099 44.0729 370.414 44.6927 370.414 45.4844C370.414 46.1771 370.151 46.7708 369.625 47.2656C369.104 47.7552 368.268 48 367.117 48H363.602V39.7031ZM365.008 46.8438H366.484C367.375 46.8438 368.01 46.7344 368.391 46.5156C368.771 46.2969 368.961 45.9557 368.961 45.4922C368.961 45.1328 368.82 44.8125 368.539 44.5312C368.258 44.25 367.635 44.1094 366.672 44.1094H365.008V46.8438ZM374.133 48L377.164 43.6875L374.359 39.7031H376.117L377.391 41.6484C377.63 42.0182 377.823 42.3281 377.969 42.5781C378.198 42.2344 378.409 41.9297 378.602 41.6641L380 39.7031H381.68L378.812 43.6094L381.898 48H380.172L378.469 45.4219L378.016 44.7266L375.836 48H374.133ZM388.297 46.9766C387.776 47.4193 387.273 47.7318 386.789 47.9141C386.31 48.0964 385.794 48.1875 385.242 48.1875C384.331 48.1875 383.63 47.9661 383.141 47.5234C382.651 47.0755 382.406 46.5052 382.406 45.8125C382.406 45.4062 382.497 45.0365 382.68 44.7031C382.867 44.3646 383.109 44.0938 383.406 43.8906C383.708 43.6875 384.047 43.5339 384.422 43.4297C384.698 43.3568 385.115 43.2865 385.672 43.2188C386.807 43.0833 387.643 42.9219 388.18 42.7344C388.185 42.5417 388.188 42.4193 388.188 42.3672C388.188 41.7943 388.055 41.3906 387.789 41.1562C387.43 40.8385 386.896 40.6797 386.188 40.6797C385.526 40.6797 385.036 40.7969 384.719 41.0312C384.406 41.2604 384.174 41.6693 384.023 42.2578L382.648 42.0703C382.773 41.4818 382.979 41.0078 383.266 40.6484C383.552 40.2839 383.966 40.0052 384.508 39.8125C385.049 39.6146 385.677 39.5156 386.391 39.5156C387.099 39.5156 387.674 39.599 388.117 39.7656C388.56 39.9323 388.885 40.1432 389.094 40.3984C389.302 40.6484 389.448 40.9661 389.531 41.3516C389.578 41.5911 389.602 42.0234 389.602 42.6484V44.5234C389.602 45.8307 389.63 46.6589 389.688 47.0078C389.75 47.3516 389.87 47.6823 390.047 48H388.578C388.432 47.7083 388.339 47.3672 388.297 46.9766ZM388.18 43.8359C387.669 44.0443 386.904 44.2214 385.883 44.3672C385.305 44.4505 384.896 44.5443 384.656 44.6484C384.417 44.7526 384.232 44.9062 384.102 45.1094C383.971 45.3073 383.906 45.5286 383.906 45.7734C383.906 46.1484 384.047 46.4609 384.328 46.7109C384.615 46.9609 385.031 47.0859 385.578 47.0859C386.12 47.0859 386.602 46.9688 387.023 46.7344C387.445 46.4948 387.755 46.1693 387.953 45.7578C388.104 45.4401 388.18 44.9714 388.18 44.3516V43.8359ZM391.797 39.7031H393.203V43.1562H397.102V39.7031H398.508V48H397.102V44.3203H393.203V48H391.797V39.7031ZM400.633 39.7031H402.039V46.0312L405.938 39.7031H407.453V48H406.047V41.7109L402.148 48H400.633V39.7031ZM416.102 39.7031V48H414.703V44.7656H413.891C413.396 44.7656 413.026 44.8307 412.781 44.9609C412.542 45.0859 412.19 45.4948 411.727 46.1875L410.5 48H408.758L410.273 45.7656C410.737 45.0833 411.198 44.6979 411.656 44.6094C410.854 44.5 410.258 44.2109 409.867 43.7422C409.482 43.2734 409.289 42.7344 409.289 42.125C409.289 41.4062 409.542 40.8229 410.047 40.375C410.557 39.9271 411.294 39.7031 412.258 39.7031H416.102ZM414.703 40.8672H412.703C411.865 40.8672 411.323 40.9974 411.078 41.2578C410.839 41.5182 410.719 41.8229 410.719 42.1719C410.719 42.6667 410.896 43.0312 411.25 43.2656C411.609 43.4948 412.242 43.6094 413.148 43.6094H414.703V40.8672ZM418.609 48V46.3984H420.211V48C420.211 48.5885 420.107 49.0625 419.898 49.4219C419.69 49.7865 419.359 50.0677 418.906 50.2656L418.516 49.6641C418.812 49.5339 419.031 49.3411 419.172 49.0859C419.312 48.8359 419.391 48.474 419.406 48H418.609ZM426.812 44.3203L428.242 44.1953C428.31 44.7682 428.466 45.2396 428.711 45.6094C428.961 45.974 429.346 46.2708 429.867 46.5C430.388 46.724 430.974 46.8359 431.625 46.8359C432.203 46.8359 432.714 46.75 433.156 46.5781C433.599 46.4062 433.927 46.1719 434.141 45.875C434.359 45.5729 434.469 45.2448 434.469 44.8906C434.469 44.5312 434.365 44.2188 434.156 43.9531C433.948 43.6823 433.604 43.4557 433.125 43.2734C432.818 43.1536 432.138 42.9688 431.086 42.7188C430.034 42.4635 429.297 42.224 428.875 42C428.328 41.7135 427.919 41.3594 427.648 40.9375C427.383 40.5104 427.25 40.0339 427.25 39.5078C427.25 38.9297 427.414 38.3906 427.742 37.8906C428.07 37.3854 428.549 37.0026 429.18 36.7422C429.81 36.4818 430.51 36.3516 431.281 36.3516C432.13 36.3516 432.878 36.4896 433.523 36.7656C434.174 37.0365 434.674 37.4375 435.023 37.9688C435.372 38.5 435.56 39.1016 435.586 39.7734L434.133 39.8828C434.055 39.1589 433.789 38.612 433.336 38.2422C432.888 37.8724 432.224 37.6875 431.344 37.6875C430.427 37.6875 429.758 37.8568 429.336 38.1953C428.919 38.5286 428.711 38.9323 428.711 39.4062C428.711 39.8177 428.859 40.1562 429.156 40.4219C429.448 40.6875 430.208 40.9609 431.438 41.2422C432.672 41.5182 433.518 41.7604 433.977 41.9688C434.643 42.276 435.135 42.6667 435.453 43.1406C435.771 43.6094 435.93 44.151 435.93 44.7656C435.93 45.375 435.755 45.9505 435.406 46.4922C435.057 47.0286 434.555 47.4479 433.898 47.75C433.247 48.0469 432.513 48.1953 431.695 48.1953C430.659 48.1953 429.789 48.0443 429.086 47.7422C428.388 47.4401 427.839 46.987 427.438 46.3828C427.042 45.7734 426.833 45.0859 426.812 44.3203ZM437.82 51.1797V39.7031H439.102V40.7812C439.404 40.3594 439.745 40.0443 440.125 39.8359C440.505 39.6224 440.966 39.5156 441.508 39.5156C442.216 39.5156 442.841 39.6979 443.383 40.0625C443.924 40.4271 444.333 40.9427 444.609 41.6094C444.885 42.2708 445.023 42.9974 445.023 43.7891C445.023 44.638 444.87 45.4036 444.562 46.0859C444.26 46.763 443.818 47.2839 443.234 47.6484C442.656 48.0078 442.047 48.1875 441.406 48.1875C440.938 48.1875 440.516 48.0885 440.141 47.8906C439.771 47.6927 439.466 47.4427 439.227 47.1406V51.1797H437.82ZM439.094 43.8984C439.094 44.9661 439.31 45.7552 439.742 46.2656C440.174 46.776 440.698 47.0312 441.312 47.0312C441.938 47.0312 442.471 46.7682 442.914 46.2422C443.362 45.7109 443.586 44.8906 443.586 43.7812C443.586 42.724 443.367 41.9323 442.93 41.4062C442.497 40.8802 441.979 40.6172 441.375 40.6172C440.776 40.6172 440.245 40.8984 439.781 41.4609C439.323 42.0182 439.094 42.8307 439.094 43.8984ZM446.445 42.4219C446.445 40.5208 446.956 39.0339 447.977 37.9609C448.997 36.8828 450.315 36.3438 451.93 36.3438C452.987 36.3438 453.94 36.5964 454.789 37.1016C455.638 37.6068 456.284 38.3125 456.727 39.2188C457.174 40.1198 457.398 41.1432 457.398 42.2891C457.398 43.4505 457.164 44.4896 456.695 45.4062C456.227 46.3229 455.562 47.0182 454.703 47.4922C453.844 47.9609 452.917 48.1953 451.922 48.1953C450.844 48.1953 449.88 47.9349 449.031 47.4141C448.182 46.8932 447.539 46.1823 447.102 45.2812C446.664 44.3802 446.445 43.4271 446.445 42.4219ZM448.008 42.4453C448.008 43.8255 448.378 44.9141 449.117 45.7109C449.862 46.5026 450.794 46.8984 451.914 46.8984C453.055 46.8984 453.992 46.4974 454.727 45.6953C455.466 44.8932 455.836 43.7552 455.836 42.2812C455.836 41.349 455.677 40.5365 455.359 39.8438C455.047 39.1458 454.586 38.6068 453.977 38.2266C453.372 37.8411 452.693 37.6484 451.938 37.6484C450.865 37.6484 449.94 38.0182 449.164 38.7578C448.393 39.4922 448.008 40.7214 448.008 42.4453ZM466.18 46.6484V48H458.609C458.599 47.6615 458.654 47.3359 458.773 47.0234C458.966 46.5078 459.273 46 459.695 45.5C460.122 45 460.737 44.4219 461.539 43.7656C462.784 42.7448 463.625 41.9375 464.062 41.3438C464.5 40.7448 464.719 40.1797 464.719 39.6484C464.719 39.0911 464.518 38.6224 464.117 38.2422C463.721 37.8568 463.203 37.6641 462.562 37.6641C461.885 37.6641 461.344 37.8672 460.938 38.2734C460.531 38.6797 460.326 39.2422 460.32 39.9609L458.875 39.8125C458.974 38.7344 459.346 37.9141 459.992 37.3516C460.638 36.7839 461.505 36.5 462.594 36.5C463.693 36.5 464.562 36.8047 465.203 37.4141C465.844 38.0234 466.164 38.7786 466.164 39.6797C466.164 40.138 466.07 40.5885 465.883 41.0312C465.695 41.474 465.383 41.9401 464.945 42.4297C464.513 42.9193 463.792 43.5911 462.781 44.4453C461.938 45.1536 461.396 45.6354 461.156 45.8906C460.917 46.1406 460.719 46.3932 460.562 46.6484H466.18ZM101.062 60.7031H107.609V69H106.203V61.8672H102.469V69H101.062V60.7031ZM109.203 64.8516C109.203 63.3151 109.63 62.1771 110.484 61.4375C111.198 60.8229 112.068 60.5156 113.094 60.5156C114.234 60.5156 115.167 60.8906 115.891 61.6406C116.615 62.3854 116.977 63.4167 116.977 64.7344C116.977 65.8021 116.815 66.6432 116.492 67.2578C116.174 67.8672 115.708 68.3411 115.094 68.6797C114.484 69.0182 113.818 69.1875 113.094 69.1875C111.932 69.1875 110.992 68.8151 110.273 68.0703C109.56 67.3255 109.203 66.2526 109.203 64.8516ZM110.648 64.8516C110.648 65.9141 110.88 66.7109 111.344 67.2422C111.807 67.7682 112.391 68.0312 113.094 68.0312C113.792 68.0312 114.372 67.7656 114.836 67.2344C115.299 66.7031 115.531 65.8932 115.531 64.8047C115.531 63.7786 115.297 63.0026 114.828 62.4766C114.365 61.9453 113.786 61.6797 113.094 61.6797C112.391 61.6797 111.807 61.9427 111.344 62.4688C110.88 62.9948 110.648 63.7891 110.648 64.8516ZM124.047 65.9609L125.43 66.1406C125.279 67.0938 124.891 67.8411 124.266 68.3828C123.646 68.9193 122.883 69.1875 121.977 69.1875C120.841 69.1875 119.927 68.8177 119.234 68.0781C118.547 67.3333 118.203 66.2682 118.203 64.8828C118.203 63.987 118.352 63.2031 118.648 62.5312C118.945 61.8594 119.396 61.3568 120 61.0234C120.609 60.6849 121.271 60.5156 121.984 60.5156C122.885 60.5156 123.622 60.7448 124.195 61.2031C124.768 61.6562 125.135 62.3021 125.297 63.1406L123.93 63.3516C123.799 62.7943 123.568 62.375 123.234 62.0938C122.906 61.8125 122.508 61.6719 122.039 61.6719C121.331 61.6719 120.755 61.9271 120.312 62.4375C119.87 62.9427 119.648 63.7448 119.648 64.8438C119.648 65.9583 119.862 66.7682 120.289 67.2734C120.716 67.7786 121.273 68.0312 121.961 68.0312C122.513 68.0312 122.974 67.862 123.344 67.5234C123.714 67.1849 123.948 66.6641 124.047 65.9609ZM127.32 60.7031H133.852V69H132.453V61.8672H128.727V66C128.727 66.9635 128.695 67.599 128.633 67.9062C128.57 68.2135 128.398 68.4818 128.117 68.7109C127.836 68.9401 127.43 69.0547 126.898 69.0547C126.57 69.0547 126.193 69.0339 125.766 68.9922V67.8203H126.383C126.674 67.8203 126.883 67.7917 127.008 67.7344C127.133 67.6719 127.216 67.5755 127.258 67.4453C127.299 67.3151 127.32 66.8906 127.32 66.1719V60.7031ZM141.656 66.3281L143.109 66.5078C142.88 67.3568 142.456 68.0156 141.836 68.4844C141.216 68.9531 140.424 69.1875 139.461 69.1875C138.247 69.1875 137.284 68.8151 136.57 68.0703C135.862 67.3203 135.508 66.2708 135.508 64.9219C135.508 63.526 135.867 62.4427 136.586 61.6719C137.305 60.901 138.237 60.5156 139.383 60.5156C140.492 60.5156 141.398 60.8932 142.102 61.6484C142.805 62.4036 143.156 63.4661 143.156 64.8359C143.156 64.9193 143.154 65.0443 143.148 65.2109H136.961C137.013 66.1224 137.271 66.8203 137.734 67.3047C138.198 67.7891 138.776 68.0312 139.469 68.0312C139.984 68.0312 140.424 67.8958 140.789 67.625C141.154 67.3542 141.443 66.9219 141.656 66.3281ZM137.039 64.0547H141.672C141.609 63.3568 141.432 62.8333 141.141 62.4844C140.693 61.9427 140.112 61.6719 139.398 61.6719C138.753 61.6719 138.208 61.888 137.766 62.3203C137.328 62.7526 137.086 63.3307 137.039 64.0547ZM148.578 60.7031H155.32V61.8672H152.648V69H151.25V61.8672H148.578V60.7031ZM162.156 66.3281L163.609 66.5078C163.38 67.3568 162.956 68.0156 162.336 68.4844C161.716 68.9531 160.924 69.1875 159.961 69.1875C158.747 69.1875 157.784 68.8151 157.07 68.0703C156.362 67.3203 156.008 66.2708 156.008 64.9219C156.008 63.526 156.367 62.4427 157.086 61.6719C157.805 60.901 158.737 60.5156 159.883 60.5156C160.992 60.5156 161.898 60.8932 162.602 61.6484C163.305 62.4036 163.656 63.4661 163.656 64.8359C163.656 64.9193 163.654 65.0443 163.648 65.2109H157.461C157.513 66.1224 157.771 66.8203 158.234 67.3047C158.698 67.7891 159.276 68.0312 159.969 68.0312C160.484 68.0312 160.924 67.8958 161.289 67.625C161.654 67.3542 161.943 66.9219 162.156 66.3281ZM157.539 64.0547H162.172C162.109 63.3568 161.932 62.8333 161.641 62.4844C161.193 61.9427 160.612 61.6719 159.898 61.6719C159.253 61.6719 158.708 61.888 158.266 62.3203C157.828 62.7526 157.586 63.3307 157.539 64.0547ZM170.797 65.9609L172.18 66.1406C172.029 67.0938 171.641 67.8411 171.016 68.3828C170.396 68.9193 169.633 69.1875 168.727 69.1875C167.591 69.1875 166.677 68.8177 165.984 68.0781C165.297 67.3333 164.953 66.2682 164.953 64.8828C164.953 63.987 165.102 63.2031 165.398 62.5312C165.695 61.8594 166.146 61.3568 166.75 61.0234C167.359 60.6849 168.021 60.5156 168.734 60.5156C169.635 60.5156 170.372 60.7448 170.945 61.2031C171.518 61.6562 171.885 62.3021 172.047 63.1406L170.68 63.3516C170.549 62.7943 170.318 62.375 169.984 62.0938C169.656 61.8125 169.258 61.6719 168.789 61.6719C168.081 61.6719 167.505 61.9271 167.062 62.4375C166.62 62.9427 166.398 63.7448 166.398 64.8438C166.398 65.9583 166.612 66.7682 167.039 67.2734C167.466 67.7786 168.023 68.0312 168.711 68.0312C169.263 68.0312 169.724 67.862 170.094 67.5234C170.464 67.1849 170.698 66.6641 170.797 65.9609ZM172.625 60.7031H179.367V61.8672H176.695V69H175.297V61.8672H172.625V60.7031ZM185.938 67.9766C185.417 68.4193 184.914 68.7318 184.43 68.9141C183.951 69.0964 183.435 69.1875 182.883 69.1875C181.971 69.1875 181.271 68.9661 180.781 68.5234C180.292 68.0755 180.047 67.5052 180.047 66.8125C180.047 66.4062 180.138 66.0365 180.32 65.7031C180.508 65.3646 180.75 65.0938 181.047 64.8906C181.349 64.6875 181.688 64.5339 182.062 64.4297C182.339 64.3568 182.755 64.2865 183.312 64.2188C184.448 64.0833 185.284 63.9219 185.82 63.7344C185.826 63.5417 185.828 63.4193 185.828 63.3672C185.828 62.7943 185.695 62.3906 185.43 62.1562C185.07 61.8385 184.536 61.6797 183.828 61.6797C183.167 61.6797 182.677 61.7969 182.359 62.0312C182.047 62.2604 181.815 62.6693 181.664 63.2578L180.289 63.0703C180.414 62.4818 180.62 62.0078 180.906 61.6484C181.193 61.2839 181.607 61.0052 182.148 60.8125C182.69 60.6146 183.318 60.5156 184.031 60.5156C184.74 60.5156 185.315 60.599 185.758 60.7656C186.201 60.9323 186.526 61.1432 186.734 61.3984C186.943 61.6484 187.089 61.9661 187.172 62.3516C187.219 62.5911 187.242 63.0234 187.242 63.6484V65.5234C187.242 66.8307 187.271 67.6589 187.328 68.0078C187.391 68.3516 187.51 68.6823 187.688 69H186.219C186.073 68.7083 185.979 68.3672 185.938 67.9766ZM185.82 64.8359C185.31 65.0443 184.544 65.2214 183.523 65.3672C182.945 65.4505 182.536 65.5443 182.297 65.6484C182.057 65.7526 181.872 65.9062 181.742 66.1094C181.612 66.3073 181.547 66.5286 181.547 66.7734C181.547 67.1484 181.688 67.4609 181.969 67.7109C182.255 67.9609 182.672 68.0859 183.219 68.0859C183.76 68.0859 184.242 67.9688 184.664 67.7344C185.086 67.4948 185.396 67.1693 185.594 66.7578C185.745 66.4401 185.82 65.9714 185.82 65.3516V64.8359ZM199.297 65.9609L200.68 66.1406C200.529 67.0938 200.141 67.8411 199.516 68.3828C198.896 68.9193 198.133 69.1875 197.227 69.1875C196.091 69.1875 195.177 68.8177 194.484 68.0781C193.797 67.3333 193.453 66.2682 193.453 64.8828C193.453 63.987 193.602 63.2031 193.898 62.5312C194.195 61.8594 194.646 61.3568 195.25 61.0234C195.859 60.6849 196.521 60.5156 197.234 60.5156C198.135 60.5156 198.872 60.7448 199.445 61.2031C200.018 61.6562 200.385 62.3021 200.547 63.1406L199.18 63.3516C199.049 62.7943 198.818 62.375 198.484 62.0938C198.156 61.8125 197.758 61.6719 197.289 61.6719C196.581 61.6719 196.005 61.9271 195.562 62.4375C195.12 62.9427 194.898 63.7448 194.898 64.8438C194.898 65.9583 195.112 66.7682 195.539 67.2734C195.966 67.7786 196.523 68.0312 197.211 68.0312C197.763 68.0312 198.224 67.862 198.594 67.5234C198.964 67.1849 199.198 66.6641 199.297 65.9609ZM213.242 60.3516L211.844 60.4609C211.719 59.9089 211.542 59.5078 211.312 59.2578C210.932 58.8568 210.464 58.6562 209.906 58.6562C209.458 58.6562 209.065 58.7812 208.727 59.0312C208.284 59.3542 207.935 59.8255 207.68 60.4453C207.424 61.0651 207.292 61.9479 207.281 63.0938C207.62 62.5781 208.034 62.1953 208.523 61.9453C209.013 61.6953 209.526 61.5703 210.062 61.5703C211 61.5703 211.797 61.9167 212.453 62.6094C213.115 63.2969 213.445 64.1875 213.445 65.2812C213.445 66 213.289 66.6693 212.977 67.2891C212.669 67.9036 212.245 68.375 211.703 68.7031C211.161 69.0312 210.547 69.1953 209.859 69.1953C208.688 69.1953 207.732 68.7656 206.992 67.9062C206.253 67.0417 205.883 65.6198 205.883 63.6406C205.883 61.4271 206.292 59.8177 207.109 58.8125C207.823 57.9375 208.784 57.5 209.992 57.5C210.893 57.5 211.63 57.7526 212.203 58.2578C212.781 58.763 213.128 59.4609 213.242 60.3516ZM207.5 65.2891C207.5 65.7734 207.602 66.237 207.805 66.6797C208.013 67.1224 208.302 67.4609 208.672 67.6953C209.042 67.9245 209.43 68.0391 209.836 68.0391C210.43 68.0391 210.94 67.7995 211.367 67.3203C211.794 66.8411 212.008 66.1901 212.008 65.3672C212.008 64.5755 211.797 63.9531 211.375 63.5C210.953 63.0417 210.422 62.8125 209.781 62.8125C209.146 62.8125 208.607 63.0417 208.164 63.5C207.721 63.9531 207.5 64.5495 207.5 65.2891ZM214.695 65.5625V64.1484H219.016V65.5625H214.695ZM220.609 60.7031H222.797L224.977 67.3438L227.398 60.7031H229.422V69H228.016V62.3203L225.562 69H224.305L221.984 62V69H220.609V60.7031ZM231.57 60.7031H232.977V67.0312L236.875 60.7031H238.391V69H236.984V62.7109L233.086 69H231.57V60.7031ZM240.516 60.7031H241.922V64.1562H245.82V60.7031H247.227V69H245.82V65.3203H241.922V69H240.516V60.7031ZM249.289 72.1953L249.133 70.875C249.44 70.9583 249.708 71 249.938 71C250.25 71 250.5 70.9479 250.688 70.8438C250.875 70.7396 251.029 70.5938 251.148 70.4062C251.237 70.2656 251.38 69.9167 251.578 69.3594C251.604 69.2812 251.646 69.1667 251.703 69.0156L248.555 60.7031H250.07L251.797 65.5078C252.021 66.1172 252.221 66.7578 252.398 67.4297C252.56 66.7839 252.753 66.1536 252.977 65.5391L254.75 60.7031H256.156L253 69.1406C252.661 70.0521 252.398 70.6797 252.211 71.0234C251.961 71.487 251.674 71.8255 251.352 72.0391C251.029 72.2578 250.643 72.3672 250.195 72.3672C249.924 72.3672 249.622 72.3099 249.289 72.1953ZM256.594 60.7031H263.336V61.8672H260.664V69H259.266V61.8672H256.594V60.7031ZM264.688 60.7031H266.094V64.1562H269.992V60.7031H271.398V69H269.992V65.3203H266.094V69H264.688V60.7031ZM273 64.8516C273 63.3151 273.427 62.1771 274.281 61.4375C274.995 60.8229 275.865 60.5156 276.891 60.5156C278.031 60.5156 278.964 60.8906 279.688 61.6406C280.411 62.3854 280.773 63.4167 280.773 64.7344C280.773 65.8021 280.612 66.6432 280.289 67.2578C279.971 67.8672 279.505 68.3411 278.891 68.6797C278.281 69.0182 277.615 69.1875 276.891 69.1875C275.729 69.1875 274.789 68.8151 274.07 68.0703C273.357 67.3255 273 66.2526 273 64.8516ZM274.445 64.8516C274.445 65.9141 274.677 66.7109 275.141 67.2422C275.604 67.7682 276.188 68.0312 276.891 68.0312C277.589 68.0312 278.169 67.7656 278.633 67.2344C279.096 66.7031 279.328 65.8932 279.328 64.8047C279.328 63.7786 279.094 63.0026 278.625 62.4766C278.161 61.9453 277.583 61.6797 276.891 61.6797C276.188 61.6797 275.604 61.9427 275.141 62.4688C274.677 62.9948 274.445 63.7891 274.445 64.8516ZM282.43 60.7031H283.836V67.0312L287.734 60.7031H289.25V69H287.844V62.7109L283.945 69H282.43V60.7031ZM287.312 57.5625H288.273C288.195 58.2135 287.956 58.7135 287.555 59.0625C287.159 59.4115 286.63 59.5859 285.969 59.5859C285.302 59.5859 284.768 59.4141 284.367 59.0703C283.971 58.7214 283.734 58.2188 283.656 57.5625H284.617C284.69 57.9167 284.833 58.1823 285.047 58.3594C285.266 58.5312 285.557 58.6172 285.922 58.6172C286.344 58.6172 286.661 58.5339 286.875 58.3672C287.094 58.1953 287.24 57.9271 287.312 57.5625ZM294.883 69L297.914 64.6875L295.109 60.7031H296.867L298.141 62.6484C298.38 63.0182 298.573 63.3281 298.719 63.5781C298.948 63.2344 299.159 62.9297 299.352 62.6641L300.75 60.7031H302.43L299.562 64.6094L302.648 69H300.922L299.219 66.4219L298.766 65.7266L296.586 69H294.883ZM303.109 64.8516C303.109 63.3151 303.536 62.1771 304.391 61.4375C305.104 60.8229 305.974 60.5156 307 60.5156C308.141 60.5156 309.073 60.8906 309.797 61.6406C310.521 62.3854 310.883 63.4167 310.883 64.7344C310.883 65.8021 310.721 66.6432 310.398 67.2578C310.081 67.8672 309.615 68.3411 309 68.6797C308.391 69.0182 307.724 69.1875 307 69.1875C305.839 69.1875 304.898 68.8151 304.18 68.0703C303.466 67.3255 303.109 66.2526 303.109 64.8516ZM304.555 64.8516C304.555 65.9141 304.786 66.7109 305.25 67.2422C305.714 67.7682 306.297 68.0312 307 68.0312C307.698 68.0312 308.279 67.7656 308.742 67.2344C309.206 66.7031 309.438 65.8932 309.438 64.8047C309.438 63.7786 309.203 63.0026 308.734 62.4766C308.271 61.9453 307.693 61.6797 307 61.6797C306.297 61.6797 305.714 61.9427 305.25 62.4688C304.786 62.9948 304.555 63.7891 304.555 64.8516ZM313.289 60.7031H319.07V67.8438H319.969V71.3516H318.812V69H312.281V71.3516H311.125V67.8438H311.867C312.857 66.5 313.331 64.1198 313.289 60.7031ZM314.461 61.8672C314.357 64.5599 313.94 66.5521 313.211 67.8438H317.672V61.8672H314.461ZM321.5 60.7031H322.906V63.9453H324.688C325.849 63.9453 326.742 64.1719 327.367 64.625C327.997 65.0729 328.312 65.6927 328.312 66.4844C328.312 67.1771 328.049 67.7708 327.523 68.2656C327.003 68.7552 326.167 69 325.016 69H321.5V60.7031ZM322.906 67.8438H324.383C325.273 67.8438 325.909 67.7344 326.289 67.5156C326.669 67.2969 326.859 66.9557 326.859 66.4922C326.859 66.1328 326.719 65.8125 326.438 65.5312C326.156 65.25 325.534 65.1094 324.57 65.1094H322.906V67.8438ZM335.945 57.2734L337.188 57.2891C337.13 57.8464 337.005 58.2344 336.812 58.4531C336.625 58.6719 336.38 58.8125 336.078 58.875C335.781 58.9375 335.195 58.9688 334.32 58.9688C333.159 58.9688 332.367 59.0807 331.945 59.3047C331.523 59.5286 331.219 59.888 331.031 60.3828C330.849 60.8724 330.747 61.5052 330.727 62.2812C331.081 61.7552 331.495 61.362 331.969 61.1016C332.443 60.8359 332.977 60.7031 333.57 60.7031C334.659 60.7031 335.56 61.0781 336.273 61.8281C336.987 62.5729 337.344 63.5833 337.344 64.8594C337.344 65.8281 337.164 66.6224 336.805 67.2422C336.445 67.862 336.018 68.3411 335.523 68.6797C335.034 69.0182 334.365 69.1875 333.516 69.1875C332.531 69.1875 331.766 68.9635 331.219 68.5156C330.672 68.0625 330.253 67.4844 329.961 66.7812C329.669 66.0781 329.523 64.8542 329.523 63.1094C329.523 60.9167 329.893 59.4401 330.633 58.6797C331.378 57.9193 332.521 57.5391 334.062 57.5391C335.021 57.5391 335.565 57.5234 335.695 57.4922C335.826 57.4609 335.909 57.388 335.945 57.2734ZM335.875 64.8203C335.875 63.9557 335.669 63.2474 335.258 62.6953C334.852 62.1432 334.276 61.8672 333.531 61.8672C332.755 61.8672 332.156 62.1589 331.734 62.7422C331.312 63.3255 331.102 64.1042 331.102 65.0781C331.102 66.0417 331.333 66.7786 331.797 67.2891C332.266 67.7995 332.841 68.0547 333.523 68.0547C334.221 68.0547 334.786 67.7604 335.219 67.1719C335.656 66.5781 335.875 65.7943 335.875 64.8203ZM338.516 64.8516C338.516 63.3151 338.943 62.1771 339.797 61.4375C340.51 60.8229 341.38 60.5156 342.406 60.5156C343.547 60.5156 344.479 60.8906 345.203 61.6406C345.927 62.3854 346.289 63.4167 346.289 64.7344C346.289 65.8021 346.128 66.6432 345.805 67.2578C345.487 67.8672 345.021 68.3411 344.406 68.6797C343.797 69.0182 343.13 69.1875 342.406 69.1875C341.245 69.1875 340.305 68.8151 339.586 68.0703C338.872 67.3255 338.516 66.2526 338.516 64.8516ZM339.961 64.8516C339.961 65.9141 340.193 66.7109 340.656 67.2422C341.12 67.7682 341.703 68.0312 342.406 68.0312C343.104 68.0312 343.685 67.7656 344.148 67.2344C344.612 66.7031 344.844 65.8932 344.844 64.8047C344.844 63.7786 344.609 63.0026 344.141 62.4766C343.677 61.9453 343.099 61.6797 342.406 61.6797C341.703 61.6797 341.12 61.9427 340.656 62.4688C340.193 62.9948 339.961 63.7891 339.961 64.8516ZM347.945 60.7031H349.352V67.0312L353.25 60.7031H354.766V69H353.359V62.7109L349.461 69H347.945V60.7031ZM352.828 57.5625H353.789C353.711 58.2135 353.471 58.7135 353.07 59.0625C352.674 59.4115 352.146 59.5859 351.484 59.5859C350.818 59.5859 350.284 59.4141 349.883 59.0703C349.487 58.7214 349.25 58.2188 349.172 57.5625H350.133C350.206 57.9167 350.349 58.1823 350.562 58.3594C350.781 58.5312 351.073 58.6172 351.438 58.6172C351.859 58.6172 352.177 58.5339 352.391 58.3672C352.609 58.1953 352.755 57.9271 352.828 57.5625ZM357.281 69V67.3984H358.883V69H357.281Z" fill="black"/>
<defs>
<linearGradient id="paint0_linear_12_222" x1="0" y1="42.5" x2="540" y2="42.5" gradientUnits="userSpaceOnUse">
<stop stop-color="#9E9E9D"/>
<stop offset="1" stop-color="#DCDCDC"/>
</linearGradient>
</defs>
</svg>
