<svg width="540" height="85" viewBox="0 0 540 85" fill="none" xmlns="http://www.w3.org/2000/svg">
<rect width="540" height="85" rx="42.5" fill="url(#paint0_linear_12_214)"/>
<circle cx="42.5" cy="42.5" r="42.5" fill="#BB1F2B"/>
<path d="M40.25 48.9584C39.8963 48.9313 39.5672 48.7668 39.3333 48.5L33.8333 43C33.7108 42.7435 33.6708 42.4552 33.7189 42.175C33.767 41.8947 33.9008 41.6363 34.1018 41.4352C34.3029 41.2341 34.5613 41.1004 34.8416 41.0523C35.1218 41.0042 35.4101 41.0442 35.6667 41.1667L40.195 45.695L55.8333 30.1667C56.0899 30.0442 56.3782 30.0042 56.6584 30.0523C56.9387 30.1004 57.1971 30.2341 57.3982 30.4352C57.5992 30.6363 57.733 30.8947 57.7811 31.175C57.8292 31.4552 57.7892 31.7435 57.6667 32L41.1667 48.5C40.9328 48.7668 40.6037 48.9313 40.25 48.9584Z" fill="white"/>
<path d="M43 59.5C40.051 59.4953 37.1572 58.7003 34.6197 57.1978C32.0822 55.6953 29.9937 53.5402 28.5717 50.9567C27.4907 49.0317 26.8226 46.9025 26.61 44.705C26.2745 41.4822 26.8953 38.2319 28.395 35.3596C29.8947 32.4872 32.207 30.1201 35.0433 28.5534C36.9684 27.4724 39.0975 26.8043 41.295 26.5917C43.4843 26.3562 45.6986 26.5683 47.8033 27.215C47.9912 27.2526 48.1691 27.3289 48.3257 27.4392C48.4823 27.5495 48.6141 27.6913 48.7128 27.8556C48.8114 28.0198 48.8746 28.2028 48.8983 28.3929C48.9221 28.583 48.9058 28.7759 48.8507 28.9593C48.7955 29.1428 48.7026 29.3127 48.578 29.4581C48.4534 29.6036 48.2997 29.7214 48.1269 29.804C47.954 29.8866 47.7659 29.9322 47.5744 29.9378C47.3829 29.9434 47.1924 29.909 47.015 29.8367C45.2341 29.3012 43.3642 29.1267 41.515 29.3234C39.6872 29.5105 37.9161 30.0656 36.3083 30.955C34.7594 31.8096 33.3899 32.9549 32.275 34.3284C31.1271 35.7275 30.2699 37.3416 29.7536 39.0762C29.2373 40.8108 29.0723 42.6309 29.2683 44.43C29.4555 46.2579 30.0105 48.029 30.9 49.6367C31.7545 51.1856 32.8999 52.5551 34.2733 53.67C35.6725 54.818 37.2866 55.6752 39.0211 56.1914C40.7557 56.7077 42.5759 56.8727 44.375 56.6767C46.2028 56.4895 47.9739 55.9345 49.5817 55.045C51.1306 54.1905 52.5001 53.0451 53.615 51.6717C54.7629 50.2726 55.6201 48.6585 56.1364 46.9239C56.6527 45.1893 56.8177 43.3692 56.6217 41.57C56.5852 41.1883 56.7018 40.8078 56.946 40.5121C57.1901 40.2164 57.5416 40.0298 57.9233 39.9934C58.305 39.9569 58.6856 40.0736 58.9813 40.3177C59.2769 40.5618 59.4635 40.9133 59.5 41.295C59.8338 44.5198 59.2103 47.7715 57.7072 50.644C56.2041 53.5165 53.8881 55.8825 51.0483 57.4467C49.1028 58.5719 46.9408 59.2717 44.705 59.5H43Z" fill="white"/>
<path d="M105.375 16.9219V15.4531H106.797V16.9219C108.255 17 109.406 17.4401 110.25 18.2422C111.094 19.0391 111.516 20.0312 111.516 21.2188C111.516 22.3802 111.107 23.3672 110.289 24.1797C109.471 24.9922 108.307 25.4401 106.797 25.5234V27H105.375V25.5234C104.021 25.4714 102.893 25.0599 101.992 24.2891C101.091 23.513 100.641 22.4896 100.641 21.2188C100.641 19.9427 101.089 18.9219 101.984 18.1562C102.885 17.3906 104.016 16.9792 105.375 16.9219ZM106.797 18.2188V24.2188C107.776 24.1719 108.547 23.888 109.109 23.3672C109.672 22.8464 109.953 22.1302 109.953 21.2188C109.953 20.3229 109.677 19.6146 109.125 19.0938C108.573 18.5677 107.797 18.276 106.797 18.2188ZM105.375 18.2266C104.432 18.2682 103.669 18.5469 103.086 19.0625C102.503 19.5781 102.211 20.2969 102.211 21.2188C102.211 22.1302 102.497 22.8464 103.07 23.3672C103.648 23.888 104.417 24.1693 105.375 24.2109V18.2266ZM113.164 30.1953L113.008 28.875C113.315 28.9583 113.583 29 113.812 29C114.125 29 114.375 28.9479 114.562 28.8438C114.75 28.7396 114.904 28.5938 115.023 28.4062C115.112 28.2656 115.255 27.9167 115.453 27.3594C115.479 27.2812 115.521 27.1667 115.578 27.0156L112.43 18.7031H113.945L115.672 23.5078C115.896 24.1172 116.096 24.7578 116.273 25.4297C116.435 24.7839 116.628 24.1536 116.852 23.5391L118.625 18.7031H120.031L116.875 27.1406C116.536 28.0521 116.273 28.6797 116.086 29.0234C115.836 29.487 115.549 29.8255 115.227 30.0391C114.904 30.2578 114.518 30.3672 114.07 30.3672C113.799 30.3672 113.497 30.3099 113.164 30.1953ZM121.234 18.7031H122.641V22.1562H126.539V18.7031H127.945V27H126.539V23.3203H122.641V27H121.234V18.7031ZM130.062 18.7031H131.469V22.2891C131.917 22.2891 132.229 22.2031 132.406 22.0312C132.589 21.8594 132.854 21.3594 133.203 20.5312C133.479 19.875 133.703 19.4427 133.875 19.2344C134.047 19.026 134.245 18.8854 134.469 18.8125C134.693 18.7396 135.052 18.7031 135.547 18.7031H135.828V19.8672L135.438 19.8594C135.068 19.8594 134.831 19.9141 134.727 20.0234C134.617 20.138 134.451 20.4792 134.227 21.0469C134.013 21.5885 133.818 21.9635 133.641 22.1719C133.464 22.3802 133.19 22.5703 132.82 22.7422C133.424 22.9036 134.018 23.4661 134.602 24.4297L136.141 27H134.594L133.094 24.4297C132.786 23.9141 132.518 23.5755 132.289 23.4141C132.06 23.2474 131.786 23.1641 131.469 23.1641V27H130.062V18.7031ZM137.094 18.7031H138.5V25.8438H142.391V18.7031H143.797V25.8438H144.703V29.3516H143.547V27H137.094V18.7031ZM146.242 18.7031H147.648V25.0312L151.547 18.7031H153.062V27H151.656V20.7109L147.758 27H146.242V18.7031ZM155.195 18.7031H156.602V22.1719H158.305C158.43 20.9844 158.799 20.0781 159.414 19.4531C160.034 18.8281 160.836 18.5156 161.82 18.5156C162.659 18.5156 163.32 18.6849 163.805 19.0234C164.289 19.362 164.688 19.8281 165 20.4219C165.318 21.0156 165.477 21.8151 165.477 22.8203C165.477 24.2526 165.151 25.3385 164.5 26.0781C163.849 26.8177 162.966 27.1875 161.852 27.1875C160.815 27.1875 159.984 26.8438 159.359 26.1562C158.734 25.4688 158.383 24.526 158.305 23.3281H156.602V27H155.195V18.7031ZM161.898 19.7109C161.211 19.7109 160.674 19.9766 160.289 20.5078C159.909 21.0339 159.719 21.7734 159.719 22.7266C159.719 23.8672 159.911 24.7031 160.297 25.2344C160.682 25.7656 161.198 26.0312 161.844 26.0312C162.484 26.0312 163.008 25.7865 163.414 25.2969C163.826 24.8021 164.031 24.0078 164.031 22.9141C164.031 21.8464 163.854 21.0469 163.5 20.5156C163.146 19.9792 162.612 19.7109 161.898 19.7109ZM173.734 22.1719H176.664C176.576 21.4323 176.331 20.8333 175.93 20.375C175.534 19.9115 175.023 19.6797 174.398 19.6797C173.31 19.6797 172.651 20.2448 172.422 21.375L171.055 21.1562C171.18 20.3802 171.529 19.7474 172.102 19.2578C172.674 18.763 173.424 18.5156 174.352 18.5156C175.513 18.5156 176.43 18.901 177.102 19.6719C177.773 20.4427 178.109 21.5026 178.109 22.8516C178.141 24.1797 177.833 25.2526 177.188 26.0703C176.542 26.8828 175.63 27.2552 174.453 27.1875C173.464 27.1875 172.661 26.9089 172.047 26.3516C171.438 25.7943 171.06 25.0599 170.914 24.1484L172.289 23.9688C172.503 25.3438 173.203 26.0312 174.391 26.0312C175.062 26.0312 175.586 25.8073 175.961 25.3594C176.341 24.9062 176.576 24.2292 176.664 23.3281H173.734V22.1719ZM179.812 18.7031H181.219V22.1562H185.117V18.7031H186.523V27H185.117V23.3203H181.219V27H179.812V18.7031ZM189.758 18.7031H195.539V25.8438H196.438V29.3516H195.281V27H188.75V29.3516H187.594V25.8438H188.336C189.326 24.5 189.799 22.1198 189.758 18.7031ZM190.93 19.8672C190.826 22.5599 190.409 24.5521 189.68 25.8438H194.141V19.8672H190.93ZM197.469 22.8516C197.469 21.3151 197.896 20.1771 198.75 19.4375C199.464 18.8229 200.333 18.5156 201.359 18.5156C202.5 18.5156 203.432 18.8906 204.156 19.6406C204.88 20.3854 205.242 21.4167 205.242 22.7344C205.242 23.8021 205.081 24.6432 204.758 25.2578C204.44 25.8672 203.974 26.3411 203.359 26.6797C202.75 27.0182 202.083 27.1875 201.359 27.1875C200.198 27.1875 199.258 26.8151 198.539 26.0703C197.826 25.3255 197.469 24.2526 197.469 22.8516ZM198.914 22.8516C198.914 23.9141 199.146 24.7109 199.609 25.2422C200.073 25.7682 200.656 26.0312 201.359 26.0312C202.057 26.0312 202.638 25.7656 203.102 25.2344C203.565 24.7031 203.797 23.8932 203.797 22.8047C203.797 21.7786 203.562 21.0026 203.094 20.4766C202.63 19.9453 202.052 19.6797 201.359 19.6797C200.656 19.6797 200.073 19.9427 199.609 20.4688C199.146 20.9948 198.914 21.7891 198.914 22.8516ZM205.781 18.7031H212.523V19.8672H209.852V27H208.453V19.8672H205.781V18.7031ZM219.359 24.3281L220.812 24.5078C220.583 25.3568 220.159 26.0156 219.539 26.4844C218.919 26.9531 218.128 27.1875 217.164 27.1875C215.951 27.1875 214.987 26.8151 214.273 26.0703C213.565 25.3203 213.211 24.2708 213.211 22.9219C213.211 21.526 213.57 20.4427 214.289 19.6719C215.008 18.901 215.94 18.5156 217.086 18.5156C218.195 18.5156 219.102 18.8932 219.805 19.6484C220.508 20.4036 220.859 21.4661 220.859 22.8359C220.859 22.9193 220.857 23.0443 220.852 23.2109H214.664C214.716 24.1224 214.974 24.8203 215.438 25.3047C215.901 25.7891 216.479 26.0312 217.172 26.0312C217.688 26.0312 218.128 25.8958 218.492 25.625C218.857 25.3542 219.146 24.9219 219.359 24.3281ZM214.742 22.0547H219.375C219.312 21.3568 219.135 20.8333 218.844 20.4844C218.396 19.9427 217.815 19.6719 217.102 19.6719C216.456 19.6719 215.911 19.888 215.469 20.3203C215.031 20.7526 214.789 21.3307 214.742 22.0547ZM222.742 18.7031H229.273V27H227.875V19.8672H224.148V24C224.148 24.9635 224.117 25.599 224.055 25.9062C223.992 26.2135 223.82 26.4818 223.539 26.7109C223.258 26.9401 222.852 27.0547 222.32 27.0547C221.992 27.0547 221.615 27.0339 221.188 26.9922V25.8203H221.805C222.096 25.8203 222.305 25.7917 222.43 25.7344C222.555 25.6719 222.638 25.5755 222.68 25.4453C222.721 25.3151 222.742 24.8906 222.742 24.1719V18.7031ZM231.398 18.7031H232.805V25.0312L236.703 18.7031H238.219V27H236.812V20.7109L232.914 27H231.398V18.7031ZM246.867 18.7031V27H245.469V23.7656H244.656C244.161 23.7656 243.792 23.8307 243.547 23.9609C243.307 24.0859 242.956 24.4948 242.492 25.1875L241.266 27H239.523L241.039 24.7656C241.503 24.0833 241.964 23.6979 242.422 23.6094C241.62 23.5 241.023 23.2109 240.633 22.7422C240.247 22.2734 240.055 21.7344 240.055 21.125C240.055 20.4062 240.307 19.8229 240.812 19.375C241.323 18.9271 242.06 18.7031 243.023 18.7031H246.867ZM245.469 19.8672H243.469C242.63 19.8672 242.089 19.9974 241.844 20.2578C241.604 20.5182 241.484 20.8229 241.484 21.1719C241.484 21.6667 241.661 22.0312 242.016 22.2656C242.375 22.4948 243.008 22.6094 243.914 22.6094H245.469V19.8672ZM253.461 18.7031H254.867V25.0312L258.766 18.7031H260.281V27H258.875V20.7109L254.977 27H253.461V18.7031ZM266.891 18.7031H269.078L271.258 25.3438L273.68 18.7031H275.703V27H274.297V20.3203L271.844 27H270.586L268.266 20V27H266.891V18.7031ZM277.852 18.7031H279.258V25.0312L283.156 18.7031H284.672V27H283.266V20.7109L279.367 27H277.852V18.7031ZM286.781 18.7031H288.188V22.2891C288.635 22.2891 288.948 22.2031 289.125 22.0312C289.307 21.8594 289.573 21.3594 289.922 20.5312C290.198 19.875 290.422 19.4427 290.594 19.2344C290.766 19.026 290.964 18.8854 291.188 18.8125C291.411 18.7396 291.771 18.7031 292.266 18.7031H292.547V19.8672L292.156 19.8594C291.786 19.8594 291.549 19.9141 291.445 20.0234C291.336 20.138 291.169 20.4792 290.945 21.0469C290.732 21.5885 290.536 21.9635 290.359 22.1719C290.182 22.3802 289.909 22.5703 289.539 22.7422C290.143 22.9036 290.737 23.4661 291.32 24.4297L292.859 27H291.312L289.812 24.4297C289.505 23.9141 289.237 23.5755 289.008 23.4141C288.779 23.2474 288.505 23.1641 288.188 23.1641V27H286.781V18.7031ZM293.789 30.1797V18.7031H295.07V19.7812C295.372 19.3594 295.714 19.0443 296.094 18.8359C296.474 18.6224 296.935 18.5156 297.477 18.5156C298.185 18.5156 298.81 18.6979 299.352 19.0625C299.893 19.4271 300.302 19.9427 300.578 20.6094C300.854 21.2708 300.992 21.9974 300.992 22.7891C300.992 23.638 300.839 24.4036 300.531 25.0859C300.229 25.763 299.786 26.2839 299.203 26.6484C298.625 27.0078 298.016 27.1875 297.375 27.1875C296.906 27.1875 296.484 27.0885 296.109 26.8906C295.74 26.6927 295.435 26.4427 295.195 26.1406V30.1797H293.789ZM295.062 22.8984C295.062 23.9661 295.279 24.7552 295.711 25.2656C296.143 25.776 296.667 26.0312 297.281 26.0312C297.906 26.0312 298.44 25.7682 298.883 25.2422C299.331 24.7109 299.555 23.8906 299.555 22.7812C299.555 21.724 299.336 20.9323 298.898 20.4062C298.466 19.8802 297.948 19.6172 297.344 19.6172C296.745 19.6172 296.214 19.8984 295.75 20.4609C295.292 21.0182 295.062 21.8307 295.062 22.8984ZM302.172 22.8516C302.172 21.3151 302.599 20.1771 303.453 19.4375C304.167 18.8229 305.036 18.5156 306.062 18.5156C307.203 18.5156 308.135 18.8906 308.859 19.6406C309.583 20.3854 309.945 21.4167 309.945 22.7344C309.945 23.8021 309.784 24.6432 309.461 25.2578C309.143 25.8672 308.677 26.3411 308.062 26.6797C307.453 27.0182 306.786 27.1875 306.062 27.1875C304.901 27.1875 303.961 26.8151 303.242 26.0703C302.529 25.3255 302.172 24.2526 302.172 22.8516ZM303.617 22.8516C303.617 23.9141 303.849 24.7109 304.312 25.2422C304.776 25.7682 305.359 26.0312 306.062 26.0312C306.76 26.0312 307.341 25.7656 307.805 25.2344C308.268 24.7031 308.5 23.8932 308.5 22.8047C308.5 21.7786 308.266 21.0026 307.797 20.4766C307.333 19.9453 306.755 19.6797 306.062 19.6797C305.359 19.6797 304.776 19.9427 304.312 20.4688C303.849 20.9948 303.617 21.7891 303.617 22.8516ZM311.625 18.7031H313.031V25.8438H316.922V18.7031H318.328V25.8438H319.234V29.3516H318.078V27H311.625V18.7031ZM320.773 18.7031H322.18V25.0312L326.078 18.7031H327.594V27H326.188V20.7109L322.289 27H320.773V18.7031ZM329.711 30.1797V18.7031H330.992V19.7812C331.294 19.3594 331.635 19.0443 332.016 18.8359C332.396 18.6224 332.857 18.5156 333.398 18.5156C334.107 18.5156 334.732 18.6979 335.273 19.0625C335.815 19.4271 336.224 19.9427 336.5 20.6094C336.776 21.2708 336.914 21.9974 336.914 22.7891C336.914 23.638 336.76 24.4036 336.453 25.0859C336.151 25.763 335.708 26.2839 335.125 26.6484C334.547 27.0078 333.938 27.1875 333.297 27.1875C332.828 27.1875 332.406 27.0885 332.031 26.8906C331.661 26.6927 331.357 26.4427 331.117 26.1406V30.1797H329.711ZM330.984 22.8984C330.984 23.9661 331.201 24.7552 331.633 25.2656C332.065 25.776 332.589 26.0312 333.203 26.0312C333.828 26.0312 334.362 25.7682 334.805 25.2422C335.253 24.7109 335.477 23.8906 335.477 22.7812C335.477 21.724 335.258 20.9323 334.82 20.4062C334.388 19.8802 333.87 19.6172 333.266 19.6172C332.667 19.6172 332.135 19.8984 331.672 20.4609C331.214 21.0182 330.984 21.8307 330.984 22.8984ZM338.609 18.7031H340.016V22.2891C340.464 22.2891 340.776 22.2031 340.953 22.0312C341.135 21.8594 341.401 21.3594 341.75 20.5312C342.026 19.875 342.25 19.4427 342.422 19.2344C342.594 19.026 342.792 18.8854 343.016 18.8125C343.24 18.7396 343.599 18.7031 344.094 18.7031H344.375V19.8672L343.984 19.8594C343.615 19.8594 343.378 19.9141 343.273 20.0234C343.164 20.138 342.997 20.4792 342.773 21.0469C342.56 21.5885 342.365 21.9635 342.188 22.1719C342.01 22.3802 341.737 22.5703 341.367 22.7422C341.971 22.9036 342.565 23.4661 343.148 24.4297L344.688 27H343.141L341.641 24.4297C341.333 23.9141 341.065 23.5755 340.836 23.4141C340.607 23.2474 340.333 23.1641 340.016 23.1641V27H338.609V18.7031ZM345.742 30.1953L345.586 28.875C345.893 28.9583 346.161 29 346.391 29C346.703 29 346.953 28.9479 347.141 28.8438C347.328 28.7396 347.482 28.5938 347.602 28.4062C347.69 28.2656 347.833 27.9167 348.031 27.3594C348.057 27.2812 348.099 27.1667 348.156 27.0156L345.008 18.7031H346.523L348.25 23.5078C348.474 24.1172 348.674 24.7578 348.852 25.4297C349.013 24.7839 349.206 24.1536 349.43 23.5391L351.203 18.7031H352.609L349.453 27.1406C349.115 28.0521 348.852 28.6797 348.664 29.0234C348.414 29.487 348.128 29.8255 347.805 30.0391C347.482 30.2578 347.096 30.3672 346.648 30.3672C346.378 30.3672 346.076 30.3099 345.742 30.1953ZM354.133 18.7031H360.664V27H359.266V19.8672H355.539V24C355.539 24.9635 355.508 25.599 355.445 25.9062C355.383 26.2135 355.211 26.4818 354.93 26.7109C354.648 26.9401 354.242 27.0547 353.711 27.0547C353.383 27.0547 353.005 27.0339 352.578 26.9922V25.8203H353.195C353.487 25.8203 353.695 25.7917 353.82 25.7344C353.945 25.6719 354.029 25.5755 354.07 25.4453C354.112 25.3151 354.133 24.8906 354.133 24.1719V18.7031ZM369.32 18.7031V27H367.922V23.7656H367.109C366.615 23.7656 366.245 23.8307 366 23.9609C365.76 24.0859 365.409 24.4948 364.945 25.1875L363.719 27H361.977L363.492 24.7656C363.956 24.0833 364.417 23.6979 364.875 23.6094C364.073 23.5 363.477 23.2109 363.086 22.7422C362.701 22.2734 362.508 21.7344 362.508 21.125C362.508 20.4062 362.76 19.8229 363.266 19.375C363.776 18.9271 364.513 18.7031 365.477 18.7031H369.32ZM367.922 19.8672H365.922C365.083 19.8672 364.542 19.9974 364.297 20.2578C364.057 20.5182 363.938 20.8229 363.938 21.1719C363.938 21.6667 364.115 22.0312 364.469 22.2656C364.828 22.4948 365.461 22.6094 366.367 22.6094H367.922V19.8672ZM371.484 18.7031H372.891V25.8438H376.781V18.7031H378.188V25.8438H379.094V29.3516H377.938V27H371.484V18.7031ZM380.633 18.7031H382.039V25.0312L385.938 18.7031H387.453V27H386.047V20.7109L382.148 27H380.633V18.7031ZM389.586 18.7031H390.992V22.1719H392.695C392.82 20.9844 393.19 20.0781 393.805 19.4531C394.424 18.8281 395.227 18.5156 396.211 18.5156C397.049 18.5156 397.711 18.6849 398.195 19.0234C398.68 19.362 399.078 19.8281 399.391 20.4219C399.708 21.0156 399.867 21.8151 399.867 22.8203C399.867 24.2526 399.542 25.3385 398.891 26.0781C398.24 26.8177 397.357 27.1875 396.242 27.1875C395.206 27.1875 394.375 26.8438 393.75 26.1562C393.125 25.4688 392.773 24.526 392.695 23.3281H390.992V27H389.586V18.7031ZM396.289 19.7109C395.602 19.7109 395.065 19.9766 394.68 20.5078C394.299 21.0339 394.109 21.7734 394.109 22.7266C394.109 23.8672 394.302 24.7031 394.688 25.2344C395.073 25.7656 395.589 26.0312 396.234 26.0312C396.875 26.0312 397.398 25.7865 397.805 25.2969C398.216 24.8021 398.422 24.0078 398.422 22.9141C398.422 21.8464 398.245 21.0469 397.891 20.5156C397.536 19.9792 397.003 19.7109 396.289 19.7109ZM401.961 20.3047V18.7031H403.562V20.3047H401.961ZM401.961 27V25.3984H403.562V27H401.961ZM101.195 40.7656C101.951 40.0729 102.523 39.474 102.914 38.9688C103.31 38.4635 103.604 37.987 103.797 37.5391H104.156C104.401 38.0547 104.716 38.5547 105.102 39.0391C105.492 39.5234 106.062 40.1016 106.812 40.7734V41.375C105.766 40.8854 104.961 40.3724 104.398 39.8359V51.3516H103.609V39.8359C103.109 40.2318 102.734 40.5078 102.484 40.6641C102.24 40.8203 101.81 41.0521 101.195 41.3594V40.7656ZM113.5 39.7031H114.906V43.2891C115.354 43.2891 115.667 43.2031 115.844 43.0312C116.026 42.8594 116.292 42.3594 116.641 41.5312C116.917 40.875 117.141 40.4427 117.312 40.2344C117.484 40.026 117.682 39.8854 117.906 39.8125C118.13 39.7396 118.49 39.7031 118.984 39.7031H119.266V40.8672L118.875 40.8594C118.505 40.8594 118.268 40.9141 118.164 41.0234C118.055 41.138 117.888 41.4792 117.664 42.0469C117.451 42.5885 117.255 42.9635 117.078 43.1719C116.901 43.3802 116.628 43.5703 116.258 43.7422C116.862 43.9036 117.456 44.4661 118.039 45.4297L119.578 48H118.031L116.531 45.4297C116.224 44.9141 115.956 44.5755 115.727 44.4141C115.497 44.2474 115.224 44.1641 114.906 44.1641V48H113.5V39.7031ZM120.172 43.8516C120.172 42.3151 120.599 41.1771 121.453 40.4375C122.167 39.8229 123.036 39.5156 124.062 39.5156C125.203 39.5156 126.135 39.8906 126.859 40.6406C127.583 41.3854 127.945 42.4167 127.945 43.7344C127.945 44.8021 127.784 45.6432 127.461 46.2578C127.143 46.8672 126.677 47.3411 126.062 47.6797C125.453 48.0182 124.786 48.1875 124.062 48.1875C122.901 48.1875 121.961 47.8151 121.242 47.0703C120.529 46.3255 120.172 45.2526 120.172 43.8516ZM121.617 43.8516C121.617 44.9141 121.849 45.7109 122.312 46.2422C122.776 46.7682 123.359 47.0312 124.062 47.0312C124.76 47.0312 125.341 46.7656 125.805 46.2344C126.268 45.7031 126.5 44.8932 126.5 43.8047C126.5 42.7786 126.266 42.0026 125.797 41.4766C125.333 40.9453 124.755 40.6797 124.062 40.6797C123.359 40.6797 122.776 40.9427 122.312 41.4688C121.849 41.9948 121.617 42.7891 121.617 43.8516ZM129.609 39.7031H131.016V43.1562H134.914V39.7031H136.32V48H134.914V44.3203H131.016V48H129.609V39.7031ZM138.469 39.7031H139.875V46.8438H143.766V39.7031H145.172V46.8438H146.078V50.3516H144.922V48H138.469V39.7031ZM153.109 45.3281L154.562 45.5078C154.333 46.3568 153.909 47.0156 153.289 47.4844C152.669 47.9531 151.878 48.1875 150.914 48.1875C149.701 48.1875 148.737 47.8151 148.023 47.0703C147.315 46.3203 146.961 45.2708 146.961 43.9219C146.961 42.526 147.32 41.4427 148.039 40.6719C148.758 39.901 149.69 39.5156 150.836 39.5156C151.945 39.5156 152.852 39.8932 153.555 40.6484C154.258 41.4036 154.609 42.4661 154.609 43.8359C154.609 43.9193 154.607 44.0443 154.602 44.2109H148.414C148.466 45.1224 148.724 45.8203 149.188 46.3047C149.651 46.7891 150.229 47.0312 150.922 47.0312C151.438 47.0312 151.878 46.8958 152.242 46.625C152.607 46.3542 152.896 45.9219 153.109 45.3281ZM148.492 43.0547H153.125C153.062 42.3568 152.885 41.8333 152.594 41.4844C152.146 40.9427 151.565 40.6719 150.852 40.6719C150.206 40.6719 149.661 40.888 149.219 41.3203C148.781 41.7526 148.539 42.3307 148.492 43.0547ZM156.344 39.7031H157.75V43.1562H161.648V39.7031H163.055V48H161.648V44.3203H157.75V48H156.344V39.7031ZM164.422 39.7031H171.164V40.8672H168.492V48H167.094V40.8672H164.422V39.7031ZM172.508 51.1797V39.7031H173.789V40.7812C174.091 40.3594 174.432 40.0443 174.812 39.8359C175.193 39.6224 175.654 39.5156 176.195 39.5156C176.904 39.5156 177.529 39.6979 178.07 40.0625C178.612 40.4271 179.021 40.9427 179.297 41.6094C179.573 42.2708 179.711 42.9974 179.711 43.7891C179.711 44.638 179.557 45.4036 179.25 46.0859C178.948 46.763 178.505 47.2839 177.922 47.6484C177.344 48.0078 176.734 48.1875 176.094 48.1875C175.625 48.1875 175.203 48.0885 174.828 47.8906C174.458 47.6927 174.154 47.4427 173.914 47.1406V51.1797H172.508ZM173.781 43.8984C173.781 44.9661 173.997 45.7552 174.43 46.2656C174.862 46.776 175.385 47.0312 176 47.0312C176.625 47.0312 177.159 46.7682 177.602 46.2422C178.049 45.7109 178.273 44.8906 178.273 43.7812C178.273 42.724 178.055 41.9323 177.617 41.4062C177.185 40.8802 176.667 40.6172 176.062 40.6172C175.464 40.6172 174.932 40.8984 174.469 41.4609C174.01 42.0182 173.781 42.8307 173.781 43.8984ZM186.828 46.9766C186.307 47.4193 185.805 47.7318 185.32 47.9141C184.841 48.0964 184.326 48.1875 183.773 48.1875C182.862 48.1875 182.161 47.9661 181.672 47.5234C181.182 47.0755 180.938 46.5052 180.938 45.8125C180.938 45.4062 181.029 45.0365 181.211 44.7031C181.398 44.3646 181.641 44.0938 181.938 43.8906C182.24 43.6875 182.578 43.5339 182.953 43.4297C183.229 43.3568 183.646 43.2865 184.203 43.2188C185.339 43.0833 186.174 42.9219 186.711 42.7344C186.716 42.5417 186.719 42.4193 186.719 42.3672C186.719 41.7943 186.586 41.3906 186.32 41.1562C185.961 40.8385 185.427 40.6797 184.719 40.6797C184.057 40.6797 183.568 40.7969 183.25 41.0312C182.938 41.2604 182.706 41.6693 182.555 42.2578L181.18 42.0703C181.305 41.4818 181.51 41.0078 181.797 40.6484C182.083 40.2839 182.497 40.0052 183.039 39.8125C183.581 39.6146 184.208 39.5156 184.922 39.5156C185.63 39.5156 186.206 39.599 186.648 39.7656C187.091 39.9323 187.417 40.1432 187.625 40.3984C187.833 40.6484 187.979 40.9661 188.062 41.3516C188.109 41.5911 188.133 42.0234 188.133 42.6484V44.5234C188.133 45.8307 188.161 46.6589 188.219 47.0078C188.281 47.3516 188.401 47.6823 188.578 48H187.109C186.964 47.7083 186.87 47.3672 186.828 46.9766ZM186.711 43.8359C186.201 44.0443 185.435 44.2214 184.414 44.3672C183.836 44.4505 183.427 44.5443 183.188 44.6484C182.948 44.7526 182.763 44.9062 182.633 45.1094C182.503 45.3073 182.438 45.5286 182.438 45.7734C182.438 46.1484 182.578 46.4609 182.859 46.7109C183.146 46.9609 183.562 47.0859 184.109 47.0859C184.651 47.0859 185.133 46.9688 185.555 46.7344C185.977 46.4948 186.286 46.1693 186.484 45.7578C186.635 45.4401 186.711 44.9714 186.711 44.3516V43.8359ZM190.344 39.7031H191.75V46.8438H195.641V39.7031H197.047V46.8438H197.953V50.3516H196.797V48H190.344V39.7031ZM199.492 39.7031H200.898V46.0312L204.797 39.7031H206.312V48H204.906V41.7109L201.008 48H199.492V39.7031ZM208.43 39.7031H209.836V46.0312L213.734 39.7031H215.25V48H213.844V41.7109L209.945 48H208.43V39.7031ZM221.984 48V36.5469H223.539L229.555 45.5391V36.5469H231.008V48H229.453L223.438 39V48H221.984ZM233.102 42.4219C233.102 40.5208 233.612 39.0339 234.633 37.9609C235.654 36.8828 236.971 36.3438 238.586 36.3438C239.643 36.3438 240.596 36.5964 241.445 37.1016C242.294 37.6068 242.94 38.3125 243.383 39.2188C243.831 40.1198 244.055 41.1432 244.055 42.2891C244.055 43.4505 243.82 44.4896 243.352 45.4062C242.883 46.3229 242.219 47.0182 241.359 47.4922C240.5 47.9609 239.573 48.1953 238.578 48.1953C237.5 48.1953 236.536 47.9349 235.688 47.4141C234.839 46.8932 234.195 46.1823 233.758 45.2812C233.32 44.3802 233.102 43.4271 233.102 42.4219ZM234.664 42.4453C234.664 43.8255 235.034 44.9141 235.773 45.7109C236.518 46.5026 237.451 46.8984 238.57 46.8984C239.711 46.8984 240.648 46.4974 241.383 45.6953C242.122 44.8932 242.492 43.7552 242.492 42.2812C242.492 41.349 242.333 40.5365 242.016 39.8438C241.703 39.1458 241.242 38.6068 240.633 38.2266C240.029 37.8411 239.349 37.6484 238.594 37.6484C237.521 37.6484 236.596 38.0182 235.82 38.7578C235.049 39.4922 234.664 40.7214 234.664 42.4453ZM250.281 39.7031H251.688V43.2891C252.135 43.2891 252.448 43.2031 252.625 43.0312C252.807 42.8594 253.073 42.3594 253.422 41.5312C253.698 40.875 253.922 40.4427 254.094 40.2344C254.266 40.026 254.464 39.8854 254.688 39.8125C254.911 39.7396 255.271 39.7031 255.766 39.7031H256.047V40.8672L255.656 40.8594C255.286 40.8594 255.049 40.9141 254.945 41.0234C254.836 41.138 254.669 41.4792 254.445 42.0469C254.232 42.5885 254.036 42.9635 253.859 43.1719C253.682 43.3802 253.409 43.5703 253.039 43.7422C253.643 43.9036 254.237 44.4661 254.82 45.4297L256.359 48H254.812L253.312 45.4297C253.005 44.9141 252.737 44.5755 252.508 44.4141C252.279 44.2474 252.005 44.1641 251.688 44.1641V48H250.281V39.7031ZM257.289 51.1797V39.7031H258.57V40.7812C258.872 40.3594 259.214 40.0443 259.594 39.8359C259.974 39.6224 260.435 39.5156 260.977 39.5156C261.685 39.5156 262.31 39.6979 262.852 40.0625C263.393 40.4271 263.802 40.9427 264.078 41.6094C264.354 42.2708 264.492 42.9974 264.492 43.7891C264.492 44.638 264.339 45.4036 264.031 46.0859C263.729 46.763 263.286 47.2839 262.703 47.6484C262.125 48.0078 261.516 48.1875 260.875 48.1875C260.406 48.1875 259.984 48.0885 259.609 47.8906C259.24 47.6927 258.935 47.4427 258.695 47.1406V51.1797H257.289ZM258.562 43.8984C258.562 44.9661 258.779 45.7552 259.211 46.2656C259.643 46.776 260.167 47.0312 260.781 47.0312C261.406 47.0312 261.94 46.7682 262.383 46.2422C262.831 45.7109 263.055 44.8906 263.055 43.7812C263.055 42.724 262.836 41.9323 262.398 41.4062C261.966 40.8802 261.448 40.6172 260.844 40.6172C260.245 40.6172 259.714 40.8984 259.25 41.4609C258.792 42.0182 258.562 42.8307 258.562 43.8984ZM265.672 43.8516C265.672 42.3151 266.099 41.1771 266.953 40.4375C267.667 39.8229 268.536 39.5156 269.562 39.5156C270.703 39.5156 271.635 39.8906 272.359 40.6406C273.083 41.3854 273.445 42.4167 273.445 43.7344C273.445 44.8021 273.284 45.6432 272.961 46.2578C272.643 46.8672 272.177 47.3411 271.562 47.6797C270.953 48.0182 270.286 48.1875 269.562 48.1875C268.401 48.1875 267.461 47.8151 266.742 47.0703C266.029 46.3255 265.672 45.2526 265.672 43.8516ZM267.117 43.8516C267.117 44.9141 267.349 45.7109 267.812 46.2422C268.276 46.7682 268.859 47.0312 269.562 47.0312C270.26 47.0312 270.841 46.7656 271.305 46.2344C271.768 45.7031 272 44.8932 272 43.8047C272 42.7786 271.766 42.0026 271.297 41.4766C270.833 40.9453 270.255 40.6797 269.562 40.6797C268.859 40.6797 268.276 40.9427 267.812 41.4688C267.349 41.9948 267.117 42.7891 267.117 43.8516ZM275.109 39.7031H278.352C279.148 39.7031 279.74 39.7708 280.125 39.9062C280.516 40.0365 280.849 40.2786 281.125 40.6328C281.406 40.987 281.547 41.4115 281.547 41.9062C281.547 42.3021 281.464 42.6484 281.297 42.9453C281.135 43.237 280.891 43.4818 280.562 43.6797C280.953 43.8099 281.276 44.0547 281.531 44.4141C281.792 44.7682 281.922 45.1901 281.922 45.6797C281.87 46.4661 281.589 47.0495 281.078 47.4297C280.568 47.8099 279.826 48 278.852 48H275.109V39.7031ZM276.516 43.1953H278.016C278.615 43.1953 279.026 43.1641 279.25 43.1016C279.474 43.0391 279.674 42.9141 279.852 42.7266C280.029 42.5339 280.117 42.3047 280.117 42.0391C280.117 41.6016 279.961 41.2969 279.648 41.125C279.341 40.9531 278.812 40.8672 278.062 40.8672H276.516V43.1953ZM276.516 46.8438H278.367C279.164 46.8438 279.711 46.7526 280.008 46.5703C280.305 46.3828 280.461 46.0625 280.477 45.6094C280.477 45.3438 280.391 45.099 280.219 44.875C280.047 44.6458 279.823 44.5026 279.547 44.4453C279.271 44.3828 278.828 44.3516 278.219 44.3516H276.516V46.8438ZM283.602 39.7031H285.008V46.0312L288.906 39.7031H290.422V48H289.016V41.7109L285.117 48H283.602V39.7031ZM292.906 48V46.3984H294.508V48C294.508 48.5885 294.404 49.0625 294.195 49.4219C293.987 49.7865 293.656 50.0677 293.203 50.2656L292.812 49.6641C293.109 49.5339 293.328 49.3411 293.469 49.0859C293.609 48.8359 293.688 48.474 293.703 48H292.906ZM301.586 48.125V47.5312C302.206 47.8385 302.638 48.0703 302.883 48.2266C303.128 48.3828 303.5 48.6589 304 49.0547V37.5391H304.789V49.0547C305.352 48.5182 306.156 48.0052 307.203 47.5156V48.1172C306.453 48.7891 305.883 49.3672 305.492 49.8516C305.107 50.3359 304.792 50.8359 304.547 51.3516H304.188C303.995 50.9036 303.701 50.4271 303.305 49.9219C302.914 49.4167 302.341 48.8177 301.586 48.125ZM313.898 51.1797V39.7031H315.18V40.7812C315.482 40.3594 315.823 40.0443 316.203 39.8359C316.583 39.6224 317.044 39.5156 317.586 39.5156C318.294 39.5156 318.919 39.6979 319.461 40.0625C320.003 40.4271 320.411 40.9427 320.688 41.6094C320.964 42.2708 321.102 42.9974 321.102 43.7891C321.102 44.638 320.948 45.4036 320.641 46.0859C320.339 46.763 319.896 47.2839 319.312 47.6484C318.734 48.0078 318.125 48.1875 317.484 48.1875C317.016 48.1875 316.594 48.0885 316.219 47.8906C315.849 47.6927 315.544 47.4427 315.305 47.1406V51.1797H313.898ZM315.172 43.8984C315.172 44.9661 315.388 45.7552 315.82 46.2656C316.253 46.776 316.776 47.0312 317.391 47.0312C318.016 47.0312 318.549 46.7682 318.992 46.2422C319.44 45.7109 319.664 44.8906 319.664 43.7812C319.664 42.724 319.445 41.9323 319.008 41.4062C318.576 40.8802 318.057 40.6172 317.453 40.6172C316.854 40.6172 316.323 40.8984 315.859 41.4609C315.401 42.0182 315.172 42.8307 315.172 43.8984ZM322.805 39.7031H324.211V46.0312L328.109 39.7031H329.625V48H328.219V41.7109L324.32 48H322.805V39.7031ZM331.75 39.7031H336.523V40.8672H333.156V48H331.75V39.7031ZM337.586 39.7031H338.992V46.0312L342.891 39.7031H344.406V48H343V41.7109L339.102 48H337.586V39.7031ZM347.633 39.7031H353.414V46.8438H354.312V50.3516H353.156V48H346.625V50.3516H345.469V46.8438H346.211C347.201 45.5 347.674 43.1198 347.633 39.7031ZM348.805 40.8672C348.701 43.5599 348.284 45.5521 347.555 46.8438H352.016V40.8672H348.805ZM355.875 39.7031H357.281V43.1562H361.18V39.7031H362.586V48H361.18V44.3203H357.281V48H355.875V39.7031ZM364.188 43.8516C364.188 42.3151 364.615 41.1771 365.469 40.4375C366.182 39.8229 367.052 39.5156 368.078 39.5156C369.219 39.5156 370.151 39.8906 370.875 40.6406C371.599 41.3854 371.961 42.4167 371.961 43.7344C371.961 44.8021 371.799 45.6432 371.477 46.2578C371.159 46.8672 370.693 47.3411 370.078 47.6797C369.469 48.0182 368.802 48.1875 368.078 48.1875C366.917 48.1875 365.977 47.8151 365.258 47.0703C364.544 46.3255 364.188 45.2526 364.188 43.8516ZM365.633 43.8516C365.633 44.9141 365.865 45.7109 366.328 46.2422C366.792 46.7682 367.375 47.0312 368.078 47.0312C368.776 47.0312 369.357 46.7656 369.82 46.2344C370.284 45.7031 370.516 44.8932 370.516 43.8047C370.516 42.7786 370.281 42.0026 369.812 41.4766C369.349 40.9453 368.771 40.6797 368.078 40.6797C367.375 40.6797 366.792 40.9427 366.328 41.4688C365.865 41.9948 365.633 42.7891 365.633 43.8516ZM379.031 44.9609L380.414 45.1406C380.263 46.0938 379.875 46.8411 379.25 47.3828C378.63 47.9193 377.867 48.1875 376.961 48.1875C375.826 48.1875 374.911 47.8177 374.219 47.0781C373.531 46.3333 373.188 45.2682 373.188 43.8828C373.188 42.987 373.336 42.2031 373.633 41.5312C373.93 40.8594 374.38 40.3568 374.984 40.0234C375.594 39.6849 376.255 39.5156 376.969 39.5156C377.87 39.5156 378.607 39.7448 379.18 40.2031C379.753 40.6562 380.12 41.3021 380.281 42.1406L378.914 42.3516C378.784 41.7943 378.552 41.375 378.219 41.0938C377.891 40.8125 377.492 40.6719 377.023 40.6719C376.315 40.6719 375.74 40.9271 375.297 41.4375C374.854 41.9427 374.633 42.7448 374.633 43.8438C374.633 44.9583 374.846 45.7682 375.273 46.2734C375.701 46.7786 376.258 47.0312 376.945 47.0312C377.497 47.0312 377.958 46.862 378.328 46.5234C378.698 46.1849 378.932 45.6641 379.031 44.9609ZM380.859 39.7031H387.602V40.8672H384.93V48H383.531V40.8672H380.859V39.7031ZM388.945 39.7031H390.352V46.0312L394.25 39.7031H395.766V48H394.359V41.7109L390.461 48H388.945V39.7031ZM101.094 60.7031H103.281L105.461 67.3438L107.883 60.7031H109.906V69H108.5V62.3203L106.047 69H104.789L102.469 62V69H101.094V60.7031ZM117.469 67.9766C116.948 68.4193 116.445 68.7318 115.961 68.9141C115.482 69.0964 114.966 69.1875 114.414 69.1875C113.503 69.1875 112.802 68.9661 112.312 68.5234C111.823 68.0755 111.578 67.5052 111.578 66.8125C111.578 66.4062 111.669 66.0365 111.852 65.7031C112.039 65.3646 112.281 65.0938 112.578 64.8906C112.88 64.6875 113.219 64.5339 113.594 64.4297C113.87 64.3568 114.286 64.2865 114.844 64.2188C115.979 64.0833 116.815 63.9219 117.352 63.7344C117.357 63.5417 117.359 63.4193 117.359 63.3672C117.359 62.7943 117.227 62.3906 116.961 62.1562C116.602 61.8385 116.068 61.6797 115.359 61.6797C114.698 61.6797 114.208 61.7969 113.891 62.0312C113.578 62.2604 113.346 62.6693 113.195 63.2578L111.82 63.0703C111.945 62.4818 112.151 62.0078 112.438 61.6484C112.724 61.2839 113.138 61.0052 113.68 60.8125C114.221 60.6146 114.849 60.5156 115.562 60.5156C116.271 60.5156 116.846 60.599 117.289 60.7656C117.732 60.9323 118.057 61.1432 118.266 61.3984C118.474 61.6484 118.62 61.9661 118.703 62.3516C118.75 62.5911 118.773 63.0234 118.773 63.6484V65.5234C118.773 66.8307 118.802 67.6589 118.859 68.0078C118.922 68.3516 119.042 68.6823 119.219 69H117.75C117.604 68.7083 117.51 68.3672 117.469 67.9766ZM117.352 64.8359C116.841 65.0443 116.076 65.2214 115.055 65.3672C114.477 65.4505 114.068 65.5443 113.828 65.6484C113.589 65.7526 113.404 65.9062 113.273 66.1094C113.143 66.3073 113.078 66.5286 113.078 66.7734C113.078 67.1484 113.219 67.4609 113.5 67.7109C113.786 67.9609 114.203 68.0859 114.75 68.0859C115.292 68.0859 115.773 67.9688 116.195 67.7344C116.617 67.4948 116.927 67.1693 117.125 66.7578C117.276 66.4401 117.352 65.9714 117.352 65.3516V64.8359ZM120.969 60.7031H125.742V61.8672H122.375V69H120.969V60.7031ZM126.805 60.7031H128.211V67.0312L132.109 60.7031H133.625V69H132.219V62.7109L128.32 69H126.805V60.7031ZM141.156 65.9609L142.539 66.1406C142.388 67.0938 142 67.8411 141.375 68.3828C140.755 68.9193 139.992 69.1875 139.086 69.1875C137.951 69.1875 137.036 68.8177 136.344 68.0781C135.656 67.3333 135.312 66.2682 135.312 64.8828C135.312 63.987 135.461 63.2031 135.758 62.5312C136.055 61.8594 136.505 61.3568 137.109 61.0234C137.719 60.6849 138.38 60.5156 139.094 60.5156C139.995 60.5156 140.732 60.7448 141.305 61.2031C141.878 61.6562 142.245 62.3021 142.406 63.1406L141.039 63.3516C140.909 62.7943 140.677 62.375 140.344 62.0938C140.016 61.8125 139.617 61.6719 139.148 61.6719C138.44 61.6719 137.865 61.9271 137.422 62.4375C136.979 62.9427 136.758 63.7448 136.758 64.8438C136.758 65.9583 136.971 66.7682 137.398 67.2734C137.826 67.7786 138.383 68.0312 139.07 68.0312C139.622 68.0312 140.083 67.862 140.453 67.5234C140.823 67.1849 141.057 66.6641 141.156 65.9609ZM142.984 60.7031H149.727V61.8672H147.055V69H145.656V61.8672H142.984V60.7031ZM151.07 72.1797V60.7031H152.352V61.7812C152.654 61.3594 152.995 61.0443 153.375 60.8359C153.755 60.6224 154.216 60.5156 154.758 60.5156C155.466 60.5156 156.091 60.6979 156.633 61.0625C157.174 61.4271 157.583 61.9427 157.859 62.6094C158.135 63.2708 158.273 63.9974 158.273 64.7891C158.273 65.638 158.12 66.4036 157.812 67.0859C157.51 67.763 157.068 68.2839 156.484 68.6484C155.906 69.0078 155.297 69.1875 154.656 69.1875C154.188 69.1875 153.766 69.0885 153.391 68.8906C153.021 68.6927 152.716 68.4427 152.477 68.1406V72.1797H151.07ZM152.344 64.8984C152.344 65.9661 152.56 66.7552 152.992 67.2656C153.424 67.776 153.948 68.0312 154.562 68.0312C155.188 68.0312 155.721 67.7682 156.164 67.2422C156.612 66.7109 156.836 65.8906 156.836 64.7812C156.836 63.724 156.617 62.9323 156.18 62.4062C155.747 61.8802 155.229 61.6172 154.625 61.6172C154.026 61.6172 153.495 61.8984 153.031 62.4609C152.573 63.0182 152.344 63.8307 152.344 64.8984ZM165.391 67.9766C164.87 68.4193 164.367 68.7318 163.883 68.9141C163.404 69.0964 162.888 69.1875 162.336 69.1875C161.424 69.1875 160.724 68.9661 160.234 68.5234C159.745 68.0755 159.5 67.5052 159.5 66.8125C159.5 66.4062 159.591 66.0365 159.773 65.7031C159.961 65.3646 160.203 65.0938 160.5 64.8906C160.802 64.6875 161.141 64.5339 161.516 64.4297C161.792 64.3568 162.208 64.2865 162.766 64.2188C163.901 64.0833 164.737 63.9219 165.273 63.7344C165.279 63.5417 165.281 63.4193 165.281 63.3672C165.281 62.7943 165.148 62.3906 164.883 62.1562C164.523 61.8385 163.99 61.6797 163.281 61.6797C162.62 61.6797 162.13 61.7969 161.812 62.0312C161.5 62.2604 161.268 62.6693 161.117 63.2578L159.742 63.0703C159.867 62.4818 160.073 62.0078 160.359 61.6484C160.646 61.2839 161.06 61.0052 161.602 60.8125C162.143 60.6146 162.771 60.5156 163.484 60.5156C164.193 60.5156 164.768 60.599 165.211 60.7656C165.654 60.9323 165.979 61.1432 166.188 61.3984C166.396 61.6484 166.542 61.9661 166.625 62.3516C166.672 62.5911 166.695 63.0234 166.695 63.6484V65.5234C166.695 66.8307 166.724 67.6589 166.781 68.0078C166.844 68.3516 166.964 68.6823 167.141 69H165.672C165.526 68.7083 165.432 68.3672 165.391 67.9766ZM165.273 64.8359C164.763 65.0443 163.997 65.2214 162.977 65.3672C162.398 65.4505 161.99 65.5443 161.75 65.6484C161.51 65.7526 161.326 65.9062 161.195 66.1094C161.065 66.3073 161 66.5286 161 66.7734C161 67.1484 161.141 67.4609 161.422 67.7109C161.708 67.9609 162.125 68.0859 162.672 68.0859C163.214 68.0859 163.695 67.9688 164.117 67.7344C164.539 67.4948 164.849 67.1693 165.047 66.7578C165.198 66.4401 165.273 65.9714 165.273 65.3516V64.8359ZM169.57 60.7031H176.102V69H174.703V61.8672H170.977V66C170.977 66.9635 170.945 67.599 170.883 67.9062C170.82 68.2135 170.648 68.4818 170.367 68.7109C170.086 68.9401 169.68 69.0547 169.148 69.0547C168.82 69.0547 168.443 69.0339 168.016 68.9922V67.8203H168.633C168.924 67.8203 169.133 67.7917 169.258 67.7344C169.383 67.6719 169.466 67.5755 169.508 67.4453C169.549 67.3151 169.57 66.8906 169.57 66.1719V60.7031ZM178.203 60.7031H179.609V63.9453H181.391C182.552 63.9453 183.445 64.1719 184.07 64.625C184.701 65.0729 185.016 65.6927 185.016 66.4844C185.016 67.1771 184.753 67.7708 184.227 68.2656C183.706 68.7552 182.87 69 181.719 69H178.203V60.7031ZM179.609 67.8438H181.086C181.977 67.8438 182.612 67.7344 182.992 67.5156C183.372 67.2969 183.562 66.9557 183.562 66.4922C183.562 66.1328 183.422 65.8125 183.141 65.5312C182.859 65.25 182.237 65.1094 181.273 65.1094H179.609V67.8438ZM186.578 60.7031H187.984V64.1562H191.883V60.7031H193.289V69H191.883V65.3203H187.984V69H186.578V60.7031ZM203.312 60.7031H204.719V69H203.312V60.7031ZM195.445 60.7031H196.852V63.9453H198.633C199.794 63.9453 200.688 64.1719 201.312 64.625C201.943 65.0729 202.258 65.6927 202.258 66.4844C202.258 67.1771 201.995 67.7708 201.469 68.2656C200.948 68.7552 200.112 69 198.961 69H195.445V60.7031ZM196.852 67.8438H198.328C199.219 67.8438 199.854 67.7344 200.234 67.5156C200.615 67.2969 200.805 66.9557 200.805 66.4922C200.805 66.1328 200.664 65.8125 200.383 65.5312C200.102 65.25 199.479 65.1094 198.516 65.1094H196.852V67.8438ZM205.977 69L209.008 64.6875L206.203 60.7031H207.961L209.234 62.6484C209.474 63.0182 209.667 63.3281 209.812 63.5781C210.042 63.2344 210.253 62.9297 210.445 62.6641L211.844 60.7031H213.523L210.656 64.6094L213.742 69H212.016L210.312 66.4219L209.859 65.7266L207.68 69H205.977ZM224.781 67.9766C224.26 68.4193 223.758 68.7318 223.273 68.9141C222.794 69.0964 222.279 69.1875 221.727 69.1875C220.815 69.1875 220.115 68.9661 219.625 68.5234C219.135 68.0755 218.891 67.5052 218.891 66.8125C218.891 66.4062 218.982 66.0365 219.164 65.7031C219.352 65.3646 219.594 65.0938 219.891 64.8906C220.193 64.6875 220.531 64.5339 220.906 64.4297C221.182 64.3568 221.599 64.2865 222.156 64.2188C223.292 64.0833 224.128 63.9219 224.664 63.7344C224.669 63.5417 224.672 63.4193 224.672 63.3672C224.672 62.7943 224.539 62.3906 224.273 62.1562C223.914 61.8385 223.38 61.6797 222.672 61.6797C222.01 61.6797 221.521 61.7969 221.203 62.0312C220.891 62.2604 220.659 62.6693 220.508 63.2578L219.133 63.0703C219.258 62.4818 219.464 62.0078 219.75 61.6484C220.036 61.2839 220.451 61.0052 220.992 60.8125C221.534 60.6146 222.161 60.5156 222.875 60.5156C223.583 60.5156 224.159 60.599 224.602 60.7656C225.044 60.9323 225.37 61.1432 225.578 61.3984C225.786 61.6484 225.932 61.9661 226.016 62.3516C226.062 62.5911 226.086 63.0234 226.086 63.6484V65.5234C226.086 66.8307 226.115 67.6589 226.172 68.0078C226.234 68.3516 226.354 68.6823 226.531 69H225.062C224.917 68.7083 224.823 68.3672 224.781 67.9766ZM224.664 64.8359C224.154 65.0443 223.388 65.2214 222.367 65.3672C221.789 65.4505 221.38 65.5443 221.141 65.6484C220.901 65.7526 220.716 65.9062 220.586 66.1094C220.456 66.3073 220.391 66.5286 220.391 66.7734C220.391 67.1484 220.531 67.4609 220.812 67.7109C221.099 67.9609 221.516 68.0859 222.062 68.0859C222.604 68.0859 223.086 67.9688 223.508 67.7344C223.93 67.4948 224.24 67.1693 224.438 66.7578C224.589 66.4401 224.664 65.9714 224.664 65.3516V64.8359ZM228.273 72.1797V60.7031H229.555V61.7812C229.857 61.3594 230.198 61.0443 230.578 60.8359C230.958 60.6224 231.419 60.5156 231.961 60.5156C232.669 60.5156 233.294 60.6979 233.836 61.0625C234.378 61.4271 234.786 61.9427 235.062 62.6094C235.339 63.2708 235.477 63.9974 235.477 64.7891C235.477 65.638 235.323 66.4036 235.016 67.0859C234.714 67.763 234.271 68.2839 233.688 68.6484C233.109 69.0078 232.5 69.1875 231.859 69.1875C231.391 69.1875 230.969 69.0885 230.594 68.8906C230.224 68.6927 229.919 68.4427 229.68 68.1406V72.1797H228.273ZM229.547 64.8984C229.547 65.9661 229.763 66.7552 230.195 67.2656C230.628 67.776 231.151 68.0312 231.766 68.0312C232.391 68.0312 232.924 67.7682 233.367 67.2422C233.815 66.7109 234.039 65.8906 234.039 64.7812C234.039 63.724 233.82 62.9323 233.383 62.4062C232.951 61.8802 232.432 61.6172 231.828 61.6172C231.229 61.6172 230.698 61.8984 230.234 62.4609C229.776 63.0182 229.547 63.8307 229.547 64.8984ZM236.062 60.7031H242.805V61.8672H240.133V69H238.734V61.8672H236.062V60.7031ZM249.641 66.3281L251.094 66.5078C250.865 67.3568 250.44 68.0156 249.82 68.4844C249.201 68.9531 248.409 69.1875 247.445 69.1875C246.232 69.1875 245.268 68.8151 244.555 68.0703C243.846 67.3203 243.492 66.2708 243.492 64.9219C243.492 63.526 243.852 62.4427 244.57 61.6719C245.289 60.901 246.221 60.5156 247.367 60.5156C248.477 60.5156 249.383 60.8932 250.086 61.6484C250.789 62.4036 251.141 63.4661 251.141 64.8359C251.141 64.9193 251.138 65.0443 251.133 65.2109H244.945C244.997 66.1224 245.255 66.8203 245.719 67.3047C246.182 67.7891 246.76 68.0312 247.453 68.0312C247.969 68.0312 248.409 67.8958 248.773 67.625C249.138 67.3542 249.427 66.9219 249.641 66.3281ZM245.023 64.0547H249.656C249.594 63.3568 249.417 62.8333 249.125 62.4844C248.677 61.9427 248.096 61.6719 247.383 61.6719C246.737 61.6719 246.193 61.888 245.75 62.3203C245.312 62.7526 245.07 63.3307 245.023 64.0547ZM252.867 72.1797V60.7031H254.148V61.7812C254.451 61.3594 254.792 61.0443 255.172 60.8359C255.552 60.6224 256.013 60.5156 256.555 60.5156C257.263 60.5156 257.888 60.6979 258.43 61.0625C258.971 61.4271 259.38 61.9427 259.656 62.6094C259.932 63.2708 260.07 63.9974 260.07 64.7891C260.07 65.638 259.917 66.4036 259.609 67.0859C259.307 67.763 258.865 68.2839 258.281 68.6484C257.703 69.0078 257.094 69.1875 256.453 69.1875C255.984 69.1875 255.562 69.0885 255.188 68.8906C254.818 68.6927 254.513 68.4427 254.273 68.1406V72.1797H252.867ZM254.141 64.8984C254.141 65.9661 254.357 66.7552 254.789 67.2656C255.221 67.776 255.745 68.0312 256.359 68.0312C256.984 68.0312 257.518 67.7682 257.961 67.2422C258.409 66.7109 258.633 65.8906 258.633 64.7812C258.633 63.724 258.414 62.9323 257.977 62.4062C257.544 61.8802 257.026 61.6172 256.422 61.6172C255.823 61.6172 255.292 61.8984 254.828 62.4609C254.37 63.0182 254.141 63.8307 254.141 64.8984ZM261.773 60.7031H263.18V67.0312L267.078 60.7031H268.594V69H267.188V62.7109L263.289 69H261.773V60.7031ZM270.711 60.7031H272.117V67.0312L276.016 60.7031H277.531V69H276.125V62.7109L272.227 69H270.711V60.7031ZM275.594 57.5625H276.555C276.477 58.2135 276.237 58.7135 275.836 59.0625C275.44 59.4115 274.911 59.5859 274.25 59.5859C273.583 59.5859 273.049 59.4141 272.648 59.0703C272.253 58.7214 272.016 58.2188 271.938 57.5625H272.898C272.971 57.9167 273.115 58.1823 273.328 58.3594C273.547 58.5312 273.839 58.6172 274.203 58.6172C274.625 58.6172 274.943 58.5339 275.156 58.3672C275.375 58.1953 275.521 57.9271 275.594 57.5625ZM284.102 60.7031H285.508V67.0312L289.406 60.7031H290.922V69H289.516V62.7109L285.617 69H284.102V60.7031ZM298.602 60.7031H304.383V67.8438H305.281V71.3516H304.125V69H297.594V71.3516H296.438V67.8438H297.18C298.169 66.5 298.643 64.1198 298.602 60.7031ZM299.773 61.8672C299.669 64.5599 299.253 66.5521 298.523 67.8438H302.984V61.8672H299.773ZM306.836 72.1797V60.7031H308.117V61.7812C308.419 61.3594 308.76 61.0443 309.141 60.8359C309.521 60.6224 309.982 60.5156 310.523 60.5156C311.232 60.5156 311.857 60.6979 312.398 61.0625C312.94 61.4271 313.349 61.9427 313.625 62.6094C313.901 63.2708 314.039 63.9974 314.039 64.7891C314.039 65.638 313.885 66.4036 313.578 67.0859C313.276 67.763 312.833 68.2839 312.25 68.6484C311.672 69.0078 311.062 69.1875 310.422 69.1875C309.953 69.1875 309.531 69.0885 309.156 68.8906C308.786 68.6927 308.482 68.4427 308.242 68.1406V72.1797H306.836ZM308.109 64.8984C308.109 65.9661 308.326 66.7552 308.758 67.2656C309.19 67.776 309.714 68.0312 310.328 68.0312C310.953 68.0312 311.487 67.7682 311.93 67.2422C312.378 66.7109 312.602 65.8906 312.602 64.7812C312.602 63.724 312.383 62.9323 311.945 62.4062C311.513 61.8802 310.995 61.6172 310.391 61.6172C309.792 61.6172 309.26 61.8984 308.797 62.4609C308.339 63.0182 308.109 63.8307 308.109 64.8984ZM316.141 69V67.3984H317.742V69H316.141Z" fill="black"/>
<defs>
<linearGradient id="paint0_linear_12_214" x1="0" y1="42.5" x2="540" y2="42.5" gradientUnits="userSpaceOnUse">
<stop stop-color="#9E9E9D"/>
<stop offset="1" stop-color="#DCDCDC"/>
</linearGradient>
</defs>
</svg>
