<svg width="540" height="85" viewBox="0 0 540 85" fill="none" xmlns="http://www.w3.org/2000/svg">
<rect width="540" height="85" rx="42.5" fill="url(#paint0_linear_12_254)"/>
<circle cx="42.5" cy="42.5" r="42.5" fill="#BB1F2B"/>
<path d="M40.25 48.9584C39.8963 48.9313 39.5672 48.7668 39.3333 48.5L33.8333 43C33.7108 42.7435 33.6708 42.4552 33.7189 42.175C33.767 41.8947 33.9008 41.6363 34.1018 41.4352C34.3029 41.2341 34.5613 41.1004 34.8416 41.0523C35.1218 41.0042 35.4101 41.0442 35.6667 41.1667L40.195 45.695L55.8333 30.1667C56.0899 30.0442 56.3782 30.0042 56.6584 30.0523C56.9387 30.1004 57.1971 30.2341 57.3982 30.4352C57.5992 30.6363 57.733 30.8947 57.7811 31.175C57.8292 31.4552 57.7892 31.7435 57.6667 32L41.1667 48.5C40.9328 48.7668 40.6037 48.9313 40.25 48.9584Z" fill="white"/>
<path d="M43 59.5C40.051 59.4953 37.1572 58.7003 34.6197 57.1978C32.0822 55.6953 29.9937 53.5402 28.5717 50.9567C27.4907 49.0317 26.8226 46.9025 26.61 44.705C26.2745 41.4822 26.8953 38.2319 28.395 35.3596C29.8947 32.4872 32.207 30.1201 35.0433 28.5534C36.9684 27.4724 39.0975 26.8043 41.295 26.5917C43.4843 26.3562 45.6986 26.5683 47.8033 27.215C47.9912 27.2526 48.1691 27.3289 48.3257 27.4392C48.4823 27.5495 48.6141 27.6913 48.7128 27.8556C48.8114 28.0198 48.8746 28.2028 48.8983 28.3929C48.9221 28.583 48.9058 28.7759 48.8507 28.9593C48.7955 29.1428 48.7026 29.3127 48.578 29.4581C48.4534 29.6036 48.2997 29.7214 48.1269 29.804C47.954 29.8866 47.7659 29.9322 47.5744 29.9378C47.3829 29.9434 47.1924 29.909 47.015 29.8367C45.2341 29.3012 43.3642 29.1267 41.515 29.3234C39.6872 29.5105 37.9161 30.0656 36.3083 30.955C34.7594 31.8096 33.3899 32.9549 32.275 34.3284C31.1271 35.7275 30.2699 37.3416 29.7536 39.0762C29.2373 40.8108 29.0723 42.6309 29.2683 44.43C29.4555 46.2579 30.0105 48.029 30.9 49.6367C31.7545 51.1856 32.8999 52.5551 34.2733 53.67C35.6725 54.818 37.2866 55.6752 39.0211 56.1914C40.7557 56.7077 42.5759 56.8727 44.375 56.6767C46.2028 56.4895 47.9739 55.9345 49.5817 55.045C51.1306 54.1905 52.5001 53.0451 53.615 51.6717C54.7629 50.2726 55.6201 48.6585 56.1364 46.9239C56.6527 45.1893 56.8177 43.3692 56.6217 41.57C56.5852 41.1883 56.7018 40.8078 56.946 40.5121C57.1901 40.2164 57.5416 40.0298 57.9233 39.9934C58.305 39.9569 58.6856 40.0736 58.9813 40.3177C59.2769 40.5618 59.4635 40.9133 59.5 41.295C59.8338 44.5198 59.2103 47.7715 57.7072 50.644C56.2041 53.5165 53.8881 55.8825 51.0483 57.4467C49.1028 58.5719 46.9408 59.2717 44.705 59.5H43Z" fill="white"/>
<path d="M101.258 15.5469H102.773V20.5625C103.466 20.5625 103.953 20.4297 104.234 20.1641C104.516 19.8932 104.875 19.2474 105.312 18.2266C105.63 17.4766 105.891 16.9479 106.094 16.6406C106.302 16.3281 106.596 16.0677 106.977 15.8594C107.357 15.6458 107.776 15.5391 108.234 15.5391C108.818 15.5391 109.125 15.5443 109.156 15.5547V16.8672C109.104 16.8672 109.003 16.8646 108.852 16.8594C108.685 16.8542 108.583 16.8516 108.547 16.8516C108.062 16.8516 107.703 16.9688 107.469 17.2031C107.229 17.4375 106.956 17.9375 106.648 18.7031C106.263 19.6719 105.938 20.2839 105.672 20.5391C105.406 20.7891 105.089 20.9896 104.719 21.1406C105.458 21.3438 106.188 22.026 106.906 23.1875L109.266 27H107.383L105.469 23.8906C104.943 23.0312 104.503 22.4427 104.148 22.125C103.794 21.8021 103.336 21.6406 102.773 21.6406V27H101.258V15.5469ZM115.797 25.9766C115.276 26.4193 114.773 26.7318 114.289 26.9141C113.81 27.0964 113.294 27.1875 112.742 27.1875C111.831 27.1875 111.13 26.9661 110.641 26.5234C110.151 26.0755 109.906 25.5052 109.906 24.8125C109.906 24.4062 109.997 24.0365 110.18 23.7031C110.367 23.3646 110.609 23.0938 110.906 22.8906C111.208 22.6875 111.547 22.5339 111.922 22.4297C112.198 22.3568 112.615 22.2865 113.172 22.2188C114.307 22.0833 115.143 21.9219 115.68 21.7344C115.685 21.5417 115.688 21.4193 115.688 21.3672C115.688 20.7943 115.555 20.3906 115.289 20.1562C114.93 19.8385 114.396 19.6797 113.688 19.6797C113.026 19.6797 112.536 19.7969 112.219 20.0312C111.906 20.2604 111.674 20.6693 111.523 21.2578L110.148 21.0703C110.273 20.4818 110.479 20.0078 110.766 19.6484C111.052 19.2839 111.466 19.0052 112.008 18.8125C112.549 18.6146 113.177 18.5156 113.891 18.5156C114.599 18.5156 115.174 18.599 115.617 18.7656C116.06 18.9323 116.385 19.1432 116.594 19.3984C116.802 19.6484 116.948 19.9661 117.031 20.3516C117.078 20.5911 117.102 21.0234 117.102 21.6484V23.5234C117.102 24.8307 117.13 25.6589 117.188 26.0078C117.25 26.3516 117.37 26.6823 117.547 27H116.078C115.932 26.7083 115.839 26.3672 115.797 25.9766ZM115.68 22.8359C115.169 23.0443 114.404 23.2214 113.383 23.3672C112.805 23.4505 112.396 23.5443 112.156 23.6484C111.917 23.7526 111.732 23.9062 111.602 24.1094C111.471 24.3073 111.406 24.5286 111.406 24.7734C111.406 25.1484 111.547 25.4609 111.828 25.7109C112.115 25.9609 112.531 26.0859 113.078 26.0859C113.62 26.0859 114.102 25.9688 114.523 25.7344C114.945 25.4948 115.255 25.1693 115.453 24.7578C115.604 24.4401 115.68 23.9714 115.68 23.3516V22.8359ZM118.414 18.7031H119.82V20.2734C119.82 20.9505 119.859 21.4427 119.938 21.75C120.021 22.0521 120.216 22.3177 120.523 22.5469C120.831 22.7708 121.216 22.8828 121.68 22.8828C122.211 22.8828 122.898 22.7422 123.742 22.4609V18.7031H125.148V27H123.742V23.6562C122.878 23.9271 122.07 24.0625 121.32 24.0625C120.69 24.0625 120.133 23.9036 119.648 23.5859C119.169 23.263 118.844 22.8698 118.672 22.4062C118.5 21.9427 118.414 21.4323 118.414 20.875V18.7031ZM132.953 24.3281L134.406 24.5078C134.177 25.3568 133.753 26.0156 133.133 26.4844C132.513 26.9531 131.721 27.1875 130.758 27.1875C129.544 27.1875 128.581 26.8151 127.867 26.0703C127.159 25.3203 126.805 24.2708 126.805 22.9219C126.805 21.526 127.164 20.4427 127.883 19.6719C128.602 18.901 129.534 18.5156 130.68 18.5156C131.789 18.5156 132.695 18.8932 133.398 19.6484C134.102 20.4036 134.453 21.4661 134.453 22.8359C134.453 22.9193 134.451 23.0443 134.445 23.2109H128.258C128.31 24.1224 128.568 24.8203 129.031 25.3047C129.495 25.7891 130.073 26.0312 130.766 26.0312C131.281 26.0312 131.721 25.8958 132.086 25.625C132.451 25.3542 132.74 24.9219 132.953 24.3281ZM128.336 22.0547H132.969C132.906 21.3568 132.729 20.8333 132.438 20.4844C131.99 19.9427 131.409 19.6719 130.695 19.6719C130.049 19.6719 129.505 19.888 129.062 20.3203C128.625 20.7526 128.383 21.3307 128.336 22.0547ZM141.594 23.9609L142.977 24.1406C142.826 25.0938 142.438 25.8411 141.812 26.3828C141.193 26.9193 140.43 27.1875 139.523 27.1875C138.388 27.1875 137.474 26.8177 136.781 26.0781C136.094 25.3333 135.75 24.2682 135.75 22.8828C135.75 21.987 135.898 21.2031 136.195 20.5312C136.492 19.8594 136.943 19.3568 137.547 19.0234C138.156 18.6849 138.818 18.5156 139.531 18.5156C140.432 18.5156 141.169 18.7448 141.742 19.2031C142.315 19.6562 142.682 20.3021 142.844 21.1406L141.477 21.3516C141.346 20.7943 141.115 20.375 140.781 20.0938C140.453 19.8125 140.055 19.6719 139.586 19.6719C138.878 19.6719 138.302 19.9271 137.859 20.4375C137.417 20.9427 137.195 21.7448 137.195 22.8438C137.195 23.9583 137.409 24.7682 137.836 25.2734C138.263 25.7786 138.82 26.0312 139.508 26.0312C140.06 26.0312 140.521 25.862 140.891 25.5234C141.26 25.1849 141.495 24.6641 141.594 23.9609ZM143.422 18.7031H150.164V19.8672H147.492V27H146.094V19.8672H143.422V18.7031ZM151.516 18.7031H154.758C155.555 18.7031 156.146 18.7708 156.531 18.9062C156.922 19.0365 157.255 19.2786 157.531 19.6328C157.812 19.987 157.953 20.4115 157.953 20.9062C157.953 21.3021 157.87 21.6484 157.703 21.9453C157.542 22.237 157.297 22.4818 156.969 22.6797C157.359 22.8099 157.682 23.0547 157.938 23.4141C158.198 23.7682 158.328 24.1901 158.328 24.6797C158.276 25.4661 157.995 26.0495 157.484 26.4297C156.974 26.8099 156.232 27 155.258 27H151.516V18.7031ZM152.922 22.1953H154.422C155.021 22.1953 155.432 22.1641 155.656 22.1016C155.88 22.0391 156.081 21.9141 156.258 21.7266C156.435 21.5339 156.523 21.3047 156.523 21.0391C156.523 20.6016 156.367 20.2969 156.055 20.125C155.747 19.9531 155.219 19.8672 154.469 19.8672H152.922V22.1953ZM152.922 25.8438H154.773C155.57 25.8438 156.117 25.7526 156.414 25.5703C156.711 25.3828 156.867 25.0625 156.883 24.6094C156.883 24.3438 156.797 24.099 156.625 23.875C156.453 23.6458 156.229 23.5026 155.953 23.4453C155.677 23.3828 155.234 23.3516 154.625 23.3516H152.922V25.8438ZM159.297 22.8516C159.297 21.3151 159.724 20.1771 160.578 19.4375C161.292 18.8229 162.161 18.5156 163.188 18.5156C164.328 18.5156 165.26 18.8906 165.984 19.6406C166.708 20.3854 167.07 21.4167 167.07 22.7344C167.07 23.8021 166.909 24.6432 166.586 25.2578C166.268 25.8672 165.802 26.3411 165.188 26.6797C164.578 27.0182 163.911 27.1875 163.188 27.1875C162.026 27.1875 161.086 26.8151 160.367 26.0703C159.654 25.3255 159.297 24.2526 159.297 22.8516ZM160.742 22.8516C160.742 23.9141 160.974 24.7109 161.438 25.2422C161.901 25.7682 162.484 26.0312 163.188 26.0312C163.885 26.0312 164.466 25.7656 164.93 25.2344C165.393 24.7031 165.625 23.8932 165.625 22.8047C165.625 21.7786 165.391 21.0026 164.922 20.4766C164.458 19.9453 163.88 19.6797 163.188 19.6797C162.484 19.6797 161.901 19.9427 161.438 20.4688C160.974 20.9948 160.742 21.7891 160.742 22.8516ZM178.195 18.7031V22.2891C178.643 22.2891 178.958 22.2031 179.141 22.0312C179.323 21.8594 179.589 21.3594 179.938 20.5312C180.266 19.7448 180.56 19.2422 180.82 19.0234C181.076 18.8099 181.482 18.7031 182.039 18.7031H182.555V19.8672L182.172 19.8594C181.797 19.8594 181.557 19.9141 181.453 20.0234C181.344 20.138 181.177 20.4792 180.953 21.0469C180.745 21.5885 180.552 21.9635 180.375 22.1719C180.198 22.3802 179.922 22.5703 179.547 22.7422C180.156 22.9036 180.75 23.4661 181.328 24.4297L182.875 27H181.328L179.82 24.4297C179.513 23.9089 179.245 23.5677 179.016 23.4062C178.786 23.2448 178.513 23.1641 178.195 23.1641V27H176.758V23.1641C176.445 23.1641 176.174 23.2448 175.945 23.4062C175.716 23.5625 175.448 23.9036 175.141 24.4297L173.633 27H172.086L173.625 24.4297C174.208 23.4661 174.805 22.9036 175.414 22.7422C174.997 22.5495 174.706 22.3411 174.539 22.1172C174.372 21.888 174.122 21.3464 173.789 20.4922C173.674 20.2057 173.552 20.0286 173.422 19.9609C173.286 19.8932 173.086 19.8594 172.82 19.8594C172.753 19.8594 172.615 19.862 172.406 19.8672V18.7031H172.602C173.143 18.7031 173.523 18.737 173.742 18.8047C173.966 18.8672 174.164 19.0052 174.336 19.2188C174.513 19.4271 174.742 19.8646 175.023 20.5312C175.367 21.349 175.628 21.8464 175.805 22.0234C175.987 22.2005 176.305 22.2891 176.758 22.2891V18.7031H178.195ZM183.883 18.7031H185.289V25.0312L189.188 18.7031H190.703V27H189.297V20.7109L185.398 27H183.883V18.7031ZM194.656 23.25V22.1484C195.25 22.1432 195.654 22.1198 195.867 22.0781C196.086 22.0365 196.292 21.9115 196.484 21.7031C196.677 21.4948 196.773 21.2344 196.773 20.9219C196.773 20.5417 196.646 20.2396 196.391 20.0156C196.141 19.7865 195.815 19.6719 195.414 19.6719C194.622 19.6719 194.068 20.138 193.75 21.0703L192.414 20.8516C192.831 19.2943 193.836 18.5156 195.43 18.5156C196.315 18.5156 197.008 18.7578 197.508 19.2422C198.013 19.7266 198.266 20.3047 198.266 20.9766C198.266 21.6536 197.938 22.1927 197.281 22.5938C197.698 22.8177 198.01 23.1042 198.219 23.4531C198.427 23.7969 198.531 24.2057 198.531 24.6797C198.531 25.4245 198.26 26.0286 197.719 26.4922C197.177 26.9557 196.419 27.1875 195.445 27.1875C193.555 27.1875 192.458 26.3464 192.156 24.6641L193.477 24.3828C193.596 24.9141 193.839 25.3255 194.203 25.6172C194.573 25.9089 194.995 26.0547 195.469 26.0547C195.943 26.0547 196.336 25.9219 196.648 25.6562C196.966 25.3854 197.125 25.0417 197.125 24.625C197.125 24.3021 197.026 24.0208 196.828 23.7812C196.63 23.5417 196.419 23.3932 196.195 23.3359C195.971 23.2734 195.565 23.2422 194.977 23.2422C194.93 23.2422 194.823 23.2448 194.656 23.25ZM200.172 18.7031H201.578V22.1562H205.477V18.7031H206.883V27H205.477V23.3203H201.578V27H200.172V18.7031ZM209.008 18.7031H210.414V25.0312L214.312 18.7031H215.828V27H214.422V20.7109L210.523 27H209.008V18.7031ZM218.336 20.3047V18.7031H219.938V20.3047H218.336ZM218.336 27V25.3984H219.938V27H218.336ZM226.859 18.7031H233.406V27H232V19.8672H228.266V27H226.859V18.7031ZM235 22.8516C235 21.3151 235.427 20.1771 236.281 19.4375C236.995 18.8229 237.865 18.5156 238.891 18.5156C240.031 18.5156 240.964 18.8906 241.688 19.6406C242.411 20.3854 242.773 21.4167 242.773 22.7344C242.773 23.8021 242.612 24.6432 242.289 25.2578C241.971 25.8672 241.505 26.3411 240.891 26.6797C240.281 27.0182 239.615 27.1875 238.891 27.1875C237.729 27.1875 236.789 26.8151 236.07 26.0703C235.357 25.3255 235 24.2526 235 22.8516ZM236.445 22.8516C236.445 23.9141 236.677 24.7109 237.141 25.2422C237.604 25.7682 238.188 26.0312 238.891 26.0312C239.589 26.0312 240.169 25.7656 240.633 25.2344C241.096 24.7031 241.328 23.8932 241.328 22.8047C241.328 21.7786 241.094 21.0026 240.625 20.4766C240.161 19.9453 239.583 19.6797 238.891 19.6797C238.188 19.6797 237.604 19.9427 237.141 20.4688C236.677 20.9948 236.445 21.7891 236.445 22.8516ZM244.422 18.7031H245.828V22.2891C246.276 22.2891 246.589 22.2031 246.766 22.0312C246.948 21.8594 247.214 21.3594 247.562 20.5312C247.839 19.875 248.062 19.4427 248.234 19.2344C248.406 19.026 248.604 18.8854 248.828 18.8125C249.052 18.7396 249.411 18.7031 249.906 18.7031H250.188V19.8672L249.797 19.8594C249.427 19.8594 249.19 19.9141 249.086 20.0234C248.977 20.138 248.81 20.4792 248.586 21.0469C248.372 21.5885 248.177 21.9635 248 22.1719C247.823 22.3802 247.549 22.5703 247.18 22.7422C247.784 22.9036 248.378 23.4661 248.961 24.4297L250.5 27H248.953L247.453 24.4297C247.146 23.9141 246.878 23.5755 246.648 23.4141C246.419 23.2474 246.146 23.1641 245.828 23.1641V27H244.422V18.7031ZM257.203 25.9766C256.682 26.4193 256.18 26.7318 255.695 26.9141C255.216 27.0964 254.701 27.1875 254.148 27.1875C253.237 27.1875 252.536 26.9661 252.047 26.5234C251.557 26.0755 251.312 25.5052 251.312 24.8125C251.312 24.4062 251.404 24.0365 251.586 23.7031C251.773 23.3646 252.016 23.0938 252.312 22.8906C252.615 22.6875 252.953 22.5339 253.328 22.4297C253.604 22.3568 254.021 22.2865 254.578 22.2188C255.714 22.0833 256.549 21.9219 257.086 21.7344C257.091 21.5417 257.094 21.4193 257.094 21.3672C257.094 20.7943 256.961 20.3906 256.695 20.1562C256.336 19.8385 255.802 19.6797 255.094 19.6797C254.432 19.6797 253.943 19.7969 253.625 20.0312C253.312 20.2604 253.081 20.6693 252.93 21.2578L251.555 21.0703C251.68 20.4818 251.885 20.0078 252.172 19.6484C252.458 19.2839 252.872 19.0052 253.414 18.8125C253.956 18.6146 254.583 18.5156 255.297 18.5156C256.005 18.5156 256.581 18.599 257.023 18.7656C257.466 18.9323 257.792 19.1432 258 19.3984C258.208 19.6484 258.354 19.9661 258.438 20.3516C258.484 20.5911 258.508 21.0234 258.508 21.6484V23.5234C258.508 24.8307 258.536 25.6589 258.594 26.0078C258.656 26.3516 258.776 26.6823 258.953 27H257.484C257.339 26.7083 257.245 26.3672 257.203 25.9766ZM257.086 22.8359C256.576 23.0443 255.81 23.2214 254.789 23.3672C254.211 23.4505 253.802 23.5443 253.562 23.6484C253.323 23.7526 253.138 23.9062 253.008 24.1094C252.878 24.3073 252.812 24.5286 252.812 24.7734C252.812 25.1484 252.953 25.4609 253.234 25.7109C253.521 25.9609 253.938 26.0859 254.484 26.0859C255.026 26.0859 255.508 25.9688 255.93 25.7344C256.352 25.4948 256.661 25.1693 256.859 24.7578C257.01 24.4401 257.086 23.9714 257.086 23.3516V22.8359ZM262.344 23.25V22.1484C262.938 22.1432 263.341 22.1198 263.555 22.0781C263.773 22.0365 263.979 21.9115 264.172 21.7031C264.365 21.4948 264.461 21.2344 264.461 20.9219C264.461 20.5417 264.333 20.2396 264.078 20.0156C263.828 19.7865 263.503 19.6719 263.102 19.6719C262.31 19.6719 261.755 20.138 261.438 21.0703L260.102 20.8516C260.518 19.2943 261.523 18.5156 263.117 18.5156C264.003 18.5156 264.695 18.7578 265.195 19.2422C265.701 19.7266 265.953 20.3047 265.953 20.9766C265.953 21.6536 265.625 22.1927 264.969 22.5938C265.385 22.8177 265.698 23.1042 265.906 23.4531C266.115 23.7969 266.219 24.2057 266.219 24.6797C266.219 25.4245 265.948 26.0286 265.406 26.4922C264.865 26.9557 264.107 27.1875 263.133 27.1875C261.242 27.1875 260.146 26.3464 259.844 24.6641L261.164 24.3828C261.284 24.9141 261.526 25.3255 261.891 25.6172C262.26 25.9089 262.682 26.0547 263.156 26.0547C263.63 26.0547 264.023 25.9219 264.336 25.6562C264.654 25.3854 264.812 25.0417 264.812 24.625C264.812 24.3021 264.714 24.0208 264.516 23.7812C264.318 23.5417 264.107 23.3932 263.883 23.3359C263.659 23.2734 263.253 23.2422 262.664 23.2422C262.617 23.2422 262.51 23.2448 262.344 23.25ZM273.266 25.9766C272.745 26.4193 272.242 26.7318 271.758 26.9141C271.279 27.0964 270.763 27.1875 270.211 27.1875C269.299 27.1875 268.599 26.9661 268.109 26.5234C267.62 26.0755 267.375 25.5052 267.375 24.8125C267.375 24.4062 267.466 24.0365 267.648 23.7031C267.836 23.3646 268.078 23.0938 268.375 22.8906C268.677 22.6875 269.016 22.5339 269.391 22.4297C269.667 22.3568 270.083 22.2865 270.641 22.2188C271.776 22.0833 272.612 21.9219 273.148 21.7344C273.154 21.5417 273.156 21.4193 273.156 21.3672C273.156 20.7943 273.023 20.3906 272.758 20.1562C272.398 19.8385 271.865 19.6797 271.156 19.6797C270.495 19.6797 270.005 19.7969 269.688 20.0312C269.375 20.2604 269.143 20.6693 268.992 21.2578L267.617 21.0703C267.742 20.4818 267.948 20.0078 268.234 19.6484C268.521 19.2839 268.935 19.0052 269.477 18.8125C270.018 18.6146 270.646 18.5156 271.359 18.5156C272.068 18.5156 272.643 18.599 273.086 18.7656C273.529 18.9323 273.854 19.1432 274.062 19.3984C274.271 19.6484 274.417 19.9661 274.5 20.3516C274.547 20.5911 274.57 21.0234 274.57 21.6484V23.5234C274.57 24.8307 274.599 25.6589 274.656 26.0078C274.719 26.3516 274.839 26.6823 275.016 27H273.547C273.401 26.7083 273.307 26.3672 273.266 25.9766ZM273.148 22.8359C272.638 23.0443 271.872 23.2214 270.852 23.3672C270.273 23.4505 269.865 23.5443 269.625 23.6484C269.385 23.7526 269.201 23.9062 269.07 24.1094C268.94 24.3073 268.875 24.5286 268.875 24.7734C268.875 25.1484 269.016 25.4609 269.297 25.7109C269.583 25.9609 270 26.0859 270.547 26.0859C271.089 26.0859 271.57 25.9688 271.992 25.7344C272.414 25.4948 272.724 25.1693 272.922 24.7578C273.073 24.4401 273.148 23.9714 273.148 23.3516V22.8359ZM275.641 18.7031H282.383V19.8672H279.711V27H278.312V19.8672H275.641V18.7031ZM289.219 24.3281L290.672 24.5078C290.443 25.3568 290.018 26.0156 289.398 26.4844C288.779 26.9531 287.987 27.1875 287.023 27.1875C285.81 27.1875 284.846 26.8151 284.133 26.0703C283.424 25.3203 283.07 24.2708 283.07 22.9219C283.07 21.526 283.43 20.4427 284.148 19.6719C284.867 18.901 285.799 18.5156 286.945 18.5156C288.055 18.5156 288.961 18.8932 289.664 19.6484C290.367 20.4036 290.719 21.4661 290.719 22.8359C290.719 22.9193 290.716 23.0443 290.711 23.2109H284.523C284.576 24.1224 284.833 24.8203 285.297 25.3047C285.76 25.7891 286.339 26.0312 287.031 26.0312C287.547 26.0312 287.987 25.8958 288.352 25.625C288.716 25.3542 289.005 24.9219 289.219 24.3281ZM284.602 22.0547H289.234C289.172 21.3568 288.995 20.8333 288.703 20.4844C288.255 19.9427 287.674 19.6719 286.961 19.6719C286.315 19.6719 285.771 19.888 285.328 20.3203C284.891 20.7526 284.648 21.3307 284.602 22.0547ZM292.602 18.7031H299.133V27H297.734V19.8672H294.008V24C294.008 24.9635 293.977 25.599 293.914 25.9062C293.852 26.2135 293.68 26.4818 293.398 26.7109C293.117 26.9401 292.711 27.0547 292.18 27.0547C291.852 27.0547 291.474 27.0339 291.047 26.9922V25.8203H291.664C291.956 25.8203 292.164 25.7917 292.289 25.7344C292.414 25.6719 292.497 25.5755 292.539 25.4453C292.581 25.3151 292.602 24.8906 292.602 24.1719V18.7031ZM306.938 24.3281L308.391 24.5078C308.161 25.3568 307.737 26.0156 307.117 26.4844C306.497 26.9531 305.706 27.1875 304.742 27.1875C303.529 27.1875 302.565 26.8151 301.852 26.0703C301.143 25.3203 300.789 24.2708 300.789 22.9219C300.789 21.526 301.148 20.4427 301.867 19.6719C302.586 18.901 303.518 18.5156 304.664 18.5156C305.773 18.5156 306.68 18.8932 307.383 19.6484C308.086 20.4036 308.438 21.4661 308.438 22.8359C308.438 22.9193 308.435 23.0443 308.43 23.2109H302.242C302.294 24.1224 302.552 24.8203 303.016 25.3047C303.479 25.7891 304.057 26.0312 304.75 26.0312C305.266 26.0312 305.706 25.8958 306.07 25.625C306.435 25.3542 306.724 24.9219 306.938 24.3281ZM302.32 22.0547H306.953C306.891 21.3568 306.714 20.8333 306.422 20.4844C305.974 19.9427 305.393 19.6719 304.68 19.6719C304.034 19.6719 303.49 19.888 303.047 20.3203C302.609 20.7526 302.367 21.3307 302.32 22.0547ZM310.164 18.7031H311.57V25.0312L315.469 18.7031H316.984V27H315.578V20.7109L311.68 27H310.164V18.7031ZM315.047 15.5625H316.008C315.93 16.2135 315.69 16.7135 315.289 17.0625C314.893 17.4115 314.365 17.5859 313.703 17.5859C313.036 17.5859 312.503 17.4141 312.102 17.0703C311.706 16.7214 311.469 16.2188 311.391 15.5625H312.352C312.424 15.9167 312.568 16.1823 312.781 16.3594C313 16.5312 313.292 16.6172 313.656 16.6172C314.078 16.6172 314.396 16.5339 314.609 16.3672C314.828 16.1953 314.974 15.9271 315.047 15.5625ZM323.562 18.7031H330.109V27H328.703V19.8672H324.969V27H323.562V18.7031ZM331.703 22.8516C331.703 21.3151 332.13 20.1771 332.984 19.4375C333.698 18.8229 334.568 18.5156 335.594 18.5156C336.734 18.5156 337.667 18.8906 338.391 19.6406C339.115 20.3854 339.477 21.4167 339.477 22.7344C339.477 23.8021 339.315 24.6432 338.992 25.2578C338.674 25.8672 338.208 26.3411 337.594 26.6797C336.984 27.0182 336.318 27.1875 335.594 27.1875C334.432 27.1875 333.492 26.8151 332.773 26.0703C332.06 25.3255 331.703 24.2526 331.703 22.8516ZM333.148 22.8516C333.148 23.9141 333.38 24.7109 333.844 25.2422C334.307 25.7682 334.891 26.0312 335.594 26.0312C336.292 26.0312 336.872 25.7656 337.336 25.2344C337.799 24.7031 338.031 23.8932 338.031 22.8047C338.031 21.7786 337.797 21.0026 337.328 20.4766C336.865 19.9453 336.286 19.6797 335.594 19.6797C334.891 19.6797 334.307 19.9427 333.844 20.4688C333.38 20.9948 333.148 21.7891 333.148 22.8516ZM345.633 18.7031H347.039V25.8359H350.242V18.7031H351.648V25.8359H354.859V18.7031H356.258V27H345.633V18.7031ZM358.422 18.7031H359.828V22.2891C360.276 22.2891 360.589 22.2031 360.766 22.0312C360.948 21.8594 361.214 21.3594 361.562 20.5312C361.839 19.875 362.062 19.4427 362.234 19.2344C362.406 19.026 362.604 18.8854 362.828 18.8125C363.052 18.7396 363.411 18.7031 363.906 18.7031H364.188V19.8672L363.797 19.8594C363.427 19.8594 363.19 19.9141 363.086 20.0234C362.977 20.138 362.81 20.4792 362.586 21.0469C362.372 21.5885 362.177 21.9635 362 22.1719C361.823 22.3802 361.549 22.5703 361.18 22.7422C361.784 22.9036 362.378 23.4661 362.961 24.4297L364.5 27H362.953L361.453 24.4297C361.146 23.9141 360.878 23.5755 360.648 23.4141C360.419 23.2474 360.146 23.1641 359.828 23.1641V27H358.422V18.7031ZM371.203 25.9766C370.682 26.4193 370.18 26.7318 369.695 26.9141C369.216 27.0964 368.701 27.1875 368.148 27.1875C367.237 27.1875 366.536 26.9661 366.047 26.5234C365.557 26.0755 365.312 25.5052 365.312 24.8125C365.312 24.4062 365.404 24.0365 365.586 23.7031C365.773 23.3646 366.016 23.0938 366.312 22.8906C366.615 22.6875 366.953 22.5339 367.328 22.4297C367.604 22.3568 368.021 22.2865 368.578 22.2188C369.714 22.0833 370.549 21.9219 371.086 21.7344C371.091 21.5417 371.094 21.4193 371.094 21.3672C371.094 20.7943 370.961 20.3906 370.695 20.1562C370.336 19.8385 369.802 19.6797 369.094 19.6797C368.432 19.6797 367.943 19.7969 367.625 20.0312C367.312 20.2604 367.081 20.6693 366.93 21.2578L365.555 21.0703C365.68 20.4818 365.885 20.0078 366.172 19.6484C366.458 19.2839 366.872 19.0052 367.414 18.8125C367.956 18.6146 368.583 18.5156 369.297 18.5156C370.005 18.5156 370.581 18.599 371.023 18.7656C371.466 18.9323 371.792 19.1432 372 19.3984C372.208 19.6484 372.354 19.9661 372.438 20.3516C372.484 20.5911 372.508 21.0234 372.508 21.6484V23.5234C372.508 24.8307 372.536 25.6589 372.594 26.0078C372.656 26.3516 372.776 26.6823 372.953 27H371.484C371.339 26.7083 371.245 26.3672 371.203 25.9766ZM371.086 22.8359C370.576 23.0443 369.81 23.2214 368.789 23.3672C368.211 23.4505 367.802 23.5443 367.562 23.6484C367.323 23.7526 367.138 23.9062 367.008 24.1094C366.878 24.3073 366.812 24.5286 366.812 24.7734C366.812 25.1484 366.953 25.4609 367.234 25.7109C367.521 25.9609 367.938 26.0859 368.484 26.0859C369.026 26.0859 369.508 25.9688 369.93 25.7344C370.352 25.4948 370.661 25.1693 370.859 24.7578C371.01 24.4401 371.086 23.9714 371.086 23.3516V22.8359ZM375.383 18.7031H381.914V27H380.516V19.8672H376.789V24C376.789 24.9635 376.758 25.599 376.695 25.9062C376.633 26.2135 376.461 26.4818 376.18 26.7109C375.898 26.9401 375.492 27.0547 374.961 27.0547C374.633 27.0547 374.255 27.0339 373.828 26.9922V25.8203H374.445C374.737 25.8203 374.945 25.7917 375.07 25.7344C375.195 25.6719 375.279 25.5755 375.32 25.4453C375.362 25.3151 375.383 24.8906 375.383 24.1719V18.7031ZM389.453 25.9766C388.932 26.4193 388.43 26.7318 387.945 26.9141C387.466 27.0964 386.951 27.1875 386.398 27.1875C385.487 27.1875 384.786 26.9661 384.297 26.5234C383.807 26.0755 383.562 25.5052 383.562 24.8125C383.562 24.4062 383.654 24.0365 383.836 23.7031C384.023 23.3646 384.266 23.0938 384.562 22.8906C384.865 22.6875 385.203 22.5339 385.578 22.4297C385.854 22.3568 386.271 22.2865 386.828 22.2188C387.964 22.0833 388.799 21.9219 389.336 21.7344C389.341 21.5417 389.344 21.4193 389.344 21.3672C389.344 20.7943 389.211 20.3906 388.945 20.1562C388.586 19.8385 388.052 19.6797 387.344 19.6797C386.682 19.6797 386.193 19.7969 385.875 20.0312C385.562 20.2604 385.331 20.6693 385.18 21.2578L383.805 21.0703C383.93 20.4818 384.135 20.0078 384.422 19.6484C384.708 19.2839 385.122 19.0052 385.664 18.8125C386.206 18.6146 386.833 18.5156 387.547 18.5156C388.255 18.5156 388.831 18.599 389.273 18.7656C389.716 18.9323 390.042 19.1432 390.25 19.3984C390.458 19.6484 390.604 19.9661 390.688 20.3516C390.734 20.5911 390.758 21.0234 390.758 21.6484V23.5234C390.758 24.8307 390.786 25.6589 390.844 26.0078C390.906 26.3516 391.026 26.6823 391.203 27H389.734C389.589 26.7083 389.495 26.3672 389.453 25.9766ZM389.336 22.8359C388.826 23.0443 388.06 23.2214 387.039 23.3672C386.461 23.4505 386.052 23.5443 385.812 23.6484C385.573 23.7526 385.388 23.9062 385.258 24.1094C385.128 24.3073 385.062 24.5286 385.062 24.7734C385.062 25.1484 385.203 25.4609 385.484 25.7109C385.771 25.9609 386.188 26.0859 386.734 26.0859C387.276 26.0859 387.758 25.9688 388.18 25.7344C388.602 25.4948 388.911 25.1693 389.109 24.7578C389.26 24.4401 389.336 23.9714 389.336 23.3516V22.8359ZM392.984 18.7031H395.172L397.352 25.3438L399.773 18.7031H401.797V27H400.391V20.3203L397.938 27H396.68L394.359 20V27H392.984V18.7031ZM101.047 39.7031H102.453V43.2891C102.901 43.2891 103.214 43.2031 103.391 43.0312C103.573 42.8594 103.839 42.3594 104.188 41.5312C104.464 40.875 104.688 40.4427 104.859 40.2344C105.031 40.026 105.229 39.8854 105.453 39.8125C105.677 39.7396 106.036 39.7031 106.531 39.7031H106.812V40.8672L106.422 40.8594C106.052 40.8594 105.815 40.9141 105.711 41.0234C105.602 41.138 105.435 41.4792 105.211 42.0469C104.997 42.5885 104.802 42.9635 104.625 43.1719C104.448 43.3802 104.174 43.5703 103.805 43.7422C104.409 43.9036 105.003 44.4661 105.586 45.4297L107.125 48H105.578L104.078 45.4297C103.771 44.9141 103.503 44.5755 103.273 44.4141C103.044 44.2474 102.771 44.1641 102.453 44.1641V48H101.047V39.7031ZM113.828 46.9766C113.307 47.4193 112.805 47.7318 112.32 47.9141C111.841 48.0964 111.326 48.1875 110.773 48.1875C109.862 48.1875 109.161 47.9661 108.672 47.5234C108.182 47.0755 107.938 46.5052 107.938 45.8125C107.938 45.4062 108.029 45.0365 108.211 44.7031C108.398 44.3646 108.641 44.0938 108.938 43.8906C109.24 43.6875 109.578 43.5339 109.953 43.4297C110.229 43.3568 110.646 43.2865 111.203 43.2188C112.339 43.0833 113.174 42.9219 113.711 42.7344C113.716 42.5417 113.719 42.4193 113.719 42.3672C113.719 41.7943 113.586 41.3906 113.32 41.1562C112.961 40.8385 112.427 40.6797 111.719 40.6797C111.057 40.6797 110.568 40.7969 110.25 41.0312C109.938 41.2604 109.706 41.6693 109.555 42.2578L108.18 42.0703C108.305 41.4818 108.51 41.0078 108.797 40.6484C109.083 40.2839 109.497 40.0052 110.039 39.8125C110.581 39.6146 111.208 39.5156 111.922 39.5156C112.63 39.5156 113.206 39.599 113.648 39.7656C114.091 39.9323 114.417 40.1432 114.625 40.3984C114.833 40.6484 114.979 40.9661 115.062 41.3516C115.109 41.5911 115.133 42.0234 115.133 42.6484V44.5234C115.133 45.8307 115.161 46.6589 115.219 47.0078C115.281 47.3516 115.401 47.6823 115.578 48H114.109C113.964 47.7083 113.87 47.3672 113.828 46.9766ZM113.711 43.8359C113.201 44.0443 112.435 44.2214 111.414 44.3672C110.836 44.4505 110.427 44.5443 110.188 44.6484C109.948 44.7526 109.763 44.9062 109.633 45.1094C109.503 45.3073 109.438 45.5286 109.438 45.7734C109.438 46.1484 109.578 46.4609 109.859 46.7109C110.146 46.9609 110.562 47.0859 111.109 47.0859C111.651 47.0859 112.133 46.9688 112.555 46.7344C112.977 46.4948 113.286 46.1693 113.484 45.7578C113.635 45.4401 113.711 44.9714 113.711 44.3516V43.8359ZM116.445 39.7031H117.852V41.2734C117.852 41.9505 117.891 42.4427 117.969 42.75C118.052 43.0521 118.247 43.3177 118.555 43.5469C118.862 43.7708 119.247 43.8828 119.711 43.8828C120.242 43.8828 120.93 43.7422 121.773 43.4609V39.7031H123.18V48H121.773V44.6562C120.909 44.9271 120.102 45.0625 119.352 45.0625C118.721 45.0625 118.164 44.9036 117.68 44.5859C117.201 44.263 116.875 43.8698 116.703 43.4062C116.531 42.9427 116.445 42.4323 116.445 41.875V39.7031ZM130.984 45.3281L132.438 45.5078C132.208 46.3568 131.784 47.0156 131.164 47.4844C130.544 47.9531 129.753 48.1875 128.789 48.1875C127.576 48.1875 126.612 47.8151 125.898 47.0703C125.19 46.3203 124.836 45.2708 124.836 43.9219C124.836 42.526 125.195 41.4427 125.914 40.6719C126.633 39.901 127.565 39.5156 128.711 39.5156C129.82 39.5156 130.727 39.8932 131.43 40.6484C132.133 41.4036 132.484 42.4661 132.484 43.8359C132.484 43.9193 132.482 44.0443 132.477 44.2109H126.289C126.341 45.1224 126.599 45.8203 127.062 46.3047C127.526 46.7891 128.104 47.0312 128.797 47.0312C129.312 47.0312 129.753 46.8958 130.117 46.625C130.482 46.3542 130.771 45.9219 130.984 45.3281ZM126.367 43.0547H131C130.938 42.3568 130.76 41.8333 130.469 41.4844C130.021 40.9427 129.44 40.6719 128.727 40.6719C128.081 40.6719 127.536 40.888 127.094 41.3203C126.656 41.7526 126.414 42.3307 126.367 43.0547ZM139.625 44.9609L141.008 45.1406C140.857 46.0938 140.469 46.8411 139.844 47.3828C139.224 47.9193 138.461 48.1875 137.555 48.1875C136.419 48.1875 135.505 47.8177 134.812 47.0781C134.125 46.3333 133.781 45.2682 133.781 43.8828C133.781 42.987 133.93 42.2031 134.227 41.5312C134.523 40.8594 134.974 40.3568 135.578 40.0234C136.188 39.6849 136.849 39.5156 137.562 39.5156C138.464 39.5156 139.201 39.7448 139.773 40.2031C140.346 40.6562 140.714 41.3021 140.875 42.1406L139.508 42.3516C139.378 41.7943 139.146 41.375 138.812 41.0938C138.484 40.8125 138.086 40.6719 137.617 40.6719C136.909 40.6719 136.333 40.9271 135.891 41.4375C135.448 41.9427 135.227 42.7448 135.227 43.8438C135.227 44.9583 135.44 45.7682 135.867 46.2734C136.294 46.7786 136.852 47.0312 137.539 47.0312C138.091 47.0312 138.552 46.862 138.922 46.5234C139.292 46.1849 139.526 45.6641 139.625 44.9609ZM141.453 39.7031H148.195V40.8672H145.523V48H144.125V40.8672H141.453V39.7031ZM149.547 39.7031H152.789C153.586 39.7031 154.177 39.7708 154.562 39.9062C154.953 40.0365 155.286 40.2786 155.562 40.6328C155.844 40.987 155.984 41.4115 155.984 41.9062C155.984 42.3021 155.901 42.6484 155.734 42.9453C155.573 43.237 155.328 43.4818 155 43.6797C155.391 43.8099 155.714 44.0547 155.969 44.4141C156.229 44.7682 156.359 45.1901 156.359 45.6797C156.307 46.4661 156.026 47.0495 155.516 47.4297C155.005 47.8099 154.263 48 153.289 48H149.547V39.7031ZM150.953 43.1953H152.453C153.052 43.1953 153.464 43.1641 153.688 43.1016C153.911 43.0391 154.112 42.9141 154.289 42.7266C154.466 42.5339 154.555 42.3047 154.555 42.0391C154.555 41.6016 154.398 41.2969 154.086 41.125C153.779 40.9531 153.25 40.8672 152.5 40.8672H150.953V43.1953ZM150.953 46.8438H152.805C153.602 46.8438 154.148 46.7526 154.445 46.5703C154.742 46.3828 154.898 46.0625 154.914 45.6094C154.914 45.3438 154.828 45.099 154.656 44.875C154.484 44.6458 154.26 44.5026 153.984 44.4453C153.708 44.3828 153.266 44.3516 152.656 44.3516H150.953V46.8438ZM163.266 46.9766C162.745 47.4193 162.242 47.7318 161.758 47.9141C161.279 48.0964 160.763 48.1875 160.211 48.1875C159.299 48.1875 158.599 47.9661 158.109 47.5234C157.62 47.0755 157.375 46.5052 157.375 45.8125C157.375 45.4062 157.466 45.0365 157.648 44.7031C157.836 44.3646 158.078 44.0938 158.375 43.8906C158.677 43.6875 159.016 43.5339 159.391 43.4297C159.667 43.3568 160.083 43.2865 160.641 43.2188C161.776 43.0833 162.612 42.9219 163.148 42.7344C163.154 42.5417 163.156 42.4193 163.156 42.3672C163.156 41.7943 163.023 41.3906 162.758 41.1562C162.398 40.8385 161.865 40.6797 161.156 40.6797C160.495 40.6797 160.005 40.7969 159.688 41.0312C159.375 41.2604 159.143 41.6693 158.992 42.2578L157.617 42.0703C157.742 41.4818 157.948 41.0078 158.234 40.6484C158.521 40.2839 158.935 40.0052 159.477 39.8125C160.018 39.6146 160.646 39.5156 161.359 39.5156C162.068 39.5156 162.643 39.599 163.086 39.7656C163.529 39.9323 163.854 40.1432 164.062 40.3984C164.271 40.6484 164.417 40.9661 164.5 41.3516C164.547 41.5911 164.57 42.0234 164.57 42.6484V44.5234C164.57 45.8307 164.599 46.6589 164.656 47.0078C164.719 47.3516 164.839 47.6823 165.016 48H163.547C163.401 47.7083 163.307 47.3672 163.266 46.9766ZM163.148 43.8359C162.638 44.0443 161.872 44.2214 160.852 44.3672C160.273 44.4505 159.865 44.5443 159.625 44.6484C159.385 44.7526 159.201 44.9062 159.07 45.1094C158.94 45.3073 158.875 45.5286 158.875 45.7734C158.875 46.1484 159.016 46.4609 159.297 46.7109C159.583 46.9609 160 47.0859 160.547 47.0859C161.089 47.0859 161.57 46.9688 161.992 46.7344C162.414 46.4948 162.724 46.1693 162.922 45.7578C163.073 45.4401 163.148 44.9714 163.148 44.3516V43.8359ZM176.227 39.7031V43.2891C176.674 43.2891 176.99 43.2031 177.172 43.0312C177.354 42.8594 177.62 42.3594 177.969 41.5312C178.297 40.7448 178.591 40.2422 178.852 40.0234C179.107 39.8099 179.513 39.7031 180.07 39.7031H180.586V40.8672L180.203 40.8594C179.828 40.8594 179.589 40.9141 179.484 41.0234C179.375 41.138 179.208 41.4792 178.984 42.0469C178.776 42.5885 178.583 42.9635 178.406 43.1719C178.229 43.3802 177.953 43.5703 177.578 43.7422C178.188 43.9036 178.781 44.4661 179.359 45.4297L180.906 48H179.359L177.852 45.4297C177.544 44.9089 177.276 44.5677 177.047 44.4062C176.818 44.2448 176.544 44.1641 176.227 44.1641V48H174.789V44.1641C174.477 44.1641 174.206 44.2448 173.977 44.4062C173.747 44.5625 173.479 44.9036 173.172 45.4297L171.664 48H170.117L171.656 45.4297C172.24 44.4661 172.836 43.9036 173.445 43.7422C173.029 43.5495 172.737 43.3411 172.57 43.1172C172.404 42.888 172.154 42.3464 171.82 41.4922C171.706 41.2057 171.583 41.0286 171.453 40.9609C171.318 40.8932 171.117 40.8594 170.852 40.8594C170.784 40.8594 170.646 40.862 170.438 40.8672V39.7031H170.633C171.174 39.7031 171.555 39.737 171.773 39.8047C171.997 39.8672 172.195 40.0052 172.367 40.2188C172.544 40.4271 172.773 40.8646 173.055 41.5312C173.398 42.349 173.659 42.8464 173.836 43.0234C174.018 43.2005 174.336 43.2891 174.789 43.2891V39.7031H176.227ZM181.914 39.7031H183.32V46.0312L187.219 39.7031H188.734V48H187.328V41.7109L183.43 48H181.914V39.7031ZM192.688 44.25V43.1484C193.281 43.1432 193.685 43.1198 193.898 43.0781C194.117 43.0365 194.323 42.9115 194.516 42.7031C194.708 42.4948 194.805 42.2344 194.805 41.9219C194.805 41.5417 194.677 41.2396 194.422 41.0156C194.172 40.7865 193.846 40.6719 193.445 40.6719C192.654 40.6719 192.099 41.138 191.781 42.0703L190.445 41.8516C190.862 40.2943 191.867 39.5156 193.461 39.5156C194.346 39.5156 195.039 39.7578 195.539 40.2422C196.044 40.7266 196.297 41.3047 196.297 41.9766C196.297 42.6536 195.969 43.1927 195.312 43.5938C195.729 43.8177 196.042 44.1042 196.25 44.4531C196.458 44.7969 196.562 45.2057 196.562 45.6797C196.562 46.4245 196.292 47.0286 195.75 47.4922C195.208 47.9557 194.451 48.1875 193.477 48.1875C191.586 48.1875 190.49 47.3464 190.188 45.6641L191.508 45.3828C191.628 45.9141 191.87 46.3255 192.234 46.6172C192.604 46.9089 193.026 47.0547 193.5 47.0547C193.974 47.0547 194.367 46.9219 194.68 46.6562C194.997 46.3854 195.156 46.0417 195.156 45.625C195.156 45.3021 195.057 45.0208 194.859 44.7812C194.661 44.5417 194.451 44.3932 194.227 44.3359C194.003 44.2734 193.596 44.2422 193.008 44.2422C192.961 44.2422 192.854 44.2448 192.688 44.25ZM198.203 39.7031H199.609V43.1562H203.508V39.7031H204.914V48H203.508V44.3203H199.609V48H198.203V39.7031ZM207.039 39.7031H208.445V46.0312L212.344 39.7031H213.859V48H212.453V41.7109L208.555 48H207.039V39.7031ZM223.117 51.3672C222.341 50.388 221.685 49.2422 221.148 47.9297C220.612 46.6172 220.344 45.2578 220.344 43.8516C220.344 42.612 220.544 41.4245 220.945 40.2891C221.414 38.9714 222.138 37.6589 223.117 36.3516H224.125C223.495 37.4349 223.078 38.2083 222.875 38.6719C222.557 39.3906 222.307 40.1406 222.125 40.9219C221.901 41.8958 221.789 42.875 221.789 43.8594C221.789 46.3646 222.568 48.8672 224.125 51.3672H223.117ZM234.109 43.9844L235.625 44.3672C235.307 45.612 234.734 46.5625 233.906 47.2188C233.083 47.8698 232.076 48.1953 230.883 48.1953C229.648 48.1953 228.643 47.9453 227.867 47.4453C227.096 46.9401 226.508 46.2109 226.102 45.2578C225.701 44.3047 225.5 43.2812 225.5 42.1875C225.5 40.9948 225.727 39.9557 226.18 39.0703C226.638 38.1797 227.286 37.5052 228.125 37.0469C228.969 36.5833 229.896 36.3516 230.906 36.3516C232.052 36.3516 233.016 36.6432 233.797 37.2266C234.578 37.8099 235.122 38.6302 235.43 39.6875L233.938 40.0391C233.672 39.2057 233.286 38.599 232.781 38.2188C232.276 37.8385 231.641 37.6484 230.875 37.6484C229.995 37.6484 229.258 37.8594 228.664 38.2812C228.076 38.7031 227.661 39.2708 227.422 39.9844C227.182 40.6927 227.062 41.4245 227.062 42.1797C227.062 43.1536 227.203 44.0052 227.484 44.7344C227.771 45.4583 228.214 46 228.812 46.3594C229.411 46.7188 230.06 46.8984 230.758 46.8984C231.607 46.8984 232.326 46.6536 232.914 46.1641C233.503 45.6745 233.901 44.9479 234.109 43.9844ZM235.883 48L240.281 36.5469H241.914L246.602 48H244.875L243.539 44.5312H238.75L237.492 48H235.883ZM239.188 43.2969H243.07L241.875 40.125C241.51 39.1615 241.24 38.3698 241.062 37.75C240.917 38.4844 240.711 39.2135 240.445 39.9375L239.188 43.2969ZM249.477 48V37.8984H245.703V36.5469H254.781V37.8984H250.992V48H249.477ZM255.617 44.5625V43.1484H259.938V44.5625H255.617ZM260.734 39.7031H267.477V40.8672H264.805V48H263.406V40.8672H260.734V39.7031ZM274.312 45.3281L275.766 45.5078C275.536 46.3568 275.112 47.0156 274.492 47.4844C273.872 47.9531 273.081 48.1875 272.117 48.1875C270.904 48.1875 269.94 47.8151 269.227 47.0703C268.518 46.3203 268.164 45.2708 268.164 43.9219C268.164 42.526 268.523 41.4427 269.242 40.6719C269.961 39.901 270.893 39.5156 272.039 39.5156C273.148 39.5156 274.055 39.8932 274.758 40.6484C275.461 41.4036 275.812 42.4661 275.812 43.8359C275.812 43.9193 275.81 44.0443 275.805 44.2109H269.617C269.669 45.1224 269.927 45.8203 270.391 46.3047C270.854 46.7891 271.432 47.0312 272.125 47.0312C272.641 47.0312 273.081 46.8958 273.445 46.625C273.81 46.3542 274.099 45.9219 274.312 45.3281ZM269.695 43.0547H274.328C274.266 42.3568 274.089 41.8333 273.797 41.4844C273.349 40.9427 272.768 40.6719 272.055 40.6719C271.409 40.6719 270.865 40.888 270.422 41.3203C269.984 41.7526 269.742 42.3307 269.695 43.0547ZM282.953 44.9609L284.336 45.1406C284.185 46.0938 283.797 46.8411 283.172 47.3828C282.552 47.9193 281.789 48.1875 280.883 48.1875C279.747 48.1875 278.833 47.8177 278.141 47.0781C277.453 46.3333 277.109 45.2682 277.109 43.8828C277.109 42.987 277.258 42.2031 277.555 41.5312C277.852 40.8594 278.302 40.3568 278.906 40.0234C279.516 39.6849 280.177 39.5156 280.891 39.5156C281.792 39.5156 282.529 39.7448 283.102 40.2031C283.674 40.6562 284.042 41.3021 284.203 42.1406L282.836 42.3516C282.706 41.7943 282.474 41.375 282.141 41.0938C281.812 40.8125 281.414 40.6719 280.945 40.6719C280.237 40.6719 279.661 40.9271 279.219 41.4375C278.776 41.9427 278.555 42.7448 278.555 43.8438C278.555 44.9583 278.768 45.7682 279.195 46.2734C279.622 46.7786 280.18 47.0312 280.867 47.0312C281.419 47.0312 281.88 46.862 282.25 46.5234C282.62 46.1849 282.854 45.6641 282.953 44.9609ZM284.781 39.7031H291.523V40.8672H288.852V48H287.453V40.8672H284.781V39.7031ZM291.453 48V46.3984H293.055V48C293.055 48.5885 292.951 49.0625 292.742 49.4219C292.534 49.7865 292.203 50.0677 291.75 50.2656L291.359 49.6641C291.656 49.5339 291.875 49.3411 292.016 49.0859C292.156 48.8359 292.234 48.474 292.25 48H291.453ZM300.039 39.7031H301.445V46.8359H304.648V39.7031H306.055V46.8359H309.266V39.7031H310.664V48H300.039V39.7031ZM312.828 39.7031H314.234V43.2891C314.682 43.2891 314.995 43.2031 315.172 43.0312C315.354 42.8594 315.62 42.3594 315.969 41.5312C316.245 40.875 316.469 40.4427 316.641 40.2344C316.812 40.026 317.01 39.8854 317.234 39.8125C317.458 39.7396 317.818 39.7031 318.312 39.7031H318.594V40.8672L318.203 40.8594C317.833 40.8594 317.596 40.9141 317.492 41.0234C317.383 41.138 317.216 41.4792 316.992 42.0469C316.779 42.5885 316.583 42.9635 316.406 43.1719C316.229 43.3802 315.956 43.5703 315.586 43.7422C316.19 43.9036 316.784 44.4661 317.367 45.4297L318.906 48H317.359L315.859 45.4297C315.552 44.9141 315.284 44.5755 315.055 44.4141C314.826 44.2474 314.552 44.1641 314.234 44.1641V48H312.828V39.7031ZM325.609 46.9766C325.089 47.4193 324.586 47.7318 324.102 47.9141C323.622 48.0964 323.107 48.1875 322.555 48.1875C321.643 48.1875 320.943 47.9661 320.453 47.5234C319.964 47.0755 319.719 46.5052 319.719 45.8125C319.719 45.4062 319.81 45.0365 319.992 44.7031C320.18 44.3646 320.422 44.0938 320.719 43.8906C321.021 43.6875 321.359 43.5339 321.734 43.4297C322.01 43.3568 322.427 43.2865 322.984 43.2188C324.12 43.0833 324.956 42.9219 325.492 42.7344C325.497 42.5417 325.5 42.4193 325.5 42.3672C325.5 41.7943 325.367 41.3906 325.102 41.1562C324.742 40.8385 324.208 40.6797 323.5 40.6797C322.839 40.6797 322.349 40.7969 322.031 41.0312C321.719 41.2604 321.487 41.6693 321.336 42.2578L319.961 42.0703C320.086 41.4818 320.292 41.0078 320.578 40.6484C320.865 40.2839 321.279 40.0052 321.82 39.8125C322.362 39.6146 322.99 39.5156 323.703 39.5156C324.411 39.5156 324.987 39.599 325.43 39.7656C325.872 39.9323 326.198 40.1432 326.406 40.3984C326.615 40.6484 326.76 40.9661 326.844 41.3516C326.891 41.5911 326.914 42.0234 326.914 42.6484V44.5234C326.914 45.8307 326.943 46.6589 327 47.0078C327.062 47.3516 327.182 47.6823 327.359 48H325.891C325.745 47.7083 325.651 47.3672 325.609 46.9766ZM325.492 43.8359C324.982 44.0443 324.216 44.2214 323.195 44.3672C322.617 44.4505 322.208 44.5443 321.969 44.6484C321.729 44.7526 321.544 44.9062 321.414 45.1094C321.284 45.3073 321.219 45.5286 321.219 45.7734C321.219 46.1484 321.359 46.4609 321.641 46.7109C321.927 46.9609 322.344 47.0859 322.891 47.0859C323.432 47.0859 323.914 46.9688 324.336 46.7344C324.758 46.4948 325.068 46.1693 325.266 45.7578C325.417 45.4401 325.492 44.9714 325.492 44.3516V43.8359ZM329.789 39.7031H336.32V48H334.922V40.8672H331.195V45C331.195 45.9635 331.164 46.599 331.102 46.9062C331.039 47.2135 330.867 47.4818 330.586 47.7109C330.305 47.9401 329.898 48.0547 329.367 48.0547C329.039 48.0547 328.661 48.0339 328.234 47.9922V46.8203H328.852C329.143 46.8203 329.352 46.7917 329.477 46.7344C329.602 46.6719 329.685 46.5755 329.727 46.4453C329.768 46.3151 329.789 45.8906 329.789 45.1719V39.7031ZM343.859 46.9766C343.339 47.4193 342.836 47.7318 342.352 47.9141C341.872 48.0964 341.357 48.1875 340.805 48.1875C339.893 48.1875 339.193 47.9661 338.703 47.5234C338.214 47.0755 337.969 46.5052 337.969 45.8125C337.969 45.4062 338.06 45.0365 338.242 44.7031C338.43 44.3646 338.672 44.0938 338.969 43.8906C339.271 43.6875 339.609 43.5339 339.984 43.4297C340.26 43.3568 340.677 43.2865 341.234 43.2188C342.37 43.0833 343.206 42.9219 343.742 42.7344C343.747 42.5417 343.75 42.4193 343.75 42.3672C343.75 41.7943 343.617 41.3906 343.352 41.1562C342.992 40.8385 342.458 40.6797 341.75 40.6797C341.089 40.6797 340.599 40.7969 340.281 41.0312C339.969 41.2604 339.737 41.6693 339.586 42.2578L338.211 42.0703C338.336 41.4818 338.542 41.0078 338.828 40.6484C339.115 40.2839 339.529 40.0052 340.07 39.8125C340.612 39.6146 341.24 39.5156 341.953 39.5156C342.661 39.5156 343.237 39.599 343.68 39.7656C344.122 39.9323 344.448 40.1432 344.656 40.3984C344.865 40.6484 345.01 40.9661 345.094 41.3516C345.141 41.5911 345.164 42.0234 345.164 42.6484V44.5234C345.164 45.8307 345.193 46.6589 345.25 47.0078C345.312 47.3516 345.432 47.6823 345.609 48H344.141C343.995 47.7083 343.901 47.3672 343.859 46.9766ZM343.742 43.8359C343.232 44.0443 342.466 44.2214 341.445 44.3672C340.867 44.4505 340.458 44.5443 340.219 44.6484C339.979 44.7526 339.794 44.9062 339.664 45.1094C339.534 45.3073 339.469 45.5286 339.469 45.7734C339.469 46.1484 339.609 46.4609 339.891 46.7109C340.177 46.9609 340.594 47.0859 341.141 47.0859C341.682 47.0859 342.164 46.9688 342.586 46.7344C343.008 46.4948 343.318 46.1693 343.516 45.7578C343.667 45.4401 343.742 44.9714 343.742 44.3516V43.8359ZM351.805 48V39.7031H353.062V40.8672C353.323 40.4609 353.669 40.1354 354.102 39.8906C354.534 39.6406 355.026 39.5156 355.578 39.5156C356.193 39.5156 356.695 39.6432 357.086 39.8984C357.482 40.1536 357.76 40.5104 357.922 40.9688C358.578 40 359.432 39.5156 360.484 39.5156C361.307 39.5156 361.94 39.7448 362.383 40.2031C362.826 40.6562 363.047 41.3568 363.047 42.3047V48H361.648V42.7734C361.648 42.2109 361.602 41.8073 361.508 41.5625C361.419 41.3125 361.255 41.112 361.016 40.9609C360.776 40.8099 360.495 40.7344 360.172 40.7344C359.589 40.7344 359.104 40.9297 358.719 41.3203C358.333 41.7057 358.141 42.3255 358.141 43.1797V48H356.734V42.6094C356.734 41.9844 356.62 41.5156 356.391 41.2031C356.161 40.8906 355.786 40.7344 355.266 40.7344C354.87 40.7344 354.503 40.8385 354.164 41.0469C353.831 41.2552 353.589 41.5599 353.438 41.9609C353.286 42.362 353.211 42.9401 353.211 43.6953V48H351.805ZM365.266 48V36.5469H367.547L370.258 44.6562C370.508 45.4115 370.69 45.9766 370.805 46.3516C370.935 45.9349 371.138 45.3229 371.414 44.5156L374.156 36.5469H376.195V48H374.734V38.4141L371.406 48H370.039L366.727 38.25V48H365.266ZM378.664 48V36.5469H383.742C384.763 36.5469 385.539 36.651 386.07 36.8594C386.602 37.0625 387.026 37.4245 387.344 37.9453C387.661 38.4661 387.82 39.0417 387.82 39.6719C387.82 40.4844 387.557 41.1693 387.031 41.7266C386.505 42.2839 385.693 42.638 384.594 42.7891C384.995 42.9818 385.299 43.1719 385.508 43.3594C385.951 43.7656 386.37 44.2734 386.766 44.8828L388.758 48H386.852L385.336 45.6172C384.893 44.9297 384.529 44.4036 384.242 44.0391C383.956 43.6745 383.698 43.4193 383.469 43.2734C383.245 43.1276 383.016 43.026 382.781 42.9688C382.609 42.9323 382.328 42.9141 381.938 42.9141H380.18V48H378.664ZM380.18 41.6016H383.438C384.13 41.6016 384.672 41.5312 385.062 41.3906C385.453 41.2448 385.75 41.0156 385.953 40.7031C386.156 40.3854 386.258 40.0417 386.258 39.6719C386.258 39.1302 386.06 38.6849 385.664 38.3359C385.273 37.987 384.654 37.8125 383.805 37.8125H380.18V41.6016ZM398.375 43.9844L399.891 44.3672C399.573 45.612 399 46.5625 398.172 47.2188C397.349 47.8698 396.341 48.1953 395.148 48.1953C393.914 48.1953 392.909 47.9453 392.133 47.4453C391.362 46.9401 390.773 46.2109 390.367 45.2578C389.966 44.3047 389.766 43.2812 389.766 42.1875C389.766 40.9948 389.992 39.9557 390.445 39.0703C390.904 38.1797 391.552 37.5052 392.391 37.0469C393.234 36.5833 394.161 36.3516 395.172 36.3516C396.318 36.3516 397.281 36.6432 398.062 37.2266C398.844 37.8099 399.388 38.6302 399.695 39.6875L398.203 40.0391C397.938 39.2057 397.552 38.599 397.047 38.2188C396.542 37.8385 395.906 37.6484 395.141 37.6484C394.26 37.6484 393.523 37.8594 392.93 38.2812C392.341 38.7031 391.927 39.2708 391.688 39.9844C391.448 40.6927 391.328 41.4245 391.328 42.1797C391.328 43.1536 391.469 44.0052 391.75 44.7344C392.036 45.4583 392.479 46 393.078 46.3594C393.677 46.7188 394.326 46.8984 395.023 46.8984C395.872 46.8984 396.591 46.6536 397.18 46.1641C397.768 45.6745 398.167 44.9479 398.375 43.9844ZM401.953 48V46.3984H403.555V48C403.555 48.5885 403.451 49.0625 403.242 49.4219C403.034 49.7865 402.703 50.0677 402.25 50.2656L401.859 49.6641C402.156 49.5339 402.375 49.3411 402.516 49.0859C402.656 48.8359 402.734 48.474 402.75 48H401.953ZM101.188 69V57.5469H103.469L106.18 65.6562C106.43 66.4115 106.612 66.9766 106.727 67.3516C106.857 66.9349 107.06 66.3229 107.336 65.5156L110.078 57.5469H112.117V69H110.656V59.4141L107.328 69H105.961L102.648 59.25V69H101.188ZM114.383 60.7031H115.789V67.0312L119.688 60.7031H121.203V69H119.797V62.7109L115.898 69H114.383V60.7031ZM123.328 60.7031H124.734V64.1562H128.633V60.7031H130.039V69H128.633V65.3203H124.734V69H123.328V60.7031ZM132.172 60.7031H133.578V64.1562H137.477V60.7031H138.883V69H137.477V65.3203H133.578V69H132.172V60.7031ZM146.688 66.3281L148.141 66.5078C147.911 67.3568 147.487 68.0156 146.867 68.4844C146.247 68.9531 145.456 69.1875 144.492 69.1875C143.279 69.1875 142.315 68.8151 141.602 68.0703C140.893 67.3203 140.539 66.2708 140.539 64.9219C140.539 63.526 140.898 62.4427 141.617 61.6719C142.336 60.901 143.268 60.5156 144.414 60.5156C145.523 60.5156 146.43 60.8932 147.133 61.6484C147.836 62.4036 148.188 63.4661 148.188 64.8359C148.188 64.9193 148.185 65.0443 148.18 65.2109H141.992C142.044 66.1224 142.302 66.8203 142.766 67.3047C143.229 67.7891 143.807 68.0312 144.5 68.0312C145.016 68.0312 145.456 67.8958 145.82 67.625C146.185 67.3542 146.474 66.9219 146.688 66.3281ZM142.07 64.0547H146.703C146.641 63.3568 146.464 62.8333 146.172 62.4844C145.724 61.9427 145.143 61.6719 144.43 61.6719C143.784 61.6719 143.24 61.888 142.797 62.3203C142.359 62.7526 142.117 63.3307 142.07 64.0547ZM155.328 65.9609L156.711 66.1406C156.56 67.0938 156.172 67.8411 155.547 68.3828C154.927 68.9193 154.164 69.1875 153.258 69.1875C152.122 69.1875 151.208 68.8177 150.516 68.0781C149.828 67.3333 149.484 66.2682 149.484 64.8828C149.484 63.987 149.633 63.2031 149.93 62.5312C150.227 61.8594 150.677 61.3568 151.281 61.0234C151.891 60.6849 152.552 60.5156 153.266 60.5156C154.167 60.5156 154.904 60.7448 155.477 61.2031C156.049 61.6562 156.417 62.3021 156.578 63.1406L155.211 63.3516C155.081 62.7943 154.849 62.375 154.516 62.0938C154.188 61.8125 153.789 61.6719 153.32 61.6719C152.612 61.6719 152.036 61.9271 151.594 62.4375C151.151 62.9427 150.93 63.7448 150.93 64.8438C150.93 65.9583 151.143 66.7682 151.57 67.2734C151.997 67.7786 152.555 68.0312 153.242 68.0312C153.794 68.0312 154.255 67.862 154.625 67.5234C154.995 67.1849 155.229 66.6641 155.328 65.9609ZM157.578 64.8516C157.578 63.3151 158.005 62.1771 158.859 61.4375C159.573 60.8229 160.443 60.5156 161.469 60.5156C162.609 60.5156 163.542 60.8906 164.266 61.6406C164.99 62.3854 165.352 63.4167 165.352 64.7344C165.352 65.8021 165.19 66.6432 164.867 67.2578C164.549 67.8672 164.083 68.3411 163.469 68.6797C162.859 69.0182 162.193 69.1875 161.469 69.1875C160.307 69.1875 159.367 68.8151 158.648 68.0703C157.935 67.3255 157.578 66.2526 157.578 64.8516ZM159.023 64.8516C159.023 65.9141 159.255 66.7109 159.719 67.2422C160.182 67.7682 160.766 68.0312 161.469 68.0312C162.167 68.0312 162.747 67.7656 163.211 67.2344C163.674 66.7031 163.906 65.8932 163.906 64.8047C163.906 63.7786 163.672 63.0026 163.203 62.4766C162.74 61.9453 162.161 61.6797 161.469 61.6797C160.766 61.6797 160.182 61.9427 159.719 62.4688C159.255 62.9948 159.023 63.7891 159.023 64.8516ZM165.891 60.7031H172.633V61.8672H169.961V69H168.562V61.8672H165.891V60.7031ZM179.203 65.9609L180.586 66.1406C180.435 67.0938 180.047 67.8411 179.422 68.3828C178.802 68.9193 178.039 69.1875 177.133 69.1875C175.997 69.1875 175.083 68.8177 174.391 68.0781C173.703 67.3333 173.359 66.2682 173.359 64.8828C173.359 63.987 173.508 63.2031 173.805 62.5312C174.102 61.8594 174.552 61.3568 175.156 61.0234C175.766 60.6849 176.427 60.5156 177.141 60.5156C178.042 60.5156 178.779 60.7448 179.352 61.2031C179.924 61.6562 180.292 62.3021 180.453 63.1406L179.086 63.3516C178.956 62.7943 178.724 62.375 178.391 62.0938C178.062 61.8125 177.664 61.6719 177.195 61.6719C176.487 61.6719 175.911 61.9271 175.469 62.4375C175.026 62.9427 174.805 63.7448 174.805 64.8438C174.805 65.9583 175.018 66.7682 175.445 67.2734C175.872 67.7786 176.43 68.0312 177.117 68.0312C177.669 68.0312 178.13 67.862 178.5 67.5234C178.87 67.1849 179.104 66.6641 179.203 65.9609ZM181.781 60.7031H183.188V64.2891C183.635 64.2891 183.948 64.2031 184.125 64.0312C184.307 63.8594 184.573 63.3594 184.922 62.5312C185.198 61.875 185.422 61.4427 185.594 61.2344C185.766 61.026 185.964 60.8854 186.188 60.8125C186.411 60.7396 186.771 60.7031 187.266 60.7031H187.547V61.8672L187.156 61.8594C186.786 61.8594 186.549 61.9141 186.445 62.0234C186.336 62.138 186.169 62.4792 185.945 63.0469C185.732 63.5885 185.536 63.9635 185.359 64.1719C185.182 64.3802 184.909 64.5703 184.539 64.7422C185.143 64.9036 185.737 65.4661 186.32 66.4297L187.859 69H186.312L184.812 66.4297C184.505 65.9141 184.237 65.5755 184.008 65.4141C183.779 65.2474 183.505 65.1641 183.188 65.1641V69H181.781V60.7031ZM188.789 60.7031H190.195V67.0312L194.094 60.7031H195.609V69H194.203V62.7109L190.305 69H188.789V60.7031ZM197.727 60.7031H199.133V67.0312L203.031 60.7031H204.547V69H203.141V62.7109L199.242 69H197.727V60.7031ZM202.609 57.5625H203.57C203.492 58.2135 203.253 58.7135 202.852 59.0625C202.456 59.4115 201.927 59.5859 201.266 59.5859C200.599 59.5859 200.065 59.4141 199.664 59.0703C199.268 58.7214 199.031 58.2188 198.953 57.5625H199.914C199.987 57.9167 200.13 58.1823 200.344 58.3594C200.562 58.5312 200.854 58.6172 201.219 58.6172C201.641 58.6172 201.958 58.5339 202.172 58.3672C202.391 58.1953 202.536 57.9271 202.609 57.5625ZM210.594 64.8516C210.594 63.3151 211.021 62.1771 211.875 61.4375C212.589 60.8229 213.458 60.5156 214.484 60.5156C215.625 60.5156 216.557 60.8906 217.281 61.6406C218.005 62.3854 218.367 63.4167 218.367 64.7344C218.367 65.8021 218.206 66.6432 217.883 67.2578C217.565 67.8672 217.099 68.3411 216.484 68.6797C215.875 69.0182 215.208 69.1875 214.484 69.1875C213.323 69.1875 212.383 68.8151 211.664 68.0703C210.951 67.3255 210.594 66.2526 210.594 64.8516ZM212.039 64.8516C212.039 65.9141 212.271 66.7109 212.734 67.2422C213.198 67.7682 213.781 68.0312 214.484 68.0312C215.182 68.0312 215.763 67.7656 216.227 67.2344C216.69 66.7031 216.922 65.8932 216.922 64.8047C216.922 63.7786 216.688 63.0026 216.219 62.4766C215.755 61.9453 215.177 61.6797 214.484 61.6797C213.781 61.6797 213.198 61.9427 212.734 62.4688C212.271 62.9948 212.039 63.7891 212.039 64.8516ZM220.031 60.7031H226.578V69H225.172V61.8672H221.438V69H220.031V60.7031ZM228.695 72.1797V60.7031H229.977V61.7812C230.279 61.3594 230.62 61.0443 231 60.8359C231.38 60.6224 231.841 60.5156 232.383 60.5156C233.091 60.5156 233.716 60.6979 234.258 61.0625C234.799 61.4271 235.208 61.9427 235.484 62.6094C235.76 63.2708 235.898 63.9974 235.898 64.7891C235.898 65.638 235.745 66.4036 235.438 67.0859C235.135 67.763 234.693 68.2839 234.109 68.6484C233.531 69.0078 232.922 69.1875 232.281 69.1875C231.812 69.1875 231.391 69.0885 231.016 68.8906C230.646 68.6927 230.341 68.4427 230.102 68.1406V72.1797H228.695ZM229.969 64.8984C229.969 65.9661 230.185 66.7552 230.617 67.2656C231.049 67.776 231.573 68.0312 232.188 68.0312C232.812 68.0312 233.346 67.7682 233.789 67.2422C234.237 66.7109 234.461 65.8906 234.461 64.7812C234.461 63.724 234.242 62.9323 233.805 62.4062C233.372 61.8802 232.854 61.6172 232.25 61.6172C231.651 61.6172 231.12 61.8984 230.656 62.4609C230.198 63.0182 229.969 63.8307 229.969 64.8984ZM237.078 64.8516C237.078 63.3151 237.505 62.1771 238.359 61.4375C239.073 60.8229 239.943 60.5156 240.969 60.5156C242.109 60.5156 243.042 60.8906 243.766 61.6406C244.49 62.3854 244.852 63.4167 244.852 64.7344C244.852 65.8021 244.69 66.6432 244.367 67.2578C244.049 67.8672 243.583 68.3411 242.969 68.6797C242.359 69.0182 241.693 69.1875 240.969 69.1875C239.807 69.1875 238.867 68.8151 238.148 68.0703C237.435 67.3255 237.078 66.2526 237.078 64.8516ZM238.523 64.8516C238.523 65.9141 238.755 66.7109 239.219 67.2422C239.682 67.7682 240.266 68.0312 240.969 68.0312C241.667 68.0312 242.247 67.7656 242.711 67.2344C243.174 66.7031 243.406 65.8932 243.406 64.8047C243.406 63.7786 243.172 63.0026 242.703 62.4766C242.24 61.9453 241.661 61.6797 240.969 61.6797C240.266 61.6797 239.682 61.9427 239.219 62.4688C238.755 62.9948 238.523 63.7891 238.523 64.8516ZM251.922 65.9609L253.305 66.1406C253.154 67.0938 252.766 67.8411 252.141 68.3828C251.521 68.9193 250.758 69.1875 249.852 69.1875C248.716 69.1875 247.802 68.8177 247.109 68.0781C246.422 67.3333 246.078 66.2682 246.078 64.8828C246.078 63.987 246.227 63.2031 246.523 62.5312C246.82 61.8594 247.271 61.3568 247.875 61.0234C248.484 60.6849 249.146 60.5156 249.859 60.5156C250.76 60.5156 251.497 60.7448 252.07 61.2031C252.643 61.6562 253.01 62.3021 253.172 63.1406L251.805 63.3516C251.674 62.7943 251.443 62.375 251.109 62.0938C250.781 61.8125 250.383 61.6719 249.914 61.6719C249.206 61.6719 248.63 61.9271 248.188 62.4375C247.745 62.9427 247.523 63.7448 247.523 64.8438C247.523 65.9583 247.737 66.7682 248.164 67.2734C248.591 67.7786 249.148 68.0312 249.836 68.0312C250.388 68.0312 250.849 67.862 251.219 67.5234C251.589 67.1849 251.823 66.6641 251.922 65.9609ZM254.516 60.7031H255.922V64.1562H259.82V60.7031H261.227V69H259.82V65.3203H255.922V69H254.516V60.7031ZM263.352 60.7031H264.758V67.0312L268.656 60.7031H270.172V69H268.766V62.7109L264.867 69H263.352V60.7031ZM272.281 60.7031H273.688V64.2891C274.135 64.2891 274.448 64.2031 274.625 64.0312C274.807 63.8594 275.073 63.3594 275.422 62.5312C275.698 61.875 275.922 61.4427 276.094 61.2344C276.266 61.026 276.464 60.8854 276.688 60.8125C276.911 60.7396 277.271 60.7031 277.766 60.7031H278.047V61.8672L277.656 61.8594C277.286 61.8594 277.049 61.9141 276.945 62.0234C276.836 62.138 276.669 62.4792 276.445 63.0469C276.232 63.5885 276.036 63.9635 275.859 64.1719C275.682 64.3802 275.409 64.5703 275.039 64.7422C275.643 64.9036 276.237 65.4661 276.82 66.4297L278.359 69H276.812L275.312 66.4297C275.005 65.9141 274.737 65.5755 274.508 65.4141C274.279 65.2474 274.005 65.1641 273.688 65.1641V69H272.281V60.7031ZM280.211 72.3672H279.203C280.76 69.8672 281.539 67.3646 281.539 64.8594C281.539 63.8802 281.427 62.9089 281.203 61.9453C281.026 61.1641 280.779 60.4141 280.461 59.6953C280.258 59.2266 279.839 58.4453 279.203 57.3516H280.211C281.19 58.6589 281.914 59.9714 282.383 61.2891C282.784 62.4245 282.984 63.612 282.984 64.8516C282.984 66.2578 282.714 67.6172 282.172 68.9297C281.635 70.2422 280.982 71.388 280.211 72.3672ZM285.016 69V67.3984H286.617V69H285.016Z" fill="black"/>
<defs>
<linearGradient id="paint0_linear_12_254" x1="0" y1="42.5" x2="540" y2="42.5" gradientUnits="userSpaceOnUse">
<stop stop-color="#9E9E9D"/>
<stop offset="1" stop-color="#DCDCDC"/>
</linearGradient>
</defs>
</svg>
