<svg width="540" height="85" viewBox="0 0 540 85" fill="none" xmlns="http://www.w3.org/2000/svg">
<rect width="540" height="85" rx="42.5" fill="url(#paint0_linear_12_230)"/>
<circle cx="42.5" cy="42.5" r="42.5" fill="#BB1F2B"/>
<path d="M40.25 48.9584C39.8963 48.9313 39.5672 48.7668 39.3333 48.5L33.8333 43C33.7108 42.7435 33.6708 42.4552 33.7189 42.175C33.767 41.8947 33.9008 41.6363 34.1018 41.4352C34.3029 41.2341 34.5613 41.1004 34.8416 41.0523C35.1218 41.0042 35.4101 41.0442 35.6667 41.1667L40.195 45.695L55.8333 30.1667C56.0899 30.0442 56.3782 30.0042 56.6584 30.0523C56.9387 30.1004 57.1971 30.2341 57.3982 30.4352C57.5992 30.6363 57.733 30.8947 57.7811 31.175C57.8292 31.4552 57.7892 31.7435 57.6667 32L41.1667 48.5C40.9328 48.7668 40.6037 48.9313 40.25 48.9584Z" fill="white"/>
<path d="M43 59.5C40.051 59.4953 37.1572 58.7003 34.6197 57.1978C32.0822 55.6953 29.9937 53.5402 28.5717 50.9567C27.4907 49.0317 26.8226 46.9025 26.61 44.705C26.2745 41.4822 26.8953 38.2319 28.395 35.3596C29.8947 32.4872 32.207 30.1201 35.0433 28.5534C36.9684 27.4724 39.0975 26.8043 41.295 26.5917C43.4843 26.3562 45.6986 26.5683 47.8033 27.215C47.9912 27.2526 48.1691 27.3289 48.3257 27.4392C48.4823 27.5495 48.6141 27.6913 48.7128 27.8556C48.8114 28.0198 48.8746 28.2028 48.8983 28.3929C48.9221 28.583 48.9058 28.7759 48.8507 28.9593C48.7955 29.1428 48.7026 29.3127 48.578 29.4581C48.4534 29.6036 48.2997 29.7214 48.1269 29.804C47.954 29.8866 47.7659 29.9322 47.5744 29.9378C47.3829 29.9434 47.1924 29.909 47.015 29.8367C45.2341 29.3012 43.3642 29.1267 41.515 29.3234C39.6872 29.5105 37.9161 30.0656 36.3083 30.955C34.7594 31.8096 33.3899 32.9549 32.275 34.3284C31.1271 35.7275 30.2699 37.3416 29.7536 39.0762C29.2373 40.8108 29.0723 42.6309 29.2683 44.43C29.4555 46.2579 30.0105 48.029 30.9 49.6367C31.7545 51.1856 32.8999 52.5551 34.2733 53.67C35.6725 54.818 37.2866 55.6752 39.0211 56.1914C40.7557 56.7077 42.5759 56.8727 44.375 56.6767C46.2028 56.4895 47.9739 55.9345 49.5817 55.045C51.1306 54.1905 52.5001 53.0451 53.615 51.6717C54.7629 50.2726 55.6201 48.6585 56.1364 46.9239C56.6527 45.1893 56.8177 43.3692 56.6217 41.57C56.5852 41.1883 56.7018 40.8078 56.946 40.5121C57.1901 40.2164 57.5416 40.0298 57.9233 39.9934C58.305 39.9569 58.6856 40.0736 58.9813 40.3177C59.2769 40.5618 59.4635 40.9133 59.5 41.295C59.8338 44.5198 59.2103 47.7715 57.7072 50.644C56.2041 53.5165 53.8881 55.8825 51.0483 57.4467C49.1028 58.5719 46.9408 59.2717 44.705 59.5H43Z" fill="white"/>
<path d="M101.258 15.5469H102.773V20.5625C103.466 20.5625 103.953 20.4297 104.234 20.1641C104.516 19.8932 104.875 19.2474 105.312 18.2266C105.63 17.4766 105.891 16.9479 106.094 16.6406C106.302 16.3281 106.596 16.0677 106.977 15.8594C107.357 15.6458 107.776 15.5391 108.234 15.5391C108.818 15.5391 109.125 15.5443 109.156 15.5547V16.8672C109.104 16.8672 109.003 16.8646 108.852 16.8594C108.685 16.8542 108.583 16.8516 108.547 16.8516C108.062 16.8516 107.703 16.9688 107.469 17.2031C107.229 17.4375 106.956 17.9375 106.648 18.7031C106.263 19.6719 105.938 20.2839 105.672 20.5391C105.406 20.7891 105.089 20.9896 104.719 21.1406C105.458 21.3438 106.188 22.026 106.906 23.1875L109.266 27H107.383L105.469 23.8906C104.943 23.0312 104.503 22.4427 104.148 22.125C103.794 21.8021 103.336 21.6406 102.773 21.6406V27H101.258V15.5469ZM111.07 18.7031H117.602V27H116.203V19.8672H112.477V24C112.477 24.9635 112.445 25.599 112.383 25.9062C112.32 26.2135 112.148 26.4818 111.867 26.7109C111.586 26.9401 111.18 27.0547 110.648 27.0547C110.32 27.0547 109.943 27.0339 109.516 26.9922V25.8203H110.133C110.424 25.8203 110.633 25.7917 110.758 25.7344C110.883 25.6719 110.966 25.5755 111.008 25.4453C111.049 25.3151 111.07 24.8906 111.07 24.1719V18.7031ZM119.727 18.7031H121.133V25.0312L125.031 18.7031H126.547V27H125.141V20.7109L121.242 27H119.727V18.7031ZM128.672 18.7031H130.078V22.1562H133.977V18.7031H135.383V27H133.977V23.3203H130.078V27H128.672V18.7031ZM137.508 18.7031H138.914V25.0312L142.812 18.7031H144.328V27H142.922V20.7109L139.023 27H137.508V18.7031ZM145.93 18.7031H147.336V20.2734C147.336 20.9505 147.375 21.4427 147.453 21.75C147.536 22.0521 147.732 22.3177 148.039 22.5469C148.346 22.7708 148.732 22.8828 149.195 22.8828C149.727 22.8828 150.414 22.7422 151.258 22.4609V18.7031H152.664V27H151.258V23.6562C150.393 23.9271 149.586 24.0625 148.836 24.0625C148.206 24.0625 147.648 23.9036 147.164 23.5859C146.685 23.263 146.359 22.8698 146.188 22.4062C146.016 21.9427 145.93 21.4323 145.93 20.875V18.7031ZM160.469 24.3281L161.922 24.5078C161.693 25.3568 161.268 26.0156 160.648 26.4844C160.029 26.9531 159.237 27.1875 158.273 27.1875C157.06 27.1875 156.096 26.8151 155.383 26.0703C154.674 25.3203 154.32 24.2708 154.32 22.9219C154.32 21.526 154.68 20.4427 155.398 19.6719C156.117 18.901 157.049 18.5156 158.195 18.5156C159.305 18.5156 160.211 18.8932 160.914 19.6484C161.617 20.4036 161.969 21.4661 161.969 22.8359C161.969 22.9193 161.966 23.0443 161.961 23.2109H155.773C155.826 24.1224 156.083 24.8203 156.547 25.3047C157.01 25.7891 157.589 26.0312 158.281 26.0312C158.797 26.0312 159.237 25.8958 159.602 25.625C159.966 25.3542 160.255 24.9219 160.469 24.3281ZM155.852 22.0547H160.484C160.422 21.3568 160.245 20.8333 159.953 20.4844C159.505 19.9427 158.924 19.6719 158.211 19.6719C157.565 19.6719 157.021 19.888 156.578 20.3203C156.141 20.7526 155.898 21.3307 155.852 22.0547ZM169.109 23.9609L170.492 24.1406C170.341 25.0938 169.953 25.8411 169.328 26.3828C168.708 26.9193 167.945 27.1875 167.039 27.1875C165.904 27.1875 164.99 26.8177 164.297 26.0781C163.609 25.3333 163.266 24.2682 163.266 22.8828C163.266 21.987 163.414 21.2031 163.711 20.5312C164.008 19.8594 164.458 19.3568 165.062 19.0234C165.672 18.6849 166.333 18.5156 167.047 18.5156C167.948 18.5156 168.685 18.7448 169.258 19.2031C169.831 19.6562 170.198 20.3021 170.359 21.1406L168.992 21.3516C168.862 20.7943 168.63 20.375 168.297 20.0938C167.969 19.8125 167.57 19.6719 167.102 19.6719C166.393 19.6719 165.818 19.9271 165.375 20.4375C164.932 20.9427 164.711 21.7448 164.711 22.8438C164.711 23.9583 164.924 24.7682 165.352 25.2734C165.779 25.7786 166.336 26.0312 167.023 26.0312C167.576 26.0312 168.036 25.862 168.406 25.5234C168.776 25.1849 169.01 24.6641 169.109 23.9609ZM171.688 18.7031H173.094V22.2891C173.542 22.2891 173.854 22.2031 174.031 22.0312C174.214 21.8594 174.479 21.3594 174.828 20.5312C175.104 19.875 175.328 19.4427 175.5 19.2344C175.672 19.026 175.87 18.8854 176.094 18.8125C176.318 18.7396 176.677 18.7031 177.172 18.7031H177.453V19.8672L177.062 19.8594C176.693 19.8594 176.456 19.9141 176.352 20.0234C176.242 20.138 176.076 20.4792 175.852 21.0469C175.638 21.5885 175.443 21.9635 175.266 22.1719C175.089 22.3802 174.815 22.5703 174.445 22.7422C175.049 22.9036 175.643 23.4661 176.227 24.4297L177.766 27H176.219L174.719 24.4297C174.411 23.9141 174.143 23.5755 173.914 23.4141C173.685 23.2474 173.411 23.1641 173.094 23.1641V27H171.688V18.7031ZM178.359 22.8516C178.359 21.3151 178.786 20.1771 179.641 19.4375C180.354 18.8229 181.224 18.5156 182.25 18.5156C183.391 18.5156 184.323 18.8906 185.047 19.6406C185.771 20.3854 186.133 21.4167 186.133 22.7344C186.133 23.8021 185.971 24.6432 185.648 25.2578C185.331 25.8672 184.865 26.3411 184.25 26.6797C183.641 27.0182 182.974 27.1875 182.25 27.1875C181.089 27.1875 180.148 26.8151 179.43 26.0703C178.716 25.3255 178.359 24.2526 178.359 22.8516ZM179.805 22.8516C179.805 23.9141 180.036 24.7109 180.5 25.2422C180.964 25.7682 181.547 26.0312 182.25 26.0312C182.948 26.0312 183.529 25.7656 183.992 25.2344C184.456 24.7031 184.688 23.8932 184.688 22.8047C184.688 21.7786 184.453 21.0026 183.984 20.4766C183.521 19.9453 182.943 19.6797 182.25 19.6797C181.547 19.6797 180.964 19.9427 180.5 20.4688C180.036 20.9948 179.805 21.7891 179.805 22.8516ZM193.469 24.3281L194.922 24.5078C194.693 25.3568 194.268 26.0156 193.648 26.4844C193.029 26.9531 192.237 27.1875 191.273 27.1875C190.06 27.1875 189.096 26.8151 188.383 26.0703C187.674 25.3203 187.32 24.2708 187.32 22.9219C187.32 21.526 187.68 20.4427 188.398 19.6719C189.117 18.901 190.049 18.5156 191.195 18.5156C192.305 18.5156 193.211 18.8932 193.914 19.6484C194.617 20.4036 194.969 21.4661 194.969 22.8359C194.969 22.9193 194.966 23.0443 194.961 23.2109H188.773C188.826 24.1224 189.083 24.8203 189.547 25.3047C190.01 25.7891 190.589 26.0312 191.281 26.0312C191.797 26.0312 192.237 25.8958 192.602 25.625C192.966 25.3542 193.255 24.9219 193.469 24.3281ZM188.852 22.0547H193.484C193.422 21.3568 193.245 20.8333 192.953 20.4844C192.505 19.9427 191.924 19.6719 191.211 19.6719C190.565 19.6719 190.021 19.888 189.578 20.3203C189.141 20.7526 188.898 21.3307 188.852 22.0547ZM200.391 18.7031H207.133V19.8672H204.461V27H203.062V19.8672H200.391V18.7031ZM213.969 24.3281L215.422 24.5078C215.193 25.3568 214.768 26.0156 214.148 26.4844C213.529 26.9531 212.737 27.1875 211.773 27.1875C210.56 27.1875 209.596 26.8151 208.883 26.0703C208.174 25.3203 207.82 24.2708 207.82 22.9219C207.82 21.526 208.18 20.4427 208.898 19.6719C209.617 18.901 210.549 18.5156 211.695 18.5156C212.805 18.5156 213.711 18.8932 214.414 19.6484C215.117 20.4036 215.469 21.4661 215.469 22.8359C215.469 22.9193 215.466 23.0443 215.461 23.2109H209.273C209.326 24.1224 209.583 24.8203 210.047 25.3047C210.51 25.7891 211.089 26.0312 211.781 26.0312C212.297 26.0312 212.737 25.8958 213.102 25.625C213.466 25.3542 213.755 24.9219 213.969 24.3281ZM209.352 22.0547H213.984C213.922 21.3568 213.745 20.8333 213.453 20.4844C213.005 19.9427 212.424 19.6719 211.711 19.6719C211.065 19.6719 210.521 19.888 210.078 20.3203C209.641 20.7526 209.398 21.3307 209.352 22.0547ZM216.148 18.7031H217.555V20.2734C217.555 20.9505 217.594 21.4427 217.672 21.75C217.755 22.0521 217.951 22.3177 218.258 22.5469C218.565 22.7708 218.951 22.8828 219.414 22.8828C219.945 22.8828 220.633 22.7422 221.477 22.4609V18.7031H222.883V27H221.477V23.6562C220.612 23.9271 219.805 24.0625 219.055 24.0625C218.424 24.0625 217.867 23.9036 217.383 23.5859C216.904 23.263 216.578 22.8698 216.406 22.4062C216.234 21.9427 216.148 21.4323 216.148 20.875V18.7031ZM230.688 24.3281L232.141 24.5078C231.911 25.3568 231.487 26.0156 230.867 26.4844C230.247 26.9531 229.456 27.1875 228.492 27.1875C227.279 27.1875 226.315 26.8151 225.602 26.0703C224.893 25.3203 224.539 24.2708 224.539 22.9219C224.539 21.526 224.898 20.4427 225.617 19.6719C226.336 18.901 227.268 18.5156 228.414 18.5156C229.523 18.5156 230.43 18.8932 231.133 19.6484C231.836 20.4036 232.188 21.4661 232.188 22.8359C232.188 22.9193 232.185 23.0443 232.18 23.2109H225.992C226.044 24.1224 226.302 24.8203 226.766 25.3047C227.229 25.7891 227.807 26.0312 228.5 26.0312C229.016 26.0312 229.456 25.8958 229.82 25.625C230.185 25.3542 230.474 24.9219 230.688 24.3281ZM226.07 22.0547H230.703C230.641 21.3568 230.464 20.8333 230.172 20.4844C229.724 19.9427 229.143 19.6719 228.43 19.6719C227.784 19.6719 227.24 19.888 226.797 20.3203C226.359 20.7526 226.117 21.3307 226.07 22.0547ZM233.922 18.7031H235.328V22.1562H239.227V18.7031H240.633V27H239.227V23.3203H235.328V27H233.922V18.7031ZM242.758 18.7031H244.164V25.0312L248.062 18.7031H249.578V27H248.172V20.7109L244.273 27H242.758V18.7031ZM257.375 24.3281L258.828 24.5078C258.599 25.3568 258.174 26.0156 257.555 26.4844C256.935 26.9531 256.143 27.1875 255.18 27.1875C253.966 27.1875 253.003 26.8151 252.289 26.0703C251.581 25.3203 251.227 24.2708 251.227 22.9219C251.227 21.526 251.586 20.4427 252.305 19.6719C253.023 18.901 253.956 18.5156 255.102 18.5156C256.211 18.5156 257.117 18.8932 257.82 19.6484C258.523 20.4036 258.875 21.4661 258.875 22.8359C258.875 22.9193 258.872 23.0443 258.867 23.2109H252.68C252.732 24.1224 252.99 24.8203 253.453 25.3047C253.917 25.7891 254.495 26.0312 255.188 26.0312C255.703 26.0312 256.143 25.8958 256.508 25.625C256.872 25.3542 257.161 24.9219 257.375 24.3281ZM252.758 22.0547H257.391C257.328 21.3568 257.151 20.8333 256.859 20.4844C256.411 19.9427 255.831 19.6719 255.117 19.6719C254.471 19.6719 253.927 19.888 253.484 20.3203C253.047 20.7526 252.805 21.3307 252.758 22.0547ZM264.07 27L268.5 21.0312L264.594 15.5469H266.398L268.477 18.4844C268.909 19.0938 269.216 19.5625 269.398 19.8906C269.654 19.474 269.956 19.0391 270.305 18.5859L272.609 15.5469H274.258L270.234 20.9453L274.57 27H272.695L269.812 22.9141C269.651 22.6797 269.484 22.4245 269.312 22.1484C269.057 22.5651 268.875 22.8516 268.766 23.0078L265.891 27H264.07ZM283.547 22.9844L285.062 23.3672C284.745 24.612 284.172 25.5625 283.344 26.2188C282.521 26.8698 281.513 27.1953 280.32 27.1953C279.086 27.1953 278.081 26.9453 277.305 26.4453C276.534 25.9401 275.945 25.2109 275.539 24.2578C275.138 23.3047 274.938 22.2812 274.938 21.1875C274.938 19.9948 275.164 18.9557 275.617 18.0703C276.076 17.1797 276.724 16.5052 277.562 16.0469C278.406 15.5833 279.333 15.3516 280.344 15.3516C281.49 15.3516 282.453 15.6432 283.234 16.2266C284.016 16.8099 284.56 17.6302 284.867 18.6875L283.375 19.0391C283.109 18.2057 282.724 17.599 282.219 17.2188C281.714 16.8385 281.078 16.6484 280.312 16.6484C279.432 16.6484 278.695 16.8594 278.102 17.2812C277.513 17.7031 277.099 18.2708 276.859 18.9844C276.62 19.6927 276.5 20.4245 276.5 21.1797C276.5 22.1536 276.641 23.0052 276.922 23.7344C277.208 24.4583 277.651 25 278.25 25.3594C278.849 25.7188 279.497 25.8984 280.195 25.8984C281.044 25.8984 281.763 25.6536 282.352 25.1641C282.94 24.6745 283.339 23.9479 283.547 22.9844ZM286.984 27V15.5469H288.5V20.25H294.453V15.5469H295.969V27H294.453V21.6016H288.5V27H286.984ZM298.711 20.3047V18.7031H300.312V20.3047H298.711ZM298.711 27V25.3984H300.312V27H298.711ZM307.367 27.125V26.5312C307.987 26.8385 308.419 27.0703 308.664 27.2266C308.909 27.3828 309.281 27.6589 309.781 28.0547V16.5391H310.57V28.0547C311.133 27.5182 311.938 27.0052 312.984 26.5156V27.1172C312.234 27.7891 311.664 28.3672 311.273 28.8516C310.888 29.3359 310.573 29.8359 310.328 30.3516H309.969C309.776 29.9036 309.482 29.4271 309.086 28.9219C308.695 28.4167 308.122 27.8177 307.367 27.125ZM325.094 23.9609L326.477 24.1406C326.326 25.0938 325.938 25.8411 325.312 26.3828C324.693 26.9193 323.93 27.1875 323.023 27.1875C321.888 27.1875 320.974 26.8177 320.281 26.0781C319.594 25.3333 319.25 24.2682 319.25 22.8828C319.25 21.987 319.398 21.2031 319.695 20.5312C319.992 19.8594 320.443 19.3568 321.047 19.0234C321.656 18.6849 322.318 18.5156 323.031 18.5156C323.932 18.5156 324.669 18.7448 325.242 19.2031C325.815 19.6562 326.182 20.3021 326.344 21.1406L324.977 21.3516C324.846 20.7943 324.615 20.375 324.281 20.0938C323.953 19.8125 323.555 19.6719 323.086 19.6719C322.378 19.6719 321.802 19.9271 321.359 20.4375C320.917 20.9427 320.695 21.7448 320.695 22.8438C320.695 23.9583 320.909 24.7682 321.336 25.2734C321.763 25.7786 322.32 26.0312 323.008 26.0312C323.56 26.0312 324.021 25.862 324.391 25.5234C324.76 25.1849 324.995 24.6641 325.094 23.9609ZM327.68 18.7031H329.086V25.0312L332.984 18.7031H334.5V27H333.094V20.7109L329.195 27H327.68V18.7031ZM336.656 18.7031H338.844L341.023 25.3438L343.445 18.7031H345.469V27H344.062V20.3203L341.609 27H340.352L338.031 20V27H336.656V18.7031ZM347.625 18.7031H354.172V27H352.766V19.8672H349.031V27H347.625V18.7031ZM355.531 18.7031H362.273V19.8672H359.602V27H358.203V19.8672H355.531V18.7031ZM362.906 22.8516C362.906 21.3151 363.333 20.1771 364.188 19.4375C364.901 18.8229 365.771 18.5156 366.797 18.5156C367.938 18.5156 368.87 18.8906 369.594 19.6406C370.318 20.3854 370.68 21.4167 370.68 22.7344C370.68 23.8021 370.518 24.6432 370.195 25.2578C369.878 25.8672 369.411 26.3411 368.797 26.6797C368.188 27.0182 367.521 27.1875 366.797 27.1875C365.635 27.1875 364.695 26.8151 363.977 26.0703C363.263 25.3255 362.906 24.2526 362.906 22.8516ZM364.352 22.8516C364.352 23.9141 364.583 24.7109 365.047 25.2422C365.51 25.7682 366.094 26.0312 366.797 26.0312C367.495 26.0312 368.076 25.7656 368.539 25.2344C369.003 24.7031 369.234 23.8932 369.234 22.8047C369.234 21.7786 369 21.0026 368.531 20.4766C368.068 19.9453 367.49 19.6797 366.797 19.6797C366.094 19.6797 365.51 19.9427 365.047 20.4688C364.583 20.9948 364.352 21.7891 364.352 22.8516ZM372.375 18.7031H374.562L376.742 25.3438L379.164 18.7031H381.188V27H379.781V20.3203L377.328 27H376.07L373.75 20V27H372.375V18.7031ZM382.812 22.8516C382.812 21.3151 383.24 20.1771 384.094 19.4375C384.807 18.8229 385.677 18.5156 386.703 18.5156C387.844 18.5156 388.776 18.8906 389.5 19.6406C390.224 20.3854 390.586 21.4167 390.586 22.7344C390.586 23.8021 390.424 24.6432 390.102 25.2578C389.784 25.8672 389.318 26.3411 388.703 26.6797C388.094 27.0182 387.427 27.1875 386.703 27.1875C385.542 27.1875 384.602 26.8151 383.883 26.0703C383.169 25.3255 382.812 24.2526 382.812 22.8516ZM384.258 22.8516C384.258 23.9141 384.49 24.7109 384.953 25.2422C385.417 25.7682 386 26.0312 386.703 26.0312C387.401 26.0312 387.982 25.7656 388.445 25.2344C388.909 24.7031 389.141 23.8932 389.141 22.8047C389.141 21.7786 388.906 21.0026 388.438 20.4766C387.974 19.9453 387.396 19.6797 386.703 19.6797C386 19.6797 385.417 19.9427 384.953 20.4688C384.49 20.9948 384.258 21.7891 384.258 22.8516ZM392.25 18.7031H395.492C396.289 18.7031 396.88 18.7708 397.266 18.9062C397.656 19.0365 397.99 19.2786 398.266 19.6328C398.547 19.987 398.688 20.4115 398.688 20.9062C398.688 21.3021 398.604 21.6484 398.438 21.9453C398.276 22.237 398.031 22.4818 397.703 22.6797C398.094 22.8099 398.417 23.0547 398.672 23.4141C398.932 23.7682 399.062 24.1901 399.062 24.6797C399.01 25.4661 398.729 26.0495 398.219 26.4297C397.708 26.8099 396.966 27 395.992 27H392.25V18.7031ZM393.656 22.1953H395.156C395.755 22.1953 396.167 22.1641 396.391 22.1016C396.615 22.0391 396.815 21.9141 396.992 21.7266C397.169 21.5339 397.258 21.3047 397.258 21.0391C397.258 20.6016 397.102 20.2969 396.789 20.125C396.482 19.9531 395.953 19.8672 395.203 19.8672H393.656V22.1953ZM393.656 25.8438H395.508C396.305 25.8438 396.852 25.7526 397.148 25.5703C397.445 25.3828 397.602 25.0625 397.617 24.6094C397.617 24.3438 397.531 24.099 397.359 23.875C397.188 23.6458 396.964 23.5026 396.688 23.4453C396.411 23.3828 395.969 23.3516 395.359 23.3516H393.656V25.8438ZM401.109 27V25.3984H402.711V27C402.711 27.5885 402.607 28.0625 402.398 28.4219C402.19 28.7865 401.859 29.0677 401.406 29.2656L401.016 28.6641C401.312 28.5339 401.531 28.3411 401.672 28.0859C401.812 27.8359 401.891 27.474 401.906 27H401.109ZM409.641 18.7031H411.047V22.2891C411.495 22.2891 411.807 22.2031 411.984 22.0312C412.167 21.8594 412.432 21.3594 412.781 20.5312C413.057 19.875 413.281 19.4427 413.453 19.2344C413.625 19.026 413.823 18.8854 414.047 18.8125C414.271 18.7396 414.63 18.7031 415.125 18.7031H415.406V19.8672L415.016 19.8594C414.646 19.8594 414.409 19.9141 414.305 20.0234C414.195 20.138 414.029 20.4792 413.805 21.0469C413.591 21.5885 413.396 21.9635 413.219 22.1719C413.042 22.3802 412.768 22.5703 412.398 22.7422C413.003 22.9036 413.596 23.4661 414.18 24.4297L415.719 27H414.172L412.672 24.4297C412.365 23.9141 412.096 23.5755 411.867 23.4141C411.638 23.2474 411.365 23.1641 411.047 23.1641V27H409.641V18.7031ZM416.312 22.8516C416.312 21.3151 416.74 20.1771 417.594 19.4375C418.307 18.8229 419.177 18.5156 420.203 18.5156C421.344 18.5156 422.276 18.8906 423 19.6406C423.724 20.3854 424.086 21.4167 424.086 22.7344C424.086 23.8021 423.924 24.6432 423.602 25.2578C423.284 25.8672 422.818 26.3411 422.203 26.6797C421.594 27.0182 420.927 27.1875 420.203 27.1875C419.042 27.1875 418.102 26.8151 417.383 26.0703C416.669 25.3255 416.312 24.2526 416.312 22.8516ZM417.758 22.8516C417.758 23.9141 417.99 24.7109 418.453 25.2422C418.917 25.7682 419.5 26.0312 420.203 26.0312C420.901 26.0312 421.482 25.7656 421.945 25.2344C422.409 24.7031 422.641 23.8932 422.641 22.8047C422.641 21.7786 422.406 21.0026 421.938 20.4766C421.474 19.9453 420.896 19.6797 420.203 19.6797C419.5 19.6797 418.917 19.9427 418.453 20.4688C417.99 20.9948 417.758 21.7891 417.758 22.8516ZM425.75 18.7031H427.156V22.1562H431.055V18.7031H432.461V27H431.055V23.3203H427.156V27H425.75V18.7031ZM434.609 18.7031H436.016V25.8438H439.906V18.7031H441.312V25.8438H442.219V29.3516H441.062V27H434.609V18.7031ZM449.25 24.3281L450.703 24.5078C450.474 25.3568 450.049 26.0156 449.43 26.4844C448.81 26.9531 448.018 27.1875 447.055 27.1875C445.841 27.1875 444.878 26.8151 444.164 26.0703C443.456 25.3203 443.102 24.2708 443.102 22.9219C443.102 21.526 443.461 20.4427 444.18 19.6719C444.898 18.901 445.831 18.5156 446.977 18.5156C448.086 18.5156 448.992 18.8932 449.695 19.6484C450.398 20.4036 450.75 21.4661 450.75 22.8359C450.75 22.9193 450.747 23.0443 450.742 23.2109H444.555C444.607 24.1224 444.865 24.8203 445.328 25.3047C445.792 25.7891 446.37 26.0312 447.062 26.0312C447.578 26.0312 448.018 25.8958 448.383 25.625C448.747 25.3542 449.036 24.9219 449.25 24.3281ZM444.633 22.0547H449.266C449.203 21.3568 449.026 20.8333 448.734 20.4844C448.286 19.9427 447.706 19.6719 446.992 19.6719C446.346 19.6719 445.802 19.888 445.359 20.3203C444.922 20.7526 444.68 21.3307 444.633 22.0547ZM452.484 18.7031H453.891V22.1562H457.789V18.7031H459.195V27H457.789V23.3203H453.891V27H452.484V18.7031ZM460.562 18.7031H467.305V19.8672H464.633V27H463.234V19.8672H460.562V18.7031ZM468.648 30.1797V18.7031H469.93V19.7812C470.232 19.3594 470.573 19.0443 470.953 18.8359C471.333 18.6224 471.794 18.5156 472.336 18.5156C473.044 18.5156 473.669 18.6979 474.211 19.0625C474.753 19.4271 475.161 19.9427 475.438 20.6094C475.714 21.2708 475.852 21.9974 475.852 22.7891C475.852 23.638 475.698 24.4036 475.391 25.0859C475.089 25.763 474.646 26.2839 474.062 26.6484C473.484 27.0078 472.875 27.1875 472.234 27.1875C471.766 27.1875 471.344 27.0885 470.969 26.8906C470.599 26.6927 470.294 26.4427 470.055 26.1406V30.1797H468.648ZM469.922 22.8984C469.922 23.9661 470.138 24.7552 470.57 25.2656C471.003 25.776 471.526 26.0312 472.141 26.0312C472.766 26.0312 473.299 25.7682 473.742 25.2422C474.19 24.7109 474.414 23.8906 474.414 22.7812C474.414 21.724 474.195 20.9323 473.758 20.4062C473.326 19.8802 472.807 19.6172 472.203 19.6172C471.604 19.6172 471.073 19.8984 470.609 20.4609C470.151 21.0182 469.922 21.8307 469.922 22.8984ZM482.969 25.9766C482.448 26.4193 481.945 26.7318 481.461 26.9141C480.982 27.0964 480.466 27.1875 479.914 27.1875C479.003 27.1875 478.302 26.9661 477.812 26.5234C477.323 26.0755 477.078 25.5052 477.078 24.8125C477.078 24.4062 477.169 24.0365 477.352 23.7031C477.539 23.3646 477.781 23.0938 478.078 22.8906C478.38 22.6875 478.719 22.5339 479.094 22.4297C479.37 22.3568 479.786 22.2865 480.344 22.2188C481.479 22.0833 482.315 21.9219 482.852 21.7344C482.857 21.5417 482.859 21.4193 482.859 21.3672C482.859 20.7943 482.727 20.3906 482.461 20.1562C482.102 19.8385 481.568 19.6797 480.859 19.6797C480.198 19.6797 479.708 19.7969 479.391 20.0312C479.078 20.2604 478.846 20.6693 478.695 21.2578L477.32 21.0703C477.445 20.4818 477.651 20.0078 477.938 19.6484C478.224 19.2839 478.638 19.0052 479.18 18.8125C479.721 18.6146 480.349 18.5156 481.062 18.5156C481.771 18.5156 482.346 18.599 482.789 18.7656C483.232 18.9323 483.557 19.1432 483.766 19.3984C483.974 19.6484 484.12 19.9661 484.203 20.3516C484.25 20.5911 484.273 21.0234 484.273 21.6484V23.5234C484.273 24.8307 484.302 25.6589 484.359 26.0078C484.422 26.3516 484.542 26.6823 484.719 27H483.25C483.104 26.7083 483.01 26.3672 482.969 25.9766ZM482.852 22.8359C482.341 23.0443 481.576 23.2214 480.555 23.3672C479.977 23.4505 479.568 23.5443 479.328 23.6484C479.089 23.7526 478.904 23.9062 478.773 24.1094C478.643 24.3073 478.578 24.5286 478.578 24.7734C478.578 25.1484 478.719 25.4609 479 25.7109C479.286 25.9609 479.703 26.0859 480.25 26.0859C480.792 26.0859 481.273 25.9688 481.695 25.7344C482.117 25.4948 482.427 25.1693 482.625 24.7578C482.776 24.4401 482.852 23.9714 482.852 23.3516V22.8359ZM486.484 18.7031H487.891V25.8438H491.781V18.7031H493.188V25.8438H494.094V29.3516H492.938V27H486.484V18.7031ZM495.633 18.7031H497.039V25.0312L500.938 18.7031H502.453V27H501.047V20.7109L497.148 27H495.633V18.7031ZM504.57 18.7031H505.977V25.0312L509.875 18.7031H511.391V27H509.984V20.7109L506.086 27H504.57V18.7031ZM101.219 48V36.5469H102.773L108.789 45.5391V36.5469H110.242V48H108.688L102.672 39V48H101.219ZM115.711 48V37.8984H111.938V36.5469H121.016V37.8984H117.227V48H115.711ZM120.961 44.5625V43.1484H125.281V44.5625H120.961ZM126.836 51.1797V39.7031H128.117V40.7812C128.419 40.3594 128.76 40.0443 129.141 39.8359C129.521 39.6224 129.982 39.5156 130.523 39.5156C131.232 39.5156 131.857 39.6979 132.398 40.0625C132.94 40.4271 133.349 40.9427 133.625 41.6094C133.901 42.2708 134.039 42.9974 134.039 43.7891C134.039 44.638 133.885 45.4036 133.578 46.0859C133.276 46.763 132.833 47.2839 132.25 47.6484C131.672 48.0078 131.062 48.1875 130.422 48.1875C129.953 48.1875 129.531 48.0885 129.156 47.8906C128.786 47.6927 128.482 47.4427 128.242 47.1406V51.1797H126.836ZM128.109 43.8984C128.109 44.9661 128.326 45.7552 128.758 46.2656C129.19 46.776 129.714 47.0312 130.328 47.0312C130.953 47.0312 131.487 46.7682 131.93 46.2422C132.378 45.7109 132.602 44.8906 132.602 43.7812C132.602 42.724 132.383 41.9323 131.945 41.4062C131.513 40.8802 130.995 40.6172 130.391 40.6172C129.792 40.6172 129.26 40.8984 128.797 41.4609C128.339 42.0182 128.109 42.8307 128.109 43.8984ZM135.727 48V39.7031H136.992V40.9609C137.315 40.3724 137.612 39.9844 137.883 39.7969C138.159 39.6094 138.461 39.5156 138.789 39.5156C139.263 39.5156 139.745 39.6667 140.234 39.9688L139.75 41.2734C139.406 41.0703 139.062 40.9688 138.719 40.9688C138.411 40.9688 138.135 41.0625 137.891 41.25C137.646 41.4323 137.471 41.6875 137.367 42.0156C137.211 42.5156 137.133 43.0625 137.133 43.6562V48H135.727ZM140.547 43.8516C140.547 42.3151 140.974 41.1771 141.828 40.4375C142.542 39.8229 143.411 39.5156 144.438 39.5156C145.578 39.5156 146.51 39.8906 147.234 40.6406C147.958 41.3854 148.32 42.4167 148.32 43.7344C148.32 44.8021 148.159 45.6432 147.836 46.2578C147.518 46.8672 147.052 47.3411 146.438 47.6797C145.828 48.0182 145.161 48.1875 144.438 48.1875C143.276 48.1875 142.336 47.8151 141.617 47.0703C140.904 46.3255 140.547 45.2526 140.547 43.8516ZM141.992 43.8516C141.992 44.9141 142.224 45.7109 142.688 46.2422C143.151 46.7682 143.734 47.0312 144.438 47.0312C145.135 47.0312 145.716 46.7656 146.18 46.2344C146.643 45.7031 146.875 44.8932 146.875 43.8047C146.875 42.7786 146.641 42.0026 146.172 41.4766C145.708 40.9453 145.13 40.6797 144.438 40.6797C143.734 40.6797 143.151 40.9427 142.688 41.4688C142.224 41.9948 141.992 42.7891 141.992 43.8516ZM150.094 48V36.5469H154.391C155.266 36.5469 155.966 36.6641 156.492 36.8984C157.023 37.1276 157.438 37.4844 157.734 37.9688C158.036 38.4479 158.188 38.9505 158.188 39.4766C158.188 39.9661 158.055 40.4271 157.789 40.8594C157.523 41.2917 157.122 41.6406 156.586 41.9062C157.279 42.1094 157.81 42.4557 158.18 42.9453C158.555 43.4349 158.742 44.013 158.742 44.6797C158.742 45.2161 158.628 45.7161 158.398 46.1797C158.174 46.638 157.896 46.9922 157.562 47.2422C157.229 47.4922 156.81 47.6823 156.305 47.8125C155.805 47.9375 155.19 48 154.461 48H150.094ZM151.609 41.3594H154.086C154.758 41.3594 155.24 41.3151 155.531 41.2266C155.917 41.112 156.206 40.9219 156.398 40.6562C156.596 40.3906 156.695 40.0573 156.695 39.6562C156.695 39.276 156.604 38.9427 156.422 38.6562C156.24 38.3646 155.979 38.1667 155.641 38.0625C155.302 37.9531 154.721 37.8984 153.898 37.8984H151.609V41.3594ZM151.609 46.6484H154.461C154.951 46.6484 155.294 46.6302 155.492 46.5938C155.841 46.5312 156.133 46.4271 156.367 46.2812C156.602 46.1354 156.794 45.9245 156.945 45.6484C157.096 45.3672 157.172 45.0443 157.172 44.6797C157.172 44.2526 157.062 43.8828 156.844 43.5703C156.625 43.2526 156.32 43.0312 155.93 42.9062C155.544 42.776 154.987 42.7109 154.258 42.7109H151.609V46.6484ZM160.812 48V36.5469H162.367L168.383 45.5391V36.5469H169.836V48H168.281L162.266 39V48H160.812ZM172.391 48V36.5469H176.711C177.471 36.5469 178.052 36.5833 178.453 36.6562C179.016 36.75 179.487 36.9297 179.867 37.1953C180.247 37.4557 180.552 37.8229 180.781 38.2969C181.016 38.7708 181.133 39.2917 181.133 39.8594C181.133 40.8333 180.823 41.6589 180.203 42.3359C179.583 43.0078 178.464 43.3438 176.844 43.3438H173.906V48H172.391ZM173.906 41.9922H176.867C177.846 41.9922 178.542 41.8099 178.953 41.4453C179.365 41.0807 179.57 40.5677 179.57 39.9062C179.57 39.4271 179.448 39.0182 179.203 38.6797C178.964 38.3359 178.646 38.1094 178.25 38C177.995 37.9323 177.523 37.8984 176.836 37.8984H173.906V41.9922ZM181.188 48V46.3984H182.789V48C182.789 48.5885 182.685 49.0625 182.477 49.4219C182.268 49.7865 181.938 50.0677 181.484 50.2656L181.094 49.6641C181.391 49.5339 181.609 49.3411 181.75 49.0859C181.891 48.8359 181.969 48.474 181.984 48H181.188ZM189.664 51.1953L189.508 49.875C189.815 49.9583 190.083 50 190.312 50C190.625 50 190.875 49.9479 191.062 49.8438C191.25 49.7396 191.404 49.5938 191.523 49.4062C191.612 49.2656 191.755 48.9167 191.953 48.3594C191.979 48.2812 192.021 48.1667 192.078 48.0156L188.93 39.7031H190.445L192.172 44.5078C192.396 45.1172 192.596 45.7578 192.773 46.4297C192.935 45.7839 193.128 45.1536 193.352 44.5391L195.125 39.7031H196.531L193.375 48.1406C193.036 49.0521 192.773 49.6797 192.586 50.0234C192.336 50.487 192.049 50.8255 191.727 51.0391C191.404 51.2578 191.018 51.3672 190.57 51.3672C190.299 51.3672 189.997 51.3099 189.664 51.1953ZM198.055 39.7031H204.586V48H203.188V40.8672H199.461V45C199.461 45.9635 199.43 46.599 199.367 46.9062C199.305 47.2135 199.133 47.4818 198.852 47.7109C198.57 47.9401 198.164 48.0547 197.633 48.0547C197.305 48.0547 196.927 48.0339 196.5 47.9922V46.8203H197.117C197.409 46.8203 197.617 46.7917 197.742 46.7344C197.867 46.6719 197.951 46.5755 197.992 46.4453C198.034 46.3151 198.055 45.8906 198.055 45.1719V39.7031ZM206.648 51.1953L206.492 49.875C206.799 49.9583 207.068 50 207.297 50C207.609 50 207.859 49.9479 208.047 49.8438C208.234 49.7396 208.388 49.5938 208.508 49.4062C208.596 49.2656 208.74 48.9167 208.938 48.3594C208.964 48.2812 209.005 48.1667 209.062 48.0156L205.914 39.7031H207.43L209.156 44.5078C209.38 45.1172 209.581 45.7578 209.758 46.4297C209.919 45.7839 210.112 45.1536 210.336 44.5391L212.109 39.7031H213.516L210.359 48.1406C210.021 49.0521 209.758 49.6797 209.57 50.0234C209.32 50.487 209.034 50.8255 208.711 51.0391C208.388 51.2578 208.003 51.3672 207.555 51.3672C207.284 51.3672 206.982 51.3099 206.648 51.1953ZM214.195 39.7031H215.602V41.2734C215.602 41.9505 215.641 42.4427 215.719 42.75C215.802 43.0521 215.997 43.3177 216.305 43.5469C216.612 43.7708 216.997 43.8828 217.461 43.8828C217.992 43.8828 218.68 43.7422 219.523 43.4609V39.7031H220.93V48H219.523V44.6562C218.659 44.9271 217.852 45.0625 217.102 45.0625C216.471 45.0625 215.914 44.9036 215.43 44.5859C214.951 44.263 214.625 43.8698 214.453 43.4062C214.281 42.9427 214.195 42.4323 214.195 41.875V39.7031ZM223.102 39.7031H224.508V46.8359H227.711V39.7031H229.117V46.8359H232.328V39.7031H233.727V48H223.102V39.7031ZM241.578 45.3281L243.031 45.5078C242.802 46.3568 242.378 47.0156 241.758 47.4844C241.138 47.9531 240.346 48.1875 239.383 48.1875C238.169 48.1875 237.206 47.8151 236.492 47.0703C235.784 46.3203 235.43 45.2708 235.43 43.9219C235.43 42.526 235.789 41.4427 236.508 40.6719C237.227 39.901 238.159 39.5156 239.305 39.5156C240.414 39.5156 241.32 39.8932 242.023 40.6484C242.727 41.4036 243.078 42.4661 243.078 43.8359C243.078 43.9193 243.076 44.0443 243.07 44.2109H236.883C236.935 45.1224 237.193 45.8203 237.656 46.3047C238.12 46.7891 238.698 47.0312 239.391 47.0312C239.906 47.0312 240.346 46.8958 240.711 46.625C241.076 46.3542 241.365 45.9219 241.578 45.3281ZM236.961 43.0547H241.594C241.531 42.3568 241.354 41.8333 241.062 41.4844C240.615 40.9427 240.034 40.6719 239.32 40.6719C238.674 40.6719 238.13 40.888 237.688 41.3203C237.25 41.7526 237.008 42.3307 236.961 43.0547ZM244.812 39.7031H246.219V43.1562H250.117V39.7031H251.523V48H250.117V44.3203H246.219V48H244.812V39.7031ZM253.648 39.7031H255.055V46.0312L258.953 39.7031H260.469V48H259.062V41.7109L255.164 48H253.648V39.7031ZM268.266 45.3281L269.719 45.5078C269.49 46.3568 269.065 47.0156 268.445 47.4844C267.826 47.9531 267.034 48.1875 266.07 48.1875C264.857 48.1875 263.893 47.8151 263.18 47.0703C262.471 46.3203 262.117 45.2708 262.117 43.9219C262.117 42.526 262.477 41.4427 263.195 40.6719C263.914 39.901 264.846 39.5156 265.992 39.5156C267.102 39.5156 268.008 39.8932 268.711 40.6484C269.414 41.4036 269.766 42.4661 269.766 43.8359C269.766 43.9193 269.763 44.0443 269.758 44.2109H263.57C263.622 45.1224 263.88 45.8203 264.344 46.3047C264.807 46.7891 265.385 47.0312 266.078 47.0312C266.594 47.0312 267.034 46.8958 267.398 46.625C267.763 46.3542 268.052 45.9219 268.266 45.3281ZM263.648 43.0547H268.281C268.219 42.3568 268.042 41.8333 267.75 41.4844C267.302 40.9427 266.721 40.6719 266.008 40.6719C265.362 40.6719 264.818 40.888 264.375 41.3203C263.938 41.7526 263.695 42.3307 263.648 43.0547ZM281.359 44.9609L282.742 45.1406C282.591 46.0938 282.203 46.8411 281.578 47.3828C280.958 47.9193 280.195 48.1875 279.289 48.1875C278.154 48.1875 277.24 47.8177 276.547 47.0781C275.859 46.3333 275.516 45.2682 275.516 43.8828C275.516 42.987 275.664 42.2031 275.961 41.5312C276.258 40.8594 276.708 40.3568 277.312 40.0234C277.922 39.6849 278.583 39.5156 279.297 39.5156C280.198 39.5156 280.935 39.7448 281.508 40.2031C282.081 40.6562 282.448 41.3021 282.609 42.1406L281.242 42.3516C281.112 41.7943 280.88 41.375 280.547 41.0938C280.219 40.8125 279.82 40.6719 279.352 40.6719C278.643 40.6719 278.068 40.9271 277.625 41.4375C277.182 41.9427 276.961 42.7448 276.961 43.8438C276.961 44.9583 277.174 45.7682 277.602 46.2734C278.029 46.7786 278.586 47.0312 279.273 47.0312C279.826 47.0312 280.286 46.862 280.656 46.5234C281.026 46.1849 281.26 45.6641 281.359 44.9609ZM283.609 43.8516C283.609 42.3151 284.036 41.1771 284.891 40.4375C285.604 39.8229 286.474 39.5156 287.5 39.5156C288.641 39.5156 289.573 39.8906 290.297 40.6406C291.021 41.3854 291.383 42.4167 291.383 43.7344C291.383 44.8021 291.221 45.6432 290.898 46.2578C290.581 46.8672 290.115 47.3411 289.5 47.6797C288.891 48.0182 288.224 48.1875 287.5 48.1875C286.339 48.1875 285.398 47.8151 284.68 47.0703C283.966 46.3255 283.609 45.2526 283.609 43.8516ZM285.055 43.8516C285.055 44.9141 285.286 45.7109 285.75 46.2422C286.214 46.7682 286.797 47.0312 287.5 47.0312C288.198 47.0312 288.779 46.7656 289.242 46.2344C289.706 45.7031 289.938 44.8932 289.938 43.8047C289.938 42.7786 289.703 42.0026 289.234 41.4766C288.771 40.9453 288.193 40.6797 287.5 40.6797C286.797 40.6797 286.214 40.9427 285.75 41.4688C285.286 41.9948 285.055 42.7891 285.055 43.8516ZM293.031 39.7031H294.438V43.2891C294.885 43.2891 295.198 43.2031 295.375 43.0312C295.557 42.8594 295.823 42.3594 296.172 41.5312C296.448 40.875 296.672 40.4427 296.844 40.2344C297.016 40.026 297.214 39.8854 297.438 39.8125C297.661 39.7396 298.021 39.7031 298.516 39.7031H298.797V40.8672L298.406 40.8594C298.036 40.8594 297.799 40.9141 297.695 41.0234C297.586 41.138 297.419 41.4792 297.195 42.0469C296.982 42.5885 296.786 42.9635 296.609 43.1719C296.432 43.3802 296.159 43.5703 295.789 43.7422C296.393 43.9036 296.987 44.4661 297.57 45.4297L299.109 48H297.562L296.062 45.4297C295.755 44.9141 295.487 44.5755 295.258 44.4141C295.029 44.2474 294.755 44.1641 294.438 44.1641V48H293.031V39.7031ZM300.039 51.1797V39.7031H301.32V40.7812C301.622 40.3594 301.964 40.0443 302.344 39.8359C302.724 39.6224 303.185 39.5156 303.727 39.5156C304.435 39.5156 305.06 39.6979 305.602 40.0625C306.143 40.4271 306.552 40.9427 306.828 41.6094C307.104 42.2708 307.242 42.9974 307.242 43.7891C307.242 44.638 307.089 45.4036 306.781 46.0859C306.479 46.763 306.036 47.2839 305.453 47.6484C304.875 48.0078 304.266 48.1875 303.625 48.1875C303.156 48.1875 302.734 48.0885 302.359 47.8906C301.99 47.6927 301.685 47.4427 301.445 47.1406V51.1797H300.039ZM301.312 43.8984C301.312 44.9661 301.529 45.7552 301.961 46.2656C302.393 46.776 302.917 47.0312 303.531 47.0312C304.156 47.0312 304.69 46.7682 305.133 46.2422C305.581 45.7109 305.805 44.8906 305.805 43.7812C305.805 42.724 305.586 41.9323 305.148 41.4062C304.716 40.8802 304.198 40.6172 303.594 40.6172C302.995 40.6172 302.464 40.8984 302 41.4609C301.542 42.0182 301.312 42.8307 301.312 43.8984ZM314.359 46.9766C313.839 47.4193 313.336 47.7318 312.852 47.9141C312.372 48.0964 311.857 48.1875 311.305 48.1875C310.393 48.1875 309.693 47.9661 309.203 47.5234C308.714 47.0755 308.469 46.5052 308.469 45.8125C308.469 45.4062 308.56 45.0365 308.742 44.7031C308.93 44.3646 309.172 44.0938 309.469 43.8906C309.771 43.6875 310.109 43.5339 310.484 43.4297C310.76 43.3568 311.177 43.2865 311.734 43.2188C312.87 43.0833 313.706 42.9219 314.242 42.7344C314.247 42.5417 314.25 42.4193 314.25 42.3672C314.25 41.7943 314.117 41.3906 313.852 41.1562C313.492 40.8385 312.958 40.6797 312.25 40.6797C311.589 40.6797 311.099 40.7969 310.781 41.0312C310.469 41.2604 310.237 41.6693 310.086 42.2578L308.711 42.0703C308.836 41.4818 309.042 41.0078 309.328 40.6484C309.615 40.2839 310.029 40.0052 310.57 39.8125C311.112 39.6146 311.74 39.5156 312.453 39.5156C313.161 39.5156 313.737 39.599 314.18 39.7656C314.622 39.9323 314.948 40.1432 315.156 40.3984C315.365 40.6484 315.51 40.9661 315.594 41.3516C315.641 41.5911 315.664 42.0234 315.664 42.6484V44.5234C315.664 45.8307 315.693 46.6589 315.75 47.0078C315.812 47.3516 315.932 47.6823 316.109 48H314.641C314.495 47.7083 314.401 47.3672 314.359 46.9766ZM314.242 43.8359C313.732 44.0443 312.966 44.2214 311.945 44.3672C311.367 44.4505 310.958 44.5443 310.719 44.6484C310.479 44.7526 310.294 44.9062 310.164 45.1094C310.034 45.3073 309.969 45.5286 309.969 45.7734C309.969 46.1484 310.109 46.4609 310.391 46.7109C310.677 46.9609 311.094 47.0859 311.641 47.0859C312.182 47.0859 312.664 46.9688 313.086 46.7344C313.508 46.4948 313.818 46.1693 314.016 45.7578C314.167 45.4401 314.242 44.9714 314.242 44.3516V43.8359ZM316.734 39.7031H323.477V40.8672H320.805V48H319.406V40.8672H316.734V39.7031ZM324.82 39.7031H326.227V46.0312L330.125 39.7031H331.641V48H330.234V41.7109L326.336 48H324.82V39.7031ZM333 39.7031H339.742V40.8672H337.07V48H335.672V40.8672H333V39.7031ZM346.578 45.3281L348.031 45.5078C347.802 46.3568 347.378 47.0156 346.758 47.4844C346.138 47.9531 345.346 48.1875 344.383 48.1875C343.169 48.1875 342.206 47.8151 341.492 47.0703C340.784 46.3203 340.43 45.2708 340.43 43.9219C340.43 42.526 340.789 41.4427 341.508 40.6719C342.227 39.901 343.159 39.5156 344.305 39.5156C345.414 39.5156 346.32 39.8932 347.023 40.6484C347.727 41.4036 348.078 42.4661 348.078 43.8359C348.078 43.9193 348.076 44.0443 348.07 44.2109H341.883C341.935 45.1224 342.193 45.8203 342.656 46.3047C343.12 46.7891 343.698 47.0312 344.391 47.0312C344.906 47.0312 345.346 46.8958 345.711 46.625C346.076 46.3542 346.365 45.9219 346.578 45.3281ZM341.961 43.0547H346.594C346.531 42.3568 346.354 41.8333 346.062 41.4844C345.615 40.9427 345.034 40.6719 344.32 40.6719C343.674 40.6719 343.13 40.888 342.688 41.3203C342.25 41.7526 342.008 42.3307 341.961 43.0547ZM349.961 39.7031H356.492V48H355.094V40.8672H351.367V45C351.367 45.9635 351.336 46.599 351.273 46.9062C351.211 47.2135 351.039 47.4818 350.758 47.7109C350.477 47.9401 350.07 48.0547 349.539 48.0547C349.211 48.0547 348.833 48.0339 348.406 47.9922V46.8203H349.023C349.315 46.8203 349.523 46.7917 349.648 46.7344C349.773 46.6719 349.857 46.5755 349.898 46.4453C349.94 46.3151 349.961 45.8906 349.961 45.1719V39.7031ZM358.594 39.7031H360V42.9453H361.781C362.943 42.9453 363.836 43.1719 364.461 43.625C365.091 44.0729 365.406 44.6927 365.406 45.4844C365.406 46.1771 365.143 46.7708 364.617 47.2656C364.096 47.7552 363.26 48 362.109 48H358.594V39.7031ZM360 46.8438H361.477C362.367 46.8438 363.003 46.7344 363.383 46.5156C363.763 46.2969 363.953 45.9557 363.953 45.4922C363.953 45.1328 363.812 44.8125 363.531 44.5312C363.25 44.25 362.628 44.1094 361.664 44.1094H360V46.8438ZM366.969 39.7031H368.375V43.1562H372.273V39.7031H373.68V48H372.273V44.3203H368.375V48H366.969V39.7031ZM375.281 43.8516C375.281 42.3151 375.708 41.1771 376.562 40.4375C377.276 39.8229 378.146 39.5156 379.172 39.5156C380.312 39.5156 381.245 39.8906 381.969 40.6406C382.693 41.3854 383.055 42.4167 383.055 43.7344C383.055 44.8021 382.893 45.6432 382.57 46.2578C382.253 46.8672 381.786 47.3411 381.172 47.6797C380.562 48.0182 379.896 48.1875 379.172 48.1875C378.01 48.1875 377.07 47.8151 376.352 47.0703C375.638 46.3255 375.281 45.2526 375.281 43.8516ZM376.727 43.8516C376.727 44.9141 376.958 45.7109 377.422 46.2422C377.885 46.7682 378.469 47.0312 379.172 47.0312C379.87 47.0312 380.451 46.7656 380.914 46.2344C381.378 45.7031 381.609 44.8932 381.609 43.8047C381.609 42.7786 381.375 42.0026 380.906 41.4766C380.443 40.9453 379.865 40.6797 379.172 40.6797C378.469 40.6797 377.885 40.9427 377.422 41.4688C376.958 41.9948 376.727 42.7891 376.727 43.8516ZM384.711 39.7031H386.117V46.0312L390.016 39.7031H391.531V48H390.125V41.7109L386.227 48H384.711V39.7031ZM389.594 36.5625H390.555C390.477 37.2135 390.237 37.7135 389.836 38.0625C389.44 38.4115 388.911 38.5859 388.25 38.5859C387.583 38.5859 387.049 38.4141 386.648 38.0703C386.253 37.7214 386.016 37.2188 385.938 36.5625H386.898C386.971 36.9167 387.115 37.1823 387.328 37.3594C387.547 37.5312 387.839 37.6172 388.203 37.6172C388.625 37.6172 388.943 37.5339 389.156 37.3672C389.375 37.1953 389.521 36.9271 389.594 36.5625ZM402.93 36.5469H404.336V40.5078C404.628 40.1745 404.948 39.9271 405.297 39.7656C405.646 39.599 406.021 39.5156 406.422 39.5156C407.406 39.5156 408.185 39.9271 408.758 40.75C409.336 41.5677 409.625 42.599 409.625 43.8438C409.625 45.1406 409.315 46.1901 408.695 46.9922C408.076 47.7891 407.305 48.1875 406.383 48.1875C406.081 48.1875 405.773 48.1406 405.461 48.0469C405.148 47.9531 404.773 47.6979 404.336 47.2812V51.1797H402.93V47.2812C402.648 47.5833 402.336 47.8099 401.992 47.9609C401.654 48.112 401.286 48.1875 400.891 48.1875C400.021 48.1875 399.26 47.8073 398.609 47.0469C397.958 46.2812 397.633 45.1875 397.633 43.7656C397.633 42.5625 397.927 41.5547 398.516 40.7422C399.104 39.9245 399.896 39.5156 400.891 39.5156C401.307 39.5156 401.685 39.599 402.023 39.7656C402.362 39.9271 402.664 40.1745 402.93 40.5078V36.5469ZM404.328 43.8828C404.328 45.1328 404.5 45.974 404.844 46.4062C405.188 46.8333 405.617 47.0469 406.133 47.0469C406.706 47.0469 407.193 46.7839 407.594 46.2578C408 45.7266 408.203 44.9036 408.203 43.7891C408.203 42.737 408.016 41.9531 407.641 41.4375C407.271 40.9219 406.794 40.6641 406.211 40.6641C405.586 40.6641 405.115 40.9323 404.797 41.4688C404.484 42.0052 404.328 42.8099 404.328 43.8828ZM399.062 43.7266C399.062 44.8984 399.258 45.7422 399.648 46.2578C400.044 46.7734 400.534 47.0312 401.117 47.0312C401.727 47.0312 402.182 46.776 402.484 46.2656C402.786 45.75 402.938 44.9792 402.938 43.9531C402.938 42.8594 402.779 42.0391 402.461 41.4922C402.143 40.9453 401.664 40.6719 401.023 40.6719C400.445 40.6719 399.974 40.9401 399.609 41.4766C399.245 42.0078 399.062 42.7578 399.062 43.7266ZM411.023 51.1953L410.867 49.875C411.174 49.9583 411.443 50 411.672 50C411.984 50 412.234 49.9479 412.422 49.8438C412.609 49.7396 412.763 49.5938 412.883 49.4062C412.971 49.2656 413.115 48.9167 413.312 48.3594C413.339 48.2812 413.38 48.1667 413.438 48.0156L410.289 39.7031H411.805L413.531 44.5078C413.755 45.1172 413.956 45.7578 414.133 46.4297C414.294 45.7839 414.487 45.1536 414.711 44.5391L416.484 39.7031H417.891L414.734 48.1406C414.396 49.0521 414.133 49.6797 413.945 50.0234C413.695 50.487 413.409 50.8255 413.086 51.0391C412.763 51.2578 412.378 51.3672 411.93 51.3672C411.659 51.3672 411.357 51.3099 411.023 51.1953ZM419.094 39.7031H420.5V43.1562H424.398V39.7031H425.805V48H424.398V44.3203H420.5V48H419.094V39.7031ZM427.922 39.7031H429.328V43.2891C429.776 43.2891 430.089 43.2031 430.266 43.0312C430.448 42.8594 430.714 42.3594 431.062 41.5312C431.339 40.875 431.562 40.4427 431.734 40.2344C431.906 40.026 432.104 39.8854 432.328 39.8125C432.552 39.7396 432.911 39.7031 433.406 39.7031H433.688V40.8672L433.297 40.8594C432.927 40.8594 432.69 40.9141 432.586 41.0234C432.477 41.138 432.31 41.4792 432.086 42.0469C431.872 42.5885 431.677 42.9635 431.5 43.1719C431.323 43.3802 431.049 43.5703 430.68 43.7422C431.284 43.9036 431.878 44.4661 432.461 45.4297L434 48H432.453L430.953 45.4297C430.646 44.9141 430.378 44.5755 430.148 44.4141C429.919 44.2474 429.646 44.1641 429.328 44.1641V48H427.922V39.7031ZM434.953 39.7031H436.359V46.8438H440.25V39.7031H441.656V46.8438H442.562V50.3516H441.406V48H434.953V39.7031ZM444.102 39.7031H445.508V46.0312L449.406 39.7031H450.922V48H449.516V41.7109L445.617 48H444.102V39.7031ZM453.039 39.7031H454.445V46.0312L458.344 39.7031H459.859V48H458.453V41.7109L454.555 48H453.039V39.7031ZM101.094 60.7031H103.281L105.461 67.3438L107.883 60.7031H109.906V69H108.5V62.3203L106.047 69H104.789L102.469 62V69H101.094V60.7031ZM112.055 60.7031H113.461V67.0312L117.359 60.7031H118.875V69H117.469V62.7109L113.57 69H112.055V60.7031ZM120.469 64.8516C120.469 63.3151 120.896 62.1771 121.75 61.4375C122.464 60.8229 123.333 60.5156 124.359 60.5156C125.5 60.5156 126.432 60.8906 127.156 61.6406C127.88 62.3854 128.242 63.4167 128.242 64.7344C128.242 65.8021 128.081 66.6432 127.758 67.2578C127.44 67.8672 126.974 68.3411 126.359 68.6797C125.75 69.0182 125.083 69.1875 124.359 69.1875C123.198 69.1875 122.258 68.8151 121.539 68.0703C120.826 67.3255 120.469 66.2526 120.469 64.8516ZM121.914 64.8516C121.914 65.9141 122.146 66.7109 122.609 67.2422C123.073 67.7682 123.656 68.0312 124.359 68.0312C125.057 68.0312 125.638 67.7656 126.102 67.2344C126.565 66.7031 126.797 65.8932 126.797 64.8047C126.797 63.7786 126.562 63.0026 126.094 62.4766C125.63 61.9453 125.052 61.6797 124.359 61.6797C123.656 61.6797 123.073 61.9427 122.609 62.4688C122.146 62.9948 121.914 63.7891 121.914 64.8516ZM129.891 60.7031H131.297V64.2891C131.745 64.2891 132.057 64.2031 132.234 64.0312C132.417 63.8594 132.682 63.3594 133.031 62.5312C133.307 61.875 133.531 61.4427 133.703 61.2344C133.875 61.026 134.073 60.8854 134.297 60.8125C134.521 60.7396 134.88 60.7031 135.375 60.7031H135.656V61.8672L135.266 61.8594C134.896 61.8594 134.659 61.9141 134.555 62.0234C134.445 62.138 134.279 62.4792 134.055 63.0469C133.841 63.5885 133.646 63.9635 133.469 64.1719C133.292 64.3802 133.018 64.5703 132.648 64.7422C133.253 64.9036 133.846 65.4661 134.43 66.4297L135.969 69H134.422L132.922 66.4297C132.615 65.9141 132.346 65.5755 132.117 65.4141C131.888 65.2474 131.615 65.1641 131.297 65.1641V69H129.891V60.7031ZM142.672 67.9766C142.151 68.4193 141.648 68.7318 141.164 68.9141C140.685 69.0964 140.169 69.1875 139.617 69.1875C138.706 69.1875 138.005 68.9661 137.516 68.5234C137.026 68.0755 136.781 67.5052 136.781 66.8125C136.781 66.4062 136.872 66.0365 137.055 65.7031C137.242 65.3646 137.484 65.0938 137.781 64.8906C138.083 64.6875 138.422 64.5339 138.797 64.4297C139.073 64.3568 139.49 64.2865 140.047 64.2188C141.182 64.0833 142.018 63.9219 142.555 63.7344C142.56 63.5417 142.562 63.4193 142.562 63.3672C142.562 62.7943 142.43 62.3906 142.164 62.1562C141.805 61.8385 141.271 61.6797 140.562 61.6797C139.901 61.6797 139.411 61.7969 139.094 62.0312C138.781 62.2604 138.549 62.6693 138.398 63.2578L137.023 63.0703C137.148 62.4818 137.354 62.0078 137.641 61.6484C137.927 61.2839 138.341 61.0052 138.883 60.8125C139.424 60.6146 140.052 60.5156 140.766 60.5156C141.474 60.5156 142.049 60.599 142.492 60.7656C142.935 60.9323 143.26 61.1432 143.469 61.3984C143.677 61.6484 143.823 61.9661 143.906 62.3516C143.953 62.5911 143.977 63.0234 143.977 63.6484V65.5234C143.977 66.8307 144.005 67.6589 144.062 68.0078C144.125 68.3516 144.245 68.6823 144.422 69H142.953C142.807 68.7083 142.714 68.3672 142.672 67.9766ZM142.555 64.8359C142.044 65.0443 141.279 65.2214 140.258 65.3672C139.68 65.4505 139.271 65.5443 139.031 65.6484C138.792 65.7526 138.607 65.9062 138.477 66.1094C138.346 66.3073 138.281 66.5286 138.281 66.7734C138.281 67.1484 138.422 67.4609 138.703 67.7109C138.99 67.9609 139.406 68.0859 139.953 68.0859C140.495 68.0859 140.977 67.9688 141.398 67.7344C141.82 67.4948 142.13 67.1693 142.328 66.7578C142.479 66.4401 142.555 65.9714 142.555 65.3516V64.8359ZM146.164 72.1797V60.7031H147.445V61.7812C147.747 61.3594 148.089 61.0443 148.469 60.8359C148.849 60.6224 149.31 60.5156 149.852 60.5156C150.56 60.5156 151.185 60.6979 151.727 61.0625C152.268 61.4271 152.677 61.9427 152.953 62.6094C153.229 63.2708 153.367 63.9974 153.367 64.7891C153.367 65.638 153.214 66.4036 152.906 67.0859C152.604 67.763 152.161 68.2839 151.578 68.6484C151 69.0078 150.391 69.1875 149.75 69.1875C149.281 69.1875 148.859 69.0885 148.484 68.8906C148.115 68.6927 147.81 68.4427 147.57 68.1406V72.1797H146.164ZM147.438 64.8984C147.438 65.9661 147.654 66.7552 148.086 67.2656C148.518 67.776 149.042 68.0312 149.656 68.0312C150.281 68.0312 150.815 67.7682 151.258 67.2422C151.706 66.7109 151.93 65.8906 151.93 64.7812C151.93 63.724 151.711 62.9323 151.273 62.4062C150.841 61.8802 150.323 61.6172 149.719 61.6172C149.12 61.6172 148.589 61.8984 148.125 62.4609C147.667 63.0182 147.438 63.8307 147.438 64.8984ZM155.805 60.7031H161.586V67.8438H162.484V71.3516H161.328V69H154.797V71.3516H153.641V67.8438H154.383C155.372 66.5 155.846 64.1198 155.805 60.7031ZM156.977 61.8672C156.872 64.5599 156.456 66.5521 155.727 67.8438H160.188V61.8672H156.977ZM169.453 67.9766C168.932 68.4193 168.43 68.7318 167.945 68.9141C167.466 69.0964 166.951 69.1875 166.398 69.1875C165.487 69.1875 164.786 68.9661 164.297 68.5234C163.807 68.0755 163.562 67.5052 163.562 66.8125C163.562 66.4062 163.654 66.0365 163.836 65.7031C164.023 65.3646 164.266 65.0938 164.562 64.8906C164.865 64.6875 165.203 64.5339 165.578 64.4297C165.854 64.3568 166.271 64.2865 166.828 64.2188C167.964 64.0833 168.799 63.9219 169.336 63.7344C169.341 63.5417 169.344 63.4193 169.344 63.3672C169.344 62.7943 169.211 62.3906 168.945 62.1562C168.586 61.8385 168.052 61.6797 167.344 61.6797C166.682 61.6797 166.193 61.7969 165.875 62.0312C165.562 62.2604 165.331 62.6693 165.18 63.2578L163.805 63.0703C163.93 62.4818 164.135 62.0078 164.422 61.6484C164.708 61.2839 165.122 61.0052 165.664 60.8125C166.206 60.6146 166.833 60.5156 167.547 60.5156C168.255 60.5156 168.831 60.599 169.273 60.7656C169.716 60.9323 170.042 61.1432 170.25 61.3984C170.458 61.6484 170.604 61.9661 170.688 62.3516C170.734 62.5911 170.758 63.0234 170.758 63.6484V65.5234C170.758 66.8307 170.786 67.6589 170.844 68.0078C170.906 68.3516 171.026 68.6823 171.203 69H169.734C169.589 68.7083 169.495 68.3672 169.453 67.9766ZM169.336 64.8359C168.826 65.0443 168.06 65.2214 167.039 65.3672C166.461 65.4505 166.052 65.5443 165.812 65.6484C165.573 65.7526 165.388 65.9062 165.258 66.1094C165.128 66.3073 165.062 66.5286 165.062 66.7734C165.062 67.1484 165.203 67.4609 165.484 67.7109C165.771 67.9609 166.188 68.0859 166.734 68.0859C167.276 68.0859 167.758 67.9688 168.18 67.7344C168.602 67.4948 168.911 67.1693 169.109 66.7578C169.26 66.4401 169.336 65.9714 169.336 65.3516V64.8359ZM177.398 60.7031H178.805V67.0312L182.703 60.7031H184.219V69H182.812V62.7109L178.914 69H177.398V60.7031ZM190.031 60.7031H196.773V61.8672H194.102V69H192.703V61.8672H190.031V60.7031ZM197.406 64.8516C197.406 63.3151 197.833 62.1771 198.688 61.4375C199.401 60.8229 200.271 60.5156 201.297 60.5156C202.438 60.5156 203.37 60.8906 204.094 61.6406C204.818 62.3854 205.18 63.4167 205.18 64.7344C205.18 65.8021 205.018 66.6432 204.695 67.2578C204.378 67.8672 203.911 68.3411 203.297 68.6797C202.688 69.0182 202.021 69.1875 201.297 69.1875C200.135 69.1875 199.195 68.8151 198.477 68.0703C197.763 67.3255 197.406 66.2526 197.406 64.8516ZM198.852 64.8516C198.852 65.9141 199.083 66.7109 199.547 67.2422C200.01 67.7682 200.594 68.0312 201.297 68.0312C201.995 68.0312 202.576 67.7656 203.039 67.2344C203.503 66.7031 203.734 65.8932 203.734 64.8047C203.734 63.7786 203.5 63.0026 203.031 62.4766C202.568 61.9453 201.99 61.6797 201.297 61.6797C200.594 61.6797 200.01 61.9427 199.547 62.4688C199.083 62.9948 198.852 63.7891 198.852 64.8516ZM207.164 60.7031H213.695V69H212.297V61.8672H208.57V66C208.57 66.9635 208.539 67.599 208.477 67.9062C208.414 68.2135 208.242 68.4818 207.961 68.7109C207.68 68.9401 207.273 69.0547 206.742 69.0547C206.414 69.0547 206.036 69.0339 205.609 68.9922V67.8203H206.227C206.518 67.8203 206.727 67.7917 206.852 67.7344C206.977 67.6719 207.06 67.5755 207.102 67.4453C207.143 67.3151 207.164 66.8906 207.164 66.1719V60.7031ZM221.5 66.3281L222.953 66.5078C222.724 67.3568 222.299 68.0156 221.68 68.4844C221.06 68.9531 220.268 69.1875 219.305 69.1875C218.091 69.1875 217.128 68.8151 216.414 68.0703C215.706 67.3203 215.352 66.2708 215.352 64.9219C215.352 63.526 215.711 62.4427 216.43 61.6719C217.148 60.901 218.081 60.5156 219.227 60.5156C220.336 60.5156 221.242 60.8932 221.945 61.6484C222.648 62.4036 223 63.4661 223 64.8359C223 64.9193 222.997 65.0443 222.992 65.2109H216.805C216.857 66.1224 217.115 66.8203 217.578 67.3047C218.042 67.7891 218.62 68.0312 219.312 68.0312C219.828 68.0312 220.268 67.8958 220.633 67.625C220.997 67.3542 221.286 66.9219 221.5 66.3281ZM216.883 64.0547H221.516C221.453 63.3568 221.276 62.8333 220.984 62.4844C220.536 61.9427 219.956 61.6719 219.242 61.6719C218.596 61.6719 218.052 61.888 217.609 62.3203C217.172 62.7526 216.93 63.3307 216.883 64.0547ZM224.727 72.1797V60.7031H226.008V61.7812C226.31 61.3594 226.651 61.0443 227.031 60.8359C227.411 60.6224 227.872 60.5156 228.414 60.5156C229.122 60.5156 229.747 60.6979 230.289 61.0625C230.831 61.4271 231.24 61.9427 231.516 62.6094C231.792 63.2708 231.93 63.9974 231.93 64.7891C231.93 65.638 231.776 66.4036 231.469 67.0859C231.167 67.763 230.724 68.2839 230.141 68.6484C229.562 69.0078 228.953 69.1875 228.312 69.1875C227.844 69.1875 227.422 69.0885 227.047 68.8906C226.677 68.6927 226.372 68.4427 226.133 68.1406V72.1797H224.727ZM226 64.8984C226 65.9661 226.216 66.7552 226.648 67.2656C227.081 67.776 227.604 68.0312 228.219 68.0312C228.844 68.0312 229.378 67.7682 229.82 67.2422C230.268 66.7109 230.492 65.8906 230.492 64.7812C230.492 63.724 230.273 62.9323 229.836 62.4062C229.404 61.8802 228.885 61.6172 228.281 61.6172C227.682 61.6172 227.151 61.8984 226.688 62.4609C226.229 63.0182 226 63.8307 226 64.8984ZM239.047 67.9766C238.526 68.4193 238.023 68.7318 237.539 68.9141C237.06 69.0964 236.544 69.1875 235.992 69.1875C235.081 69.1875 234.38 68.9661 233.891 68.5234C233.401 68.0755 233.156 67.5052 233.156 66.8125C233.156 66.4062 233.247 66.0365 233.43 65.7031C233.617 65.3646 233.859 65.0938 234.156 64.8906C234.458 64.6875 234.797 64.5339 235.172 64.4297C235.448 64.3568 235.865 64.2865 236.422 64.2188C237.557 64.0833 238.393 63.9219 238.93 63.7344C238.935 63.5417 238.938 63.4193 238.938 63.3672C238.938 62.7943 238.805 62.3906 238.539 62.1562C238.18 61.8385 237.646 61.6797 236.938 61.6797C236.276 61.6797 235.786 61.7969 235.469 62.0312C235.156 62.2604 234.924 62.6693 234.773 63.2578L233.398 63.0703C233.523 62.4818 233.729 62.0078 234.016 61.6484C234.302 61.2839 234.716 61.0052 235.258 60.8125C235.799 60.6146 236.427 60.5156 237.141 60.5156C237.849 60.5156 238.424 60.599 238.867 60.7656C239.31 60.9323 239.635 61.1432 239.844 61.3984C240.052 61.6484 240.198 61.9661 240.281 62.3516C240.328 62.5911 240.352 63.0234 240.352 63.6484V65.5234C240.352 66.8307 240.38 67.6589 240.438 68.0078C240.5 68.3516 240.62 68.6823 240.797 69H239.328C239.182 68.7083 239.089 68.3672 239.047 67.9766ZM238.93 64.8359C238.419 65.0443 237.654 65.2214 236.633 65.3672C236.055 65.4505 235.646 65.5443 235.406 65.6484C235.167 65.7526 234.982 65.9062 234.852 66.1094C234.721 66.3073 234.656 66.5286 234.656 66.7734C234.656 67.1484 234.797 67.4609 235.078 67.7109C235.365 67.9609 235.781 68.0859 236.328 68.0859C236.87 68.0859 237.352 67.9688 237.773 67.7344C238.195 67.4948 238.505 67.1693 238.703 66.7578C238.854 66.4401 238.93 65.9714 238.93 65.3516V64.8359ZM242.547 60.7031H243.953V64.1562H247.852V60.7031H249.258V69H247.852V65.3203H243.953V69H242.547V60.7031ZM250.625 60.7031H257.367V61.8672H254.695V69H253.297V61.8672H250.625V60.7031ZM258.719 60.7031H260.125V64.1562H264.023V60.7031H265.43V69H264.023V65.3203H260.125V69H258.719V60.7031ZM267.031 64.8516C267.031 63.3151 267.458 62.1771 268.312 61.4375C269.026 60.8229 269.896 60.5156 270.922 60.5156C272.062 60.5156 272.995 60.8906 273.719 61.6406C274.443 62.3854 274.805 63.4167 274.805 64.7344C274.805 65.8021 274.643 66.6432 274.32 67.2578C274.003 67.8672 273.536 68.3411 272.922 68.6797C272.312 69.0182 271.646 69.1875 270.922 69.1875C269.76 69.1875 268.82 68.8151 268.102 68.0703C267.388 67.3255 267.031 66.2526 267.031 64.8516ZM268.477 64.8516C268.477 65.9141 268.708 66.7109 269.172 67.2422C269.635 67.7682 270.219 68.0312 270.922 68.0312C271.62 68.0312 272.201 67.7656 272.664 67.2344C273.128 66.7031 273.359 65.8932 273.359 64.8047C273.359 63.7786 273.125 63.0026 272.656 62.4766C272.193 61.9453 271.615 61.6797 270.922 61.6797C270.219 61.6797 269.635 61.9427 269.172 62.4688C268.708 62.9948 268.477 63.7891 268.477 64.8516ZM281.875 65.9609L283.258 66.1406C283.107 67.0938 282.719 67.8411 282.094 68.3828C281.474 68.9193 280.711 69.1875 279.805 69.1875C278.669 69.1875 277.755 68.8177 277.062 68.0781C276.375 67.3333 276.031 66.2682 276.031 64.8828C276.031 63.987 276.18 63.2031 276.477 62.5312C276.773 61.8594 277.224 61.3568 277.828 61.0234C278.438 60.6849 279.099 60.5156 279.812 60.5156C280.714 60.5156 281.451 60.7448 282.023 61.2031C282.596 61.6562 282.964 62.3021 283.125 63.1406L281.758 63.3516C281.628 62.7943 281.396 62.375 281.062 62.0938C280.734 61.8125 280.336 61.6719 279.867 61.6719C279.159 61.6719 278.583 61.9271 278.141 62.4375C277.698 62.9427 277.477 63.7448 277.477 64.8438C277.477 65.9583 277.69 66.7682 278.117 67.2734C278.544 67.7786 279.102 68.0312 279.789 68.0312C280.341 68.0312 280.802 67.862 281.172 67.5234C281.542 67.1849 281.776 66.6641 281.875 65.9609ZM283.703 60.7031H290.445V61.8672H287.773V69H286.375V61.8672H283.703V60.7031ZM291.789 60.7031H293.195V67.0312L297.094 60.7031H298.609V69H297.203V62.7109L293.305 69H291.789V60.7031ZM305.172 60.7031H306.578V64.2891C307.026 64.2891 307.339 64.2031 307.516 64.0312C307.698 63.8594 307.964 63.3594 308.312 62.5312C308.589 61.875 308.812 61.4427 308.984 61.2344C309.156 61.026 309.354 60.8854 309.578 60.8125C309.802 60.7396 310.161 60.7031 310.656 60.7031H310.938V61.8672L310.547 61.8594C310.177 61.8594 309.94 61.9141 309.836 62.0234C309.727 62.138 309.56 62.4792 309.336 63.0469C309.122 63.5885 308.927 63.9635 308.75 64.1719C308.573 64.3802 308.299 64.5703 307.93 64.7422C308.534 64.9036 309.128 65.4661 309.711 66.4297L311.25 69H309.703L308.203 66.4297C307.896 65.9141 307.628 65.5755 307.398 65.4141C307.169 65.2474 306.896 65.1641 306.578 65.1641V69H305.172V60.7031ZM321.461 57.5469H322.867V61.5078C323.159 61.1745 323.479 60.9271 323.828 60.7656C324.177 60.599 324.552 60.5156 324.953 60.5156C325.938 60.5156 326.716 60.9271 327.289 61.75C327.867 62.5677 328.156 63.599 328.156 64.8438C328.156 66.1406 327.846 67.1901 327.227 67.9922C326.607 68.7891 325.836 69.1875 324.914 69.1875C324.612 69.1875 324.305 69.1406 323.992 69.0469C323.68 68.9531 323.305 68.6979 322.867 68.2812V72.1797H321.461V68.2812C321.18 68.5833 320.867 68.8099 320.523 68.9609C320.185 69.112 319.818 69.1875 319.422 69.1875C318.552 69.1875 317.792 68.8073 317.141 68.0469C316.49 67.2812 316.164 66.1875 316.164 64.7656C316.164 63.5625 316.458 62.5547 317.047 61.7422C317.635 60.9245 318.427 60.5156 319.422 60.5156C319.839 60.5156 320.216 60.599 320.555 60.7656C320.893 60.9271 321.195 61.1745 321.461 61.5078V57.5469ZM322.859 64.8828C322.859 66.1328 323.031 66.974 323.375 67.4062C323.719 67.8333 324.148 68.0469 324.664 68.0469C325.237 68.0469 325.724 67.7839 326.125 67.2578C326.531 66.7266 326.734 65.9036 326.734 64.7891C326.734 63.737 326.547 62.9531 326.172 62.4375C325.802 61.9219 325.326 61.6641 324.742 61.6641C324.117 61.6641 323.646 61.9323 323.328 62.4688C323.016 63.0052 322.859 63.8099 322.859 64.8828ZM317.594 64.7266C317.594 65.8984 317.789 66.7422 318.18 67.2578C318.576 67.7734 319.065 68.0312 319.648 68.0312C320.258 68.0312 320.714 67.776 321.016 67.2656C321.318 66.75 321.469 65.9792 321.469 64.9531C321.469 63.8594 321.31 63.0391 320.992 62.4922C320.674 61.9453 320.195 61.6719 319.555 61.6719C318.977 61.6719 318.505 61.9401 318.141 62.4766C317.776 63.0078 317.594 63.7578 317.594 64.7266ZM329.805 60.7031H331.211V67.0312L335.109 60.7031H336.625V69H335.219V62.7109L331.32 69H329.805V60.7031ZM340.578 65.25V64.1484C341.172 64.1432 341.576 64.1198 341.789 64.0781C342.008 64.0365 342.214 63.9115 342.406 63.7031C342.599 63.4948 342.695 63.2344 342.695 62.9219C342.695 62.5417 342.568 62.2396 342.312 62.0156C342.062 61.7865 341.737 61.6719 341.336 61.6719C340.544 61.6719 339.99 62.138 339.672 63.0703L338.336 62.8516C338.753 61.2943 339.758 60.5156 341.352 60.5156C342.237 60.5156 342.93 60.7578 343.43 61.2422C343.935 61.7266 344.188 62.3047 344.188 62.9766C344.188 63.6536 343.859 64.1927 343.203 64.5938C343.62 64.8177 343.932 65.1042 344.141 65.4531C344.349 65.7969 344.453 66.2057 344.453 66.6797C344.453 67.4245 344.182 68.0286 343.641 68.4922C343.099 68.9557 342.341 69.1875 341.367 69.1875C339.477 69.1875 338.38 68.3464 338.078 66.6641L339.398 66.3828C339.518 66.9141 339.76 67.3255 340.125 67.6172C340.495 67.9089 340.917 68.0547 341.391 68.0547C341.865 68.0547 342.258 67.9219 342.57 67.6562C342.888 67.3854 343.047 67.0417 343.047 66.625C343.047 66.3021 342.948 66.0208 342.75 65.7812C342.552 65.5417 342.341 65.3932 342.117 65.3359C341.893 65.2734 341.487 65.2422 340.898 65.2422C340.852 65.2422 340.745 65.2448 340.578 65.25ZM346.094 60.7031H347.5V64.1562H351.398V60.7031H352.805V69H351.398V65.3203H347.5V69H346.094V60.7031ZM360.344 67.9766C359.823 68.4193 359.32 68.7318 358.836 68.9141C358.357 69.0964 357.841 69.1875 357.289 69.1875C356.378 69.1875 355.677 68.9661 355.188 68.5234C354.698 68.0755 354.453 67.5052 354.453 66.8125C354.453 66.4062 354.544 66.0365 354.727 65.7031C354.914 65.3646 355.156 65.0938 355.453 64.8906C355.755 64.6875 356.094 64.5339 356.469 64.4297C356.745 64.3568 357.161 64.2865 357.719 64.2188C358.854 64.0833 359.69 63.9219 360.227 63.7344C360.232 63.5417 360.234 63.4193 360.234 63.3672C360.234 62.7943 360.102 62.3906 359.836 62.1562C359.477 61.8385 358.943 61.6797 358.234 61.6797C357.573 61.6797 357.083 61.7969 356.766 62.0312C356.453 62.2604 356.221 62.6693 356.07 63.2578L354.695 63.0703C354.82 62.4818 355.026 62.0078 355.312 61.6484C355.599 61.2839 356.013 61.0052 356.555 60.8125C357.096 60.6146 357.724 60.5156 358.438 60.5156C359.146 60.5156 359.721 60.599 360.164 60.7656C360.607 60.9323 360.932 61.1432 361.141 61.3984C361.349 61.6484 361.495 61.9661 361.578 62.3516C361.625 62.5911 361.648 63.0234 361.648 63.6484V65.5234C361.648 66.8307 361.677 67.6589 361.734 68.0078C361.797 68.3516 361.917 68.6823 362.094 69H360.625C360.479 68.7083 360.385 68.3672 360.344 67.9766ZM360.227 64.8359C359.716 65.0443 358.951 65.2214 357.93 65.3672C357.352 65.4505 356.943 65.5443 356.703 65.6484C356.464 65.7526 356.279 65.9062 356.148 66.1094C356.018 66.3073 355.953 66.5286 355.953 66.7734C355.953 67.1484 356.094 67.4609 356.375 67.7109C356.661 67.9609 357.078 68.0859 357.625 68.0859C358.167 68.0859 358.648 67.9688 359.07 67.7344C359.492 67.4948 359.802 67.1693 360 66.7578C360.151 66.4401 360.227 65.9714 360.227 65.3516V64.8359ZM363.844 60.7031H368.617V61.8672H365.25V69H363.844V60.7031ZM369.68 72.1797V60.7031H370.961V61.7812C371.263 61.3594 371.604 61.0443 371.984 60.8359C372.365 60.6224 372.826 60.5156 373.367 60.5156C374.076 60.5156 374.701 60.6979 375.242 61.0625C375.784 61.4271 376.193 61.9427 376.469 62.6094C376.745 63.2708 376.883 63.9974 376.883 64.7891C376.883 65.638 376.729 66.4036 376.422 67.0859C376.12 67.763 375.677 68.2839 375.094 68.6484C374.516 69.0078 373.906 69.1875 373.266 69.1875C372.797 69.1875 372.375 69.0885 372 68.8906C371.63 68.6927 371.326 68.4427 371.086 68.1406V72.1797H369.68ZM370.953 64.8984C370.953 65.9661 371.169 66.7552 371.602 67.2656C372.034 67.776 372.557 68.0312 373.172 68.0312C373.797 68.0312 374.331 67.7682 374.773 67.2422C375.221 66.7109 375.445 65.8906 375.445 64.7812C375.445 63.724 375.227 62.9323 374.789 62.4062C374.357 61.8802 373.839 61.6172 373.234 61.6172C372.635 61.6172 372.104 61.8984 371.641 62.4609C371.182 63.0182 370.953 63.8307 370.953 64.8984ZM378.336 72.1953L378.18 70.875C378.487 70.9583 378.755 71 378.984 71C379.297 71 379.547 70.9479 379.734 70.8438C379.922 70.7396 380.076 70.5938 380.195 70.4062C380.284 70.2656 380.427 69.9167 380.625 69.3594C380.651 69.2812 380.693 69.1667 380.75 69.0156L377.602 60.7031H379.117L380.844 65.5078C381.068 66.1172 381.268 66.7578 381.445 67.4297C381.607 66.7839 381.799 66.1536 382.023 65.5391L383.797 60.7031H385.203L382.047 69.1406C381.708 70.0521 381.445 70.6797 381.258 71.0234C381.008 71.487 380.721 71.8255 380.398 72.0391C380.076 72.2578 379.69 72.3672 379.242 72.3672C378.971 72.3672 378.669 72.3099 378.336 72.1953ZM388.234 65.25V64.1484C388.828 64.1432 389.232 64.1198 389.445 64.0781C389.664 64.0365 389.87 63.9115 390.062 63.7031C390.255 63.4948 390.352 63.2344 390.352 62.9219C390.352 62.5417 390.224 62.2396 389.969 62.0156C389.719 61.7865 389.393 61.6719 388.992 61.6719C388.201 61.6719 387.646 62.138 387.328 63.0703L385.992 62.8516C386.409 61.2943 387.414 60.5156 389.008 60.5156C389.893 60.5156 390.586 60.7578 391.086 61.2422C391.591 61.7266 391.844 62.3047 391.844 62.9766C391.844 63.6536 391.516 64.1927 390.859 64.5938C391.276 64.8177 391.589 65.1042 391.797 65.4531C392.005 65.7969 392.109 66.2057 392.109 66.6797C392.109 67.4245 391.839 68.0286 391.297 68.4922C390.755 68.9557 389.997 69.1875 389.023 69.1875C387.133 69.1875 386.036 68.3464 385.734 66.6641L387.055 66.3828C387.174 66.9141 387.417 67.3255 387.781 67.6172C388.151 67.9089 388.573 68.0547 389.047 68.0547C389.521 68.0547 389.914 67.9219 390.227 67.6562C390.544 67.3854 390.703 67.0417 390.703 66.625C390.703 66.3021 390.604 66.0208 390.406 65.7812C390.208 65.5417 389.997 65.3932 389.773 65.3359C389.549 65.2734 389.143 65.2422 388.555 65.2422C388.508 65.2422 388.401 65.2448 388.234 65.25ZM393.734 60.7031H395.141V64.2891C395.589 64.2891 395.901 64.2031 396.078 64.0312C396.26 63.8594 396.526 63.3594 396.875 62.5312C397.151 61.875 397.375 61.4427 397.547 61.2344C397.719 61.026 397.917 60.8854 398.141 60.8125C398.365 60.7396 398.724 60.7031 399.219 60.7031H399.5V61.8672L399.109 61.8594C398.74 61.8594 398.503 61.9141 398.398 62.0234C398.289 62.138 398.122 62.4792 397.898 63.0469C397.685 63.5885 397.49 63.9635 397.312 64.1719C397.135 64.3802 396.862 64.5703 396.492 64.7422C397.096 64.9036 397.69 65.4661 398.273 66.4297L399.812 69H398.266L396.766 66.4297C396.458 65.9141 396.19 65.5755 395.961 65.4141C395.732 65.2474 395.458 65.1641 395.141 65.1641V69H393.734V60.7031ZM406.516 67.9766C405.995 68.4193 405.492 68.7318 405.008 68.9141C404.529 69.0964 404.013 69.1875 403.461 69.1875C402.549 69.1875 401.849 68.9661 401.359 68.5234C400.87 68.0755 400.625 67.5052 400.625 66.8125C400.625 66.4062 400.716 66.0365 400.898 65.7031C401.086 65.3646 401.328 65.0938 401.625 64.8906C401.927 64.6875 402.266 64.5339 402.641 64.4297C402.917 64.3568 403.333 64.2865 403.891 64.2188C405.026 64.0833 405.862 63.9219 406.398 63.7344C406.404 63.5417 406.406 63.4193 406.406 63.3672C406.406 62.7943 406.273 62.3906 406.008 62.1562C405.648 61.8385 405.115 61.6797 404.406 61.6797C403.745 61.6797 403.255 61.7969 402.938 62.0312C402.625 62.2604 402.393 62.6693 402.242 63.2578L400.867 63.0703C400.992 62.4818 401.198 62.0078 401.484 61.6484C401.771 61.2839 402.185 61.0052 402.727 60.8125C403.268 60.6146 403.896 60.5156 404.609 60.5156C405.318 60.5156 405.893 60.599 406.336 60.7656C406.779 60.9323 407.104 61.1432 407.312 61.3984C407.521 61.6484 407.667 61.9661 407.75 62.3516C407.797 62.5911 407.82 63.0234 407.82 63.6484V65.5234C407.82 66.8307 407.849 67.6589 407.906 68.0078C407.969 68.3516 408.089 68.6823 408.266 69H406.797C406.651 68.7083 406.557 68.3672 406.516 67.9766ZM406.398 64.8359C405.888 65.0443 405.122 65.2214 404.102 65.3672C403.523 65.4505 403.115 65.5443 402.875 65.6484C402.635 65.7526 402.451 65.9062 402.32 66.1094C402.19 66.3073 402.125 66.5286 402.125 66.7734C402.125 67.1484 402.266 67.4609 402.547 67.7109C402.833 67.9609 403.25 68.0859 403.797 68.0859C404.339 68.0859 404.82 67.9688 405.242 67.7344C405.664 67.4948 405.974 67.1693 406.172 66.7578C406.323 66.4401 406.398 65.9714 406.398 65.3516V64.8359ZM410.047 60.7031H412.234L414.414 67.3438L416.836 60.7031H418.859V69H417.453V62.3203L415 69H413.742L411.422 62V69H410.047V60.7031ZM421.406 69V67.3984H423.008V69H421.406Z" fill="black"/>
<defs>
<linearGradient id="paint0_linear_12_230" x1="0" y1="42.5" x2="540" y2="42.5" gradientUnits="userSpaceOnUse">
<stop stop-color="#9E9E9D"/>
<stop offset="1" stop-color="#DCDCDC"/>
</linearGradient>
</defs>
</svg>
