<svg width="26" height="26" viewBox="0 0 26 26" fill="none" xmlns="http://www.w3.org/2000/svg">
<path d="M11.375 16.5208C11.166 16.5048 10.9715 16.4076 10.8333 16.2499L7.58332 12.9999C7.51091 12.8483 7.48729 12.678 7.5157 12.5124C7.54411 12.3468 7.62317 12.1941 7.74197 12.0753C7.86078 11.9564 8.0135 11.8774 8.1791 11.849C8.3447 11.8206 8.51504 11.8442 8.66666 11.9166L11.3425 14.5924L20.5833 5.41661C20.7349 5.3442 20.9053 5.32057 21.0709 5.34898C21.2365 5.37739 21.3892 5.45645 21.508 5.57526C21.6268 5.69407 21.7059 5.84678 21.7343 6.01239C21.7627 6.17799 21.7391 6.34832 21.6667 6.49994L11.9167 16.2499C11.7785 16.4076 11.584 16.5048 11.375 16.5208Z" fill="white"/>
<path d="M13 22.75C11.2574 22.7472 9.54743 22.2775 8.04799 21.3896C6.54856 20.5018 5.31447 19.2283 4.47416 17.7017C3.83541 16.5642 3.44064 15.3061 3.315 14.0075C3.11672 12.1031 3.48357 10.1825 4.36978 8.4852C5.25598 6.78793 6.62231 5.38915 8.29833 4.46337C9.43585 3.82462 10.694 3.42984 11.9925 3.3042C13.2862 3.16504 14.5946 3.29036 15.8383 3.67253C15.9493 3.69471 16.0545 3.73983 16.147 3.80501C16.2395 3.87019 16.3174 3.95399 16.3757 4.05103C16.434 4.14807 16.4713 4.25621 16.4854 4.36853C16.4994 4.48085 16.4898 4.59486 16.4572 4.70325C16.4246 4.81165 16.3697 4.91204 16.2961 4.99799C16.2224 5.08394 16.1316 5.15355 16.0295 5.20236C15.9274 5.25117 15.8162 5.2781 15.703 5.28143C15.5899 5.28476 15.4773 5.26442 15.3725 5.2217C14.3201 4.90528 13.2152 4.80215 12.1225 4.91837C11.0424 5.02896 9.99586 5.35693 9.04583 5.88253C8.13055 6.38748 7.32132 7.06429 6.6625 7.87587C5.98418 8.70262 5.47765 9.65642 5.17257 10.6814C4.8675 11.7064 4.77002 12.7819 4.88583 13.845C4.99643 14.9251 5.32439 15.9717 5.85 16.9217C6.35494 17.837 7.03176 18.6462 7.84333 19.305C8.67008 19.9833 9.62388 20.4899 10.6489 20.795C11.6738 21.1 12.7494 21.1975 13.8125 21.0817C14.8926 20.9711 15.9391 20.6431 16.8892 20.1175C17.8044 19.6126 18.6137 18.9358 19.2725 18.1242C19.9508 17.2974 20.4573 16.3436 20.7624 15.3187C21.0675 14.2937 21.165 13.2182 21.0492 12.155C21.0276 11.9295 21.0965 11.7046 21.2408 11.5299C21.385 11.3552 21.5928 11.2449 21.8183 11.2234C22.0439 11.2018 22.2687 11.2707 22.4435 11.415C22.6182 11.5592 22.7284 11.767 22.75 11.9925C22.9473 13.8981 22.5788 15.8195 21.6906 17.5169C20.8024 19.2143 19.4338 20.6124 17.7558 21.5367C16.6062 22.2016 15.3287 22.6151 14.0075 22.75H13Z" fill="white"/>
</svg>
