<svg width="174" height="174" viewBox="0 0 174 174" fill="none" xmlns="http://www.w3.org/2000/svg">
<path fill-rule="evenodd" clip-rule="evenodd" d="M76.4875 145.218L87 154.788L97.5125 145.218C134.85 111.36 159.5 88.9575 159.5 61.625C159.5 39.2225 141.955 21.75 119.625 21.75C107.01 21.75 94.9025 27.6225 87 36.83C79.0975 27.6225 66.99 21.75 54.375 21.75C32.045 21.75 14.5 39.2225 14.5 61.625C14.5 69.1779 16.3823 76.3543 19.8944 83.5H37.622L44.3915 69.5627C45.8575 66.5444 50.1646 66.5639 51.6032 69.5954L62 91.5028L72.3968 69.5954C73.8354 66.5639 78.1425 66.5444 79.6085 69.5627L86.378 83.5H106.5C108.157 83.5 109.5 84.8431 109.5 86.5C109.5 88.1569 108.157 89.5 106.5 89.5H85.126C83.5943 89.5 82.1972 88.6254 81.528 87.2476L76.0314 75.9311L65.6137 97.8826C64.1678 100.929 59.8322 100.929 58.3863 97.8826L47.9686 75.9311L42.472 87.2476C41.8028 88.6254 40.4057 89.5 38.874 89.5H23.2207C33.523 106.237 52.3552 123.334 76.4875 145.218Z" fill="#BB1F2B"/>
</svg>
